M48
; DRILL file {KiCad (5.1.5)-3} date 3/17/2021 3:34:16 PM
; FORMAT={-:-/ absolute / inch / decimal}
; #@! TF.CreationDate,2021-03-17T15:34:16-05:00
; #@! TF.GenerationSoftware,Kicad,Pcbnew,(5.1.5)-3
; #@! TF.FileFunction,Plated,1,2,PTH
FMAT,2
INCH
T1C0.0118
T2C0.0157
T3C0.0236
T4C0.0335
T5C0.0394
T6C0.0492
%
G90
G05
T1
X4.8689Y-3.519
X4.88Y-3.35
X4.88Y-3.39
X4.8856Y-3.5864
X4.8886Y-3.5435
X4.905Y-3.6164
X4.94Y-3.635
X4.95Y-3.855
X4.9577Y-3.2423
X4.96Y-4.06
X4.9777Y-3.2623
X4.978Y-3.294
X4.9988Y-3.4121
X4.9988Y-3.4456
X5.1Y-3.06
X5.1083Y-3.5223
X5.118Y-3.3798
X5.1184Y-3.4796
X5.14Y-3.99
X5.1614Y-3.695
X5.1946Y-3.6118
X5.2Y-3.34
X5.2154Y-3.5882
X5.22Y-3.37
X5.221Y-3.4024
X5.226Y-3.5572
X5.2266Y-3.5243
T2
X4.9421Y-3.1579
X5.004Y-3.4842
T4
X4.9516Y-3.0076
X5.1484Y-3.0076
T5
X5.3Y-3.0
X5.3Y-3.1
X5.3Y-3.2
X5.3Y-3.3
X5.3Y-3.4
X5.3Y-3.5
X5.3Y-3.6
X5.3Y-3.7
X5.3Y-3.8
X5.3Y-3.9
X5.3Y-4.0
X5.3Y-4.1
X4.8Y-3.0
X4.8Y-3.1
X4.8Y-3.2
X4.8Y-3.3
X4.8Y-3.4
X4.8Y-3.5
X4.8Y-3.6
X4.8Y-3.7
X4.8Y-3.8
X4.8Y-3.9
X4.8Y-4.0
X4.8Y-4.1
X5.0Y-3.78
X5.1Y-3.78
T6
X4.922Y-3.92
X5.178Y-3.92
T3
G00X4.9122Y-2.9151
M15
G01X4.9122Y-2.8875
M16
G05
G00X5.1878Y-2.8875
M15
G01X5.1878Y-2.9151
M16
G05
T0
M30
