G04 #@! TF.GenerationSoftware,KiCad,Pcbnew,(5.1.5)-3*
G04 #@! TF.CreationDate,2020-12-19T00:41:02-05:00*
G04 #@! TF.ProjectId,STM32_Breakout,53544d33-325f-4427-9265-616b6f75742e,rev?*
G04 #@! TF.SameCoordinates,Original*
G04 #@! TF.FileFunction,Paste,Bot*
G04 #@! TF.FilePolarity,Positive*
%FSLAX46Y46*%
G04 Gerber Fmt 4.6, Leading zero omitted, Abs format (unit mm)*
G04 Created by KiCad (PCBNEW (5.1.5)-3) date 2020-12-19 00:41:02*
%MOMM*%
%LPD*%
G04 APERTURE LIST*
%ADD10R,1.450000X0.450000*%
%ADD11C,0.100000*%
%ADD12R,0.650000X1.060000*%
G04 APERTURE END LIST*
D10*
X125320000Y-85467000D03*
X125320000Y-86117000D03*
X125320000Y-86767000D03*
X125320000Y-87417000D03*
X125320000Y-88067000D03*
X125320000Y-88717000D03*
X125320000Y-89367000D03*
X125320000Y-90017000D03*
X125320000Y-90667000D03*
X125320000Y-91317000D03*
X131220000Y-91317000D03*
X131220000Y-90667000D03*
X131220000Y-90017000D03*
X131220000Y-89367000D03*
X131220000Y-88717000D03*
X131220000Y-88067000D03*
X131220000Y-87417000D03*
X131220000Y-86767000D03*
X131220000Y-86117000D03*
X131220000Y-85467000D03*
D11*
G36*
X131919505Y-83001204D02*
G01*
X131943773Y-83004804D01*
X131967572Y-83010765D01*
X131990671Y-83019030D01*
X132012850Y-83029520D01*
X132033893Y-83042132D01*
X132053599Y-83056747D01*
X132071777Y-83073223D01*
X132088253Y-83091401D01*
X132102868Y-83111107D01*
X132115480Y-83132150D01*
X132125970Y-83154329D01*
X132134235Y-83177428D01*
X132140196Y-83201227D01*
X132143796Y-83225495D01*
X132145000Y-83249999D01*
X132145000Y-83900001D01*
X132143796Y-83924505D01*
X132140196Y-83948773D01*
X132134235Y-83972572D01*
X132125970Y-83995671D01*
X132115480Y-84017850D01*
X132102868Y-84038893D01*
X132088253Y-84058599D01*
X132071777Y-84076777D01*
X132053599Y-84093253D01*
X132033893Y-84107868D01*
X132012850Y-84120480D01*
X131990671Y-84130970D01*
X131967572Y-84139235D01*
X131943773Y-84145196D01*
X131919505Y-84148796D01*
X131895001Y-84150000D01*
X130994999Y-84150000D01*
X130970495Y-84148796D01*
X130946227Y-84145196D01*
X130922428Y-84139235D01*
X130899329Y-84130970D01*
X130877150Y-84120480D01*
X130856107Y-84107868D01*
X130836401Y-84093253D01*
X130818223Y-84076777D01*
X130801747Y-84058599D01*
X130787132Y-84038893D01*
X130774520Y-84017850D01*
X130764030Y-83995671D01*
X130755765Y-83972572D01*
X130749804Y-83948773D01*
X130746204Y-83924505D01*
X130745000Y-83900001D01*
X130745000Y-83249999D01*
X130746204Y-83225495D01*
X130749804Y-83201227D01*
X130755765Y-83177428D01*
X130764030Y-83154329D01*
X130774520Y-83132150D01*
X130787132Y-83111107D01*
X130801747Y-83091401D01*
X130818223Y-83073223D01*
X130836401Y-83056747D01*
X130856107Y-83042132D01*
X130877150Y-83029520D01*
X130899329Y-83019030D01*
X130922428Y-83010765D01*
X130946227Y-83004804D01*
X130970495Y-83001204D01*
X130994999Y-83000000D01*
X131895001Y-83000000D01*
X131919505Y-83001204D01*
G37*
G36*
X131919505Y-80951204D02*
G01*
X131943773Y-80954804D01*
X131967572Y-80960765D01*
X131990671Y-80969030D01*
X132012850Y-80979520D01*
X132033893Y-80992132D01*
X132053599Y-81006747D01*
X132071777Y-81023223D01*
X132088253Y-81041401D01*
X132102868Y-81061107D01*
X132115480Y-81082150D01*
X132125970Y-81104329D01*
X132134235Y-81127428D01*
X132140196Y-81151227D01*
X132143796Y-81175495D01*
X132145000Y-81199999D01*
X132145000Y-81850001D01*
X132143796Y-81874505D01*
X132140196Y-81898773D01*
X132134235Y-81922572D01*
X132125970Y-81945671D01*
X132115480Y-81967850D01*
X132102868Y-81988893D01*
X132088253Y-82008599D01*
X132071777Y-82026777D01*
X132053599Y-82043253D01*
X132033893Y-82057868D01*
X132012850Y-82070480D01*
X131990671Y-82080970D01*
X131967572Y-82089235D01*
X131943773Y-82095196D01*
X131919505Y-82098796D01*
X131895001Y-82100000D01*
X130994999Y-82100000D01*
X130970495Y-82098796D01*
X130946227Y-82095196D01*
X130922428Y-82089235D01*
X130899329Y-82080970D01*
X130877150Y-82070480D01*
X130856107Y-82057868D01*
X130836401Y-82043253D01*
X130818223Y-82026777D01*
X130801747Y-82008599D01*
X130787132Y-81988893D01*
X130774520Y-81967850D01*
X130764030Y-81945671D01*
X130755765Y-81922572D01*
X130749804Y-81898773D01*
X130746204Y-81874505D01*
X130745000Y-81850001D01*
X130745000Y-81199999D01*
X130746204Y-81175495D01*
X130749804Y-81151227D01*
X130755765Y-81127428D01*
X130764030Y-81104329D01*
X130774520Y-81082150D01*
X130787132Y-81061107D01*
X130801747Y-81041401D01*
X130818223Y-81023223D01*
X130836401Y-81006747D01*
X130856107Y-80992132D01*
X130877150Y-80979520D01*
X130899329Y-80969030D01*
X130922428Y-80960765D01*
X130946227Y-80954804D01*
X130970495Y-80951204D01*
X130994999Y-80950000D01*
X131895001Y-80950000D01*
X131919505Y-80951204D01*
G37*
D12*
X127320000Y-83650000D03*
X129220000Y-83650000D03*
X129220000Y-81450000D03*
X128270000Y-81450000D03*
X127320000Y-81450000D03*
D11*
G36*
X130014505Y-99765204D02*
G01*
X130038773Y-99768804D01*
X130062572Y-99774765D01*
X130085671Y-99783030D01*
X130107850Y-99793520D01*
X130128893Y-99806132D01*
X130148599Y-99820747D01*
X130166777Y-99837223D01*
X130183253Y-99855401D01*
X130197868Y-99875107D01*
X130210480Y-99896150D01*
X130220970Y-99918329D01*
X130229235Y-99941428D01*
X130235196Y-99965227D01*
X130238796Y-99989495D01*
X130240000Y-100013999D01*
X130240000Y-100664001D01*
X130238796Y-100688505D01*
X130235196Y-100712773D01*
X130229235Y-100736572D01*
X130220970Y-100759671D01*
X130210480Y-100781850D01*
X130197868Y-100802893D01*
X130183253Y-100822599D01*
X130166777Y-100840777D01*
X130148599Y-100857253D01*
X130128893Y-100871868D01*
X130107850Y-100884480D01*
X130085671Y-100894970D01*
X130062572Y-100903235D01*
X130038773Y-100909196D01*
X130014505Y-100912796D01*
X129990001Y-100914000D01*
X129089999Y-100914000D01*
X129065495Y-100912796D01*
X129041227Y-100909196D01*
X129017428Y-100903235D01*
X128994329Y-100894970D01*
X128972150Y-100884480D01*
X128951107Y-100871868D01*
X128931401Y-100857253D01*
X128913223Y-100840777D01*
X128896747Y-100822599D01*
X128882132Y-100802893D01*
X128869520Y-100781850D01*
X128859030Y-100759671D01*
X128850765Y-100736572D01*
X128844804Y-100712773D01*
X128841204Y-100688505D01*
X128840000Y-100664001D01*
X128840000Y-100013999D01*
X128841204Y-99989495D01*
X128844804Y-99965227D01*
X128850765Y-99941428D01*
X128859030Y-99918329D01*
X128869520Y-99896150D01*
X128882132Y-99875107D01*
X128896747Y-99855401D01*
X128913223Y-99837223D01*
X128931401Y-99820747D01*
X128951107Y-99806132D01*
X128972150Y-99793520D01*
X128994329Y-99783030D01*
X129017428Y-99774765D01*
X129041227Y-99768804D01*
X129065495Y-99765204D01*
X129089999Y-99764000D01*
X129990001Y-99764000D01*
X130014505Y-99765204D01*
G37*
G36*
X130014505Y-97715204D02*
G01*
X130038773Y-97718804D01*
X130062572Y-97724765D01*
X130085671Y-97733030D01*
X130107850Y-97743520D01*
X130128893Y-97756132D01*
X130148599Y-97770747D01*
X130166777Y-97787223D01*
X130183253Y-97805401D01*
X130197868Y-97825107D01*
X130210480Y-97846150D01*
X130220970Y-97868329D01*
X130229235Y-97891428D01*
X130235196Y-97915227D01*
X130238796Y-97939495D01*
X130240000Y-97963999D01*
X130240000Y-98614001D01*
X130238796Y-98638505D01*
X130235196Y-98662773D01*
X130229235Y-98686572D01*
X130220970Y-98709671D01*
X130210480Y-98731850D01*
X130197868Y-98752893D01*
X130183253Y-98772599D01*
X130166777Y-98790777D01*
X130148599Y-98807253D01*
X130128893Y-98821868D01*
X130107850Y-98834480D01*
X130085671Y-98844970D01*
X130062572Y-98853235D01*
X130038773Y-98859196D01*
X130014505Y-98862796D01*
X129990001Y-98864000D01*
X129089999Y-98864000D01*
X129065495Y-98862796D01*
X129041227Y-98859196D01*
X129017428Y-98853235D01*
X128994329Y-98844970D01*
X128972150Y-98834480D01*
X128951107Y-98821868D01*
X128931401Y-98807253D01*
X128913223Y-98790777D01*
X128896747Y-98772599D01*
X128882132Y-98752893D01*
X128869520Y-98731850D01*
X128859030Y-98709671D01*
X128850765Y-98686572D01*
X128844804Y-98662773D01*
X128841204Y-98638505D01*
X128840000Y-98614001D01*
X128840000Y-97963999D01*
X128841204Y-97939495D01*
X128844804Y-97915227D01*
X128850765Y-97891428D01*
X128859030Y-97868329D01*
X128869520Y-97846150D01*
X128882132Y-97825107D01*
X128896747Y-97805401D01*
X128913223Y-97787223D01*
X128931401Y-97770747D01*
X128951107Y-97756132D01*
X128972150Y-97743520D01*
X128994329Y-97733030D01*
X129017428Y-97724765D01*
X129041227Y-97718804D01*
X129065495Y-97715204D01*
X129089999Y-97714000D01*
X129990001Y-97714000D01*
X130014505Y-97715204D01*
G37*
G36*
X129880505Y-101409204D02*
G01*
X129904773Y-101412804D01*
X129928572Y-101418765D01*
X129951671Y-101427030D01*
X129973850Y-101437520D01*
X129994893Y-101450132D01*
X130014599Y-101464747D01*
X130032777Y-101481223D01*
X130049253Y-101499401D01*
X130063868Y-101519107D01*
X130076480Y-101540150D01*
X130086970Y-101562329D01*
X130095235Y-101585428D01*
X130101196Y-101609227D01*
X130104796Y-101633495D01*
X130106000Y-101657999D01*
X130106000Y-102558001D01*
X130104796Y-102582505D01*
X130101196Y-102606773D01*
X130095235Y-102630572D01*
X130086970Y-102653671D01*
X130076480Y-102675850D01*
X130063868Y-102696893D01*
X130049253Y-102716599D01*
X130032777Y-102734777D01*
X130014599Y-102751253D01*
X129994893Y-102765868D01*
X129973850Y-102778480D01*
X129951671Y-102788970D01*
X129928572Y-102797235D01*
X129904773Y-102803196D01*
X129880505Y-102806796D01*
X129856001Y-102808000D01*
X129205999Y-102808000D01*
X129181495Y-102806796D01*
X129157227Y-102803196D01*
X129133428Y-102797235D01*
X129110329Y-102788970D01*
X129088150Y-102778480D01*
X129067107Y-102765868D01*
X129047401Y-102751253D01*
X129029223Y-102734777D01*
X129012747Y-102716599D01*
X128998132Y-102696893D01*
X128985520Y-102675850D01*
X128975030Y-102653671D01*
X128966765Y-102630572D01*
X128960804Y-102606773D01*
X128957204Y-102582505D01*
X128956000Y-102558001D01*
X128956000Y-101657999D01*
X128957204Y-101633495D01*
X128960804Y-101609227D01*
X128966765Y-101585428D01*
X128975030Y-101562329D01*
X128985520Y-101540150D01*
X128998132Y-101519107D01*
X129012747Y-101499401D01*
X129029223Y-101481223D01*
X129047401Y-101464747D01*
X129067107Y-101450132D01*
X129088150Y-101437520D01*
X129110329Y-101427030D01*
X129133428Y-101418765D01*
X129157227Y-101412804D01*
X129181495Y-101409204D01*
X129205999Y-101408000D01*
X129856001Y-101408000D01*
X129880505Y-101409204D01*
G37*
G36*
X131930505Y-101409204D02*
G01*
X131954773Y-101412804D01*
X131978572Y-101418765D01*
X132001671Y-101427030D01*
X132023850Y-101437520D01*
X132044893Y-101450132D01*
X132064599Y-101464747D01*
X132082777Y-101481223D01*
X132099253Y-101499401D01*
X132113868Y-101519107D01*
X132126480Y-101540150D01*
X132136970Y-101562329D01*
X132145235Y-101585428D01*
X132151196Y-101609227D01*
X132154796Y-101633495D01*
X132156000Y-101657999D01*
X132156000Y-102558001D01*
X132154796Y-102582505D01*
X132151196Y-102606773D01*
X132145235Y-102630572D01*
X132136970Y-102653671D01*
X132126480Y-102675850D01*
X132113868Y-102696893D01*
X132099253Y-102716599D01*
X132082777Y-102734777D01*
X132064599Y-102751253D01*
X132044893Y-102765868D01*
X132023850Y-102778480D01*
X132001671Y-102788970D01*
X131978572Y-102797235D01*
X131954773Y-102803196D01*
X131930505Y-102806796D01*
X131906001Y-102808000D01*
X131255999Y-102808000D01*
X131231495Y-102806796D01*
X131207227Y-102803196D01*
X131183428Y-102797235D01*
X131160329Y-102788970D01*
X131138150Y-102778480D01*
X131117107Y-102765868D01*
X131097401Y-102751253D01*
X131079223Y-102734777D01*
X131062747Y-102716599D01*
X131048132Y-102696893D01*
X131035520Y-102675850D01*
X131025030Y-102653671D01*
X131016765Y-102630572D01*
X131010804Y-102606773D01*
X131007204Y-102582505D01*
X131006000Y-102558001D01*
X131006000Y-101657999D01*
X131007204Y-101633495D01*
X131010804Y-101609227D01*
X131016765Y-101585428D01*
X131025030Y-101562329D01*
X131035520Y-101540150D01*
X131048132Y-101519107D01*
X131062747Y-101499401D01*
X131079223Y-101481223D01*
X131097401Y-101464747D01*
X131117107Y-101450132D01*
X131138150Y-101437520D01*
X131160329Y-101427030D01*
X131183428Y-101418765D01*
X131207227Y-101412804D01*
X131231495Y-101409204D01*
X131255999Y-101408000D01*
X131906001Y-101408000D01*
X131930505Y-101409204D01*
G37*
G36*
X127358505Y-101409204D02*
G01*
X127382773Y-101412804D01*
X127406572Y-101418765D01*
X127429671Y-101427030D01*
X127451850Y-101437520D01*
X127472893Y-101450132D01*
X127492599Y-101464747D01*
X127510777Y-101481223D01*
X127527253Y-101499401D01*
X127541868Y-101519107D01*
X127554480Y-101540150D01*
X127564970Y-101562329D01*
X127573235Y-101585428D01*
X127579196Y-101609227D01*
X127582796Y-101633495D01*
X127584000Y-101657999D01*
X127584000Y-102558001D01*
X127582796Y-102582505D01*
X127579196Y-102606773D01*
X127573235Y-102630572D01*
X127564970Y-102653671D01*
X127554480Y-102675850D01*
X127541868Y-102696893D01*
X127527253Y-102716599D01*
X127510777Y-102734777D01*
X127492599Y-102751253D01*
X127472893Y-102765868D01*
X127451850Y-102778480D01*
X127429671Y-102788970D01*
X127406572Y-102797235D01*
X127382773Y-102803196D01*
X127358505Y-102806796D01*
X127334001Y-102808000D01*
X126683999Y-102808000D01*
X126659495Y-102806796D01*
X126635227Y-102803196D01*
X126611428Y-102797235D01*
X126588329Y-102788970D01*
X126566150Y-102778480D01*
X126545107Y-102765868D01*
X126525401Y-102751253D01*
X126507223Y-102734777D01*
X126490747Y-102716599D01*
X126476132Y-102696893D01*
X126463520Y-102675850D01*
X126453030Y-102653671D01*
X126444765Y-102630572D01*
X126438804Y-102606773D01*
X126435204Y-102582505D01*
X126434000Y-102558001D01*
X126434000Y-101657999D01*
X126435204Y-101633495D01*
X126438804Y-101609227D01*
X126444765Y-101585428D01*
X126453030Y-101562329D01*
X126463520Y-101540150D01*
X126476132Y-101519107D01*
X126490747Y-101499401D01*
X126507223Y-101481223D01*
X126525401Y-101464747D01*
X126545107Y-101450132D01*
X126566150Y-101437520D01*
X126588329Y-101427030D01*
X126611428Y-101418765D01*
X126635227Y-101412804D01*
X126659495Y-101409204D01*
X126683999Y-101408000D01*
X127334001Y-101408000D01*
X127358505Y-101409204D01*
G37*
G36*
X125308505Y-101409204D02*
G01*
X125332773Y-101412804D01*
X125356572Y-101418765D01*
X125379671Y-101427030D01*
X125401850Y-101437520D01*
X125422893Y-101450132D01*
X125442599Y-101464747D01*
X125460777Y-101481223D01*
X125477253Y-101499401D01*
X125491868Y-101519107D01*
X125504480Y-101540150D01*
X125514970Y-101562329D01*
X125523235Y-101585428D01*
X125529196Y-101609227D01*
X125532796Y-101633495D01*
X125534000Y-101657999D01*
X125534000Y-102558001D01*
X125532796Y-102582505D01*
X125529196Y-102606773D01*
X125523235Y-102630572D01*
X125514970Y-102653671D01*
X125504480Y-102675850D01*
X125491868Y-102696893D01*
X125477253Y-102716599D01*
X125460777Y-102734777D01*
X125442599Y-102751253D01*
X125422893Y-102765868D01*
X125401850Y-102778480D01*
X125379671Y-102788970D01*
X125356572Y-102797235D01*
X125332773Y-102803196D01*
X125308505Y-102806796D01*
X125284001Y-102808000D01*
X124633999Y-102808000D01*
X124609495Y-102806796D01*
X124585227Y-102803196D01*
X124561428Y-102797235D01*
X124538329Y-102788970D01*
X124516150Y-102778480D01*
X124495107Y-102765868D01*
X124475401Y-102751253D01*
X124457223Y-102734777D01*
X124440747Y-102716599D01*
X124426132Y-102696893D01*
X124413520Y-102675850D01*
X124403030Y-102653671D01*
X124394765Y-102630572D01*
X124388804Y-102606773D01*
X124385204Y-102582505D01*
X124384000Y-102558001D01*
X124384000Y-101657999D01*
X124385204Y-101633495D01*
X124388804Y-101609227D01*
X124394765Y-101585428D01*
X124403030Y-101562329D01*
X124413520Y-101540150D01*
X124426132Y-101519107D01*
X124440747Y-101499401D01*
X124457223Y-101481223D01*
X124475401Y-101464747D01*
X124495107Y-101450132D01*
X124516150Y-101437520D01*
X124538329Y-101427030D01*
X124561428Y-101418765D01*
X124585227Y-101412804D01*
X124609495Y-101409204D01*
X124633999Y-101408000D01*
X125284001Y-101408000D01*
X125308505Y-101409204D01*
G37*
G36*
X127474505Y-99765204D02*
G01*
X127498773Y-99768804D01*
X127522572Y-99774765D01*
X127545671Y-99783030D01*
X127567850Y-99793520D01*
X127588893Y-99806132D01*
X127608599Y-99820747D01*
X127626777Y-99837223D01*
X127643253Y-99855401D01*
X127657868Y-99875107D01*
X127670480Y-99896150D01*
X127680970Y-99918329D01*
X127689235Y-99941428D01*
X127695196Y-99965227D01*
X127698796Y-99989495D01*
X127700000Y-100013999D01*
X127700000Y-100664001D01*
X127698796Y-100688505D01*
X127695196Y-100712773D01*
X127689235Y-100736572D01*
X127680970Y-100759671D01*
X127670480Y-100781850D01*
X127657868Y-100802893D01*
X127643253Y-100822599D01*
X127626777Y-100840777D01*
X127608599Y-100857253D01*
X127588893Y-100871868D01*
X127567850Y-100884480D01*
X127545671Y-100894970D01*
X127522572Y-100903235D01*
X127498773Y-100909196D01*
X127474505Y-100912796D01*
X127450001Y-100914000D01*
X126549999Y-100914000D01*
X126525495Y-100912796D01*
X126501227Y-100909196D01*
X126477428Y-100903235D01*
X126454329Y-100894970D01*
X126432150Y-100884480D01*
X126411107Y-100871868D01*
X126391401Y-100857253D01*
X126373223Y-100840777D01*
X126356747Y-100822599D01*
X126342132Y-100802893D01*
X126329520Y-100781850D01*
X126319030Y-100759671D01*
X126310765Y-100736572D01*
X126304804Y-100712773D01*
X126301204Y-100688505D01*
X126300000Y-100664001D01*
X126300000Y-100013999D01*
X126301204Y-99989495D01*
X126304804Y-99965227D01*
X126310765Y-99941428D01*
X126319030Y-99918329D01*
X126329520Y-99896150D01*
X126342132Y-99875107D01*
X126356747Y-99855401D01*
X126373223Y-99837223D01*
X126391401Y-99820747D01*
X126411107Y-99806132D01*
X126432150Y-99793520D01*
X126454329Y-99783030D01*
X126477428Y-99774765D01*
X126501227Y-99768804D01*
X126525495Y-99765204D01*
X126549999Y-99764000D01*
X127450001Y-99764000D01*
X127474505Y-99765204D01*
G37*
G36*
X127474505Y-97715204D02*
G01*
X127498773Y-97718804D01*
X127522572Y-97724765D01*
X127545671Y-97733030D01*
X127567850Y-97743520D01*
X127588893Y-97756132D01*
X127608599Y-97770747D01*
X127626777Y-97787223D01*
X127643253Y-97805401D01*
X127657868Y-97825107D01*
X127670480Y-97846150D01*
X127680970Y-97868329D01*
X127689235Y-97891428D01*
X127695196Y-97915227D01*
X127698796Y-97939495D01*
X127700000Y-97963999D01*
X127700000Y-98614001D01*
X127698796Y-98638505D01*
X127695196Y-98662773D01*
X127689235Y-98686572D01*
X127680970Y-98709671D01*
X127670480Y-98731850D01*
X127657868Y-98752893D01*
X127643253Y-98772599D01*
X127626777Y-98790777D01*
X127608599Y-98807253D01*
X127588893Y-98821868D01*
X127567850Y-98834480D01*
X127545671Y-98844970D01*
X127522572Y-98853235D01*
X127498773Y-98859196D01*
X127474505Y-98862796D01*
X127450001Y-98864000D01*
X126549999Y-98864000D01*
X126525495Y-98862796D01*
X126501227Y-98859196D01*
X126477428Y-98853235D01*
X126454329Y-98844970D01*
X126432150Y-98834480D01*
X126411107Y-98821868D01*
X126391401Y-98807253D01*
X126373223Y-98790777D01*
X126356747Y-98772599D01*
X126342132Y-98752893D01*
X126329520Y-98731850D01*
X126319030Y-98709671D01*
X126310765Y-98686572D01*
X126304804Y-98662773D01*
X126301204Y-98638505D01*
X126300000Y-98614001D01*
X126300000Y-97963999D01*
X126301204Y-97939495D01*
X126304804Y-97915227D01*
X126310765Y-97891428D01*
X126319030Y-97868329D01*
X126329520Y-97846150D01*
X126342132Y-97825107D01*
X126356747Y-97805401D01*
X126373223Y-97787223D01*
X126391401Y-97770747D01*
X126411107Y-97756132D01*
X126432150Y-97743520D01*
X126454329Y-97733030D01*
X126477428Y-97724765D01*
X126501227Y-97718804D01*
X126525495Y-97715204D01*
X126549999Y-97714000D01*
X127450001Y-97714000D01*
X127474505Y-97715204D01*
G37*
G36*
X129880505Y-103441204D02*
G01*
X129904773Y-103444804D01*
X129928572Y-103450765D01*
X129951671Y-103459030D01*
X129973850Y-103469520D01*
X129994893Y-103482132D01*
X130014599Y-103496747D01*
X130032777Y-103513223D01*
X130049253Y-103531401D01*
X130063868Y-103551107D01*
X130076480Y-103572150D01*
X130086970Y-103594329D01*
X130095235Y-103617428D01*
X130101196Y-103641227D01*
X130104796Y-103665495D01*
X130106000Y-103689999D01*
X130106000Y-104590001D01*
X130104796Y-104614505D01*
X130101196Y-104638773D01*
X130095235Y-104662572D01*
X130086970Y-104685671D01*
X130076480Y-104707850D01*
X130063868Y-104728893D01*
X130049253Y-104748599D01*
X130032777Y-104766777D01*
X130014599Y-104783253D01*
X129994893Y-104797868D01*
X129973850Y-104810480D01*
X129951671Y-104820970D01*
X129928572Y-104829235D01*
X129904773Y-104835196D01*
X129880505Y-104838796D01*
X129856001Y-104840000D01*
X129205999Y-104840000D01*
X129181495Y-104838796D01*
X129157227Y-104835196D01*
X129133428Y-104829235D01*
X129110329Y-104820970D01*
X129088150Y-104810480D01*
X129067107Y-104797868D01*
X129047401Y-104783253D01*
X129029223Y-104766777D01*
X129012747Y-104748599D01*
X128998132Y-104728893D01*
X128985520Y-104707850D01*
X128975030Y-104685671D01*
X128966765Y-104662572D01*
X128960804Y-104638773D01*
X128957204Y-104614505D01*
X128956000Y-104590001D01*
X128956000Y-103689999D01*
X128957204Y-103665495D01*
X128960804Y-103641227D01*
X128966765Y-103617428D01*
X128975030Y-103594329D01*
X128985520Y-103572150D01*
X128998132Y-103551107D01*
X129012747Y-103531401D01*
X129029223Y-103513223D01*
X129047401Y-103496747D01*
X129067107Y-103482132D01*
X129088150Y-103469520D01*
X129110329Y-103459030D01*
X129133428Y-103450765D01*
X129157227Y-103444804D01*
X129181495Y-103441204D01*
X129205999Y-103440000D01*
X129856001Y-103440000D01*
X129880505Y-103441204D01*
G37*
G36*
X131930505Y-103441204D02*
G01*
X131954773Y-103444804D01*
X131978572Y-103450765D01*
X132001671Y-103459030D01*
X132023850Y-103469520D01*
X132044893Y-103482132D01*
X132064599Y-103496747D01*
X132082777Y-103513223D01*
X132099253Y-103531401D01*
X132113868Y-103551107D01*
X132126480Y-103572150D01*
X132136970Y-103594329D01*
X132145235Y-103617428D01*
X132151196Y-103641227D01*
X132154796Y-103665495D01*
X132156000Y-103689999D01*
X132156000Y-104590001D01*
X132154796Y-104614505D01*
X132151196Y-104638773D01*
X132145235Y-104662572D01*
X132136970Y-104685671D01*
X132126480Y-104707850D01*
X132113868Y-104728893D01*
X132099253Y-104748599D01*
X132082777Y-104766777D01*
X132064599Y-104783253D01*
X132044893Y-104797868D01*
X132023850Y-104810480D01*
X132001671Y-104820970D01*
X131978572Y-104829235D01*
X131954773Y-104835196D01*
X131930505Y-104838796D01*
X131906001Y-104840000D01*
X131255999Y-104840000D01*
X131231495Y-104838796D01*
X131207227Y-104835196D01*
X131183428Y-104829235D01*
X131160329Y-104820970D01*
X131138150Y-104810480D01*
X131117107Y-104797868D01*
X131097401Y-104783253D01*
X131079223Y-104766777D01*
X131062747Y-104748599D01*
X131048132Y-104728893D01*
X131035520Y-104707850D01*
X131025030Y-104685671D01*
X131016765Y-104662572D01*
X131010804Y-104638773D01*
X131007204Y-104614505D01*
X131006000Y-104590001D01*
X131006000Y-103689999D01*
X131007204Y-103665495D01*
X131010804Y-103641227D01*
X131016765Y-103617428D01*
X131025030Y-103594329D01*
X131035520Y-103572150D01*
X131048132Y-103551107D01*
X131062747Y-103531401D01*
X131079223Y-103513223D01*
X131097401Y-103496747D01*
X131117107Y-103482132D01*
X131138150Y-103469520D01*
X131160329Y-103459030D01*
X131183428Y-103450765D01*
X131207227Y-103444804D01*
X131231495Y-103441204D01*
X131255999Y-103440000D01*
X131906001Y-103440000D01*
X131930505Y-103441204D01*
G37*
G36*
X127358505Y-103441204D02*
G01*
X127382773Y-103444804D01*
X127406572Y-103450765D01*
X127429671Y-103459030D01*
X127451850Y-103469520D01*
X127472893Y-103482132D01*
X127492599Y-103496747D01*
X127510777Y-103513223D01*
X127527253Y-103531401D01*
X127541868Y-103551107D01*
X127554480Y-103572150D01*
X127564970Y-103594329D01*
X127573235Y-103617428D01*
X127579196Y-103641227D01*
X127582796Y-103665495D01*
X127584000Y-103689999D01*
X127584000Y-104590001D01*
X127582796Y-104614505D01*
X127579196Y-104638773D01*
X127573235Y-104662572D01*
X127564970Y-104685671D01*
X127554480Y-104707850D01*
X127541868Y-104728893D01*
X127527253Y-104748599D01*
X127510777Y-104766777D01*
X127492599Y-104783253D01*
X127472893Y-104797868D01*
X127451850Y-104810480D01*
X127429671Y-104820970D01*
X127406572Y-104829235D01*
X127382773Y-104835196D01*
X127358505Y-104838796D01*
X127334001Y-104840000D01*
X126683999Y-104840000D01*
X126659495Y-104838796D01*
X126635227Y-104835196D01*
X126611428Y-104829235D01*
X126588329Y-104820970D01*
X126566150Y-104810480D01*
X126545107Y-104797868D01*
X126525401Y-104783253D01*
X126507223Y-104766777D01*
X126490747Y-104748599D01*
X126476132Y-104728893D01*
X126463520Y-104707850D01*
X126453030Y-104685671D01*
X126444765Y-104662572D01*
X126438804Y-104638773D01*
X126435204Y-104614505D01*
X126434000Y-104590001D01*
X126434000Y-103689999D01*
X126435204Y-103665495D01*
X126438804Y-103641227D01*
X126444765Y-103617428D01*
X126453030Y-103594329D01*
X126463520Y-103572150D01*
X126476132Y-103551107D01*
X126490747Y-103531401D01*
X126507223Y-103513223D01*
X126525401Y-103496747D01*
X126545107Y-103482132D01*
X126566150Y-103469520D01*
X126588329Y-103459030D01*
X126611428Y-103450765D01*
X126635227Y-103444804D01*
X126659495Y-103441204D01*
X126683999Y-103440000D01*
X127334001Y-103440000D01*
X127358505Y-103441204D01*
G37*
G36*
X125308505Y-103441204D02*
G01*
X125332773Y-103444804D01*
X125356572Y-103450765D01*
X125379671Y-103459030D01*
X125401850Y-103469520D01*
X125422893Y-103482132D01*
X125442599Y-103496747D01*
X125460777Y-103513223D01*
X125477253Y-103531401D01*
X125491868Y-103551107D01*
X125504480Y-103572150D01*
X125514970Y-103594329D01*
X125523235Y-103617428D01*
X125529196Y-103641227D01*
X125532796Y-103665495D01*
X125534000Y-103689999D01*
X125534000Y-104590001D01*
X125532796Y-104614505D01*
X125529196Y-104638773D01*
X125523235Y-104662572D01*
X125514970Y-104685671D01*
X125504480Y-104707850D01*
X125491868Y-104728893D01*
X125477253Y-104748599D01*
X125460777Y-104766777D01*
X125442599Y-104783253D01*
X125422893Y-104797868D01*
X125401850Y-104810480D01*
X125379671Y-104820970D01*
X125356572Y-104829235D01*
X125332773Y-104835196D01*
X125308505Y-104838796D01*
X125284001Y-104840000D01*
X124633999Y-104840000D01*
X124609495Y-104838796D01*
X124585227Y-104835196D01*
X124561428Y-104829235D01*
X124538329Y-104820970D01*
X124516150Y-104810480D01*
X124495107Y-104797868D01*
X124475401Y-104783253D01*
X124457223Y-104766777D01*
X124440747Y-104748599D01*
X124426132Y-104728893D01*
X124413520Y-104707850D01*
X124403030Y-104685671D01*
X124394765Y-104662572D01*
X124388804Y-104638773D01*
X124385204Y-104614505D01*
X124384000Y-104590001D01*
X124384000Y-103689999D01*
X124385204Y-103665495D01*
X124388804Y-103641227D01*
X124394765Y-103617428D01*
X124403030Y-103594329D01*
X124413520Y-103572150D01*
X124426132Y-103551107D01*
X124440747Y-103531401D01*
X124457223Y-103513223D01*
X124475401Y-103496747D01*
X124495107Y-103482132D01*
X124516150Y-103469520D01*
X124538329Y-103459030D01*
X124561428Y-103450765D01*
X124585227Y-103444804D01*
X124609495Y-103441204D01*
X124633999Y-103440000D01*
X125284001Y-103440000D01*
X125308505Y-103441204D01*
G37*
G36*
X125569505Y-83001204D02*
G01*
X125593773Y-83004804D01*
X125617572Y-83010765D01*
X125640671Y-83019030D01*
X125662850Y-83029520D01*
X125683893Y-83042132D01*
X125703599Y-83056747D01*
X125721777Y-83073223D01*
X125738253Y-83091401D01*
X125752868Y-83111107D01*
X125765480Y-83132150D01*
X125775970Y-83154329D01*
X125784235Y-83177428D01*
X125790196Y-83201227D01*
X125793796Y-83225495D01*
X125795000Y-83249999D01*
X125795000Y-83900001D01*
X125793796Y-83924505D01*
X125790196Y-83948773D01*
X125784235Y-83972572D01*
X125775970Y-83995671D01*
X125765480Y-84017850D01*
X125752868Y-84038893D01*
X125738253Y-84058599D01*
X125721777Y-84076777D01*
X125703599Y-84093253D01*
X125683893Y-84107868D01*
X125662850Y-84120480D01*
X125640671Y-84130970D01*
X125617572Y-84139235D01*
X125593773Y-84145196D01*
X125569505Y-84148796D01*
X125545001Y-84150000D01*
X124644999Y-84150000D01*
X124620495Y-84148796D01*
X124596227Y-84145196D01*
X124572428Y-84139235D01*
X124549329Y-84130970D01*
X124527150Y-84120480D01*
X124506107Y-84107868D01*
X124486401Y-84093253D01*
X124468223Y-84076777D01*
X124451747Y-84058599D01*
X124437132Y-84038893D01*
X124424520Y-84017850D01*
X124414030Y-83995671D01*
X124405765Y-83972572D01*
X124399804Y-83948773D01*
X124396204Y-83924505D01*
X124395000Y-83900001D01*
X124395000Y-83249999D01*
X124396204Y-83225495D01*
X124399804Y-83201227D01*
X124405765Y-83177428D01*
X124414030Y-83154329D01*
X124424520Y-83132150D01*
X124437132Y-83111107D01*
X124451747Y-83091401D01*
X124468223Y-83073223D01*
X124486401Y-83056747D01*
X124506107Y-83042132D01*
X124527150Y-83029520D01*
X124549329Y-83019030D01*
X124572428Y-83010765D01*
X124596227Y-83004804D01*
X124620495Y-83001204D01*
X124644999Y-83000000D01*
X125545001Y-83000000D01*
X125569505Y-83001204D01*
G37*
G36*
X125569505Y-80951204D02*
G01*
X125593773Y-80954804D01*
X125617572Y-80960765D01*
X125640671Y-80969030D01*
X125662850Y-80979520D01*
X125683893Y-80992132D01*
X125703599Y-81006747D01*
X125721777Y-81023223D01*
X125738253Y-81041401D01*
X125752868Y-81061107D01*
X125765480Y-81082150D01*
X125775970Y-81104329D01*
X125784235Y-81127428D01*
X125790196Y-81151227D01*
X125793796Y-81175495D01*
X125795000Y-81199999D01*
X125795000Y-81850001D01*
X125793796Y-81874505D01*
X125790196Y-81898773D01*
X125784235Y-81922572D01*
X125775970Y-81945671D01*
X125765480Y-81967850D01*
X125752868Y-81988893D01*
X125738253Y-82008599D01*
X125721777Y-82026777D01*
X125703599Y-82043253D01*
X125683893Y-82057868D01*
X125662850Y-82070480D01*
X125640671Y-82080970D01*
X125617572Y-82089235D01*
X125593773Y-82095196D01*
X125569505Y-82098796D01*
X125545001Y-82100000D01*
X124644999Y-82100000D01*
X124620495Y-82098796D01*
X124596227Y-82095196D01*
X124572428Y-82089235D01*
X124549329Y-82080970D01*
X124527150Y-82070480D01*
X124506107Y-82057868D01*
X124486401Y-82043253D01*
X124468223Y-82026777D01*
X124451747Y-82008599D01*
X124437132Y-81988893D01*
X124424520Y-81967850D01*
X124414030Y-81945671D01*
X124405765Y-81922572D01*
X124399804Y-81898773D01*
X124396204Y-81874505D01*
X124395000Y-81850001D01*
X124395000Y-81199999D01*
X124396204Y-81175495D01*
X124399804Y-81151227D01*
X124405765Y-81127428D01*
X124414030Y-81104329D01*
X124424520Y-81082150D01*
X124437132Y-81061107D01*
X124451747Y-81041401D01*
X124468223Y-81023223D01*
X124486401Y-81006747D01*
X124506107Y-80992132D01*
X124527150Y-80979520D01*
X124549329Y-80969030D01*
X124572428Y-80960765D01*
X124596227Y-80954804D01*
X124620495Y-80951204D01*
X124644999Y-80950000D01*
X125545001Y-80950000D01*
X125569505Y-80951204D01*
G37*
G36*
X130388505Y-92392204D02*
G01*
X130412773Y-92395804D01*
X130436572Y-92401765D01*
X130459671Y-92410030D01*
X130481850Y-92420520D01*
X130502893Y-92433132D01*
X130522599Y-92447747D01*
X130540777Y-92464223D01*
X130557253Y-92482401D01*
X130571868Y-92502107D01*
X130584480Y-92523150D01*
X130594970Y-92545329D01*
X130603235Y-92568428D01*
X130609196Y-92592227D01*
X130612796Y-92616495D01*
X130614000Y-92640999D01*
X130614000Y-93541001D01*
X130612796Y-93565505D01*
X130609196Y-93589773D01*
X130603235Y-93613572D01*
X130594970Y-93636671D01*
X130584480Y-93658850D01*
X130571868Y-93679893D01*
X130557253Y-93699599D01*
X130540777Y-93717777D01*
X130522599Y-93734253D01*
X130502893Y-93748868D01*
X130481850Y-93761480D01*
X130459671Y-93771970D01*
X130436572Y-93780235D01*
X130412773Y-93786196D01*
X130388505Y-93789796D01*
X130364001Y-93791000D01*
X129713999Y-93791000D01*
X129689495Y-93789796D01*
X129665227Y-93786196D01*
X129641428Y-93780235D01*
X129618329Y-93771970D01*
X129596150Y-93761480D01*
X129575107Y-93748868D01*
X129555401Y-93734253D01*
X129537223Y-93717777D01*
X129520747Y-93699599D01*
X129506132Y-93679893D01*
X129493520Y-93658850D01*
X129483030Y-93636671D01*
X129474765Y-93613572D01*
X129468804Y-93589773D01*
X129465204Y-93565505D01*
X129464000Y-93541001D01*
X129464000Y-92640999D01*
X129465204Y-92616495D01*
X129468804Y-92592227D01*
X129474765Y-92568428D01*
X129483030Y-92545329D01*
X129493520Y-92523150D01*
X129506132Y-92502107D01*
X129520747Y-92482401D01*
X129537223Y-92464223D01*
X129555401Y-92447747D01*
X129575107Y-92433132D01*
X129596150Y-92420520D01*
X129618329Y-92410030D01*
X129641428Y-92401765D01*
X129665227Y-92395804D01*
X129689495Y-92392204D01*
X129713999Y-92391000D01*
X130364001Y-92391000D01*
X130388505Y-92392204D01*
G37*
G36*
X132438505Y-92392204D02*
G01*
X132462773Y-92395804D01*
X132486572Y-92401765D01*
X132509671Y-92410030D01*
X132531850Y-92420520D01*
X132552893Y-92433132D01*
X132572599Y-92447747D01*
X132590777Y-92464223D01*
X132607253Y-92482401D01*
X132621868Y-92502107D01*
X132634480Y-92523150D01*
X132644970Y-92545329D01*
X132653235Y-92568428D01*
X132659196Y-92592227D01*
X132662796Y-92616495D01*
X132664000Y-92640999D01*
X132664000Y-93541001D01*
X132662796Y-93565505D01*
X132659196Y-93589773D01*
X132653235Y-93613572D01*
X132644970Y-93636671D01*
X132634480Y-93658850D01*
X132621868Y-93679893D01*
X132607253Y-93699599D01*
X132590777Y-93717777D01*
X132572599Y-93734253D01*
X132552893Y-93748868D01*
X132531850Y-93761480D01*
X132509671Y-93771970D01*
X132486572Y-93780235D01*
X132462773Y-93786196D01*
X132438505Y-93789796D01*
X132414001Y-93791000D01*
X131763999Y-93791000D01*
X131739495Y-93789796D01*
X131715227Y-93786196D01*
X131691428Y-93780235D01*
X131668329Y-93771970D01*
X131646150Y-93761480D01*
X131625107Y-93748868D01*
X131605401Y-93734253D01*
X131587223Y-93717777D01*
X131570747Y-93699599D01*
X131556132Y-93679893D01*
X131543520Y-93658850D01*
X131533030Y-93636671D01*
X131524765Y-93613572D01*
X131518804Y-93589773D01*
X131515204Y-93565505D01*
X131514000Y-93541001D01*
X131514000Y-92640999D01*
X131515204Y-92616495D01*
X131518804Y-92592227D01*
X131524765Y-92568428D01*
X131533030Y-92545329D01*
X131543520Y-92523150D01*
X131556132Y-92502107D01*
X131570747Y-92482401D01*
X131587223Y-92464223D01*
X131605401Y-92447747D01*
X131625107Y-92433132D01*
X131646150Y-92420520D01*
X131668329Y-92410030D01*
X131691428Y-92401765D01*
X131715227Y-92395804D01*
X131739495Y-92392204D01*
X131763999Y-92391000D01*
X132414001Y-92391000D01*
X132438505Y-92392204D01*
G37*
G36*
X126850505Y-92392204D02*
G01*
X126874773Y-92395804D01*
X126898572Y-92401765D01*
X126921671Y-92410030D01*
X126943850Y-92420520D01*
X126964893Y-92433132D01*
X126984599Y-92447747D01*
X127002777Y-92464223D01*
X127019253Y-92482401D01*
X127033868Y-92502107D01*
X127046480Y-92523150D01*
X127056970Y-92545329D01*
X127065235Y-92568428D01*
X127071196Y-92592227D01*
X127074796Y-92616495D01*
X127076000Y-92640999D01*
X127076000Y-93541001D01*
X127074796Y-93565505D01*
X127071196Y-93589773D01*
X127065235Y-93613572D01*
X127056970Y-93636671D01*
X127046480Y-93658850D01*
X127033868Y-93679893D01*
X127019253Y-93699599D01*
X127002777Y-93717777D01*
X126984599Y-93734253D01*
X126964893Y-93748868D01*
X126943850Y-93761480D01*
X126921671Y-93771970D01*
X126898572Y-93780235D01*
X126874773Y-93786196D01*
X126850505Y-93789796D01*
X126826001Y-93791000D01*
X126175999Y-93791000D01*
X126151495Y-93789796D01*
X126127227Y-93786196D01*
X126103428Y-93780235D01*
X126080329Y-93771970D01*
X126058150Y-93761480D01*
X126037107Y-93748868D01*
X126017401Y-93734253D01*
X125999223Y-93717777D01*
X125982747Y-93699599D01*
X125968132Y-93679893D01*
X125955520Y-93658850D01*
X125945030Y-93636671D01*
X125936765Y-93613572D01*
X125930804Y-93589773D01*
X125927204Y-93565505D01*
X125926000Y-93541001D01*
X125926000Y-92640999D01*
X125927204Y-92616495D01*
X125930804Y-92592227D01*
X125936765Y-92568428D01*
X125945030Y-92545329D01*
X125955520Y-92523150D01*
X125968132Y-92502107D01*
X125982747Y-92482401D01*
X125999223Y-92464223D01*
X126017401Y-92447747D01*
X126037107Y-92433132D01*
X126058150Y-92420520D01*
X126080329Y-92410030D01*
X126103428Y-92401765D01*
X126127227Y-92395804D01*
X126151495Y-92392204D01*
X126175999Y-92391000D01*
X126826001Y-92391000D01*
X126850505Y-92392204D01*
G37*
G36*
X124800505Y-92392204D02*
G01*
X124824773Y-92395804D01*
X124848572Y-92401765D01*
X124871671Y-92410030D01*
X124893850Y-92420520D01*
X124914893Y-92433132D01*
X124934599Y-92447747D01*
X124952777Y-92464223D01*
X124969253Y-92482401D01*
X124983868Y-92502107D01*
X124996480Y-92523150D01*
X125006970Y-92545329D01*
X125015235Y-92568428D01*
X125021196Y-92592227D01*
X125024796Y-92616495D01*
X125026000Y-92640999D01*
X125026000Y-93541001D01*
X125024796Y-93565505D01*
X125021196Y-93589773D01*
X125015235Y-93613572D01*
X125006970Y-93636671D01*
X124996480Y-93658850D01*
X124983868Y-93679893D01*
X124969253Y-93699599D01*
X124952777Y-93717777D01*
X124934599Y-93734253D01*
X124914893Y-93748868D01*
X124893850Y-93761480D01*
X124871671Y-93771970D01*
X124848572Y-93780235D01*
X124824773Y-93786196D01*
X124800505Y-93789796D01*
X124776001Y-93791000D01*
X124125999Y-93791000D01*
X124101495Y-93789796D01*
X124077227Y-93786196D01*
X124053428Y-93780235D01*
X124030329Y-93771970D01*
X124008150Y-93761480D01*
X123987107Y-93748868D01*
X123967401Y-93734253D01*
X123949223Y-93717777D01*
X123932747Y-93699599D01*
X123918132Y-93679893D01*
X123905520Y-93658850D01*
X123895030Y-93636671D01*
X123886765Y-93613572D01*
X123880804Y-93589773D01*
X123877204Y-93565505D01*
X123876000Y-93541001D01*
X123876000Y-92640999D01*
X123877204Y-92616495D01*
X123880804Y-92592227D01*
X123886765Y-92568428D01*
X123895030Y-92545329D01*
X123905520Y-92523150D01*
X123918132Y-92502107D01*
X123932747Y-92482401D01*
X123949223Y-92464223D01*
X123967401Y-92447747D01*
X123987107Y-92433132D01*
X124008150Y-92420520D01*
X124030329Y-92410030D01*
X124053428Y-92401765D01*
X124077227Y-92395804D01*
X124101495Y-92392204D01*
X124125999Y-92391000D01*
X124776001Y-92391000D01*
X124800505Y-92392204D01*
G37*
M02*
