G04 #@! TF.GenerationSoftware,KiCad,Pcbnew,(5.1.5)-3*
G04 #@! TF.CreationDate,2021-03-17T15:34:18-05:00*
G04 #@! TF.ProjectId,STM32_Breakout,53544d33-325f-4427-9265-616b6f75742e,rev?*
G04 #@! TF.SameCoordinates,Original*
G04 #@! TF.FileFunction,Copper,L1,Top*
G04 #@! TF.FilePolarity,Positive*
%FSLAX46Y46*%
G04 Gerber Fmt 4.6, Leading zero omitted, Abs format (unit mm)*
G04 Created by KiCad (PCBNEW (5.1.5)-3) date 2021-03-17 15:34:18*
%MOMM*%
%LPD*%
G04 APERTURE LIST*
%ADD10C,1.750000*%
%ADD11O,1.700000X1.700000*%
%ADD12R,1.700000X1.700000*%
%ADD13R,1.200000X1.900000*%
%ADD14O,1.200000X1.900000*%
%ADD15R,1.500000X1.900000*%
%ADD16C,1.450000*%
%ADD17R,0.400000X1.350000*%
%ADD18C,0.600000*%
%ADD19C,0.800000*%
%ADD20C,0.200000*%
%ADD21C,0.500000*%
%ADD22C,0.254000*%
G04 APERTURE END LIST*
D10*
X125020000Y-99568000D03*
X131520000Y-99568000D03*
D11*
X121920000Y-104140000D03*
X121920000Y-101600000D03*
X121920000Y-99060000D03*
X121920000Y-96520000D03*
X121920000Y-93980000D03*
X121920000Y-91440000D03*
X121920000Y-88900000D03*
X121920000Y-86360000D03*
X121920000Y-83820000D03*
X121920000Y-81280000D03*
X121920000Y-78740000D03*
D12*
X121920000Y-76200000D03*
D11*
X134620000Y-104140000D03*
X134620000Y-101600000D03*
X134620000Y-99060000D03*
X134620000Y-96520000D03*
X134620000Y-93980000D03*
X134620000Y-91440000D03*
X134620000Y-88900000D03*
X134620000Y-86360000D03*
X134620000Y-83820000D03*
X134620000Y-81280000D03*
X134620000Y-78740000D03*
D12*
X134620000Y-76200000D03*
D11*
X127000000Y-96012000D03*
D12*
X129540000Y-96012000D03*
D13*
X131170000Y-73692500D03*
X125370000Y-73692500D03*
D14*
X124770000Y-73692500D03*
X131770000Y-73692500D03*
D15*
X129270000Y-73692500D03*
D16*
X125770000Y-76392500D03*
D17*
X128270000Y-76392500D03*
X127620000Y-76392500D03*
X126970000Y-76392500D03*
X129570000Y-76392500D03*
X128920000Y-76392500D03*
D16*
X130770000Y-76392500D03*
D15*
X127270000Y-73692500D03*
D18*
X129540000Y-77724000D03*
D19*
X125530249Y-80209751D03*
D18*
X126969349Y-86667000D03*
X126969349Y-87517000D03*
X132080000Y-84836000D03*
X125730000Y-97917000D03*
X129996988Y-85847436D03*
X123670001Y-89381895D03*
X129750820Y-89466420D03*
X123952000Y-85090000D03*
X123952000Y-86106000D03*
X124170934Y-90005649D03*
X124094998Y-91094363D03*
X125984000Y-103124000D03*
X124587000Y-91856560D03*
X131942748Y-91740968D03*
X132469989Y-91139287D03*
X132741254Y-90352900D03*
X132754798Y-89517914D03*
X132614242Y-86420288D03*
X132588000Y-85598000D03*
X126441200Y-83667600D03*
X125476000Y-92329000D03*
X130556000Y-101346000D03*
X126433000Y-82863000D03*
X125925000Y-82355000D03*
X130007059Y-88382841D03*
X131099560Y-93853000D03*
D19*
X127101793Y-88498487D03*
D20*
X127620000Y-76392500D02*
X125770000Y-76392500D01*
X125370000Y-73692500D02*
X131770000Y-73692500D01*
X126257436Y-99568000D02*
X125020000Y-99568000D01*
X121920000Y-76599502D02*
X121920000Y-76200000D01*
X125584498Y-80264000D02*
X125530249Y-80209751D01*
X129540000Y-76422500D02*
X129570000Y-76392500D01*
X129540000Y-77724000D02*
X129540000Y-76422500D01*
X125530249Y-80209751D02*
X121920000Y-76599502D01*
X126969349Y-86667000D02*
X127182952Y-86667000D01*
X127182952Y-86667000D02*
X127283000Y-86566952D01*
X127283000Y-86566952D02*
X127283000Y-81186800D01*
X128270000Y-77405001D02*
X128370000Y-77505001D01*
X128270000Y-76392500D02*
X128270000Y-77405001D01*
X128370000Y-77505001D02*
X128370000Y-80099800D01*
X128370000Y-80099800D02*
X127283000Y-81186800D01*
X127733000Y-86753349D02*
X127733000Y-81373200D01*
X126969349Y-87517000D02*
X127733000Y-86753349D01*
X128820000Y-80286200D02*
X127733000Y-81373200D01*
X128820000Y-77505001D02*
X128820000Y-80286200D01*
X128920000Y-77405001D02*
X128820000Y-77505001D01*
X128920000Y-76392500D02*
X128920000Y-77405001D01*
X133096000Y-78740000D02*
X134620000Y-78740000D01*
X132080000Y-84836000D02*
X132080000Y-79756000D01*
X132080000Y-79756000D02*
X133096000Y-78740000D01*
X129996988Y-87504910D02*
X128877060Y-88624838D01*
X129996988Y-85847436D02*
X129996988Y-87504910D01*
X128877060Y-92932859D02*
X128877060Y-88624838D01*
X127000000Y-94809919D02*
X128877060Y-92932859D01*
X127000000Y-96012000D02*
X127000000Y-94809919D01*
X123070001Y-91992001D02*
X122472001Y-92590001D01*
X121920000Y-93980000D02*
X121920000Y-92964000D01*
X122293999Y-92590001D02*
X122472001Y-92590001D01*
X121920000Y-92964000D02*
X122293999Y-92590001D01*
X123070001Y-89981895D02*
X123070001Y-91992001D01*
X123670001Y-89381895D02*
X123070001Y-89981895D01*
X129750820Y-89466420D02*
X129750820Y-93355160D01*
X128389999Y-97675435D02*
X130282564Y-99568000D01*
X130282564Y-99568000D02*
X131520000Y-99568000D01*
X129750820Y-93355160D02*
X128389999Y-94715981D01*
X128389999Y-94715981D02*
X128389999Y-97675435D01*
X122769999Y-79589999D02*
X121920000Y-78740000D01*
X123070001Y-79890001D02*
X122769999Y-79589999D01*
X123070001Y-81832001D02*
X123070001Y-79890001D01*
X123739339Y-82501339D02*
X123070001Y-81832001D01*
X123739339Y-84004662D02*
X123739339Y-82501339D01*
X123739339Y-84004662D02*
X123739339Y-84877339D01*
X123739339Y-84877339D02*
X123952000Y-85090000D01*
X122769999Y-82129999D02*
X121920000Y-81280000D01*
X123070001Y-84183853D02*
X123070001Y-82430001D01*
X123070001Y-82430001D02*
X122769999Y-82129999D01*
X123070001Y-84183853D02*
X123070001Y-85224001D01*
X123070001Y-85224001D02*
X123952000Y-86106000D01*
X122769999Y-95670001D02*
X121920000Y-96520000D01*
X123494997Y-94945003D02*
X122769999Y-95670001D01*
X123494997Y-90681586D02*
X123494997Y-94945003D01*
X124170934Y-90005649D02*
X123494997Y-90681586D01*
X123345849Y-95659851D02*
X123345851Y-95659849D01*
X121920000Y-99060000D02*
X123345849Y-97634151D01*
X123345849Y-97634151D02*
X123345849Y-95659851D01*
X123986999Y-91202362D02*
X124094998Y-91094363D01*
X123345851Y-95659849D02*
X123986999Y-95018701D01*
X123986999Y-95018701D02*
X123986999Y-91202362D01*
X125984000Y-103124000D02*
X123444000Y-103124000D01*
X123444000Y-103124000D02*
X121920000Y-101600000D01*
X124495659Y-95075739D02*
X123745859Y-95825539D01*
X123745859Y-95825539D02*
X123745859Y-97799840D01*
X123745859Y-97799840D02*
X123311198Y-98234500D01*
X123311198Y-100208802D02*
X121920000Y-101600000D01*
X123311198Y-98234500D02*
X123311198Y-100208802D01*
X124495659Y-92372165D02*
X124495659Y-95075739D01*
X124587000Y-92280824D02*
X124495659Y-92372165D01*
X124587000Y-91856560D02*
X124587000Y-92280824D01*
X134620000Y-101600000D02*
X133069989Y-100049989D01*
X133069989Y-95263389D02*
X132669979Y-94863379D01*
X133069989Y-100049989D02*
X133069989Y-95263389D01*
X131942748Y-92161847D02*
X131942748Y-91740968D01*
X132669979Y-94863379D02*
X132669979Y-92889078D01*
X132669979Y-92889078D02*
X131942748Y-92161847D01*
X133469999Y-97072001D02*
X133469999Y-95554181D01*
X134620000Y-99060000D02*
X134620000Y-98222002D01*
X134620000Y-98222002D02*
X133469999Y-97072001D01*
X133469999Y-95097699D02*
X133069989Y-94697690D01*
X133469999Y-95554181D02*
X133469999Y-95097699D01*
X133069989Y-94697690D02*
X133069989Y-92723388D01*
X133069989Y-92723388D02*
X132669979Y-92323379D01*
X132669979Y-92323379D02*
X132669979Y-91339277D01*
X132669979Y-91339277D02*
X132469989Y-91139287D01*
X132819160Y-90352900D02*
X132741254Y-90352900D01*
X133069989Y-90603729D02*
X132819160Y-90352900D01*
X133069989Y-92157690D02*
X133069989Y-90603729D01*
X133469999Y-92557700D02*
X133069989Y-92157690D01*
X134620000Y-95317919D02*
X134539381Y-95237300D01*
X134620000Y-96520000D02*
X134620000Y-95317919D01*
X134539381Y-95237300D02*
X134175298Y-95237300D01*
X134175298Y-95237300D02*
X133469999Y-94532001D01*
X133469999Y-94532001D02*
X133469999Y-92557700D01*
X133469999Y-91992001D02*
X134067999Y-92590001D01*
X132754798Y-89517914D02*
X133469999Y-90233115D01*
X133469999Y-90233115D02*
X133469999Y-91992001D01*
X134432082Y-92590001D02*
X134067999Y-92590001D01*
X134620000Y-92777919D02*
X134432082Y-92590001D01*
X134620000Y-93980000D02*
X134620000Y-92777919D01*
X134620000Y-84414530D02*
X134620000Y-83820000D01*
X132614242Y-86420288D02*
X134620000Y-84414530D01*
X132588000Y-85173736D02*
X133350000Y-84411736D01*
X132588000Y-85598000D02*
X132588000Y-85173736D01*
X133350000Y-82550000D02*
X134620000Y-81280000D01*
X133350000Y-84411736D02*
X133350000Y-82550000D01*
D21*
X122769999Y-88050001D02*
X123419501Y-88050001D01*
X121920000Y-88900000D02*
X122769999Y-88050001D01*
D22*
G36*
X123816586Y-72947583D02*
G01*
X123757860Y-73141173D01*
X123743000Y-73292049D01*
X123743000Y-74092950D01*
X123757860Y-74243826D01*
X123816585Y-74437416D01*
X123911949Y-74615831D01*
X124040288Y-74772212D01*
X124196669Y-74900551D01*
X124375083Y-74995915D01*
X124568673Y-75054640D01*
X124770000Y-75074469D01*
X124799474Y-75071566D01*
X125970000Y-75071566D01*
X126053707Y-75063322D01*
X126134196Y-75038905D01*
X126208376Y-74999255D01*
X126245000Y-74969198D01*
X126281624Y-74999255D01*
X126355804Y-75038905D01*
X126436293Y-75063322D01*
X126520000Y-75071566D01*
X128020000Y-75071566D01*
X128103707Y-75063322D01*
X128184196Y-75038905D01*
X128258376Y-74999255D01*
X128270000Y-74989715D01*
X128281624Y-74999255D01*
X128355804Y-75038905D01*
X128436293Y-75063322D01*
X128520000Y-75071566D01*
X130020000Y-75071566D01*
X130103707Y-75063322D01*
X130184196Y-75038905D01*
X130258376Y-74999255D01*
X130295000Y-74969198D01*
X130331624Y-74999255D01*
X130405804Y-75038905D01*
X130486293Y-75063322D01*
X130570000Y-75071566D01*
X131740526Y-75071566D01*
X131770000Y-75074469D01*
X131971327Y-75054640D01*
X132164917Y-74995915D01*
X132343331Y-74900551D01*
X132499712Y-74772212D01*
X132628051Y-74615831D01*
X132723415Y-74437417D01*
X132782140Y-74243826D01*
X132797000Y-74092950D01*
X132797000Y-73292049D01*
X132782140Y-73141173D01*
X132723415Y-72947583D01*
X132666980Y-72842000D01*
X135438001Y-72842000D01*
X135438001Y-74920934D01*
X133770000Y-74920934D01*
X133686293Y-74929178D01*
X133605804Y-74953595D01*
X133531624Y-74993245D01*
X133466605Y-75046605D01*
X133413245Y-75111624D01*
X133373595Y-75185804D01*
X133349178Y-75266293D01*
X133340934Y-75350000D01*
X133340934Y-77050000D01*
X133349178Y-77133707D01*
X133373595Y-77214196D01*
X133413245Y-77288376D01*
X133466605Y-77353395D01*
X133531624Y-77406755D01*
X133605804Y-77446405D01*
X133686293Y-77470822D01*
X133770000Y-77479066D01*
X134413456Y-77479066D01*
X134247513Y-77512074D01*
X134015114Y-77608337D01*
X133805960Y-77748089D01*
X133628089Y-77925960D01*
X133488337Y-78135114D01*
X133456076Y-78213000D01*
X133121881Y-78213000D01*
X133096000Y-78210451D01*
X133070119Y-78213000D01*
X132992690Y-78220626D01*
X132893350Y-78250761D01*
X132801798Y-78299696D01*
X132721552Y-78365552D01*
X132705049Y-78385661D01*
X131725662Y-79365049D01*
X131705553Y-79381552D01*
X131649628Y-79449697D01*
X131639696Y-79461799D01*
X131590761Y-79553351D01*
X131560626Y-79652691D01*
X131550451Y-79756000D01*
X131553001Y-79781891D01*
X131553000Y-84334866D01*
X131515302Y-84372564D01*
X131435741Y-84491636D01*
X131380938Y-84623942D01*
X131353000Y-84764397D01*
X131353000Y-84907603D01*
X131380938Y-85048058D01*
X131435741Y-85180364D01*
X131515302Y-85299436D01*
X131616564Y-85400698D01*
X131735636Y-85480259D01*
X131861000Y-85532187D01*
X131861000Y-85669603D01*
X131888938Y-85810058D01*
X131943741Y-85942364D01*
X132001483Y-86028781D01*
X131969983Y-86075924D01*
X131915180Y-86208230D01*
X131887242Y-86348685D01*
X131887242Y-86491891D01*
X131915180Y-86632346D01*
X131969983Y-86764652D01*
X132049544Y-86883724D01*
X132150806Y-86984986D01*
X132269878Y-87064547D01*
X132402184Y-87119350D01*
X132542639Y-87147288D01*
X132685845Y-87147288D01*
X132826300Y-87119350D01*
X132958606Y-87064547D01*
X133077678Y-86984986D01*
X133178940Y-86883724D01*
X133258501Y-86764652D01*
X133313304Y-86632346D01*
X133341242Y-86491891D01*
X133341242Y-86438577D01*
X133343000Y-86436819D01*
X133343000Y-86485774D01*
X133392074Y-86732487D01*
X133488337Y-86964886D01*
X133628089Y-87174040D01*
X133805960Y-87351911D01*
X134015114Y-87491663D01*
X134086416Y-87521197D01*
X133988748Y-87555843D01*
X133738645Y-87704822D01*
X133522412Y-87899731D01*
X133348359Y-88133080D01*
X133223175Y-88395901D01*
X133178524Y-88543110D01*
X133299844Y-88772998D01*
X133135000Y-88772998D01*
X133135000Y-88897601D01*
X133099162Y-88873655D01*
X132966856Y-88818852D01*
X132826401Y-88790914D01*
X132683195Y-88790914D01*
X132542740Y-88818852D01*
X132410434Y-88873655D01*
X132291362Y-88953216D01*
X132190100Y-89054478D01*
X132110539Y-89173550D01*
X132055736Y-89305856D01*
X132027798Y-89446311D01*
X132027798Y-89589517D01*
X132055736Y-89729972D01*
X132110539Y-89862278D01*
X132152630Y-89925272D01*
X132096995Y-90008536D01*
X132042192Y-90140842D01*
X132014254Y-90281297D01*
X132014254Y-90424503D01*
X132039702Y-90552440D01*
X132006553Y-90574589D01*
X131905291Y-90675851D01*
X131825730Y-90794923D01*
X131770927Y-90927229D01*
X131748834Y-91038297D01*
X131730690Y-91041906D01*
X131598384Y-91096709D01*
X131479312Y-91176270D01*
X131378050Y-91277532D01*
X131298489Y-91396604D01*
X131243686Y-91528910D01*
X131215748Y-91669365D01*
X131215748Y-91812571D01*
X131243686Y-91953026D01*
X131298489Y-92085332D01*
X131378050Y-92204404D01*
X131421688Y-92248042D01*
X131423374Y-92265156D01*
X131453509Y-92364496D01*
X131502444Y-92456049D01*
X131568300Y-92536295D01*
X131588414Y-92552802D01*
X132142980Y-93107369D01*
X132142979Y-94837498D01*
X132140430Y-94863379D01*
X132142979Y-94889259D01*
X132150605Y-94966688D01*
X132180740Y-95066028D01*
X132229675Y-95157581D01*
X132295531Y-95237827D01*
X132315645Y-95254334D01*
X132542990Y-95481680D01*
X132542989Y-98755472D01*
X132531330Y-98738023D01*
X132349977Y-98556670D01*
X132136728Y-98414182D01*
X131899779Y-98316035D01*
X131648236Y-98266000D01*
X131391764Y-98266000D01*
X131140221Y-98316035D01*
X130903272Y-98414182D01*
X130690023Y-98556670D01*
X130508670Y-98738023D01*
X130384184Y-98924330D01*
X128958463Y-97498610D01*
X129254250Y-97497000D01*
X129413000Y-97338250D01*
X129413000Y-96139000D01*
X129667000Y-96139000D01*
X129667000Y-97338250D01*
X129825750Y-97497000D01*
X130390000Y-97500072D01*
X130514482Y-97487812D01*
X130634180Y-97451502D01*
X130744494Y-97392537D01*
X130841185Y-97313185D01*
X130920537Y-97216494D01*
X130979502Y-97106180D01*
X131015812Y-96986482D01*
X131028072Y-96862000D01*
X131025000Y-96297750D01*
X130866250Y-96139000D01*
X129667000Y-96139000D01*
X129413000Y-96139000D01*
X129393000Y-96139000D01*
X129393000Y-95885000D01*
X129413000Y-95885000D01*
X129413000Y-94685750D01*
X129667000Y-94685750D01*
X129667000Y-95885000D01*
X130866250Y-95885000D01*
X131025000Y-95726250D01*
X131028072Y-95162000D01*
X131015812Y-95037518D01*
X130979502Y-94917820D01*
X130920537Y-94807506D01*
X130841185Y-94710815D01*
X130744494Y-94631463D01*
X130634180Y-94572498D01*
X130514482Y-94536188D01*
X130390000Y-94523928D01*
X129825750Y-94527000D01*
X129667000Y-94685750D01*
X129413000Y-94685750D01*
X129289260Y-94562010D01*
X130105164Y-93746107D01*
X130125268Y-93729608D01*
X130191124Y-93649362D01*
X130240059Y-93557810D01*
X130270194Y-93458470D01*
X130277820Y-93381041D01*
X130280369Y-93355160D01*
X130277820Y-93329279D01*
X130277820Y-89967554D01*
X130315518Y-89929856D01*
X130395079Y-89810784D01*
X130449882Y-89678478D01*
X130477820Y-89538023D01*
X130477820Y-89394817D01*
X130449882Y-89254362D01*
X130395079Y-89122056D01*
X130315518Y-89002984D01*
X130214256Y-88901722D01*
X130095184Y-88822161D01*
X129962878Y-88767358D01*
X129822423Y-88739420D01*
X129679217Y-88739420D01*
X129538762Y-88767358D01*
X129438157Y-88809030D01*
X130351327Y-87895861D01*
X130371436Y-87879358D01*
X130437292Y-87799112D01*
X130486227Y-87707560D01*
X130516362Y-87608220D01*
X130523988Y-87530791D01*
X130523988Y-87530789D01*
X130526537Y-87504911D01*
X130523988Y-87479033D01*
X130523988Y-86348570D01*
X130561686Y-86310872D01*
X130641247Y-86191800D01*
X130696050Y-86059494D01*
X130723988Y-85919039D01*
X130723988Y-85775833D01*
X130696050Y-85635378D01*
X130641247Y-85503072D01*
X130561686Y-85384000D01*
X130460424Y-85282738D01*
X130341352Y-85203177D01*
X130209046Y-85148374D01*
X130068591Y-85120436D01*
X129925385Y-85120436D01*
X129784930Y-85148374D01*
X129652624Y-85203177D01*
X129533552Y-85282738D01*
X129432290Y-85384000D01*
X129352729Y-85503072D01*
X129297926Y-85635378D01*
X129269988Y-85775833D01*
X129269988Y-85919039D01*
X129297926Y-86059494D01*
X129352729Y-86191800D01*
X129432290Y-86310872D01*
X129469988Y-86348570D01*
X129469989Y-87286619D01*
X128522722Y-88233887D01*
X128502613Y-88250390D01*
X128445121Y-88320444D01*
X128436756Y-88330637D01*
X128387821Y-88422189D01*
X128357686Y-88521529D01*
X128347511Y-88624838D01*
X128350061Y-88650729D01*
X128350060Y-92714568D01*
X126645662Y-94418968D01*
X126625553Y-94435471D01*
X126573148Y-94499327D01*
X126559696Y-94515718D01*
X126510761Y-94607270D01*
X126480626Y-94706610D01*
X126470451Y-94809919D01*
X126473001Y-94835809D01*
X126473001Y-94848075D01*
X126395114Y-94880337D01*
X126185960Y-95020089D01*
X126008089Y-95197960D01*
X125868337Y-95407114D01*
X125772074Y-95639513D01*
X125723000Y-95886226D01*
X125723000Y-96137774D01*
X125772074Y-96384487D01*
X125868337Y-96616886D01*
X126008089Y-96826040D01*
X126185960Y-97003911D01*
X126395114Y-97143663D01*
X126627513Y-97239926D01*
X126874226Y-97289000D01*
X127125774Y-97289000D01*
X127372487Y-97239926D01*
X127604886Y-97143663D01*
X127814040Y-97003911D01*
X127863000Y-96954951D01*
X127863000Y-97649544D01*
X127860450Y-97675435D01*
X127870625Y-97778744D01*
X127900760Y-97878084D01*
X127927629Y-97928353D01*
X127949696Y-97969637D01*
X128015552Y-98049883D01*
X128035661Y-98066386D01*
X129891613Y-99922339D01*
X129908116Y-99942448D01*
X129985742Y-100006154D01*
X129988362Y-100008304D01*
X130079914Y-100057239D01*
X130179254Y-100087374D01*
X130282563Y-100097549D01*
X130308444Y-100095000D01*
X130329016Y-100095000D01*
X130366182Y-100184728D01*
X130508670Y-100397977D01*
X130690023Y-100579330D01*
X130903272Y-100721818D01*
X131140221Y-100819965D01*
X131391764Y-100870000D01*
X131648236Y-100870000D01*
X131899779Y-100819965D01*
X132136728Y-100721818D01*
X132349977Y-100579330D01*
X132531330Y-100397977D01*
X132601946Y-100292293D01*
X132629685Y-100344191D01*
X132695541Y-100424437D01*
X132715655Y-100440944D01*
X133424336Y-101149626D01*
X133392074Y-101227513D01*
X133343000Y-101474226D01*
X133343000Y-101725774D01*
X133392074Y-101972487D01*
X133488337Y-102204886D01*
X133628089Y-102414040D01*
X133805960Y-102591911D01*
X134015114Y-102731663D01*
X134247513Y-102827926D01*
X134459034Y-102870000D01*
X134247513Y-102912074D01*
X134015114Y-103008337D01*
X133805960Y-103148089D01*
X133628089Y-103325960D01*
X133488337Y-103535114D01*
X133392074Y-103767513D01*
X133343000Y-104014226D01*
X133343000Y-104265774D01*
X133392074Y-104512487D01*
X133488337Y-104744886D01*
X133628089Y-104954040D01*
X133632049Y-104958000D01*
X122907951Y-104958000D01*
X122911911Y-104954040D01*
X123051663Y-104744886D01*
X123147926Y-104512487D01*
X123197000Y-104265774D01*
X123197000Y-104014226D01*
X123147926Y-103767513D01*
X123051663Y-103535114D01*
X122934546Y-103359836D01*
X123053049Y-103478339D01*
X123069552Y-103498448D01*
X123149798Y-103564304D01*
X123241350Y-103613239D01*
X123340690Y-103643374D01*
X123418119Y-103651000D01*
X123418121Y-103651000D01*
X123443999Y-103653549D01*
X123469877Y-103651000D01*
X125482866Y-103651000D01*
X125520564Y-103688698D01*
X125639636Y-103768259D01*
X125771942Y-103823062D01*
X125912397Y-103851000D01*
X126055603Y-103851000D01*
X126196058Y-103823062D01*
X126328364Y-103768259D01*
X126447436Y-103688698D01*
X126548698Y-103587436D01*
X126628259Y-103468364D01*
X126683062Y-103336058D01*
X126711000Y-103195603D01*
X126711000Y-103052397D01*
X126683062Y-102911942D01*
X126628259Y-102779636D01*
X126548698Y-102660564D01*
X126447436Y-102559302D01*
X126328364Y-102479741D01*
X126196058Y-102424938D01*
X126055603Y-102397000D01*
X125912397Y-102397000D01*
X125771942Y-102424938D01*
X125639636Y-102479741D01*
X125520564Y-102559302D01*
X125482866Y-102597000D01*
X123662290Y-102597000D01*
X123115664Y-102050374D01*
X123147926Y-101972487D01*
X123197000Y-101725774D01*
X123197000Y-101474226D01*
X123147926Y-101227513D01*
X123115664Y-101149626D01*
X123665537Y-100599753D01*
X123685646Y-100583250D01*
X123751502Y-100503004D01*
X123800437Y-100411452D01*
X123830572Y-100312112D01*
X123838198Y-100234683D01*
X123840747Y-100208803D01*
X123838198Y-100182922D01*
X123838198Y-100117168D01*
X123866182Y-100184728D01*
X124008670Y-100397977D01*
X124190023Y-100579330D01*
X124403272Y-100721818D01*
X124640221Y-100819965D01*
X124891764Y-100870000D01*
X125148236Y-100870000D01*
X125399779Y-100819965D01*
X125636728Y-100721818D01*
X125849977Y-100579330D01*
X126031330Y-100397977D01*
X126173818Y-100184728D01*
X126210984Y-100095000D01*
X126283317Y-100095000D01*
X126360746Y-100087374D01*
X126460086Y-100057239D01*
X126551638Y-100008304D01*
X126631884Y-99942448D01*
X126697740Y-99862202D01*
X126746675Y-99770650D01*
X126776810Y-99671310D01*
X126786985Y-99568000D01*
X126776810Y-99464690D01*
X126746675Y-99365350D01*
X126697740Y-99273798D01*
X126631884Y-99193552D01*
X126551638Y-99127696D01*
X126460086Y-99078761D01*
X126360746Y-99048626D01*
X126283317Y-99041000D01*
X126210984Y-99041000D01*
X126173818Y-98951272D01*
X126031330Y-98738023D01*
X125914792Y-98621485D01*
X125942058Y-98616062D01*
X126074364Y-98561259D01*
X126193436Y-98481698D01*
X126294698Y-98380436D01*
X126374259Y-98261364D01*
X126429062Y-98129058D01*
X126457000Y-97988603D01*
X126457000Y-97845397D01*
X126429062Y-97704942D01*
X126374259Y-97572636D01*
X126294698Y-97453564D01*
X126193436Y-97352302D01*
X126074364Y-97272741D01*
X125942058Y-97217938D01*
X125801603Y-97190000D01*
X125658397Y-97190000D01*
X125517942Y-97217938D01*
X125385636Y-97272741D01*
X125266564Y-97352302D01*
X125165302Y-97453564D01*
X125085741Y-97572636D01*
X125030938Y-97704942D01*
X125003000Y-97845397D01*
X125003000Y-97988603D01*
X125030938Y-98129058D01*
X125085741Y-98261364D01*
X125088839Y-98266000D01*
X124891764Y-98266000D01*
X124640221Y-98316035D01*
X124403272Y-98414182D01*
X124190023Y-98556670D01*
X124008670Y-98738023D01*
X123866182Y-98951272D01*
X123838198Y-99018832D01*
X123838198Y-98452790D01*
X124100198Y-98190791D01*
X124120307Y-98174288D01*
X124186163Y-98094042D01*
X124235098Y-98002490D01*
X124257588Y-97928353D01*
X124265233Y-97903151D01*
X124275408Y-97799841D01*
X124272859Y-97773960D01*
X124272859Y-96043828D01*
X124849998Y-95466690D01*
X124870107Y-95450187D01*
X124935963Y-95369941D01*
X124984898Y-95278389D01*
X125015033Y-95179049D01*
X125022659Y-95101620D01*
X125022659Y-95101618D01*
X125025208Y-95075740D01*
X125022659Y-95049862D01*
X125022659Y-92580686D01*
X125027304Y-92575026D01*
X125076239Y-92483474D01*
X125106374Y-92384134D01*
X125108429Y-92363265D01*
X125151698Y-92319996D01*
X125231259Y-92200924D01*
X125286062Y-92068618D01*
X125314000Y-91928163D01*
X125314000Y-91784957D01*
X125286062Y-91644502D01*
X125231259Y-91512196D01*
X125151698Y-91393124D01*
X125050436Y-91291862D01*
X124931364Y-91212301D01*
X124821808Y-91166921D01*
X124821998Y-91165966D01*
X124821998Y-91022760D01*
X124794060Y-90882305D01*
X124739257Y-90749999D01*
X124659696Y-90630927D01*
X124613237Y-90584468D01*
X124634370Y-90570347D01*
X124735632Y-90469085D01*
X124815193Y-90350013D01*
X124869996Y-90217707D01*
X124897934Y-90077252D01*
X124897934Y-89934046D01*
X124869996Y-89793591D01*
X124815193Y-89661285D01*
X124735632Y-89542213D01*
X124634370Y-89440951D01*
X124515298Y-89361390D01*
X124397001Y-89312390D01*
X124397001Y-89310292D01*
X124369063Y-89169837D01*
X124314260Y-89037531D01*
X124234699Y-88918459D01*
X124133437Y-88817197D01*
X124014365Y-88737636D01*
X123882059Y-88682833D01*
X123741604Y-88654895D01*
X123598398Y-88654895D01*
X123457943Y-88682833D01*
X123325637Y-88737636D01*
X123272714Y-88772998D01*
X123240156Y-88772998D01*
X123361476Y-88543110D01*
X123316825Y-88395901D01*
X123191641Y-88133080D01*
X123017588Y-87899731D01*
X122801355Y-87704822D01*
X122551252Y-87555843D01*
X122453584Y-87521197D01*
X122524886Y-87491663D01*
X122734040Y-87351911D01*
X122911911Y-87174040D01*
X123051663Y-86964886D01*
X123147926Y-86732487D01*
X123197000Y-86485774D01*
X123197000Y-86234226D01*
X123162750Y-86062040D01*
X123225000Y-86124290D01*
X123225000Y-86177603D01*
X123252938Y-86318058D01*
X123307741Y-86450364D01*
X123387302Y-86569436D01*
X123488564Y-86670698D01*
X123607636Y-86750259D01*
X123739942Y-86805062D01*
X123880397Y-86833000D01*
X124023603Y-86833000D01*
X124164058Y-86805062D01*
X124296364Y-86750259D01*
X124415436Y-86670698D01*
X124516698Y-86569436D01*
X124596259Y-86450364D01*
X124651062Y-86318058D01*
X124679000Y-86177603D01*
X124679000Y-86034397D01*
X124651062Y-85893942D01*
X124596259Y-85761636D01*
X124516698Y-85642564D01*
X124472134Y-85598000D01*
X124516698Y-85553436D01*
X124596259Y-85434364D01*
X124651062Y-85302058D01*
X124679000Y-85161603D01*
X124679000Y-85018397D01*
X124651062Y-84877942D01*
X124596259Y-84745636D01*
X124516698Y-84626564D01*
X124415436Y-84525302D01*
X124296364Y-84445741D01*
X124266339Y-84433304D01*
X124266339Y-82527220D01*
X124268888Y-82501339D01*
X124258713Y-82398029D01*
X124243339Y-82347350D01*
X124228578Y-82298689D01*
X124179643Y-82207137D01*
X124113787Y-82126891D01*
X124093678Y-82110388D01*
X123597001Y-81613712D01*
X123597001Y-79915882D01*
X123599550Y-79890001D01*
X123589375Y-79786691D01*
X123559240Y-79687352D01*
X123559240Y-79687351D01*
X123510305Y-79595799D01*
X123444449Y-79515553D01*
X123424335Y-79499046D01*
X123160949Y-79235660D01*
X123160944Y-79235654D01*
X123115664Y-79190374D01*
X123147926Y-79112487D01*
X123197000Y-78865774D01*
X123197000Y-78621791D01*
X124703292Y-80128084D01*
X124703249Y-80128299D01*
X124703249Y-80291203D01*
X124735031Y-80450978D01*
X124797372Y-80601482D01*
X124887877Y-80736932D01*
X125003068Y-80852123D01*
X125138518Y-80942628D01*
X125289022Y-81004969D01*
X125448797Y-81036751D01*
X125611701Y-81036751D01*
X125771476Y-81004969D01*
X125921980Y-80942628D01*
X126057430Y-80852123D01*
X126172621Y-80736932D01*
X126263126Y-80601482D01*
X126325467Y-80450978D01*
X126357249Y-80291203D01*
X126357249Y-80128299D01*
X126325467Y-79968524D01*
X126263126Y-79818020D01*
X126172621Y-79682570D01*
X126057430Y-79567379D01*
X125921980Y-79476874D01*
X125771476Y-79414533D01*
X125611701Y-79382751D01*
X125448797Y-79382751D01*
X125448582Y-79382794D01*
X123191600Y-77125812D01*
X123199066Y-77050000D01*
X123199066Y-76279038D01*
X124618000Y-76279038D01*
X124618000Y-76505962D01*
X124662271Y-76728526D01*
X124749111Y-76938177D01*
X124875183Y-77126857D01*
X125035643Y-77287317D01*
X125224323Y-77413389D01*
X125433974Y-77500229D01*
X125656538Y-77544500D01*
X125883462Y-77544500D01*
X126106026Y-77500229D01*
X126315677Y-77413389D01*
X126435676Y-77333208D01*
X126466605Y-77370895D01*
X126531624Y-77424255D01*
X126605804Y-77463905D01*
X126686293Y-77488322D01*
X126770000Y-77496566D01*
X127170000Y-77496566D01*
X127253707Y-77488322D01*
X127295000Y-77475795D01*
X127336293Y-77488322D01*
X127420000Y-77496566D01*
X127749469Y-77496566D01*
X127750626Y-77508310D01*
X127780761Y-77607650D01*
X127829696Y-77699202D01*
X127829697Y-77699203D01*
X127843000Y-77715413D01*
X127843001Y-79881509D01*
X126928662Y-80795849D01*
X126908553Y-80812352D01*
X126851061Y-80882406D01*
X126842696Y-80892599D01*
X126793761Y-80984151D01*
X126763626Y-81083491D01*
X126753451Y-81186800D01*
X126756001Y-81212691D01*
X126756000Y-85968473D01*
X126624985Y-86022741D01*
X126505913Y-86102302D01*
X126404651Y-86203564D01*
X126325090Y-86322636D01*
X126270287Y-86454942D01*
X126242349Y-86595397D01*
X126242349Y-86738603D01*
X126270287Y-86879058D01*
X126325090Y-87011364D01*
X126378969Y-87092000D01*
X126325090Y-87172636D01*
X126270287Y-87304942D01*
X126242349Y-87445397D01*
X126242349Y-87588603D01*
X126270287Y-87729058D01*
X126325090Y-87861364D01*
X126404651Y-87980436D01*
X126505913Y-88081698D01*
X126624985Y-88161259D01*
X126757291Y-88216062D01*
X126897746Y-88244000D01*
X127040952Y-88244000D01*
X127181407Y-88216062D01*
X127313713Y-88161259D01*
X127432785Y-88081698D01*
X127534047Y-87980436D01*
X127613608Y-87861364D01*
X127668411Y-87729058D01*
X127696349Y-87588603D01*
X127696349Y-87535290D01*
X128087344Y-87144296D01*
X128107448Y-87127797D01*
X128173304Y-87047551D01*
X128222239Y-86955999D01*
X128252374Y-86856659D01*
X128260000Y-86779230D01*
X128260000Y-86779229D01*
X128262549Y-86753349D01*
X128260000Y-86727468D01*
X128260000Y-81591489D01*
X129174339Y-80677151D01*
X129194448Y-80660648D01*
X129260304Y-80580402D01*
X129309239Y-80488850D01*
X129339374Y-80389510D01*
X129349549Y-80286201D01*
X129347000Y-80260320D01*
X129347000Y-78426853D01*
X129468397Y-78451000D01*
X129611603Y-78451000D01*
X129752058Y-78423062D01*
X129884364Y-78368259D01*
X130003436Y-78288698D01*
X130104698Y-78187436D01*
X130184259Y-78068364D01*
X130239062Y-77936058D01*
X130267000Y-77795603D01*
X130267000Y-77652397D01*
X130239062Y-77511942D01*
X130188258Y-77389291D01*
X130224323Y-77413389D01*
X130433974Y-77500229D01*
X130656538Y-77544500D01*
X130883462Y-77544500D01*
X131106026Y-77500229D01*
X131315677Y-77413389D01*
X131504357Y-77287317D01*
X131664817Y-77126857D01*
X131790889Y-76938177D01*
X131877729Y-76728526D01*
X131922000Y-76505962D01*
X131922000Y-76279038D01*
X131877729Y-76056474D01*
X131790889Y-75846823D01*
X131664817Y-75658143D01*
X131504357Y-75497683D01*
X131315677Y-75371611D01*
X131106026Y-75284771D01*
X130883462Y-75240500D01*
X130656538Y-75240500D01*
X130433974Y-75284771D01*
X130224323Y-75371611D01*
X130104324Y-75451792D01*
X130073395Y-75414105D01*
X130008376Y-75360745D01*
X129934196Y-75321095D01*
X129853707Y-75296678D01*
X129770000Y-75288434D01*
X129370000Y-75288434D01*
X129286293Y-75296678D01*
X129245000Y-75309205D01*
X129203707Y-75296678D01*
X129120000Y-75288434D01*
X128720000Y-75288434D01*
X128636293Y-75296678D01*
X128595000Y-75309205D01*
X128553707Y-75296678D01*
X128470000Y-75288434D01*
X128070000Y-75288434D01*
X127986293Y-75296678D01*
X127945000Y-75309205D01*
X127903707Y-75296678D01*
X127820000Y-75288434D01*
X127420000Y-75288434D01*
X127336293Y-75296678D01*
X127295000Y-75309205D01*
X127253707Y-75296678D01*
X127170000Y-75288434D01*
X126770000Y-75288434D01*
X126686293Y-75296678D01*
X126605804Y-75321095D01*
X126531624Y-75360745D01*
X126466605Y-75414105D01*
X126435676Y-75451792D01*
X126315677Y-75371611D01*
X126106026Y-75284771D01*
X125883462Y-75240500D01*
X125656538Y-75240500D01*
X125433974Y-75284771D01*
X125224323Y-75371611D01*
X125035643Y-75497683D01*
X124875183Y-75658143D01*
X124749111Y-75846823D01*
X124662271Y-76056474D01*
X124618000Y-76279038D01*
X123199066Y-76279038D01*
X123199066Y-75350000D01*
X123190822Y-75266293D01*
X123166405Y-75185804D01*
X123126755Y-75111624D01*
X123073395Y-75046605D01*
X123008376Y-74993245D01*
X122934196Y-74953595D01*
X122853707Y-74929178D01*
X122770000Y-74920934D01*
X121102000Y-74920934D01*
X121102000Y-72842000D01*
X123873021Y-72842000D01*
X123816586Y-72947583D01*
G37*
X123816586Y-72947583D02*
X123757860Y-73141173D01*
X123743000Y-73292049D01*
X123743000Y-74092950D01*
X123757860Y-74243826D01*
X123816585Y-74437416D01*
X123911949Y-74615831D01*
X124040288Y-74772212D01*
X124196669Y-74900551D01*
X124375083Y-74995915D01*
X124568673Y-75054640D01*
X124770000Y-75074469D01*
X124799474Y-75071566D01*
X125970000Y-75071566D01*
X126053707Y-75063322D01*
X126134196Y-75038905D01*
X126208376Y-74999255D01*
X126245000Y-74969198D01*
X126281624Y-74999255D01*
X126355804Y-75038905D01*
X126436293Y-75063322D01*
X126520000Y-75071566D01*
X128020000Y-75071566D01*
X128103707Y-75063322D01*
X128184196Y-75038905D01*
X128258376Y-74999255D01*
X128270000Y-74989715D01*
X128281624Y-74999255D01*
X128355804Y-75038905D01*
X128436293Y-75063322D01*
X128520000Y-75071566D01*
X130020000Y-75071566D01*
X130103707Y-75063322D01*
X130184196Y-75038905D01*
X130258376Y-74999255D01*
X130295000Y-74969198D01*
X130331624Y-74999255D01*
X130405804Y-75038905D01*
X130486293Y-75063322D01*
X130570000Y-75071566D01*
X131740526Y-75071566D01*
X131770000Y-75074469D01*
X131971327Y-75054640D01*
X132164917Y-74995915D01*
X132343331Y-74900551D01*
X132499712Y-74772212D01*
X132628051Y-74615831D01*
X132723415Y-74437417D01*
X132782140Y-74243826D01*
X132797000Y-74092950D01*
X132797000Y-73292049D01*
X132782140Y-73141173D01*
X132723415Y-72947583D01*
X132666980Y-72842000D01*
X135438001Y-72842000D01*
X135438001Y-74920934D01*
X133770000Y-74920934D01*
X133686293Y-74929178D01*
X133605804Y-74953595D01*
X133531624Y-74993245D01*
X133466605Y-75046605D01*
X133413245Y-75111624D01*
X133373595Y-75185804D01*
X133349178Y-75266293D01*
X133340934Y-75350000D01*
X133340934Y-77050000D01*
X133349178Y-77133707D01*
X133373595Y-77214196D01*
X133413245Y-77288376D01*
X133466605Y-77353395D01*
X133531624Y-77406755D01*
X133605804Y-77446405D01*
X133686293Y-77470822D01*
X133770000Y-77479066D01*
X134413456Y-77479066D01*
X134247513Y-77512074D01*
X134015114Y-77608337D01*
X133805960Y-77748089D01*
X133628089Y-77925960D01*
X133488337Y-78135114D01*
X133456076Y-78213000D01*
X133121881Y-78213000D01*
X133096000Y-78210451D01*
X133070119Y-78213000D01*
X132992690Y-78220626D01*
X132893350Y-78250761D01*
X132801798Y-78299696D01*
X132721552Y-78365552D01*
X132705049Y-78385661D01*
X131725662Y-79365049D01*
X131705553Y-79381552D01*
X131649628Y-79449697D01*
X131639696Y-79461799D01*
X131590761Y-79553351D01*
X131560626Y-79652691D01*
X131550451Y-79756000D01*
X131553001Y-79781891D01*
X131553000Y-84334866D01*
X131515302Y-84372564D01*
X131435741Y-84491636D01*
X131380938Y-84623942D01*
X131353000Y-84764397D01*
X131353000Y-84907603D01*
X131380938Y-85048058D01*
X131435741Y-85180364D01*
X131515302Y-85299436D01*
X131616564Y-85400698D01*
X131735636Y-85480259D01*
X131861000Y-85532187D01*
X131861000Y-85669603D01*
X131888938Y-85810058D01*
X131943741Y-85942364D01*
X132001483Y-86028781D01*
X131969983Y-86075924D01*
X131915180Y-86208230D01*
X131887242Y-86348685D01*
X131887242Y-86491891D01*
X131915180Y-86632346D01*
X131969983Y-86764652D01*
X132049544Y-86883724D01*
X132150806Y-86984986D01*
X132269878Y-87064547D01*
X132402184Y-87119350D01*
X132542639Y-87147288D01*
X132685845Y-87147288D01*
X132826300Y-87119350D01*
X132958606Y-87064547D01*
X133077678Y-86984986D01*
X133178940Y-86883724D01*
X133258501Y-86764652D01*
X133313304Y-86632346D01*
X133341242Y-86491891D01*
X133341242Y-86438577D01*
X133343000Y-86436819D01*
X133343000Y-86485774D01*
X133392074Y-86732487D01*
X133488337Y-86964886D01*
X133628089Y-87174040D01*
X133805960Y-87351911D01*
X134015114Y-87491663D01*
X134086416Y-87521197D01*
X133988748Y-87555843D01*
X133738645Y-87704822D01*
X133522412Y-87899731D01*
X133348359Y-88133080D01*
X133223175Y-88395901D01*
X133178524Y-88543110D01*
X133299844Y-88772998D01*
X133135000Y-88772998D01*
X133135000Y-88897601D01*
X133099162Y-88873655D01*
X132966856Y-88818852D01*
X132826401Y-88790914D01*
X132683195Y-88790914D01*
X132542740Y-88818852D01*
X132410434Y-88873655D01*
X132291362Y-88953216D01*
X132190100Y-89054478D01*
X132110539Y-89173550D01*
X132055736Y-89305856D01*
X132027798Y-89446311D01*
X132027798Y-89589517D01*
X132055736Y-89729972D01*
X132110539Y-89862278D01*
X132152630Y-89925272D01*
X132096995Y-90008536D01*
X132042192Y-90140842D01*
X132014254Y-90281297D01*
X132014254Y-90424503D01*
X132039702Y-90552440D01*
X132006553Y-90574589D01*
X131905291Y-90675851D01*
X131825730Y-90794923D01*
X131770927Y-90927229D01*
X131748834Y-91038297D01*
X131730690Y-91041906D01*
X131598384Y-91096709D01*
X131479312Y-91176270D01*
X131378050Y-91277532D01*
X131298489Y-91396604D01*
X131243686Y-91528910D01*
X131215748Y-91669365D01*
X131215748Y-91812571D01*
X131243686Y-91953026D01*
X131298489Y-92085332D01*
X131378050Y-92204404D01*
X131421688Y-92248042D01*
X131423374Y-92265156D01*
X131453509Y-92364496D01*
X131502444Y-92456049D01*
X131568300Y-92536295D01*
X131588414Y-92552802D01*
X132142980Y-93107369D01*
X132142979Y-94837498D01*
X132140430Y-94863379D01*
X132142979Y-94889259D01*
X132150605Y-94966688D01*
X132180740Y-95066028D01*
X132229675Y-95157581D01*
X132295531Y-95237827D01*
X132315645Y-95254334D01*
X132542990Y-95481680D01*
X132542989Y-98755472D01*
X132531330Y-98738023D01*
X132349977Y-98556670D01*
X132136728Y-98414182D01*
X131899779Y-98316035D01*
X131648236Y-98266000D01*
X131391764Y-98266000D01*
X131140221Y-98316035D01*
X130903272Y-98414182D01*
X130690023Y-98556670D01*
X130508670Y-98738023D01*
X130384184Y-98924330D01*
X128958463Y-97498610D01*
X129254250Y-97497000D01*
X129413000Y-97338250D01*
X129413000Y-96139000D01*
X129667000Y-96139000D01*
X129667000Y-97338250D01*
X129825750Y-97497000D01*
X130390000Y-97500072D01*
X130514482Y-97487812D01*
X130634180Y-97451502D01*
X130744494Y-97392537D01*
X130841185Y-97313185D01*
X130920537Y-97216494D01*
X130979502Y-97106180D01*
X131015812Y-96986482D01*
X131028072Y-96862000D01*
X131025000Y-96297750D01*
X130866250Y-96139000D01*
X129667000Y-96139000D01*
X129413000Y-96139000D01*
X129393000Y-96139000D01*
X129393000Y-95885000D01*
X129413000Y-95885000D01*
X129413000Y-94685750D01*
X129667000Y-94685750D01*
X129667000Y-95885000D01*
X130866250Y-95885000D01*
X131025000Y-95726250D01*
X131028072Y-95162000D01*
X131015812Y-95037518D01*
X130979502Y-94917820D01*
X130920537Y-94807506D01*
X130841185Y-94710815D01*
X130744494Y-94631463D01*
X130634180Y-94572498D01*
X130514482Y-94536188D01*
X130390000Y-94523928D01*
X129825750Y-94527000D01*
X129667000Y-94685750D01*
X129413000Y-94685750D01*
X129289260Y-94562010D01*
X130105164Y-93746107D01*
X130125268Y-93729608D01*
X130191124Y-93649362D01*
X130240059Y-93557810D01*
X130270194Y-93458470D01*
X130277820Y-93381041D01*
X130280369Y-93355160D01*
X130277820Y-93329279D01*
X130277820Y-89967554D01*
X130315518Y-89929856D01*
X130395079Y-89810784D01*
X130449882Y-89678478D01*
X130477820Y-89538023D01*
X130477820Y-89394817D01*
X130449882Y-89254362D01*
X130395079Y-89122056D01*
X130315518Y-89002984D01*
X130214256Y-88901722D01*
X130095184Y-88822161D01*
X129962878Y-88767358D01*
X129822423Y-88739420D01*
X129679217Y-88739420D01*
X129538762Y-88767358D01*
X129438157Y-88809030D01*
X130351327Y-87895861D01*
X130371436Y-87879358D01*
X130437292Y-87799112D01*
X130486227Y-87707560D01*
X130516362Y-87608220D01*
X130523988Y-87530791D01*
X130523988Y-87530789D01*
X130526537Y-87504911D01*
X130523988Y-87479033D01*
X130523988Y-86348570D01*
X130561686Y-86310872D01*
X130641247Y-86191800D01*
X130696050Y-86059494D01*
X130723988Y-85919039D01*
X130723988Y-85775833D01*
X130696050Y-85635378D01*
X130641247Y-85503072D01*
X130561686Y-85384000D01*
X130460424Y-85282738D01*
X130341352Y-85203177D01*
X130209046Y-85148374D01*
X130068591Y-85120436D01*
X129925385Y-85120436D01*
X129784930Y-85148374D01*
X129652624Y-85203177D01*
X129533552Y-85282738D01*
X129432290Y-85384000D01*
X129352729Y-85503072D01*
X129297926Y-85635378D01*
X129269988Y-85775833D01*
X129269988Y-85919039D01*
X129297926Y-86059494D01*
X129352729Y-86191800D01*
X129432290Y-86310872D01*
X129469988Y-86348570D01*
X129469989Y-87286619D01*
X128522722Y-88233887D01*
X128502613Y-88250390D01*
X128445121Y-88320444D01*
X128436756Y-88330637D01*
X128387821Y-88422189D01*
X128357686Y-88521529D01*
X128347511Y-88624838D01*
X128350061Y-88650729D01*
X128350060Y-92714568D01*
X126645662Y-94418968D01*
X126625553Y-94435471D01*
X126573148Y-94499327D01*
X126559696Y-94515718D01*
X126510761Y-94607270D01*
X126480626Y-94706610D01*
X126470451Y-94809919D01*
X126473001Y-94835809D01*
X126473001Y-94848075D01*
X126395114Y-94880337D01*
X126185960Y-95020089D01*
X126008089Y-95197960D01*
X125868337Y-95407114D01*
X125772074Y-95639513D01*
X125723000Y-95886226D01*
X125723000Y-96137774D01*
X125772074Y-96384487D01*
X125868337Y-96616886D01*
X126008089Y-96826040D01*
X126185960Y-97003911D01*
X126395114Y-97143663D01*
X126627513Y-97239926D01*
X126874226Y-97289000D01*
X127125774Y-97289000D01*
X127372487Y-97239926D01*
X127604886Y-97143663D01*
X127814040Y-97003911D01*
X127863000Y-96954951D01*
X127863000Y-97649544D01*
X127860450Y-97675435D01*
X127870625Y-97778744D01*
X127900760Y-97878084D01*
X127927629Y-97928353D01*
X127949696Y-97969637D01*
X128015552Y-98049883D01*
X128035661Y-98066386D01*
X129891613Y-99922339D01*
X129908116Y-99942448D01*
X129985742Y-100006154D01*
X129988362Y-100008304D01*
X130079914Y-100057239D01*
X130179254Y-100087374D01*
X130282563Y-100097549D01*
X130308444Y-100095000D01*
X130329016Y-100095000D01*
X130366182Y-100184728D01*
X130508670Y-100397977D01*
X130690023Y-100579330D01*
X130903272Y-100721818D01*
X131140221Y-100819965D01*
X131391764Y-100870000D01*
X131648236Y-100870000D01*
X131899779Y-100819965D01*
X132136728Y-100721818D01*
X132349977Y-100579330D01*
X132531330Y-100397977D01*
X132601946Y-100292293D01*
X132629685Y-100344191D01*
X132695541Y-100424437D01*
X132715655Y-100440944D01*
X133424336Y-101149626D01*
X133392074Y-101227513D01*
X133343000Y-101474226D01*
X133343000Y-101725774D01*
X133392074Y-101972487D01*
X133488337Y-102204886D01*
X133628089Y-102414040D01*
X133805960Y-102591911D01*
X134015114Y-102731663D01*
X134247513Y-102827926D01*
X134459034Y-102870000D01*
X134247513Y-102912074D01*
X134015114Y-103008337D01*
X133805960Y-103148089D01*
X133628089Y-103325960D01*
X133488337Y-103535114D01*
X133392074Y-103767513D01*
X133343000Y-104014226D01*
X133343000Y-104265774D01*
X133392074Y-104512487D01*
X133488337Y-104744886D01*
X133628089Y-104954040D01*
X133632049Y-104958000D01*
X122907951Y-104958000D01*
X122911911Y-104954040D01*
X123051663Y-104744886D01*
X123147926Y-104512487D01*
X123197000Y-104265774D01*
X123197000Y-104014226D01*
X123147926Y-103767513D01*
X123051663Y-103535114D01*
X122934546Y-103359836D01*
X123053049Y-103478339D01*
X123069552Y-103498448D01*
X123149798Y-103564304D01*
X123241350Y-103613239D01*
X123340690Y-103643374D01*
X123418119Y-103651000D01*
X123418121Y-103651000D01*
X123443999Y-103653549D01*
X123469877Y-103651000D01*
X125482866Y-103651000D01*
X125520564Y-103688698D01*
X125639636Y-103768259D01*
X125771942Y-103823062D01*
X125912397Y-103851000D01*
X126055603Y-103851000D01*
X126196058Y-103823062D01*
X126328364Y-103768259D01*
X126447436Y-103688698D01*
X126548698Y-103587436D01*
X126628259Y-103468364D01*
X126683062Y-103336058D01*
X126711000Y-103195603D01*
X126711000Y-103052397D01*
X126683062Y-102911942D01*
X126628259Y-102779636D01*
X126548698Y-102660564D01*
X126447436Y-102559302D01*
X126328364Y-102479741D01*
X126196058Y-102424938D01*
X126055603Y-102397000D01*
X125912397Y-102397000D01*
X125771942Y-102424938D01*
X125639636Y-102479741D01*
X125520564Y-102559302D01*
X125482866Y-102597000D01*
X123662290Y-102597000D01*
X123115664Y-102050374D01*
X123147926Y-101972487D01*
X123197000Y-101725774D01*
X123197000Y-101474226D01*
X123147926Y-101227513D01*
X123115664Y-101149626D01*
X123665537Y-100599753D01*
X123685646Y-100583250D01*
X123751502Y-100503004D01*
X123800437Y-100411452D01*
X123830572Y-100312112D01*
X123838198Y-100234683D01*
X123840747Y-100208803D01*
X123838198Y-100182922D01*
X123838198Y-100117168D01*
X123866182Y-100184728D01*
X124008670Y-100397977D01*
X124190023Y-100579330D01*
X124403272Y-100721818D01*
X124640221Y-100819965D01*
X124891764Y-100870000D01*
X125148236Y-100870000D01*
X125399779Y-100819965D01*
X125636728Y-100721818D01*
X125849977Y-100579330D01*
X126031330Y-100397977D01*
X126173818Y-100184728D01*
X126210984Y-100095000D01*
X126283317Y-100095000D01*
X126360746Y-100087374D01*
X126460086Y-100057239D01*
X126551638Y-100008304D01*
X126631884Y-99942448D01*
X126697740Y-99862202D01*
X126746675Y-99770650D01*
X126776810Y-99671310D01*
X126786985Y-99568000D01*
X126776810Y-99464690D01*
X126746675Y-99365350D01*
X126697740Y-99273798D01*
X126631884Y-99193552D01*
X126551638Y-99127696D01*
X126460086Y-99078761D01*
X126360746Y-99048626D01*
X126283317Y-99041000D01*
X126210984Y-99041000D01*
X126173818Y-98951272D01*
X126031330Y-98738023D01*
X125914792Y-98621485D01*
X125942058Y-98616062D01*
X126074364Y-98561259D01*
X126193436Y-98481698D01*
X126294698Y-98380436D01*
X126374259Y-98261364D01*
X126429062Y-98129058D01*
X126457000Y-97988603D01*
X126457000Y-97845397D01*
X126429062Y-97704942D01*
X126374259Y-97572636D01*
X126294698Y-97453564D01*
X126193436Y-97352302D01*
X126074364Y-97272741D01*
X125942058Y-97217938D01*
X125801603Y-97190000D01*
X125658397Y-97190000D01*
X125517942Y-97217938D01*
X125385636Y-97272741D01*
X125266564Y-97352302D01*
X125165302Y-97453564D01*
X125085741Y-97572636D01*
X125030938Y-97704942D01*
X125003000Y-97845397D01*
X125003000Y-97988603D01*
X125030938Y-98129058D01*
X125085741Y-98261364D01*
X125088839Y-98266000D01*
X124891764Y-98266000D01*
X124640221Y-98316035D01*
X124403272Y-98414182D01*
X124190023Y-98556670D01*
X124008670Y-98738023D01*
X123866182Y-98951272D01*
X123838198Y-99018832D01*
X123838198Y-98452790D01*
X124100198Y-98190791D01*
X124120307Y-98174288D01*
X124186163Y-98094042D01*
X124235098Y-98002490D01*
X124257588Y-97928353D01*
X124265233Y-97903151D01*
X124275408Y-97799841D01*
X124272859Y-97773960D01*
X124272859Y-96043828D01*
X124849998Y-95466690D01*
X124870107Y-95450187D01*
X124935963Y-95369941D01*
X124984898Y-95278389D01*
X125015033Y-95179049D01*
X125022659Y-95101620D01*
X125022659Y-95101618D01*
X125025208Y-95075740D01*
X125022659Y-95049862D01*
X125022659Y-92580686D01*
X125027304Y-92575026D01*
X125076239Y-92483474D01*
X125106374Y-92384134D01*
X125108429Y-92363265D01*
X125151698Y-92319996D01*
X125231259Y-92200924D01*
X125286062Y-92068618D01*
X125314000Y-91928163D01*
X125314000Y-91784957D01*
X125286062Y-91644502D01*
X125231259Y-91512196D01*
X125151698Y-91393124D01*
X125050436Y-91291862D01*
X124931364Y-91212301D01*
X124821808Y-91166921D01*
X124821998Y-91165966D01*
X124821998Y-91022760D01*
X124794060Y-90882305D01*
X124739257Y-90749999D01*
X124659696Y-90630927D01*
X124613237Y-90584468D01*
X124634370Y-90570347D01*
X124735632Y-90469085D01*
X124815193Y-90350013D01*
X124869996Y-90217707D01*
X124897934Y-90077252D01*
X124897934Y-89934046D01*
X124869996Y-89793591D01*
X124815193Y-89661285D01*
X124735632Y-89542213D01*
X124634370Y-89440951D01*
X124515298Y-89361390D01*
X124397001Y-89312390D01*
X124397001Y-89310292D01*
X124369063Y-89169837D01*
X124314260Y-89037531D01*
X124234699Y-88918459D01*
X124133437Y-88817197D01*
X124014365Y-88737636D01*
X123882059Y-88682833D01*
X123741604Y-88654895D01*
X123598398Y-88654895D01*
X123457943Y-88682833D01*
X123325637Y-88737636D01*
X123272714Y-88772998D01*
X123240156Y-88772998D01*
X123361476Y-88543110D01*
X123316825Y-88395901D01*
X123191641Y-88133080D01*
X123017588Y-87899731D01*
X122801355Y-87704822D01*
X122551252Y-87555843D01*
X122453584Y-87521197D01*
X122524886Y-87491663D01*
X122734040Y-87351911D01*
X122911911Y-87174040D01*
X123051663Y-86964886D01*
X123147926Y-86732487D01*
X123197000Y-86485774D01*
X123197000Y-86234226D01*
X123162750Y-86062040D01*
X123225000Y-86124290D01*
X123225000Y-86177603D01*
X123252938Y-86318058D01*
X123307741Y-86450364D01*
X123387302Y-86569436D01*
X123488564Y-86670698D01*
X123607636Y-86750259D01*
X123739942Y-86805062D01*
X123880397Y-86833000D01*
X124023603Y-86833000D01*
X124164058Y-86805062D01*
X124296364Y-86750259D01*
X124415436Y-86670698D01*
X124516698Y-86569436D01*
X124596259Y-86450364D01*
X124651062Y-86318058D01*
X124679000Y-86177603D01*
X124679000Y-86034397D01*
X124651062Y-85893942D01*
X124596259Y-85761636D01*
X124516698Y-85642564D01*
X124472134Y-85598000D01*
X124516698Y-85553436D01*
X124596259Y-85434364D01*
X124651062Y-85302058D01*
X124679000Y-85161603D01*
X124679000Y-85018397D01*
X124651062Y-84877942D01*
X124596259Y-84745636D01*
X124516698Y-84626564D01*
X124415436Y-84525302D01*
X124296364Y-84445741D01*
X124266339Y-84433304D01*
X124266339Y-82527220D01*
X124268888Y-82501339D01*
X124258713Y-82398029D01*
X124243339Y-82347350D01*
X124228578Y-82298689D01*
X124179643Y-82207137D01*
X124113787Y-82126891D01*
X124093678Y-82110388D01*
X123597001Y-81613712D01*
X123597001Y-79915882D01*
X123599550Y-79890001D01*
X123589375Y-79786691D01*
X123559240Y-79687352D01*
X123559240Y-79687351D01*
X123510305Y-79595799D01*
X123444449Y-79515553D01*
X123424335Y-79499046D01*
X123160949Y-79235660D01*
X123160944Y-79235654D01*
X123115664Y-79190374D01*
X123147926Y-79112487D01*
X123197000Y-78865774D01*
X123197000Y-78621791D01*
X124703292Y-80128084D01*
X124703249Y-80128299D01*
X124703249Y-80291203D01*
X124735031Y-80450978D01*
X124797372Y-80601482D01*
X124887877Y-80736932D01*
X125003068Y-80852123D01*
X125138518Y-80942628D01*
X125289022Y-81004969D01*
X125448797Y-81036751D01*
X125611701Y-81036751D01*
X125771476Y-81004969D01*
X125921980Y-80942628D01*
X126057430Y-80852123D01*
X126172621Y-80736932D01*
X126263126Y-80601482D01*
X126325467Y-80450978D01*
X126357249Y-80291203D01*
X126357249Y-80128299D01*
X126325467Y-79968524D01*
X126263126Y-79818020D01*
X126172621Y-79682570D01*
X126057430Y-79567379D01*
X125921980Y-79476874D01*
X125771476Y-79414533D01*
X125611701Y-79382751D01*
X125448797Y-79382751D01*
X125448582Y-79382794D01*
X123191600Y-77125812D01*
X123199066Y-77050000D01*
X123199066Y-76279038D01*
X124618000Y-76279038D01*
X124618000Y-76505962D01*
X124662271Y-76728526D01*
X124749111Y-76938177D01*
X124875183Y-77126857D01*
X125035643Y-77287317D01*
X125224323Y-77413389D01*
X125433974Y-77500229D01*
X125656538Y-77544500D01*
X125883462Y-77544500D01*
X126106026Y-77500229D01*
X126315677Y-77413389D01*
X126435676Y-77333208D01*
X126466605Y-77370895D01*
X126531624Y-77424255D01*
X126605804Y-77463905D01*
X126686293Y-77488322D01*
X126770000Y-77496566D01*
X127170000Y-77496566D01*
X127253707Y-77488322D01*
X127295000Y-77475795D01*
X127336293Y-77488322D01*
X127420000Y-77496566D01*
X127749469Y-77496566D01*
X127750626Y-77508310D01*
X127780761Y-77607650D01*
X127829696Y-77699202D01*
X127829697Y-77699203D01*
X127843000Y-77715413D01*
X127843001Y-79881509D01*
X126928662Y-80795849D01*
X126908553Y-80812352D01*
X126851061Y-80882406D01*
X126842696Y-80892599D01*
X126793761Y-80984151D01*
X126763626Y-81083491D01*
X126753451Y-81186800D01*
X126756001Y-81212691D01*
X126756000Y-85968473D01*
X126624985Y-86022741D01*
X126505913Y-86102302D01*
X126404651Y-86203564D01*
X126325090Y-86322636D01*
X126270287Y-86454942D01*
X126242349Y-86595397D01*
X126242349Y-86738603D01*
X126270287Y-86879058D01*
X126325090Y-87011364D01*
X126378969Y-87092000D01*
X126325090Y-87172636D01*
X126270287Y-87304942D01*
X126242349Y-87445397D01*
X126242349Y-87588603D01*
X126270287Y-87729058D01*
X126325090Y-87861364D01*
X126404651Y-87980436D01*
X126505913Y-88081698D01*
X126624985Y-88161259D01*
X126757291Y-88216062D01*
X126897746Y-88244000D01*
X127040952Y-88244000D01*
X127181407Y-88216062D01*
X127313713Y-88161259D01*
X127432785Y-88081698D01*
X127534047Y-87980436D01*
X127613608Y-87861364D01*
X127668411Y-87729058D01*
X127696349Y-87588603D01*
X127696349Y-87535290D01*
X128087344Y-87144296D01*
X128107448Y-87127797D01*
X128173304Y-87047551D01*
X128222239Y-86955999D01*
X128252374Y-86856659D01*
X128260000Y-86779230D01*
X128260000Y-86779229D01*
X128262549Y-86753349D01*
X128260000Y-86727468D01*
X128260000Y-81591489D01*
X129174339Y-80677151D01*
X129194448Y-80660648D01*
X129260304Y-80580402D01*
X129309239Y-80488850D01*
X129339374Y-80389510D01*
X129349549Y-80286201D01*
X129347000Y-80260320D01*
X129347000Y-78426853D01*
X129468397Y-78451000D01*
X129611603Y-78451000D01*
X129752058Y-78423062D01*
X129884364Y-78368259D01*
X130003436Y-78288698D01*
X130104698Y-78187436D01*
X130184259Y-78068364D01*
X130239062Y-77936058D01*
X130267000Y-77795603D01*
X130267000Y-77652397D01*
X130239062Y-77511942D01*
X130188258Y-77389291D01*
X130224323Y-77413389D01*
X130433974Y-77500229D01*
X130656538Y-77544500D01*
X130883462Y-77544500D01*
X131106026Y-77500229D01*
X131315677Y-77413389D01*
X131504357Y-77287317D01*
X131664817Y-77126857D01*
X131790889Y-76938177D01*
X131877729Y-76728526D01*
X131922000Y-76505962D01*
X131922000Y-76279038D01*
X131877729Y-76056474D01*
X131790889Y-75846823D01*
X131664817Y-75658143D01*
X131504357Y-75497683D01*
X131315677Y-75371611D01*
X131106026Y-75284771D01*
X130883462Y-75240500D01*
X130656538Y-75240500D01*
X130433974Y-75284771D01*
X130224323Y-75371611D01*
X130104324Y-75451792D01*
X130073395Y-75414105D01*
X130008376Y-75360745D01*
X129934196Y-75321095D01*
X129853707Y-75296678D01*
X129770000Y-75288434D01*
X129370000Y-75288434D01*
X129286293Y-75296678D01*
X129245000Y-75309205D01*
X129203707Y-75296678D01*
X129120000Y-75288434D01*
X128720000Y-75288434D01*
X128636293Y-75296678D01*
X128595000Y-75309205D01*
X128553707Y-75296678D01*
X128470000Y-75288434D01*
X128070000Y-75288434D01*
X127986293Y-75296678D01*
X127945000Y-75309205D01*
X127903707Y-75296678D01*
X127820000Y-75288434D01*
X127420000Y-75288434D01*
X127336293Y-75296678D01*
X127295000Y-75309205D01*
X127253707Y-75296678D01*
X127170000Y-75288434D01*
X126770000Y-75288434D01*
X126686293Y-75296678D01*
X126605804Y-75321095D01*
X126531624Y-75360745D01*
X126466605Y-75414105D01*
X126435676Y-75451792D01*
X126315677Y-75371611D01*
X126106026Y-75284771D01*
X125883462Y-75240500D01*
X125656538Y-75240500D01*
X125433974Y-75284771D01*
X125224323Y-75371611D01*
X125035643Y-75497683D01*
X124875183Y-75658143D01*
X124749111Y-75846823D01*
X124662271Y-76056474D01*
X124618000Y-76279038D01*
X123199066Y-76279038D01*
X123199066Y-75350000D01*
X123190822Y-75266293D01*
X123166405Y-75185804D01*
X123126755Y-75111624D01*
X123073395Y-75046605D01*
X123008376Y-74993245D01*
X122934196Y-74953595D01*
X122853707Y-74929178D01*
X122770000Y-74920934D01*
X121102000Y-74920934D01*
X121102000Y-72842000D01*
X123873021Y-72842000D01*
X123816586Y-72947583D01*
G36*
X134747000Y-88773000D02*
G01*
X134767000Y-88773000D01*
X134767000Y-89027000D01*
X134747000Y-89027000D01*
X134747000Y-89047000D01*
X134493000Y-89047000D01*
X134493000Y-89027000D01*
X134473000Y-89027000D01*
X134473000Y-88773000D01*
X134493000Y-88773000D01*
X134493000Y-88753000D01*
X134747000Y-88753000D01*
X134747000Y-88773000D01*
G37*
X134747000Y-88773000D02*
X134767000Y-88773000D01*
X134767000Y-89027000D01*
X134747000Y-89027000D01*
X134747000Y-89047000D01*
X134493000Y-89047000D01*
X134493000Y-89027000D01*
X134473000Y-89027000D01*
X134473000Y-88773000D01*
X134493000Y-88773000D01*
X134493000Y-88753000D01*
X134747000Y-88753000D01*
X134747000Y-88773000D01*
G36*
X122047000Y-88773000D02*
G01*
X122067000Y-88773000D01*
X122067000Y-89027000D01*
X122047000Y-89027000D01*
X122047000Y-89047000D01*
X121793000Y-89047000D01*
X121793000Y-89027000D01*
X121773000Y-89027000D01*
X121773000Y-88773000D01*
X121793000Y-88773000D01*
X121793000Y-88753000D01*
X122047000Y-88753000D01*
X122047000Y-88773000D01*
G37*
X122047000Y-88773000D02*
X122067000Y-88773000D01*
X122067000Y-89027000D01*
X122047000Y-89027000D01*
X122047000Y-89047000D01*
X121793000Y-89047000D01*
X121793000Y-89027000D01*
X121773000Y-89027000D01*
X121773000Y-88773000D01*
X121793000Y-88773000D01*
X121793000Y-88753000D01*
X122047000Y-88753000D01*
X122047000Y-88773000D01*
M02*
