G04 #@! TF.GenerationSoftware,KiCad,Pcbnew,(5.1.5)-3*
G04 #@! TF.CreationDate,2021-03-17T15:34:18-05:00*
G04 #@! TF.ProjectId,STM32_Breakout,53544d33-325f-4427-9265-616b6f75742e,rev?*
G04 #@! TF.SameCoordinates,Original*
G04 #@! TF.FileFunction,Copper,L2,Bot*
G04 #@! TF.FilePolarity,Positive*
%FSLAX46Y46*%
G04 Gerber Fmt 4.6, Leading zero omitted, Abs format (unit mm)*
G04 Created by KiCad (PCBNEW (5.1.5)-3) date 2021-03-17 15:34:18*
%MOMM*%
%LPD*%
G04 APERTURE LIST*
%ADD10R,1.450000X0.450000*%
%ADD11C,0.100000*%
%ADD12C,1.750000*%
%ADD13O,1.700000X1.700000*%
%ADD14R,1.700000X1.700000*%
%ADD15R,0.650000X1.060000*%
%ADD16O,1.200000X1.900000*%
%ADD17C,1.450000*%
%ADD18C,0.600000*%
%ADD19C,0.800000*%
%ADD20C,0.500000*%
%ADD21C,0.750000*%
%ADD22C,0.200000*%
%ADD23C,0.250000*%
%ADD24C,0.254000*%
G04 APERTURE END LIST*
D10*
X125320000Y-85467000D03*
X125320000Y-86117000D03*
X125320000Y-86767000D03*
X125320000Y-87417000D03*
X125320000Y-88067000D03*
X125320000Y-88717000D03*
X125320000Y-89367000D03*
X125320000Y-90017000D03*
X125320000Y-90667000D03*
X125320000Y-91317000D03*
X131220000Y-91317000D03*
X131220000Y-90667000D03*
X131220000Y-90017000D03*
X131220000Y-89367000D03*
X131220000Y-88717000D03*
X131220000Y-88067000D03*
X131220000Y-87417000D03*
X131220000Y-86767000D03*
X131220000Y-86117000D03*
X131220000Y-85467000D03*
G04 #@! TA.AperFunction,SMDPad,CuDef*
D11*
G36*
X131919505Y-83001204D02*
G01*
X131943773Y-83004804D01*
X131967572Y-83010765D01*
X131990671Y-83019030D01*
X132012850Y-83029520D01*
X132033893Y-83042132D01*
X132053599Y-83056747D01*
X132071777Y-83073223D01*
X132088253Y-83091401D01*
X132102868Y-83111107D01*
X132115480Y-83132150D01*
X132125970Y-83154329D01*
X132134235Y-83177428D01*
X132140196Y-83201227D01*
X132143796Y-83225495D01*
X132145000Y-83249999D01*
X132145000Y-83900001D01*
X132143796Y-83924505D01*
X132140196Y-83948773D01*
X132134235Y-83972572D01*
X132125970Y-83995671D01*
X132115480Y-84017850D01*
X132102868Y-84038893D01*
X132088253Y-84058599D01*
X132071777Y-84076777D01*
X132053599Y-84093253D01*
X132033893Y-84107868D01*
X132012850Y-84120480D01*
X131990671Y-84130970D01*
X131967572Y-84139235D01*
X131943773Y-84145196D01*
X131919505Y-84148796D01*
X131895001Y-84150000D01*
X130994999Y-84150000D01*
X130970495Y-84148796D01*
X130946227Y-84145196D01*
X130922428Y-84139235D01*
X130899329Y-84130970D01*
X130877150Y-84120480D01*
X130856107Y-84107868D01*
X130836401Y-84093253D01*
X130818223Y-84076777D01*
X130801747Y-84058599D01*
X130787132Y-84038893D01*
X130774520Y-84017850D01*
X130764030Y-83995671D01*
X130755765Y-83972572D01*
X130749804Y-83948773D01*
X130746204Y-83924505D01*
X130745000Y-83900001D01*
X130745000Y-83249999D01*
X130746204Y-83225495D01*
X130749804Y-83201227D01*
X130755765Y-83177428D01*
X130764030Y-83154329D01*
X130774520Y-83132150D01*
X130787132Y-83111107D01*
X130801747Y-83091401D01*
X130818223Y-83073223D01*
X130836401Y-83056747D01*
X130856107Y-83042132D01*
X130877150Y-83029520D01*
X130899329Y-83019030D01*
X130922428Y-83010765D01*
X130946227Y-83004804D01*
X130970495Y-83001204D01*
X130994999Y-83000000D01*
X131895001Y-83000000D01*
X131919505Y-83001204D01*
G37*
G04 #@! TD.AperFunction*
G04 #@! TA.AperFunction,SMDPad,CuDef*
G36*
X131919505Y-80951204D02*
G01*
X131943773Y-80954804D01*
X131967572Y-80960765D01*
X131990671Y-80969030D01*
X132012850Y-80979520D01*
X132033893Y-80992132D01*
X132053599Y-81006747D01*
X132071777Y-81023223D01*
X132088253Y-81041401D01*
X132102868Y-81061107D01*
X132115480Y-81082150D01*
X132125970Y-81104329D01*
X132134235Y-81127428D01*
X132140196Y-81151227D01*
X132143796Y-81175495D01*
X132145000Y-81199999D01*
X132145000Y-81850001D01*
X132143796Y-81874505D01*
X132140196Y-81898773D01*
X132134235Y-81922572D01*
X132125970Y-81945671D01*
X132115480Y-81967850D01*
X132102868Y-81988893D01*
X132088253Y-82008599D01*
X132071777Y-82026777D01*
X132053599Y-82043253D01*
X132033893Y-82057868D01*
X132012850Y-82070480D01*
X131990671Y-82080970D01*
X131967572Y-82089235D01*
X131943773Y-82095196D01*
X131919505Y-82098796D01*
X131895001Y-82100000D01*
X130994999Y-82100000D01*
X130970495Y-82098796D01*
X130946227Y-82095196D01*
X130922428Y-82089235D01*
X130899329Y-82080970D01*
X130877150Y-82070480D01*
X130856107Y-82057868D01*
X130836401Y-82043253D01*
X130818223Y-82026777D01*
X130801747Y-82008599D01*
X130787132Y-81988893D01*
X130774520Y-81967850D01*
X130764030Y-81945671D01*
X130755765Y-81922572D01*
X130749804Y-81898773D01*
X130746204Y-81874505D01*
X130745000Y-81850001D01*
X130745000Y-81199999D01*
X130746204Y-81175495D01*
X130749804Y-81151227D01*
X130755765Y-81127428D01*
X130764030Y-81104329D01*
X130774520Y-81082150D01*
X130787132Y-81061107D01*
X130801747Y-81041401D01*
X130818223Y-81023223D01*
X130836401Y-81006747D01*
X130856107Y-80992132D01*
X130877150Y-80979520D01*
X130899329Y-80969030D01*
X130922428Y-80960765D01*
X130946227Y-80954804D01*
X130970495Y-80951204D01*
X130994999Y-80950000D01*
X131895001Y-80950000D01*
X131919505Y-80951204D01*
G37*
G04 #@! TD.AperFunction*
D12*
X125020000Y-99568000D03*
X131520000Y-99568000D03*
D13*
X121920000Y-104140000D03*
X121920000Y-101600000D03*
X121920000Y-99060000D03*
X121920000Y-96520000D03*
X121920000Y-93980000D03*
X121920000Y-91440000D03*
X121920000Y-88900000D03*
X121920000Y-86360000D03*
X121920000Y-83820000D03*
X121920000Y-81280000D03*
X121920000Y-78740000D03*
D14*
X121920000Y-76200000D03*
D13*
X134620000Y-104140000D03*
X134620000Y-101600000D03*
X134620000Y-99060000D03*
X134620000Y-96520000D03*
X134620000Y-93980000D03*
X134620000Y-91440000D03*
X134620000Y-88900000D03*
X134620000Y-86360000D03*
X134620000Y-83820000D03*
X134620000Y-81280000D03*
X134620000Y-78740000D03*
D14*
X134620000Y-76200000D03*
D15*
X127320000Y-83650000D03*
X129220000Y-83650000D03*
X129220000Y-81450000D03*
X128270000Y-81450000D03*
X127320000Y-81450000D03*
G04 #@! TA.AperFunction,SMDPad,CuDef*
D11*
G36*
X130014505Y-99765204D02*
G01*
X130038773Y-99768804D01*
X130062572Y-99774765D01*
X130085671Y-99783030D01*
X130107850Y-99793520D01*
X130128893Y-99806132D01*
X130148599Y-99820747D01*
X130166777Y-99837223D01*
X130183253Y-99855401D01*
X130197868Y-99875107D01*
X130210480Y-99896150D01*
X130220970Y-99918329D01*
X130229235Y-99941428D01*
X130235196Y-99965227D01*
X130238796Y-99989495D01*
X130240000Y-100013999D01*
X130240000Y-100664001D01*
X130238796Y-100688505D01*
X130235196Y-100712773D01*
X130229235Y-100736572D01*
X130220970Y-100759671D01*
X130210480Y-100781850D01*
X130197868Y-100802893D01*
X130183253Y-100822599D01*
X130166777Y-100840777D01*
X130148599Y-100857253D01*
X130128893Y-100871868D01*
X130107850Y-100884480D01*
X130085671Y-100894970D01*
X130062572Y-100903235D01*
X130038773Y-100909196D01*
X130014505Y-100912796D01*
X129990001Y-100914000D01*
X129089999Y-100914000D01*
X129065495Y-100912796D01*
X129041227Y-100909196D01*
X129017428Y-100903235D01*
X128994329Y-100894970D01*
X128972150Y-100884480D01*
X128951107Y-100871868D01*
X128931401Y-100857253D01*
X128913223Y-100840777D01*
X128896747Y-100822599D01*
X128882132Y-100802893D01*
X128869520Y-100781850D01*
X128859030Y-100759671D01*
X128850765Y-100736572D01*
X128844804Y-100712773D01*
X128841204Y-100688505D01*
X128840000Y-100664001D01*
X128840000Y-100013999D01*
X128841204Y-99989495D01*
X128844804Y-99965227D01*
X128850765Y-99941428D01*
X128859030Y-99918329D01*
X128869520Y-99896150D01*
X128882132Y-99875107D01*
X128896747Y-99855401D01*
X128913223Y-99837223D01*
X128931401Y-99820747D01*
X128951107Y-99806132D01*
X128972150Y-99793520D01*
X128994329Y-99783030D01*
X129017428Y-99774765D01*
X129041227Y-99768804D01*
X129065495Y-99765204D01*
X129089999Y-99764000D01*
X129990001Y-99764000D01*
X130014505Y-99765204D01*
G37*
G04 #@! TD.AperFunction*
G04 #@! TA.AperFunction,SMDPad,CuDef*
G36*
X130014505Y-97715204D02*
G01*
X130038773Y-97718804D01*
X130062572Y-97724765D01*
X130085671Y-97733030D01*
X130107850Y-97743520D01*
X130128893Y-97756132D01*
X130148599Y-97770747D01*
X130166777Y-97787223D01*
X130183253Y-97805401D01*
X130197868Y-97825107D01*
X130210480Y-97846150D01*
X130220970Y-97868329D01*
X130229235Y-97891428D01*
X130235196Y-97915227D01*
X130238796Y-97939495D01*
X130240000Y-97963999D01*
X130240000Y-98614001D01*
X130238796Y-98638505D01*
X130235196Y-98662773D01*
X130229235Y-98686572D01*
X130220970Y-98709671D01*
X130210480Y-98731850D01*
X130197868Y-98752893D01*
X130183253Y-98772599D01*
X130166777Y-98790777D01*
X130148599Y-98807253D01*
X130128893Y-98821868D01*
X130107850Y-98834480D01*
X130085671Y-98844970D01*
X130062572Y-98853235D01*
X130038773Y-98859196D01*
X130014505Y-98862796D01*
X129990001Y-98864000D01*
X129089999Y-98864000D01*
X129065495Y-98862796D01*
X129041227Y-98859196D01*
X129017428Y-98853235D01*
X128994329Y-98844970D01*
X128972150Y-98834480D01*
X128951107Y-98821868D01*
X128931401Y-98807253D01*
X128913223Y-98790777D01*
X128896747Y-98772599D01*
X128882132Y-98752893D01*
X128869520Y-98731850D01*
X128859030Y-98709671D01*
X128850765Y-98686572D01*
X128844804Y-98662773D01*
X128841204Y-98638505D01*
X128840000Y-98614001D01*
X128840000Y-97963999D01*
X128841204Y-97939495D01*
X128844804Y-97915227D01*
X128850765Y-97891428D01*
X128859030Y-97868329D01*
X128869520Y-97846150D01*
X128882132Y-97825107D01*
X128896747Y-97805401D01*
X128913223Y-97787223D01*
X128931401Y-97770747D01*
X128951107Y-97756132D01*
X128972150Y-97743520D01*
X128994329Y-97733030D01*
X129017428Y-97724765D01*
X129041227Y-97718804D01*
X129065495Y-97715204D01*
X129089999Y-97714000D01*
X129990001Y-97714000D01*
X130014505Y-97715204D01*
G37*
G04 #@! TD.AperFunction*
G04 #@! TA.AperFunction,SMDPad,CuDef*
G36*
X129880505Y-101409204D02*
G01*
X129904773Y-101412804D01*
X129928572Y-101418765D01*
X129951671Y-101427030D01*
X129973850Y-101437520D01*
X129994893Y-101450132D01*
X130014599Y-101464747D01*
X130032777Y-101481223D01*
X130049253Y-101499401D01*
X130063868Y-101519107D01*
X130076480Y-101540150D01*
X130086970Y-101562329D01*
X130095235Y-101585428D01*
X130101196Y-101609227D01*
X130104796Y-101633495D01*
X130106000Y-101657999D01*
X130106000Y-102558001D01*
X130104796Y-102582505D01*
X130101196Y-102606773D01*
X130095235Y-102630572D01*
X130086970Y-102653671D01*
X130076480Y-102675850D01*
X130063868Y-102696893D01*
X130049253Y-102716599D01*
X130032777Y-102734777D01*
X130014599Y-102751253D01*
X129994893Y-102765868D01*
X129973850Y-102778480D01*
X129951671Y-102788970D01*
X129928572Y-102797235D01*
X129904773Y-102803196D01*
X129880505Y-102806796D01*
X129856001Y-102808000D01*
X129205999Y-102808000D01*
X129181495Y-102806796D01*
X129157227Y-102803196D01*
X129133428Y-102797235D01*
X129110329Y-102788970D01*
X129088150Y-102778480D01*
X129067107Y-102765868D01*
X129047401Y-102751253D01*
X129029223Y-102734777D01*
X129012747Y-102716599D01*
X128998132Y-102696893D01*
X128985520Y-102675850D01*
X128975030Y-102653671D01*
X128966765Y-102630572D01*
X128960804Y-102606773D01*
X128957204Y-102582505D01*
X128956000Y-102558001D01*
X128956000Y-101657999D01*
X128957204Y-101633495D01*
X128960804Y-101609227D01*
X128966765Y-101585428D01*
X128975030Y-101562329D01*
X128985520Y-101540150D01*
X128998132Y-101519107D01*
X129012747Y-101499401D01*
X129029223Y-101481223D01*
X129047401Y-101464747D01*
X129067107Y-101450132D01*
X129088150Y-101437520D01*
X129110329Y-101427030D01*
X129133428Y-101418765D01*
X129157227Y-101412804D01*
X129181495Y-101409204D01*
X129205999Y-101408000D01*
X129856001Y-101408000D01*
X129880505Y-101409204D01*
G37*
G04 #@! TD.AperFunction*
G04 #@! TA.AperFunction,SMDPad,CuDef*
G36*
X131930505Y-101409204D02*
G01*
X131954773Y-101412804D01*
X131978572Y-101418765D01*
X132001671Y-101427030D01*
X132023850Y-101437520D01*
X132044893Y-101450132D01*
X132064599Y-101464747D01*
X132082777Y-101481223D01*
X132099253Y-101499401D01*
X132113868Y-101519107D01*
X132126480Y-101540150D01*
X132136970Y-101562329D01*
X132145235Y-101585428D01*
X132151196Y-101609227D01*
X132154796Y-101633495D01*
X132156000Y-101657999D01*
X132156000Y-102558001D01*
X132154796Y-102582505D01*
X132151196Y-102606773D01*
X132145235Y-102630572D01*
X132136970Y-102653671D01*
X132126480Y-102675850D01*
X132113868Y-102696893D01*
X132099253Y-102716599D01*
X132082777Y-102734777D01*
X132064599Y-102751253D01*
X132044893Y-102765868D01*
X132023850Y-102778480D01*
X132001671Y-102788970D01*
X131978572Y-102797235D01*
X131954773Y-102803196D01*
X131930505Y-102806796D01*
X131906001Y-102808000D01*
X131255999Y-102808000D01*
X131231495Y-102806796D01*
X131207227Y-102803196D01*
X131183428Y-102797235D01*
X131160329Y-102788970D01*
X131138150Y-102778480D01*
X131117107Y-102765868D01*
X131097401Y-102751253D01*
X131079223Y-102734777D01*
X131062747Y-102716599D01*
X131048132Y-102696893D01*
X131035520Y-102675850D01*
X131025030Y-102653671D01*
X131016765Y-102630572D01*
X131010804Y-102606773D01*
X131007204Y-102582505D01*
X131006000Y-102558001D01*
X131006000Y-101657999D01*
X131007204Y-101633495D01*
X131010804Y-101609227D01*
X131016765Y-101585428D01*
X131025030Y-101562329D01*
X131035520Y-101540150D01*
X131048132Y-101519107D01*
X131062747Y-101499401D01*
X131079223Y-101481223D01*
X131097401Y-101464747D01*
X131117107Y-101450132D01*
X131138150Y-101437520D01*
X131160329Y-101427030D01*
X131183428Y-101418765D01*
X131207227Y-101412804D01*
X131231495Y-101409204D01*
X131255999Y-101408000D01*
X131906001Y-101408000D01*
X131930505Y-101409204D01*
G37*
G04 #@! TD.AperFunction*
G04 #@! TA.AperFunction,SMDPad,CuDef*
G36*
X127358505Y-101409204D02*
G01*
X127382773Y-101412804D01*
X127406572Y-101418765D01*
X127429671Y-101427030D01*
X127451850Y-101437520D01*
X127472893Y-101450132D01*
X127492599Y-101464747D01*
X127510777Y-101481223D01*
X127527253Y-101499401D01*
X127541868Y-101519107D01*
X127554480Y-101540150D01*
X127564970Y-101562329D01*
X127573235Y-101585428D01*
X127579196Y-101609227D01*
X127582796Y-101633495D01*
X127584000Y-101657999D01*
X127584000Y-102558001D01*
X127582796Y-102582505D01*
X127579196Y-102606773D01*
X127573235Y-102630572D01*
X127564970Y-102653671D01*
X127554480Y-102675850D01*
X127541868Y-102696893D01*
X127527253Y-102716599D01*
X127510777Y-102734777D01*
X127492599Y-102751253D01*
X127472893Y-102765868D01*
X127451850Y-102778480D01*
X127429671Y-102788970D01*
X127406572Y-102797235D01*
X127382773Y-102803196D01*
X127358505Y-102806796D01*
X127334001Y-102808000D01*
X126683999Y-102808000D01*
X126659495Y-102806796D01*
X126635227Y-102803196D01*
X126611428Y-102797235D01*
X126588329Y-102788970D01*
X126566150Y-102778480D01*
X126545107Y-102765868D01*
X126525401Y-102751253D01*
X126507223Y-102734777D01*
X126490747Y-102716599D01*
X126476132Y-102696893D01*
X126463520Y-102675850D01*
X126453030Y-102653671D01*
X126444765Y-102630572D01*
X126438804Y-102606773D01*
X126435204Y-102582505D01*
X126434000Y-102558001D01*
X126434000Y-101657999D01*
X126435204Y-101633495D01*
X126438804Y-101609227D01*
X126444765Y-101585428D01*
X126453030Y-101562329D01*
X126463520Y-101540150D01*
X126476132Y-101519107D01*
X126490747Y-101499401D01*
X126507223Y-101481223D01*
X126525401Y-101464747D01*
X126545107Y-101450132D01*
X126566150Y-101437520D01*
X126588329Y-101427030D01*
X126611428Y-101418765D01*
X126635227Y-101412804D01*
X126659495Y-101409204D01*
X126683999Y-101408000D01*
X127334001Y-101408000D01*
X127358505Y-101409204D01*
G37*
G04 #@! TD.AperFunction*
G04 #@! TA.AperFunction,SMDPad,CuDef*
G36*
X125308505Y-101409204D02*
G01*
X125332773Y-101412804D01*
X125356572Y-101418765D01*
X125379671Y-101427030D01*
X125401850Y-101437520D01*
X125422893Y-101450132D01*
X125442599Y-101464747D01*
X125460777Y-101481223D01*
X125477253Y-101499401D01*
X125491868Y-101519107D01*
X125504480Y-101540150D01*
X125514970Y-101562329D01*
X125523235Y-101585428D01*
X125529196Y-101609227D01*
X125532796Y-101633495D01*
X125534000Y-101657999D01*
X125534000Y-102558001D01*
X125532796Y-102582505D01*
X125529196Y-102606773D01*
X125523235Y-102630572D01*
X125514970Y-102653671D01*
X125504480Y-102675850D01*
X125491868Y-102696893D01*
X125477253Y-102716599D01*
X125460777Y-102734777D01*
X125442599Y-102751253D01*
X125422893Y-102765868D01*
X125401850Y-102778480D01*
X125379671Y-102788970D01*
X125356572Y-102797235D01*
X125332773Y-102803196D01*
X125308505Y-102806796D01*
X125284001Y-102808000D01*
X124633999Y-102808000D01*
X124609495Y-102806796D01*
X124585227Y-102803196D01*
X124561428Y-102797235D01*
X124538329Y-102788970D01*
X124516150Y-102778480D01*
X124495107Y-102765868D01*
X124475401Y-102751253D01*
X124457223Y-102734777D01*
X124440747Y-102716599D01*
X124426132Y-102696893D01*
X124413520Y-102675850D01*
X124403030Y-102653671D01*
X124394765Y-102630572D01*
X124388804Y-102606773D01*
X124385204Y-102582505D01*
X124384000Y-102558001D01*
X124384000Y-101657999D01*
X124385204Y-101633495D01*
X124388804Y-101609227D01*
X124394765Y-101585428D01*
X124403030Y-101562329D01*
X124413520Y-101540150D01*
X124426132Y-101519107D01*
X124440747Y-101499401D01*
X124457223Y-101481223D01*
X124475401Y-101464747D01*
X124495107Y-101450132D01*
X124516150Y-101437520D01*
X124538329Y-101427030D01*
X124561428Y-101418765D01*
X124585227Y-101412804D01*
X124609495Y-101409204D01*
X124633999Y-101408000D01*
X125284001Y-101408000D01*
X125308505Y-101409204D01*
G37*
G04 #@! TD.AperFunction*
G04 #@! TA.AperFunction,SMDPad,CuDef*
G36*
X127474505Y-99765204D02*
G01*
X127498773Y-99768804D01*
X127522572Y-99774765D01*
X127545671Y-99783030D01*
X127567850Y-99793520D01*
X127588893Y-99806132D01*
X127608599Y-99820747D01*
X127626777Y-99837223D01*
X127643253Y-99855401D01*
X127657868Y-99875107D01*
X127670480Y-99896150D01*
X127680970Y-99918329D01*
X127689235Y-99941428D01*
X127695196Y-99965227D01*
X127698796Y-99989495D01*
X127700000Y-100013999D01*
X127700000Y-100664001D01*
X127698796Y-100688505D01*
X127695196Y-100712773D01*
X127689235Y-100736572D01*
X127680970Y-100759671D01*
X127670480Y-100781850D01*
X127657868Y-100802893D01*
X127643253Y-100822599D01*
X127626777Y-100840777D01*
X127608599Y-100857253D01*
X127588893Y-100871868D01*
X127567850Y-100884480D01*
X127545671Y-100894970D01*
X127522572Y-100903235D01*
X127498773Y-100909196D01*
X127474505Y-100912796D01*
X127450001Y-100914000D01*
X126549999Y-100914000D01*
X126525495Y-100912796D01*
X126501227Y-100909196D01*
X126477428Y-100903235D01*
X126454329Y-100894970D01*
X126432150Y-100884480D01*
X126411107Y-100871868D01*
X126391401Y-100857253D01*
X126373223Y-100840777D01*
X126356747Y-100822599D01*
X126342132Y-100802893D01*
X126329520Y-100781850D01*
X126319030Y-100759671D01*
X126310765Y-100736572D01*
X126304804Y-100712773D01*
X126301204Y-100688505D01*
X126300000Y-100664001D01*
X126300000Y-100013999D01*
X126301204Y-99989495D01*
X126304804Y-99965227D01*
X126310765Y-99941428D01*
X126319030Y-99918329D01*
X126329520Y-99896150D01*
X126342132Y-99875107D01*
X126356747Y-99855401D01*
X126373223Y-99837223D01*
X126391401Y-99820747D01*
X126411107Y-99806132D01*
X126432150Y-99793520D01*
X126454329Y-99783030D01*
X126477428Y-99774765D01*
X126501227Y-99768804D01*
X126525495Y-99765204D01*
X126549999Y-99764000D01*
X127450001Y-99764000D01*
X127474505Y-99765204D01*
G37*
G04 #@! TD.AperFunction*
G04 #@! TA.AperFunction,SMDPad,CuDef*
G36*
X127474505Y-97715204D02*
G01*
X127498773Y-97718804D01*
X127522572Y-97724765D01*
X127545671Y-97733030D01*
X127567850Y-97743520D01*
X127588893Y-97756132D01*
X127608599Y-97770747D01*
X127626777Y-97787223D01*
X127643253Y-97805401D01*
X127657868Y-97825107D01*
X127670480Y-97846150D01*
X127680970Y-97868329D01*
X127689235Y-97891428D01*
X127695196Y-97915227D01*
X127698796Y-97939495D01*
X127700000Y-97963999D01*
X127700000Y-98614001D01*
X127698796Y-98638505D01*
X127695196Y-98662773D01*
X127689235Y-98686572D01*
X127680970Y-98709671D01*
X127670480Y-98731850D01*
X127657868Y-98752893D01*
X127643253Y-98772599D01*
X127626777Y-98790777D01*
X127608599Y-98807253D01*
X127588893Y-98821868D01*
X127567850Y-98834480D01*
X127545671Y-98844970D01*
X127522572Y-98853235D01*
X127498773Y-98859196D01*
X127474505Y-98862796D01*
X127450001Y-98864000D01*
X126549999Y-98864000D01*
X126525495Y-98862796D01*
X126501227Y-98859196D01*
X126477428Y-98853235D01*
X126454329Y-98844970D01*
X126432150Y-98834480D01*
X126411107Y-98821868D01*
X126391401Y-98807253D01*
X126373223Y-98790777D01*
X126356747Y-98772599D01*
X126342132Y-98752893D01*
X126329520Y-98731850D01*
X126319030Y-98709671D01*
X126310765Y-98686572D01*
X126304804Y-98662773D01*
X126301204Y-98638505D01*
X126300000Y-98614001D01*
X126300000Y-97963999D01*
X126301204Y-97939495D01*
X126304804Y-97915227D01*
X126310765Y-97891428D01*
X126319030Y-97868329D01*
X126329520Y-97846150D01*
X126342132Y-97825107D01*
X126356747Y-97805401D01*
X126373223Y-97787223D01*
X126391401Y-97770747D01*
X126411107Y-97756132D01*
X126432150Y-97743520D01*
X126454329Y-97733030D01*
X126477428Y-97724765D01*
X126501227Y-97718804D01*
X126525495Y-97715204D01*
X126549999Y-97714000D01*
X127450001Y-97714000D01*
X127474505Y-97715204D01*
G37*
G04 #@! TD.AperFunction*
D13*
X127000000Y-96012000D03*
D14*
X129540000Y-96012000D03*
D16*
X124770000Y-73692500D03*
X131770000Y-73692500D03*
D17*
X125770000Y-76392500D03*
X130770000Y-76392500D03*
G04 #@! TA.AperFunction,SMDPad,CuDef*
D11*
G36*
X129880505Y-103441204D02*
G01*
X129904773Y-103444804D01*
X129928572Y-103450765D01*
X129951671Y-103459030D01*
X129973850Y-103469520D01*
X129994893Y-103482132D01*
X130014599Y-103496747D01*
X130032777Y-103513223D01*
X130049253Y-103531401D01*
X130063868Y-103551107D01*
X130076480Y-103572150D01*
X130086970Y-103594329D01*
X130095235Y-103617428D01*
X130101196Y-103641227D01*
X130104796Y-103665495D01*
X130106000Y-103689999D01*
X130106000Y-104590001D01*
X130104796Y-104614505D01*
X130101196Y-104638773D01*
X130095235Y-104662572D01*
X130086970Y-104685671D01*
X130076480Y-104707850D01*
X130063868Y-104728893D01*
X130049253Y-104748599D01*
X130032777Y-104766777D01*
X130014599Y-104783253D01*
X129994893Y-104797868D01*
X129973850Y-104810480D01*
X129951671Y-104820970D01*
X129928572Y-104829235D01*
X129904773Y-104835196D01*
X129880505Y-104838796D01*
X129856001Y-104840000D01*
X129205999Y-104840000D01*
X129181495Y-104838796D01*
X129157227Y-104835196D01*
X129133428Y-104829235D01*
X129110329Y-104820970D01*
X129088150Y-104810480D01*
X129067107Y-104797868D01*
X129047401Y-104783253D01*
X129029223Y-104766777D01*
X129012747Y-104748599D01*
X128998132Y-104728893D01*
X128985520Y-104707850D01*
X128975030Y-104685671D01*
X128966765Y-104662572D01*
X128960804Y-104638773D01*
X128957204Y-104614505D01*
X128956000Y-104590001D01*
X128956000Y-103689999D01*
X128957204Y-103665495D01*
X128960804Y-103641227D01*
X128966765Y-103617428D01*
X128975030Y-103594329D01*
X128985520Y-103572150D01*
X128998132Y-103551107D01*
X129012747Y-103531401D01*
X129029223Y-103513223D01*
X129047401Y-103496747D01*
X129067107Y-103482132D01*
X129088150Y-103469520D01*
X129110329Y-103459030D01*
X129133428Y-103450765D01*
X129157227Y-103444804D01*
X129181495Y-103441204D01*
X129205999Y-103440000D01*
X129856001Y-103440000D01*
X129880505Y-103441204D01*
G37*
G04 #@! TD.AperFunction*
G04 #@! TA.AperFunction,SMDPad,CuDef*
G36*
X131930505Y-103441204D02*
G01*
X131954773Y-103444804D01*
X131978572Y-103450765D01*
X132001671Y-103459030D01*
X132023850Y-103469520D01*
X132044893Y-103482132D01*
X132064599Y-103496747D01*
X132082777Y-103513223D01*
X132099253Y-103531401D01*
X132113868Y-103551107D01*
X132126480Y-103572150D01*
X132136970Y-103594329D01*
X132145235Y-103617428D01*
X132151196Y-103641227D01*
X132154796Y-103665495D01*
X132156000Y-103689999D01*
X132156000Y-104590001D01*
X132154796Y-104614505D01*
X132151196Y-104638773D01*
X132145235Y-104662572D01*
X132136970Y-104685671D01*
X132126480Y-104707850D01*
X132113868Y-104728893D01*
X132099253Y-104748599D01*
X132082777Y-104766777D01*
X132064599Y-104783253D01*
X132044893Y-104797868D01*
X132023850Y-104810480D01*
X132001671Y-104820970D01*
X131978572Y-104829235D01*
X131954773Y-104835196D01*
X131930505Y-104838796D01*
X131906001Y-104840000D01*
X131255999Y-104840000D01*
X131231495Y-104838796D01*
X131207227Y-104835196D01*
X131183428Y-104829235D01*
X131160329Y-104820970D01*
X131138150Y-104810480D01*
X131117107Y-104797868D01*
X131097401Y-104783253D01*
X131079223Y-104766777D01*
X131062747Y-104748599D01*
X131048132Y-104728893D01*
X131035520Y-104707850D01*
X131025030Y-104685671D01*
X131016765Y-104662572D01*
X131010804Y-104638773D01*
X131007204Y-104614505D01*
X131006000Y-104590001D01*
X131006000Y-103689999D01*
X131007204Y-103665495D01*
X131010804Y-103641227D01*
X131016765Y-103617428D01*
X131025030Y-103594329D01*
X131035520Y-103572150D01*
X131048132Y-103551107D01*
X131062747Y-103531401D01*
X131079223Y-103513223D01*
X131097401Y-103496747D01*
X131117107Y-103482132D01*
X131138150Y-103469520D01*
X131160329Y-103459030D01*
X131183428Y-103450765D01*
X131207227Y-103444804D01*
X131231495Y-103441204D01*
X131255999Y-103440000D01*
X131906001Y-103440000D01*
X131930505Y-103441204D01*
G37*
G04 #@! TD.AperFunction*
G04 #@! TA.AperFunction,SMDPad,CuDef*
G36*
X127358505Y-103441204D02*
G01*
X127382773Y-103444804D01*
X127406572Y-103450765D01*
X127429671Y-103459030D01*
X127451850Y-103469520D01*
X127472893Y-103482132D01*
X127492599Y-103496747D01*
X127510777Y-103513223D01*
X127527253Y-103531401D01*
X127541868Y-103551107D01*
X127554480Y-103572150D01*
X127564970Y-103594329D01*
X127573235Y-103617428D01*
X127579196Y-103641227D01*
X127582796Y-103665495D01*
X127584000Y-103689999D01*
X127584000Y-104590001D01*
X127582796Y-104614505D01*
X127579196Y-104638773D01*
X127573235Y-104662572D01*
X127564970Y-104685671D01*
X127554480Y-104707850D01*
X127541868Y-104728893D01*
X127527253Y-104748599D01*
X127510777Y-104766777D01*
X127492599Y-104783253D01*
X127472893Y-104797868D01*
X127451850Y-104810480D01*
X127429671Y-104820970D01*
X127406572Y-104829235D01*
X127382773Y-104835196D01*
X127358505Y-104838796D01*
X127334001Y-104840000D01*
X126683999Y-104840000D01*
X126659495Y-104838796D01*
X126635227Y-104835196D01*
X126611428Y-104829235D01*
X126588329Y-104820970D01*
X126566150Y-104810480D01*
X126545107Y-104797868D01*
X126525401Y-104783253D01*
X126507223Y-104766777D01*
X126490747Y-104748599D01*
X126476132Y-104728893D01*
X126463520Y-104707850D01*
X126453030Y-104685671D01*
X126444765Y-104662572D01*
X126438804Y-104638773D01*
X126435204Y-104614505D01*
X126434000Y-104590001D01*
X126434000Y-103689999D01*
X126435204Y-103665495D01*
X126438804Y-103641227D01*
X126444765Y-103617428D01*
X126453030Y-103594329D01*
X126463520Y-103572150D01*
X126476132Y-103551107D01*
X126490747Y-103531401D01*
X126507223Y-103513223D01*
X126525401Y-103496747D01*
X126545107Y-103482132D01*
X126566150Y-103469520D01*
X126588329Y-103459030D01*
X126611428Y-103450765D01*
X126635227Y-103444804D01*
X126659495Y-103441204D01*
X126683999Y-103440000D01*
X127334001Y-103440000D01*
X127358505Y-103441204D01*
G37*
G04 #@! TD.AperFunction*
G04 #@! TA.AperFunction,SMDPad,CuDef*
G36*
X125308505Y-103441204D02*
G01*
X125332773Y-103444804D01*
X125356572Y-103450765D01*
X125379671Y-103459030D01*
X125401850Y-103469520D01*
X125422893Y-103482132D01*
X125442599Y-103496747D01*
X125460777Y-103513223D01*
X125477253Y-103531401D01*
X125491868Y-103551107D01*
X125504480Y-103572150D01*
X125514970Y-103594329D01*
X125523235Y-103617428D01*
X125529196Y-103641227D01*
X125532796Y-103665495D01*
X125534000Y-103689999D01*
X125534000Y-104590001D01*
X125532796Y-104614505D01*
X125529196Y-104638773D01*
X125523235Y-104662572D01*
X125514970Y-104685671D01*
X125504480Y-104707850D01*
X125491868Y-104728893D01*
X125477253Y-104748599D01*
X125460777Y-104766777D01*
X125442599Y-104783253D01*
X125422893Y-104797868D01*
X125401850Y-104810480D01*
X125379671Y-104820970D01*
X125356572Y-104829235D01*
X125332773Y-104835196D01*
X125308505Y-104838796D01*
X125284001Y-104840000D01*
X124633999Y-104840000D01*
X124609495Y-104838796D01*
X124585227Y-104835196D01*
X124561428Y-104829235D01*
X124538329Y-104820970D01*
X124516150Y-104810480D01*
X124495107Y-104797868D01*
X124475401Y-104783253D01*
X124457223Y-104766777D01*
X124440747Y-104748599D01*
X124426132Y-104728893D01*
X124413520Y-104707850D01*
X124403030Y-104685671D01*
X124394765Y-104662572D01*
X124388804Y-104638773D01*
X124385204Y-104614505D01*
X124384000Y-104590001D01*
X124384000Y-103689999D01*
X124385204Y-103665495D01*
X124388804Y-103641227D01*
X124394765Y-103617428D01*
X124403030Y-103594329D01*
X124413520Y-103572150D01*
X124426132Y-103551107D01*
X124440747Y-103531401D01*
X124457223Y-103513223D01*
X124475401Y-103496747D01*
X124495107Y-103482132D01*
X124516150Y-103469520D01*
X124538329Y-103459030D01*
X124561428Y-103450765D01*
X124585227Y-103444804D01*
X124609495Y-103441204D01*
X124633999Y-103440000D01*
X125284001Y-103440000D01*
X125308505Y-103441204D01*
G37*
G04 #@! TD.AperFunction*
G04 #@! TA.AperFunction,SMDPad,CuDef*
G36*
X125569505Y-83001204D02*
G01*
X125593773Y-83004804D01*
X125617572Y-83010765D01*
X125640671Y-83019030D01*
X125662850Y-83029520D01*
X125683893Y-83042132D01*
X125703599Y-83056747D01*
X125721777Y-83073223D01*
X125738253Y-83091401D01*
X125752868Y-83111107D01*
X125765480Y-83132150D01*
X125775970Y-83154329D01*
X125784235Y-83177428D01*
X125790196Y-83201227D01*
X125793796Y-83225495D01*
X125795000Y-83249999D01*
X125795000Y-83900001D01*
X125793796Y-83924505D01*
X125790196Y-83948773D01*
X125784235Y-83972572D01*
X125775970Y-83995671D01*
X125765480Y-84017850D01*
X125752868Y-84038893D01*
X125738253Y-84058599D01*
X125721777Y-84076777D01*
X125703599Y-84093253D01*
X125683893Y-84107868D01*
X125662850Y-84120480D01*
X125640671Y-84130970D01*
X125617572Y-84139235D01*
X125593773Y-84145196D01*
X125569505Y-84148796D01*
X125545001Y-84150000D01*
X124644999Y-84150000D01*
X124620495Y-84148796D01*
X124596227Y-84145196D01*
X124572428Y-84139235D01*
X124549329Y-84130970D01*
X124527150Y-84120480D01*
X124506107Y-84107868D01*
X124486401Y-84093253D01*
X124468223Y-84076777D01*
X124451747Y-84058599D01*
X124437132Y-84038893D01*
X124424520Y-84017850D01*
X124414030Y-83995671D01*
X124405765Y-83972572D01*
X124399804Y-83948773D01*
X124396204Y-83924505D01*
X124395000Y-83900001D01*
X124395000Y-83249999D01*
X124396204Y-83225495D01*
X124399804Y-83201227D01*
X124405765Y-83177428D01*
X124414030Y-83154329D01*
X124424520Y-83132150D01*
X124437132Y-83111107D01*
X124451747Y-83091401D01*
X124468223Y-83073223D01*
X124486401Y-83056747D01*
X124506107Y-83042132D01*
X124527150Y-83029520D01*
X124549329Y-83019030D01*
X124572428Y-83010765D01*
X124596227Y-83004804D01*
X124620495Y-83001204D01*
X124644999Y-83000000D01*
X125545001Y-83000000D01*
X125569505Y-83001204D01*
G37*
G04 #@! TD.AperFunction*
G04 #@! TA.AperFunction,SMDPad,CuDef*
G36*
X125569505Y-80951204D02*
G01*
X125593773Y-80954804D01*
X125617572Y-80960765D01*
X125640671Y-80969030D01*
X125662850Y-80979520D01*
X125683893Y-80992132D01*
X125703599Y-81006747D01*
X125721777Y-81023223D01*
X125738253Y-81041401D01*
X125752868Y-81061107D01*
X125765480Y-81082150D01*
X125775970Y-81104329D01*
X125784235Y-81127428D01*
X125790196Y-81151227D01*
X125793796Y-81175495D01*
X125795000Y-81199999D01*
X125795000Y-81850001D01*
X125793796Y-81874505D01*
X125790196Y-81898773D01*
X125784235Y-81922572D01*
X125775970Y-81945671D01*
X125765480Y-81967850D01*
X125752868Y-81988893D01*
X125738253Y-82008599D01*
X125721777Y-82026777D01*
X125703599Y-82043253D01*
X125683893Y-82057868D01*
X125662850Y-82070480D01*
X125640671Y-82080970D01*
X125617572Y-82089235D01*
X125593773Y-82095196D01*
X125569505Y-82098796D01*
X125545001Y-82100000D01*
X124644999Y-82100000D01*
X124620495Y-82098796D01*
X124596227Y-82095196D01*
X124572428Y-82089235D01*
X124549329Y-82080970D01*
X124527150Y-82070480D01*
X124506107Y-82057868D01*
X124486401Y-82043253D01*
X124468223Y-82026777D01*
X124451747Y-82008599D01*
X124437132Y-81988893D01*
X124424520Y-81967850D01*
X124414030Y-81945671D01*
X124405765Y-81922572D01*
X124399804Y-81898773D01*
X124396204Y-81874505D01*
X124395000Y-81850001D01*
X124395000Y-81199999D01*
X124396204Y-81175495D01*
X124399804Y-81151227D01*
X124405765Y-81127428D01*
X124414030Y-81104329D01*
X124424520Y-81082150D01*
X124437132Y-81061107D01*
X124451747Y-81041401D01*
X124468223Y-81023223D01*
X124486401Y-81006747D01*
X124506107Y-80992132D01*
X124527150Y-80979520D01*
X124549329Y-80969030D01*
X124572428Y-80960765D01*
X124596227Y-80954804D01*
X124620495Y-80951204D01*
X124644999Y-80950000D01*
X125545001Y-80950000D01*
X125569505Y-80951204D01*
G37*
G04 #@! TD.AperFunction*
G04 #@! TA.AperFunction,SMDPad,CuDef*
G36*
X130388505Y-92392204D02*
G01*
X130412773Y-92395804D01*
X130436572Y-92401765D01*
X130459671Y-92410030D01*
X130481850Y-92420520D01*
X130502893Y-92433132D01*
X130522599Y-92447747D01*
X130540777Y-92464223D01*
X130557253Y-92482401D01*
X130571868Y-92502107D01*
X130584480Y-92523150D01*
X130594970Y-92545329D01*
X130603235Y-92568428D01*
X130609196Y-92592227D01*
X130612796Y-92616495D01*
X130614000Y-92640999D01*
X130614000Y-93541001D01*
X130612796Y-93565505D01*
X130609196Y-93589773D01*
X130603235Y-93613572D01*
X130594970Y-93636671D01*
X130584480Y-93658850D01*
X130571868Y-93679893D01*
X130557253Y-93699599D01*
X130540777Y-93717777D01*
X130522599Y-93734253D01*
X130502893Y-93748868D01*
X130481850Y-93761480D01*
X130459671Y-93771970D01*
X130436572Y-93780235D01*
X130412773Y-93786196D01*
X130388505Y-93789796D01*
X130364001Y-93791000D01*
X129713999Y-93791000D01*
X129689495Y-93789796D01*
X129665227Y-93786196D01*
X129641428Y-93780235D01*
X129618329Y-93771970D01*
X129596150Y-93761480D01*
X129575107Y-93748868D01*
X129555401Y-93734253D01*
X129537223Y-93717777D01*
X129520747Y-93699599D01*
X129506132Y-93679893D01*
X129493520Y-93658850D01*
X129483030Y-93636671D01*
X129474765Y-93613572D01*
X129468804Y-93589773D01*
X129465204Y-93565505D01*
X129464000Y-93541001D01*
X129464000Y-92640999D01*
X129465204Y-92616495D01*
X129468804Y-92592227D01*
X129474765Y-92568428D01*
X129483030Y-92545329D01*
X129493520Y-92523150D01*
X129506132Y-92502107D01*
X129520747Y-92482401D01*
X129537223Y-92464223D01*
X129555401Y-92447747D01*
X129575107Y-92433132D01*
X129596150Y-92420520D01*
X129618329Y-92410030D01*
X129641428Y-92401765D01*
X129665227Y-92395804D01*
X129689495Y-92392204D01*
X129713999Y-92391000D01*
X130364001Y-92391000D01*
X130388505Y-92392204D01*
G37*
G04 #@! TD.AperFunction*
G04 #@! TA.AperFunction,SMDPad,CuDef*
G36*
X132438505Y-92392204D02*
G01*
X132462773Y-92395804D01*
X132486572Y-92401765D01*
X132509671Y-92410030D01*
X132531850Y-92420520D01*
X132552893Y-92433132D01*
X132572599Y-92447747D01*
X132590777Y-92464223D01*
X132607253Y-92482401D01*
X132621868Y-92502107D01*
X132634480Y-92523150D01*
X132644970Y-92545329D01*
X132653235Y-92568428D01*
X132659196Y-92592227D01*
X132662796Y-92616495D01*
X132664000Y-92640999D01*
X132664000Y-93541001D01*
X132662796Y-93565505D01*
X132659196Y-93589773D01*
X132653235Y-93613572D01*
X132644970Y-93636671D01*
X132634480Y-93658850D01*
X132621868Y-93679893D01*
X132607253Y-93699599D01*
X132590777Y-93717777D01*
X132572599Y-93734253D01*
X132552893Y-93748868D01*
X132531850Y-93761480D01*
X132509671Y-93771970D01*
X132486572Y-93780235D01*
X132462773Y-93786196D01*
X132438505Y-93789796D01*
X132414001Y-93791000D01*
X131763999Y-93791000D01*
X131739495Y-93789796D01*
X131715227Y-93786196D01*
X131691428Y-93780235D01*
X131668329Y-93771970D01*
X131646150Y-93761480D01*
X131625107Y-93748868D01*
X131605401Y-93734253D01*
X131587223Y-93717777D01*
X131570747Y-93699599D01*
X131556132Y-93679893D01*
X131543520Y-93658850D01*
X131533030Y-93636671D01*
X131524765Y-93613572D01*
X131518804Y-93589773D01*
X131515204Y-93565505D01*
X131514000Y-93541001D01*
X131514000Y-92640999D01*
X131515204Y-92616495D01*
X131518804Y-92592227D01*
X131524765Y-92568428D01*
X131533030Y-92545329D01*
X131543520Y-92523150D01*
X131556132Y-92502107D01*
X131570747Y-92482401D01*
X131587223Y-92464223D01*
X131605401Y-92447747D01*
X131625107Y-92433132D01*
X131646150Y-92420520D01*
X131668329Y-92410030D01*
X131691428Y-92401765D01*
X131715227Y-92395804D01*
X131739495Y-92392204D01*
X131763999Y-92391000D01*
X132414001Y-92391000D01*
X132438505Y-92392204D01*
G37*
G04 #@! TD.AperFunction*
G04 #@! TA.AperFunction,SMDPad,CuDef*
G36*
X126850505Y-92392204D02*
G01*
X126874773Y-92395804D01*
X126898572Y-92401765D01*
X126921671Y-92410030D01*
X126943850Y-92420520D01*
X126964893Y-92433132D01*
X126984599Y-92447747D01*
X127002777Y-92464223D01*
X127019253Y-92482401D01*
X127033868Y-92502107D01*
X127046480Y-92523150D01*
X127056970Y-92545329D01*
X127065235Y-92568428D01*
X127071196Y-92592227D01*
X127074796Y-92616495D01*
X127076000Y-92640999D01*
X127076000Y-93541001D01*
X127074796Y-93565505D01*
X127071196Y-93589773D01*
X127065235Y-93613572D01*
X127056970Y-93636671D01*
X127046480Y-93658850D01*
X127033868Y-93679893D01*
X127019253Y-93699599D01*
X127002777Y-93717777D01*
X126984599Y-93734253D01*
X126964893Y-93748868D01*
X126943850Y-93761480D01*
X126921671Y-93771970D01*
X126898572Y-93780235D01*
X126874773Y-93786196D01*
X126850505Y-93789796D01*
X126826001Y-93791000D01*
X126175999Y-93791000D01*
X126151495Y-93789796D01*
X126127227Y-93786196D01*
X126103428Y-93780235D01*
X126080329Y-93771970D01*
X126058150Y-93761480D01*
X126037107Y-93748868D01*
X126017401Y-93734253D01*
X125999223Y-93717777D01*
X125982747Y-93699599D01*
X125968132Y-93679893D01*
X125955520Y-93658850D01*
X125945030Y-93636671D01*
X125936765Y-93613572D01*
X125930804Y-93589773D01*
X125927204Y-93565505D01*
X125926000Y-93541001D01*
X125926000Y-92640999D01*
X125927204Y-92616495D01*
X125930804Y-92592227D01*
X125936765Y-92568428D01*
X125945030Y-92545329D01*
X125955520Y-92523150D01*
X125968132Y-92502107D01*
X125982747Y-92482401D01*
X125999223Y-92464223D01*
X126017401Y-92447747D01*
X126037107Y-92433132D01*
X126058150Y-92420520D01*
X126080329Y-92410030D01*
X126103428Y-92401765D01*
X126127227Y-92395804D01*
X126151495Y-92392204D01*
X126175999Y-92391000D01*
X126826001Y-92391000D01*
X126850505Y-92392204D01*
G37*
G04 #@! TD.AperFunction*
G04 #@! TA.AperFunction,SMDPad,CuDef*
G36*
X124800505Y-92392204D02*
G01*
X124824773Y-92395804D01*
X124848572Y-92401765D01*
X124871671Y-92410030D01*
X124893850Y-92420520D01*
X124914893Y-92433132D01*
X124934599Y-92447747D01*
X124952777Y-92464223D01*
X124969253Y-92482401D01*
X124983868Y-92502107D01*
X124996480Y-92523150D01*
X125006970Y-92545329D01*
X125015235Y-92568428D01*
X125021196Y-92592227D01*
X125024796Y-92616495D01*
X125026000Y-92640999D01*
X125026000Y-93541001D01*
X125024796Y-93565505D01*
X125021196Y-93589773D01*
X125015235Y-93613572D01*
X125006970Y-93636671D01*
X124996480Y-93658850D01*
X124983868Y-93679893D01*
X124969253Y-93699599D01*
X124952777Y-93717777D01*
X124934599Y-93734253D01*
X124914893Y-93748868D01*
X124893850Y-93761480D01*
X124871671Y-93771970D01*
X124848572Y-93780235D01*
X124824773Y-93786196D01*
X124800505Y-93789796D01*
X124776001Y-93791000D01*
X124125999Y-93791000D01*
X124101495Y-93789796D01*
X124077227Y-93786196D01*
X124053428Y-93780235D01*
X124030329Y-93771970D01*
X124008150Y-93761480D01*
X123987107Y-93748868D01*
X123967401Y-93734253D01*
X123949223Y-93717777D01*
X123932747Y-93699599D01*
X123918132Y-93679893D01*
X123905520Y-93658850D01*
X123895030Y-93636671D01*
X123886765Y-93613572D01*
X123880804Y-93589773D01*
X123877204Y-93565505D01*
X123876000Y-93541001D01*
X123876000Y-92640999D01*
X123877204Y-92616495D01*
X123880804Y-92592227D01*
X123886765Y-92568428D01*
X123895030Y-92545329D01*
X123905520Y-92523150D01*
X123918132Y-92502107D01*
X123932747Y-92482401D01*
X123949223Y-92464223D01*
X123967401Y-92447747D01*
X123987107Y-92433132D01*
X124008150Y-92420520D01*
X124030329Y-92410030D01*
X124053428Y-92401765D01*
X124077227Y-92395804D01*
X124101495Y-92392204D01*
X124125999Y-92391000D01*
X124776001Y-92391000D01*
X124800505Y-92392204D01*
G37*
G04 #@! TD.AperFunction*
D18*
X129540000Y-77724000D03*
D19*
X125530249Y-80209751D03*
D18*
X126969349Y-86667000D03*
X126969349Y-87517000D03*
X132080000Y-84836000D03*
X125730000Y-97917000D03*
X129996988Y-85847436D03*
X123670001Y-89381895D03*
X129750820Y-89466420D03*
X123952000Y-85090000D03*
X123952000Y-86106000D03*
X124170934Y-90005649D03*
X124094998Y-91094363D03*
X125984000Y-103124000D03*
X124587000Y-91856560D03*
X131942748Y-91740968D03*
X132469989Y-91139287D03*
X132741254Y-90352900D03*
X132754798Y-89517914D03*
X132614242Y-86420288D03*
X132588000Y-85598000D03*
X126441200Y-83667600D03*
X125476000Y-92329000D03*
X130556000Y-101346000D03*
X126433000Y-82863000D03*
X125925000Y-82355000D03*
X130007059Y-88382841D03*
X131099560Y-93853000D03*
D19*
X127101793Y-88498487D03*
D20*
X126610000Y-85090000D02*
X128270000Y-85090000D01*
X125095000Y-83575000D02*
X126610000Y-85090000D01*
D21*
X128270000Y-85090000D02*
X128270000Y-83820000D01*
X128270000Y-81450000D02*
X128270000Y-83820000D01*
D20*
X129930000Y-85090000D02*
X128270000Y-85090000D01*
X131445000Y-83575000D02*
X129930000Y-85090000D01*
X125770000Y-75367196D02*
X125953196Y-75184000D01*
X125770000Y-76392500D02*
X125770000Y-75367196D01*
X130586804Y-75184000D02*
X125953196Y-75184000D01*
X130770000Y-75367196D02*
X130586804Y-75184000D01*
X130770000Y-76392500D02*
X130770000Y-75367196D01*
X125370000Y-76232500D02*
X124770000Y-76232500D01*
D22*
X124959000Y-103886000D02*
X124977000Y-103886000D01*
X125791000Y-100339000D02*
X125020000Y-99568000D01*
X127000000Y-100339000D02*
X125791000Y-100339000D01*
X130039000Y-93091000D02*
X130175000Y-93091000D01*
X121920000Y-90602002D02*
X121920000Y-91440000D01*
X123070001Y-89452001D02*
X121920000Y-90602002D01*
X123070001Y-88765999D02*
X123070001Y-89452001D01*
X125320000Y-88717000D02*
X123119000Y-88717000D01*
X123119000Y-88717000D02*
X123070001Y-88765999D01*
D23*
X126295000Y-88717000D02*
X126986000Y-89408000D01*
X126986000Y-89408000D02*
X127508000Y-89408000D01*
X125320000Y-88717000D02*
X126295000Y-88717000D01*
D20*
X131370000Y-81450000D02*
X131445000Y-81525000D01*
X129220000Y-81450000D02*
X131370000Y-81450000D01*
D22*
X127420001Y-80619999D02*
X127320000Y-80720000D01*
X129220000Y-80720000D02*
X129119999Y-80619999D01*
X129119999Y-80619999D02*
X127420001Y-80619999D01*
X129220000Y-81450000D02*
X129220000Y-80720000D01*
X127320000Y-81450000D02*
X127320000Y-80720000D01*
X129220000Y-81450000D02*
X129220000Y-80584000D01*
X129220000Y-80584000D02*
X129540000Y-80264000D01*
D23*
X129540000Y-80264000D02*
X129540000Y-77724000D01*
X127009753Y-80209751D02*
X127420001Y-80619999D01*
X125530249Y-80209751D02*
X127009753Y-80209751D01*
D22*
X127009000Y-102108000D02*
X127009000Y-104140000D01*
X129531000Y-101854000D02*
X129549000Y-101854000D01*
X129531000Y-102108000D02*
X129531000Y-104140000D01*
X122769999Y-84669999D02*
X121920000Y-83820000D01*
X123070001Y-86112003D02*
X123070001Y-84970001D01*
X123070001Y-84970001D02*
X122769999Y-84669999D01*
X123724998Y-86767000D02*
X123070001Y-86112003D01*
X125320000Y-86767000D02*
X123724998Y-86767000D01*
X126769349Y-86867000D02*
X126969349Y-86667000D01*
X126507501Y-86867000D02*
X126769349Y-86867000D01*
X125320000Y-86767000D02*
X126407501Y-86767000D01*
X126407501Y-86767000D02*
X126507501Y-86867000D01*
D23*
X122977000Y-87417000D02*
X121920000Y-86360000D01*
X125320000Y-87417000D02*
X122977000Y-87417000D01*
D22*
X126769349Y-87317000D02*
X126969349Y-87517000D01*
X126507501Y-87317000D02*
X126769349Y-87317000D01*
X126407501Y-87417000D02*
X126507501Y-87317000D01*
X125320000Y-87417000D02*
X126407501Y-87417000D01*
X131220000Y-85467000D02*
X131449000Y-85467000D01*
X131449000Y-85467000D02*
X132080000Y-84836000D01*
X127000000Y-98289000D02*
X126102000Y-98289000D01*
X126102000Y-98289000D02*
X125730000Y-97917000D01*
X127000000Y-98289000D02*
X127000000Y-96012000D01*
X131220000Y-85467000D02*
X130377424Y-85467000D01*
X130377424Y-85467000D02*
X129996988Y-85847436D01*
X125320000Y-89367000D02*
X123684896Y-89367000D01*
X123684896Y-89367000D02*
X123670001Y-89381895D01*
X129540000Y-100339000D02*
X129540000Y-99764000D01*
X131220000Y-87417000D02*
X133563000Y-87417000D01*
X133563000Y-87417000D02*
X134620000Y-86360000D01*
X130749000Y-100339000D02*
X131520000Y-99568000D01*
X129540000Y-100339000D02*
X130749000Y-100339000D01*
X129407058Y-88094840D02*
X129407058Y-89122658D01*
X129407058Y-89122658D02*
X129750820Y-89466420D01*
X131220000Y-87417000D02*
X130084898Y-87417000D01*
X130084898Y-87417000D02*
X129407058Y-88094840D01*
X124329000Y-85467000D02*
X123952000Y-85090000D01*
X125320000Y-85467000D02*
X124329000Y-85467000D01*
X125309000Y-86106000D02*
X125320000Y-86117000D01*
X123952000Y-86106000D02*
X125309000Y-86106000D01*
X125320000Y-90017000D02*
X124182285Y-90017000D01*
X124182285Y-90017000D02*
X124170934Y-90005649D01*
X124522361Y-90667000D02*
X125320000Y-90667000D01*
X124094998Y-91094363D02*
X124522361Y-90667000D01*
X124959000Y-102108000D02*
X124968000Y-102108000D01*
X124968000Y-102108000D02*
X125984000Y-103124000D01*
X125320000Y-91317000D02*
X125126560Y-91317000D01*
X125126560Y-91317000D02*
X124587000Y-91856560D01*
X131643968Y-91740968D02*
X131220000Y-91317000D01*
X131942748Y-91740968D02*
X131643968Y-91740968D01*
X131997702Y-90667000D02*
X131220000Y-90667000D01*
X132469989Y-91139287D02*
X131997702Y-90667000D01*
X131220000Y-90017000D02*
X132405354Y-90017000D01*
X132405354Y-90017000D02*
X132741254Y-90352900D01*
X131220000Y-89367000D02*
X132603884Y-89367000D01*
X132603884Y-89367000D02*
X132754798Y-89517914D01*
X133770001Y-90590001D02*
X134620000Y-91440000D01*
X133469999Y-89345113D02*
X133469999Y-90289999D01*
X132841886Y-88717000D02*
X133469999Y-89345113D01*
X133469999Y-90289999D02*
X133770001Y-90590001D01*
X131220000Y-88717000D02*
X132841886Y-88717000D01*
X131220000Y-86767000D02*
X132267530Y-86767000D01*
X132267530Y-86767000D02*
X132614242Y-86420288D01*
X131220000Y-86117000D02*
X132069000Y-86117000D01*
X132069000Y-86117000D02*
X132588000Y-85598000D01*
D23*
X122103000Y-88717000D02*
X121920000Y-88900000D01*
D20*
X127220000Y-83650000D02*
X126433000Y-82863000D01*
X127320000Y-83650000D02*
X127220000Y-83650000D01*
D22*
X133787000Y-88067000D02*
X134620000Y-88900000D01*
X131220000Y-88067000D02*
X133787000Y-88067000D01*
X124451000Y-93091000D02*
X124714000Y-93091000D01*
X124714000Y-93091000D02*
X125476000Y-92329000D01*
X126458800Y-83650000D02*
X126441200Y-83667600D01*
X127320000Y-83650000D02*
X126458800Y-83650000D01*
X131581000Y-102108000D02*
X131318000Y-102108000D01*
X131318000Y-102108000D02*
X130556000Y-101346000D01*
D20*
X126433000Y-82863000D02*
X125925000Y-82355000D01*
X125925000Y-82355000D02*
X125095000Y-81525000D01*
D22*
X129540000Y-96012000D02*
X129540000Y-98289000D01*
X131220000Y-88067000D02*
X130322900Y-88067000D01*
X130322900Y-88067000D02*
X130007059Y-88382841D01*
X132089000Y-93091000D02*
X131861560Y-93091000D01*
X131861560Y-93091000D02*
X131099560Y-93853000D01*
X125320000Y-88067000D02*
X126670306Y-88067000D01*
X126670306Y-88067000D02*
X127101793Y-88498487D01*
D24*
G36*
X128260934Y-96862000D02*
G01*
X128269178Y-96945707D01*
X128293595Y-97026196D01*
X128333245Y-97100376D01*
X128386605Y-97165395D01*
X128451624Y-97218755D01*
X128525804Y-97258405D01*
X128606293Y-97282822D01*
X128690000Y-97291066D01*
X129013001Y-97291066D01*
X129013001Y-97292518D01*
X128957520Y-97297982D01*
X128830132Y-97336625D01*
X128712731Y-97399377D01*
X128609828Y-97483828D01*
X128525377Y-97586731D01*
X128462625Y-97704132D01*
X128423982Y-97831520D01*
X128410934Y-97963999D01*
X128410934Y-98614001D01*
X128423982Y-98746480D01*
X128462625Y-98873868D01*
X128525377Y-98991269D01*
X128609828Y-99094172D01*
X128712731Y-99178623D01*
X128830132Y-99241375D01*
X128957520Y-99280018D01*
X129089999Y-99293066D01*
X129303104Y-99293066D01*
X129245799Y-99323696D01*
X129232105Y-99334934D01*
X129089999Y-99334934D01*
X128957520Y-99347982D01*
X128830132Y-99386625D01*
X128712731Y-99449377D01*
X128609828Y-99533828D01*
X128525377Y-99636731D01*
X128462625Y-99754132D01*
X128423982Y-99881520D01*
X128410934Y-100013999D01*
X128410934Y-100664001D01*
X128423982Y-100796480D01*
X128462625Y-100923868D01*
X128525377Y-101041269D01*
X128609828Y-101144172D01*
X128695647Y-101214603D01*
X128641377Y-101280731D01*
X128578625Y-101398132D01*
X128539982Y-101525520D01*
X128526934Y-101657999D01*
X128526934Y-102558001D01*
X128539982Y-102690480D01*
X128578625Y-102817868D01*
X128641377Y-102935269D01*
X128725828Y-103038172D01*
X128828731Y-103122623D01*
X128831307Y-103124000D01*
X128828731Y-103125377D01*
X128725828Y-103209828D01*
X128641377Y-103312731D01*
X128578625Y-103430132D01*
X128539982Y-103557520D01*
X128526934Y-103689999D01*
X128526934Y-104590001D01*
X128539982Y-104722480D01*
X128578625Y-104849868D01*
X128636423Y-104958000D01*
X127903577Y-104958000D01*
X127961375Y-104849868D01*
X128000018Y-104722480D01*
X128013066Y-104590001D01*
X128013066Y-103689999D01*
X128000018Y-103557520D01*
X127961375Y-103430132D01*
X127898623Y-103312731D01*
X127814172Y-103209828D01*
X127711269Y-103125377D01*
X127708693Y-103124000D01*
X127711269Y-103122623D01*
X127814172Y-103038172D01*
X127898623Y-102935269D01*
X127961375Y-102817868D01*
X128000018Y-102690480D01*
X128013066Y-102558001D01*
X128013066Y-101657999D01*
X128000018Y-101525520D01*
X127986480Y-101480892D01*
X128054494Y-101444537D01*
X128151185Y-101365185D01*
X128230537Y-101268494D01*
X128289502Y-101158180D01*
X128325812Y-101038482D01*
X128338072Y-100914000D01*
X128335000Y-100624750D01*
X128176250Y-100466000D01*
X127127000Y-100466000D01*
X127127000Y-100486000D01*
X126873000Y-100486000D01*
X126873000Y-100466000D01*
X126097608Y-100466000D01*
X126066242Y-100434634D01*
X126317868Y-100353975D01*
X126385811Y-100212000D01*
X126873000Y-100212000D01*
X126873000Y-100192000D01*
X127127000Y-100192000D01*
X127127000Y-100212000D01*
X128176250Y-100212000D01*
X128335000Y-100053250D01*
X128338072Y-99764000D01*
X128325812Y-99639518D01*
X128289502Y-99519820D01*
X128230537Y-99409506D01*
X128151185Y-99312815D01*
X128054494Y-99233463D01*
X127944180Y-99174498D01*
X127862490Y-99149718D01*
X127930172Y-99094172D01*
X128014623Y-98991269D01*
X128077375Y-98873868D01*
X128116018Y-98746480D01*
X128129066Y-98614001D01*
X128129066Y-97963999D01*
X128116018Y-97831520D01*
X128077375Y-97704132D01*
X128014623Y-97586731D01*
X127930172Y-97483828D01*
X127827269Y-97399377D01*
X127709868Y-97336625D01*
X127582480Y-97297982D01*
X127527000Y-97292518D01*
X127527000Y-97175924D01*
X127604886Y-97143663D01*
X127814040Y-97003911D01*
X127991911Y-96826040D01*
X128131663Y-96616886D01*
X128227926Y-96384487D01*
X128260934Y-96218544D01*
X128260934Y-96862000D01*
G37*
X128260934Y-96862000D02*
X128269178Y-96945707D01*
X128293595Y-97026196D01*
X128333245Y-97100376D01*
X128386605Y-97165395D01*
X128451624Y-97218755D01*
X128525804Y-97258405D01*
X128606293Y-97282822D01*
X128690000Y-97291066D01*
X129013001Y-97291066D01*
X129013001Y-97292518D01*
X128957520Y-97297982D01*
X128830132Y-97336625D01*
X128712731Y-97399377D01*
X128609828Y-97483828D01*
X128525377Y-97586731D01*
X128462625Y-97704132D01*
X128423982Y-97831520D01*
X128410934Y-97963999D01*
X128410934Y-98614001D01*
X128423982Y-98746480D01*
X128462625Y-98873868D01*
X128525377Y-98991269D01*
X128609828Y-99094172D01*
X128712731Y-99178623D01*
X128830132Y-99241375D01*
X128957520Y-99280018D01*
X129089999Y-99293066D01*
X129303104Y-99293066D01*
X129245799Y-99323696D01*
X129232105Y-99334934D01*
X129089999Y-99334934D01*
X128957520Y-99347982D01*
X128830132Y-99386625D01*
X128712731Y-99449377D01*
X128609828Y-99533828D01*
X128525377Y-99636731D01*
X128462625Y-99754132D01*
X128423982Y-99881520D01*
X128410934Y-100013999D01*
X128410934Y-100664001D01*
X128423982Y-100796480D01*
X128462625Y-100923868D01*
X128525377Y-101041269D01*
X128609828Y-101144172D01*
X128695647Y-101214603D01*
X128641377Y-101280731D01*
X128578625Y-101398132D01*
X128539982Y-101525520D01*
X128526934Y-101657999D01*
X128526934Y-102558001D01*
X128539982Y-102690480D01*
X128578625Y-102817868D01*
X128641377Y-102935269D01*
X128725828Y-103038172D01*
X128828731Y-103122623D01*
X128831307Y-103124000D01*
X128828731Y-103125377D01*
X128725828Y-103209828D01*
X128641377Y-103312731D01*
X128578625Y-103430132D01*
X128539982Y-103557520D01*
X128526934Y-103689999D01*
X128526934Y-104590001D01*
X128539982Y-104722480D01*
X128578625Y-104849868D01*
X128636423Y-104958000D01*
X127903577Y-104958000D01*
X127961375Y-104849868D01*
X128000018Y-104722480D01*
X128013066Y-104590001D01*
X128013066Y-103689999D01*
X128000018Y-103557520D01*
X127961375Y-103430132D01*
X127898623Y-103312731D01*
X127814172Y-103209828D01*
X127711269Y-103125377D01*
X127708693Y-103124000D01*
X127711269Y-103122623D01*
X127814172Y-103038172D01*
X127898623Y-102935269D01*
X127961375Y-102817868D01*
X128000018Y-102690480D01*
X128013066Y-102558001D01*
X128013066Y-101657999D01*
X128000018Y-101525520D01*
X127986480Y-101480892D01*
X128054494Y-101444537D01*
X128151185Y-101365185D01*
X128230537Y-101268494D01*
X128289502Y-101158180D01*
X128325812Y-101038482D01*
X128338072Y-100914000D01*
X128335000Y-100624750D01*
X128176250Y-100466000D01*
X127127000Y-100466000D01*
X127127000Y-100486000D01*
X126873000Y-100486000D01*
X126873000Y-100466000D01*
X126097608Y-100466000D01*
X126066242Y-100434634D01*
X126317868Y-100353975D01*
X126385811Y-100212000D01*
X126873000Y-100212000D01*
X126873000Y-100192000D01*
X127127000Y-100192000D01*
X127127000Y-100212000D01*
X128176250Y-100212000D01*
X128335000Y-100053250D01*
X128338072Y-99764000D01*
X128325812Y-99639518D01*
X128289502Y-99519820D01*
X128230537Y-99409506D01*
X128151185Y-99312815D01*
X128054494Y-99233463D01*
X127944180Y-99174498D01*
X127862490Y-99149718D01*
X127930172Y-99094172D01*
X128014623Y-98991269D01*
X128077375Y-98873868D01*
X128116018Y-98746480D01*
X128129066Y-98614001D01*
X128129066Y-97963999D01*
X128116018Y-97831520D01*
X128077375Y-97704132D01*
X128014623Y-97586731D01*
X127930172Y-97483828D01*
X127827269Y-97399377D01*
X127709868Y-97336625D01*
X127582480Y-97297982D01*
X127527000Y-97292518D01*
X127527000Y-97175924D01*
X127604886Y-97143663D01*
X127814040Y-97003911D01*
X127991911Y-96826040D01*
X128131663Y-96616886D01*
X128227926Y-96384487D01*
X128260934Y-96218544D01*
X128260934Y-96862000D01*
G36*
X123583507Y-72977004D02*
G01*
X123535000Y-73215500D01*
X123535000Y-73565500D01*
X124643000Y-73565500D01*
X124643000Y-73545500D01*
X124897000Y-73545500D01*
X124897000Y-73565500D01*
X126005000Y-73565500D01*
X126005000Y-73215500D01*
X125956493Y-72977004D01*
X125899891Y-72842000D01*
X130640109Y-72842000D01*
X130583507Y-72977004D01*
X130535000Y-73215500D01*
X130535000Y-73565500D01*
X131643000Y-73565500D01*
X131643000Y-73545500D01*
X131897000Y-73545500D01*
X131897000Y-73565500D01*
X133005000Y-73565500D01*
X133005000Y-73215500D01*
X132956493Y-72977004D01*
X132899891Y-72842000D01*
X135438001Y-72842000D01*
X135438001Y-74712102D01*
X134905750Y-74715000D01*
X134747000Y-74873750D01*
X134747000Y-76073000D01*
X134767000Y-76073000D01*
X134767000Y-76327000D01*
X134747000Y-76327000D01*
X134747000Y-76347000D01*
X134493000Y-76347000D01*
X134493000Y-76327000D01*
X133293750Y-76327000D01*
X133135000Y-76485750D01*
X133131928Y-77050000D01*
X133144188Y-77174482D01*
X133180498Y-77294180D01*
X133239463Y-77404494D01*
X133318815Y-77501185D01*
X133415506Y-77580537D01*
X133525820Y-77639502D01*
X133645518Y-77675812D01*
X133770000Y-77688072D01*
X133896815Y-77687382D01*
X133805960Y-77748089D01*
X133628089Y-77925960D01*
X133488337Y-78135114D01*
X133392074Y-78367513D01*
X133343000Y-78614226D01*
X133343000Y-78865774D01*
X133392074Y-79112487D01*
X133488337Y-79344886D01*
X133628089Y-79554040D01*
X133805960Y-79731911D01*
X134015114Y-79871663D01*
X134247513Y-79967926D01*
X134459034Y-80010000D01*
X134247513Y-80052074D01*
X134015114Y-80148337D01*
X133805960Y-80288089D01*
X133628089Y-80465960D01*
X133488337Y-80675114D01*
X133392074Y-80907513D01*
X133343000Y-81154226D01*
X133343000Y-81405774D01*
X133392074Y-81652487D01*
X133488337Y-81884886D01*
X133628089Y-82094040D01*
X133805960Y-82271911D01*
X134015114Y-82411663D01*
X134247513Y-82507926D01*
X134459034Y-82550000D01*
X134247513Y-82592074D01*
X134015114Y-82688337D01*
X133805960Y-82828089D01*
X133628089Y-83005960D01*
X133488337Y-83215114D01*
X133392074Y-83447513D01*
X133343000Y-83694226D01*
X133343000Y-83945774D01*
X133392074Y-84192487D01*
X133488337Y-84424886D01*
X133628089Y-84634040D01*
X133805960Y-84811911D01*
X134015114Y-84951663D01*
X134247513Y-85047926D01*
X134459034Y-85090000D01*
X134247513Y-85132074D01*
X134015114Y-85228337D01*
X133805960Y-85368089D01*
X133628089Y-85545960D01*
X133488337Y-85755114D01*
X133392074Y-85987513D01*
X133343000Y-86234226D01*
X133343000Y-86485774D01*
X133392074Y-86732487D01*
X133424336Y-86810374D01*
X133344711Y-86890000D01*
X133172664Y-86890000D01*
X133178940Y-86883724D01*
X133258501Y-86764652D01*
X133313304Y-86632346D01*
X133341242Y-86491891D01*
X133341242Y-86348685D01*
X133313304Y-86208230D01*
X133258501Y-86075924D01*
X133200759Y-85989507D01*
X133232259Y-85942364D01*
X133287062Y-85810058D01*
X133315000Y-85669603D01*
X133315000Y-85526397D01*
X133287062Y-85385942D01*
X133232259Y-85253636D01*
X133152698Y-85134564D01*
X133051436Y-85033302D01*
X132932364Y-84953741D01*
X132807000Y-84901813D01*
X132807000Y-84764397D01*
X132779062Y-84623942D01*
X132724259Y-84491636D01*
X132701009Y-84456840D01*
X132734502Y-84394180D01*
X132770812Y-84274482D01*
X132783072Y-84150000D01*
X132780000Y-83860750D01*
X132621250Y-83702000D01*
X131572000Y-83702000D01*
X131572000Y-83722000D01*
X131318000Y-83722000D01*
X131318000Y-83702000D01*
X130268750Y-83702000D01*
X130110000Y-83860750D01*
X130106928Y-84150000D01*
X130119188Y-84274482D01*
X130155498Y-84394180D01*
X130214463Y-84504494D01*
X130293815Y-84601185D01*
X130390506Y-84680537D01*
X130500820Y-84739502D01*
X130620518Y-84775812D01*
X130745000Y-84788072D01*
X131159250Y-84785000D01*
X131317998Y-84626252D01*
X131317998Y-84785000D01*
X131353000Y-84785000D01*
X131353000Y-84812934D01*
X130495000Y-84812934D01*
X130411293Y-84821178D01*
X130330804Y-84845595D01*
X130256624Y-84885245D01*
X130191605Y-84938605D01*
X130147511Y-84992333D01*
X130083222Y-85026696D01*
X130002976Y-85092552D01*
X129986478Y-85112655D01*
X129978697Y-85120436D01*
X129925385Y-85120436D01*
X129784930Y-85148374D01*
X129652624Y-85203177D01*
X129533552Y-85282738D01*
X129432290Y-85384000D01*
X129352729Y-85503072D01*
X129297926Y-85635378D01*
X129269988Y-85775833D01*
X129269988Y-85919039D01*
X129297926Y-86059494D01*
X129352729Y-86191800D01*
X129432290Y-86310872D01*
X129533552Y-86412134D01*
X129652624Y-86491695D01*
X129784930Y-86546498D01*
X129925385Y-86574436D01*
X130065934Y-86574436D01*
X130065934Y-86889319D01*
X130059017Y-86890000D01*
X129981588Y-86897626D01*
X129882248Y-86927761D01*
X129790696Y-86976696D01*
X129710450Y-87042552D01*
X129693951Y-87062656D01*
X129052724Y-87703885D01*
X129032610Y-87720392D01*
X128966754Y-87800638D01*
X128925302Y-87878191D01*
X128917819Y-87892191D01*
X128887684Y-87991531D01*
X128877509Y-88094840D01*
X128880058Y-88120721D01*
X128880059Y-89096768D01*
X128877509Y-89122658D01*
X128887684Y-89225967D01*
X128917819Y-89325307D01*
X128965549Y-89414604D01*
X128966755Y-89416860D01*
X129023820Y-89486394D01*
X129023820Y-89538023D01*
X129051758Y-89678478D01*
X129106561Y-89810784D01*
X129186122Y-89929856D01*
X129287384Y-90031118D01*
X129406456Y-90110679D01*
X129538762Y-90165482D01*
X129679217Y-90193420D01*
X129822423Y-90193420D01*
X129962878Y-90165482D01*
X130065934Y-90122795D01*
X130065934Y-90242000D01*
X130074178Y-90325707D01*
X130079121Y-90342000D01*
X130074178Y-90358293D01*
X130065934Y-90442000D01*
X130065934Y-90892000D01*
X130074178Y-90975707D01*
X130079121Y-90992000D01*
X130074178Y-91008293D01*
X130065934Y-91092000D01*
X130065934Y-91542000D01*
X130074178Y-91625707D01*
X130098595Y-91706196D01*
X130138245Y-91780376D01*
X130191605Y-91845395D01*
X130215634Y-91865116D01*
X130166000Y-91914750D01*
X130166000Y-92964000D01*
X130186000Y-92964000D01*
X130186000Y-93218000D01*
X130166000Y-93218000D01*
X130166000Y-94267250D01*
X130324750Y-94426000D01*
X130614000Y-94429072D01*
X130648118Y-94425712D01*
X130755196Y-94497259D01*
X130887502Y-94552062D01*
X131027957Y-94580000D01*
X131171163Y-94580000D01*
X131311618Y-94552062D01*
X131443924Y-94497259D01*
X131562996Y-94417698D01*
X131664258Y-94316436D01*
X131730833Y-94216799D01*
X131763999Y-94220066D01*
X132414001Y-94220066D01*
X132546480Y-94207018D01*
X132673868Y-94168375D01*
X132791269Y-94105623D01*
X132894172Y-94021172D01*
X132978623Y-93918269D01*
X133041375Y-93800868D01*
X133080018Y-93673480D01*
X133093066Y-93541001D01*
X133093066Y-92640999D01*
X133080018Y-92508520D01*
X133041375Y-92381132D01*
X132978623Y-92263731D01*
X132894172Y-92160828D01*
X132791269Y-92076377D01*
X132673868Y-92013625D01*
X132623089Y-91998221D01*
X132641810Y-91953026D01*
X132663903Y-91841958D01*
X132682047Y-91838349D01*
X132814353Y-91783546D01*
X132933425Y-91703985D01*
X133034687Y-91602723D01*
X133114248Y-91483651D01*
X133169051Y-91351345D01*
X133196989Y-91210890D01*
X133196989Y-91067684D01*
X133171541Y-90939747D01*
X133204690Y-90917598D01*
X133278500Y-90843789D01*
X133424336Y-90989625D01*
X133392074Y-91067513D01*
X133343000Y-91314226D01*
X133343000Y-91565774D01*
X133392074Y-91812487D01*
X133488337Y-92044886D01*
X133628089Y-92254040D01*
X133805960Y-92431911D01*
X134015114Y-92571663D01*
X134247513Y-92667926D01*
X134459034Y-92710000D01*
X134247513Y-92752074D01*
X134015114Y-92848337D01*
X133805960Y-92988089D01*
X133628089Y-93165960D01*
X133488337Y-93375114D01*
X133392074Y-93607513D01*
X133343000Y-93854226D01*
X133343000Y-94105774D01*
X133392074Y-94352487D01*
X133488337Y-94584886D01*
X133628089Y-94794040D01*
X133805960Y-94971911D01*
X134015114Y-95111663D01*
X134247513Y-95207926D01*
X134459034Y-95250000D01*
X134247513Y-95292074D01*
X134015114Y-95388337D01*
X133805960Y-95528089D01*
X133628089Y-95705960D01*
X133488337Y-95915114D01*
X133392074Y-96147513D01*
X133343000Y-96394226D01*
X133343000Y-96645774D01*
X133392074Y-96892487D01*
X133488337Y-97124886D01*
X133628089Y-97334040D01*
X133805960Y-97511911D01*
X134015114Y-97651663D01*
X134247513Y-97747926D01*
X134459034Y-97790000D01*
X134247513Y-97832074D01*
X134015114Y-97928337D01*
X133805960Y-98068089D01*
X133628089Y-98245960D01*
X133488337Y-98455114D01*
X133392074Y-98687513D01*
X133343000Y-98934226D01*
X133343000Y-99185774D01*
X133392074Y-99432487D01*
X133488337Y-99664886D01*
X133628089Y-99874040D01*
X133805960Y-100051911D01*
X134015114Y-100191663D01*
X134247513Y-100287926D01*
X134459034Y-100330000D01*
X134247513Y-100372074D01*
X134015114Y-100468337D01*
X133805960Y-100608089D01*
X133628089Y-100785960D01*
X133488337Y-100995114D01*
X133392074Y-101227513D01*
X133343000Y-101474226D01*
X133343000Y-101725774D01*
X133392074Y-101972487D01*
X133488337Y-102204886D01*
X133628089Y-102414040D01*
X133805960Y-102591911D01*
X134015114Y-102731663D01*
X134086416Y-102761197D01*
X133988748Y-102795843D01*
X133738645Y-102944822D01*
X133522412Y-103139731D01*
X133348359Y-103373080D01*
X133223175Y-103635901D01*
X133178524Y-103783110D01*
X133299845Y-104013000D01*
X134493000Y-104013000D01*
X134493000Y-103993000D01*
X134747000Y-103993000D01*
X134747000Y-104013000D01*
X134767000Y-104013000D01*
X134767000Y-104267000D01*
X134747000Y-104267000D01*
X134747000Y-104287000D01*
X134493000Y-104287000D01*
X134493000Y-104267000D01*
X133299845Y-104267000D01*
X133178524Y-104496890D01*
X133223175Y-104644099D01*
X133348359Y-104906920D01*
X133386459Y-104958000D01*
X132782450Y-104958000D01*
X132794072Y-104840000D01*
X132791000Y-104425750D01*
X132632250Y-104267000D01*
X131708000Y-104267000D01*
X131708000Y-104287000D01*
X131454000Y-104287000D01*
X131454000Y-104267000D01*
X131434000Y-104267000D01*
X131434000Y-104013000D01*
X131454000Y-104013000D01*
X131454000Y-103993000D01*
X131708000Y-103993000D01*
X131708000Y-104013000D01*
X132632250Y-104013000D01*
X132791000Y-103854250D01*
X132794072Y-103440000D01*
X132781812Y-103315518D01*
X132745502Y-103195820D01*
X132686537Y-103085506D01*
X132607185Y-102988815D01*
X132510494Y-102909463D01*
X132490211Y-102898622D01*
X132533375Y-102817868D01*
X132572018Y-102690480D01*
X132585066Y-102558001D01*
X132585066Y-101657999D01*
X132572018Y-101525520D01*
X132533375Y-101398132D01*
X132470623Y-101280731D01*
X132386172Y-101177828D01*
X132283269Y-101093377D01*
X132165868Y-101030625D01*
X132038480Y-100991982D01*
X131906001Y-100978934D01*
X131255999Y-100978934D01*
X131189468Y-100985487D01*
X131120698Y-100882564D01*
X131026412Y-100788278D01*
X131042702Y-100779571D01*
X131140221Y-100819965D01*
X131391764Y-100870000D01*
X131648236Y-100870000D01*
X131899779Y-100819965D01*
X132136728Y-100721818D01*
X132349977Y-100579330D01*
X132531330Y-100397977D01*
X132673818Y-100184728D01*
X132771965Y-99947779D01*
X132822000Y-99696236D01*
X132822000Y-99439764D01*
X132771965Y-99188221D01*
X132673818Y-98951272D01*
X132531330Y-98738023D01*
X132349977Y-98556670D01*
X132136728Y-98414182D01*
X131899779Y-98316035D01*
X131648236Y-98266000D01*
X131391764Y-98266000D01*
X131140221Y-98316035D01*
X130903272Y-98414182D01*
X130690023Y-98556670D01*
X130669066Y-98577627D01*
X130669066Y-97963999D01*
X130656018Y-97831520D01*
X130617375Y-97704132D01*
X130554623Y-97586731D01*
X130470172Y-97483828D01*
X130367269Y-97399377D01*
X130249868Y-97336625D01*
X130122480Y-97297982D01*
X130067000Y-97292518D01*
X130067000Y-97291066D01*
X130390000Y-97291066D01*
X130473707Y-97282822D01*
X130554196Y-97258405D01*
X130628376Y-97218755D01*
X130693395Y-97165395D01*
X130746755Y-97100376D01*
X130786405Y-97026196D01*
X130810822Y-96945707D01*
X130819066Y-96862000D01*
X130819066Y-95162000D01*
X130810822Y-95078293D01*
X130786405Y-94997804D01*
X130746755Y-94923624D01*
X130693395Y-94858605D01*
X130628376Y-94805245D01*
X130554196Y-94765595D01*
X130473707Y-94741178D01*
X130390000Y-94732934D01*
X128690000Y-94732934D01*
X128606293Y-94741178D01*
X128525804Y-94765595D01*
X128451624Y-94805245D01*
X128386605Y-94858605D01*
X128333245Y-94923624D01*
X128293595Y-94997804D01*
X128269178Y-95078293D01*
X128260934Y-95162000D01*
X128260934Y-95805456D01*
X128227926Y-95639513D01*
X128131663Y-95407114D01*
X127991911Y-95197960D01*
X127814040Y-95020089D01*
X127604886Y-94880337D01*
X127372487Y-94784074D01*
X127125774Y-94735000D01*
X126874226Y-94735000D01*
X126627513Y-94784074D01*
X126395114Y-94880337D01*
X126185960Y-95020089D01*
X126008089Y-95197960D01*
X125868337Y-95407114D01*
X125772074Y-95639513D01*
X125723000Y-95886226D01*
X125723000Y-96137774D01*
X125772074Y-96384487D01*
X125868337Y-96616886D01*
X126008089Y-96826040D01*
X126185960Y-97003911D01*
X126395114Y-97143663D01*
X126473000Y-97175925D01*
X126473000Y-97292518D01*
X126417520Y-97297982D01*
X126290132Y-97336625D01*
X126216901Y-97375767D01*
X126193436Y-97352302D01*
X126074364Y-97272741D01*
X125942058Y-97217938D01*
X125801603Y-97190000D01*
X125658397Y-97190000D01*
X125517942Y-97217938D01*
X125385636Y-97272741D01*
X125266564Y-97352302D01*
X125165302Y-97453564D01*
X125085741Y-97572636D01*
X125030938Y-97704942D01*
X125003000Y-97845397D01*
X125003000Y-97988603D01*
X125016332Y-98055626D01*
X124952457Y-98052196D01*
X124658037Y-98094499D01*
X124377526Y-98193428D01*
X124234025Y-98270132D01*
X124153365Y-98521760D01*
X125020000Y-99388395D01*
X125034143Y-99374253D01*
X125213748Y-99553858D01*
X125199605Y-99568000D01*
X125213748Y-99582143D01*
X125034143Y-99761748D01*
X125020000Y-99747605D01*
X124153365Y-100614240D01*
X124234025Y-100865868D01*
X124499093Y-100992718D01*
X124374132Y-101030625D01*
X124256731Y-101093377D01*
X124153828Y-101177828D01*
X124069377Y-101280731D01*
X124006625Y-101398132D01*
X123967982Y-101525520D01*
X123954934Y-101657999D01*
X123954934Y-102558001D01*
X123967982Y-102690480D01*
X124006625Y-102817868D01*
X124049789Y-102898622D01*
X124029506Y-102909463D01*
X123932815Y-102988815D01*
X123853463Y-103085506D01*
X123794498Y-103195820D01*
X123758188Y-103315518D01*
X123745928Y-103440000D01*
X123749000Y-103854250D01*
X123907750Y-104013000D01*
X124832000Y-104013000D01*
X124832000Y-103993000D01*
X125086000Y-103993000D01*
X125086000Y-104013000D01*
X125106000Y-104013000D01*
X125106000Y-104267000D01*
X125086000Y-104267000D01*
X125086000Y-104287000D01*
X124832000Y-104287000D01*
X124832000Y-104267000D01*
X123907750Y-104267000D01*
X123749000Y-104425750D01*
X123745928Y-104840000D01*
X123757550Y-104958000D01*
X123153541Y-104958000D01*
X123191641Y-104906920D01*
X123316825Y-104644099D01*
X123361476Y-104496890D01*
X123240155Y-104267000D01*
X122047000Y-104267000D01*
X122047000Y-104287000D01*
X121793000Y-104287000D01*
X121793000Y-104267000D01*
X121773000Y-104267000D01*
X121773000Y-104013000D01*
X121793000Y-104013000D01*
X121793000Y-103993000D01*
X122047000Y-103993000D01*
X122047000Y-104013000D01*
X123240155Y-104013000D01*
X123361476Y-103783110D01*
X123316825Y-103635901D01*
X123191641Y-103373080D01*
X123017588Y-103139731D01*
X122801355Y-102944822D01*
X122551252Y-102795843D01*
X122453584Y-102761197D01*
X122524886Y-102731663D01*
X122734040Y-102591911D01*
X122911911Y-102414040D01*
X123051663Y-102204886D01*
X123147926Y-101972487D01*
X123197000Y-101725774D01*
X123197000Y-101474226D01*
X123147926Y-101227513D01*
X123051663Y-100995114D01*
X122911911Y-100785960D01*
X122734040Y-100608089D01*
X122524886Y-100468337D01*
X122292487Y-100372074D01*
X122080966Y-100330000D01*
X122292487Y-100287926D01*
X122524886Y-100191663D01*
X122734040Y-100051911D01*
X122911911Y-99874040D01*
X123051663Y-99664886D01*
X123063817Y-99635543D01*
X123504196Y-99635543D01*
X123546499Y-99929963D01*
X123645428Y-100210474D01*
X123722132Y-100353975D01*
X123973760Y-100434635D01*
X124840395Y-99568000D01*
X123973760Y-98701365D01*
X123722132Y-98782025D01*
X123593733Y-99050329D01*
X123520145Y-99338526D01*
X123504196Y-99635543D01*
X123063817Y-99635543D01*
X123147926Y-99432487D01*
X123197000Y-99185774D01*
X123197000Y-98934226D01*
X123147926Y-98687513D01*
X123051663Y-98455114D01*
X122911911Y-98245960D01*
X122734040Y-98068089D01*
X122524886Y-97928337D01*
X122292487Y-97832074D01*
X122080966Y-97790000D01*
X122292487Y-97747926D01*
X122524886Y-97651663D01*
X122734040Y-97511911D01*
X122911911Y-97334040D01*
X123051663Y-97124886D01*
X123147926Y-96892487D01*
X123197000Y-96645774D01*
X123197000Y-96394226D01*
X123147926Y-96147513D01*
X123051663Y-95915114D01*
X122911911Y-95705960D01*
X122734040Y-95528089D01*
X122524886Y-95388337D01*
X122292487Y-95292074D01*
X122080966Y-95250000D01*
X122292487Y-95207926D01*
X122524886Y-95111663D01*
X122734040Y-94971911D01*
X122911911Y-94794040D01*
X123051663Y-94584886D01*
X123147926Y-94352487D01*
X123197000Y-94105774D01*
X123197000Y-93854226D01*
X123147926Y-93607513D01*
X123051663Y-93375114D01*
X122911911Y-93165960D01*
X122734040Y-92988089D01*
X122524886Y-92848337D01*
X122453584Y-92818803D01*
X122551252Y-92784157D01*
X122801355Y-92635178D01*
X123017588Y-92440269D01*
X123191641Y-92206920D01*
X123316825Y-91944099D01*
X123361476Y-91796890D01*
X123240155Y-91567000D01*
X122047000Y-91567000D01*
X122047000Y-91587000D01*
X121793000Y-91587000D01*
X121793000Y-91567000D01*
X121773000Y-91567000D01*
X121773000Y-91313000D01*
X121793000Y-91313000D01*
X121793000Y-91293000D01*
X122047000Y-91293000D01*
X122047000Y-91313000D01*
X123240155Y-91313000D01*
X123361476Y-91083110D01*
X123316825Y-90935901D01*
X123191641Y-90673080D01*
X123017588Y-90439731D01*
X122801355Y-90244822D01*
X122551252Y-90095843D01*
X122453584Y-90061197D01*
X122524886Y-90031663D01*
X122734040Y-89891911D01*
X122911911Y-89714040D01*
X122979056Y-89613550D01*
X123025742Y-89726259D01*
X123105303Y-89845331D01*
X123206565Y-89946593D01*
X123325637Y-90026154D01*
X123443934Y-90075154D01*
X123443934Y-90077252D01*
X123471872Y-90217707D01*
X123526675Y-90350013D01*
X123606236Y-90469085D01*
X123652695Y-90515544D01*
X123631562Y-90529665D01*
X123530300Y-90630927D01*
X123450739Y-90749999D01*
X123395936Y-90882305D01*
X123367998Y-91022760D01*
X123367998Y-91165966D01*
X123395936Y-91306421D01*
X123450739Y-91438727D01*
X123530300Y-91557799D01*
X123631562Y-91659061D01*
X123750634Y-91738622D01*
X123860190Y-91784002D01*
X123860000Y-91784957D01*
X123860000Y-91928163D01*
X123876381Y-92010516D01*
X123866132Y-92013625D01*
X123748731Y-92076377D01*
X123645828Y-92160828D01*
X123561377Y-92263731D01*
X123498625Y-92381132D01*
X123459982Y-92508520D01*
X123446934Y-92640999D01*
X123446934Y-93541001D01*
X123459982Y-93673480D01*
X123498625Y-93800868D01*
X123561377Y-93918269D01*
X123645828Y-94021172D01*
X123748731Y-94105623D01*
X123866132Y-94168375D01*
X123993520Y-94207018D01*
X124125999Y-94220066D01*
X124776001Y-94220066D01*
X124908480Y-94207018D01*
X125035868Y-94168375D01*
X125153269Y-94105623D01*
X125256172Y-94021172D01*
X125311718Y-93953490D01*
X125336498Y-94035180D01*
X125395463Y-94145494D01*
X125474815Y-94242185D01*
X125571506Y-94321537D01*
X125681820Y-94380502D01*
X125801518Y-94416812D01*
X125926000Y-94429072D01*
X126215250Y-94426000D01*
X126374000Y-94267250D01*
X126374000Y-93218000D01*
X126628000Y-93218000D01*
X126628000Y-94267250D01*
X126786750Y-94426000D01*
X127076000Y-94429072D01*
X127200482Y-94416812D01*
X127320180Y-94380502D01*
X127430494Y-94321537D01*
X127527185Y-94242185D01*
X127606537Y-94145494D01*
X127665502Y-94035180D01*
X127701812Y-93915482D01*
X127714072Y-93791000D01*
X128825928Y-93791000D01*
X128838188Y-93915482D01*
X128874498Y-94035180D01*
X128933463Y-94145494D01*
X129012815Y-94242185D01*
X129109506Y-94321537D01*
X129219820Y-94380502D01*
X129339518Y-94416812D01*
X129464000Y-94429072D01*
X129753250Y-94426000D01*
X129912000Y-94267250D01*
X129912000Y-93218000D01*
X128987750Y-93218000D01*
X128829000Y-93376750D01*
X128825928Y-93791000D01*
X127714072Y-93791000D01*
X127711000Y-93376750D01*
X127552250Y-93218000D01*
X126628000Y-93218000D01*
X126374000Y-93218000D01*
X126354000Y-93218000D01*
X126354000Y-92964000D01*
X126374000Y-92964000D01*
X126374000Y-91914750D01*
X126628000Y-91914750D01*
X126628000Y-92964000D01*
X127552250Y-92964000D01*
X127711000Y-92805250D01*
X127714072Y-92391000D01*
X128825928Y-92391000D01*
X128829000Y-92805250D01*
X128987750Y-92964000D01*
X129912000Y-92964000D01*
X129912000Y-91914750D01*
X129753250Y-91756000D01*
X129464000Y-91752928D01*
X129339518Y-91765188D01*
X129219820Y-91801498D01*
X129109506Y-91860463D01*
X129012815Y-91939815D01*
X128933463Y-92036506D01*
X128874498Y-92146820D01*
X128838188Y-92266518D01*
X128825928Y-92391000D01*
X127714072Y-92391000D01*
X127701812Y-92266518D01*
X127665502Y-92146820D01*
X127606537Y-92036506D01*
X127527185Y-91939815D01*
X127430494Y-91860463D01*
X127320180Y-91801498D01*
X127200482Y-91765188D01*
X127076000Y-91752928D01*
X126786750Y-91756000D01*
X126628000Y-91914750D01*
X126374000Y-91914750D01*
X126324366Y-91865116D01*
X126348395Y-91845395D01*
X126401755Y-91780376D01*
X126441405Y-91706196D01*
X126465822Y-91625707D01*
X126474066Y-91542000D01*
X126474066Y-91092000D01*
X126465822Y-91008293D01*
X126460879Y-90992000D01*
X126465822Y-90975707D01*
X126474066Y-90892000D01*
X126474066Y-90442000D01*
X126465822Y-90358293D01*
X126460879Y-90342000D01*
X126465822Y-90325707D01*
X126474066Y-90242000D01*
X126474066Y-89792000D01*
X126465822Y-89708293D01*
X126460879Y-89692000D01*
X126465822Y-89675707D01*
X126474066Y-89592000D01*
X126474066Y-89412092D01*
X126489263Y-89400003D01*
X126570078Y-89304531D01*
X126630715Y-89195127D01*
X126635140Y-89181302D01*
X126710062Y-89231364D01*
X126860566Y-89293705D01*
X127020341Y-89325487D01*
X127183245Y-89325487D01*
X127343020Y-89293705D01*
X127493524Y-89231364D01*
X127628974Y-89140859D01*
X127744165Y-89025668D01*
X127834670Y-88890218D01*
X127897011Y-88739714D01*
X127928793Y-88579939D01*
X127928793Y-88417035D01*
X127897011Y-88257260D01*
X127834670Y-88106756D01*
X127744165Y-87971306D01*
X127628974Y-87856115D01*
X127618642Y-87849211D01*
X127668411Y-87729058D01*
X127696349Y-87588603D01*
X127696349Y-87445397D01*
X127668411Y-87304942D01*
X127613608Y-87172636D01*
X127559729Y-87092000D01*
X127613608Y-87011364D01*
X127668411Y-86879058D01*
X127696349Y-86738603D01*
X127696349Y-86595397D01*
X127668411Y-86454942D01*
X127613608Y-86322636D01*
X127534047Y-86203564D01*
X127432785Y-86102302D01*
X127313713Y-86022741D01*
X127181407Y-85967938D01*
X127040952Y-85940000D01*
X126897746Y-85940000D01*
X126757291Y-85967938D01*
X126624985Y-86022741D01*
X126505913Y-86102302D01*
X126474066Y-86134149D01*
X126474066Y-85892000D01*
X126465822Y-85808293D01*
X126460879Y-85792000D01*
X126465822Y-85775707D01*
X126474066Y-85692000D01*
X126474066Y-85242000D01*
X126465822Y-85158293D01*
X126441405Y-85077804D01*
X126401755Y-85003624D01*
X126348395Y-84938605D01*
X126283376Y-84885245D01*
X126209196Y-84845595D01*
X126128707Y-84821178D01*
X126045000Y-84812934D01*
X124624135Y-84812934D01*
X124613166Y-84786454D01*
X124809250Y-84785000D01*
X124968000Y-84626250D01*
X124968000Y-83702000D01*
X123918750Y-83702000D01*
X123760000Y-83860750D01*
X123756928Y-84150000D01*
X123769188Y-84274482D01*
X123800840Y-84378825D01*
X123739942Y-84390938D01*
X123607636Y-84445741D01*
X123488564Y-84525302D01*
X123430094Y-84583772D01*
X123424335Y-84579046D01*
X123160949Y-84315660D01*
X123160944Y-84315654D01*
X123115664Y-84270374D01*
X123147926Y-84192487D01*
X123197000Y-83945774D01*
X123197000Y-83694226D01*
X123147926Y-83447513D01*
X123051663Y-83215114D01*
X122911911Y-83005960D01*
X122905951Y-83000000D01*
X123756928Y-83000000D01*
X123760000Y-83289250D01*
X123918750Y-83448000D01*
X124968000Y-83448000D01*
X124968000Y-83428000D01*
X125222000Y-83428000D01*
X125222000Y-83448000D01*
X125242000Y-83448000D01*
X125242000Y-83702000D01*
X125222000Y-83702000D01*
X125222000Y-84626250D01*
X125380750Y-84785000D01*
X125795000Y-84788072D01*
X125919482Y-84775812D01*
X126039180Y-84739502D01*
X126149494Y-84680537D01*
X126246185Y-84601185D01*
X126325537Y-84504494D01*
X126384278Y-84394600D01*
X126512803Y-84394600D01*
X126614703Y-84374331D01*
X126638245Y-84418376D01*
X126691605Y-84483395D01*
X126756624Y-84536755D01*
X126830804Y-84576405D01*
X126911293Y-84600822D01*
X126995000Y-84609066D01*
X127645000Y-84609066D01*
X127728707Y-84600822D01*
X127809196Y-84576405D01*
X127883376Y-84536755D01*
X127948395Y-84483395D01*
X128001755Y-84418376D01*
X128041405Y-84344196D01*
X128065822Y-84263707D01*
X128074066Y-84180000D01*
X128074066Y-83120000D01*
X128465934Y-83120000D01*
X128465934Y-84180000D01*
X128474178Y-84263707D01*
X128498595Y-84344196D01*
X128538245Y-84418376D01*
X128591605Y-84483395D01*
X128656624Y-84536755D01*
X128730804Y-84576405D01*
X128811293Y-84600822D01*
X128895000Y-84609066D01*
X129545000Y-84609066D01*
X129628707Y-84600822D01*
X129709196Y-84576405D01*
X129783376Y-84536755D01*
X129848395Y-84483395D01*
X129901755Y-84418376D01*
X129941405Y-84344196D01*
X129965822Y-84263707D01*
X129974066Y-84180000D01*
X129974066Y-83120000D01*
X129965822Y-83036293D01*
X129941405Y-82955804D01*
X129901755Y-82881624D01*
X129848395Y-82816605D01*
X129783376Y-82763245D01*
X129709196Y-82723595D01*
X129628707Y-82699178D01*
X129545000Y-82690934D01*
X128895000Y-82690934D01*
X128811293Y-82699178D01*
X128730804Y-82723595D01*
X128656624Y-82763245D01*
X128591605Y-82816605D01*
X128538245Y-82881624D01*
X128498595Y-82955804D01*
X128474178Y-83036293D01*
X128465934Y-83120000D01*
X128074066Y-83120000D01*
X128065822Y-83036293D01*
X128041405Y-82955804D01*
X128001755Y-82881624D01*
X127948395Y-82816605D01*
X127883376Y-82763245D01*
X127809196Y-82723595D01*
X127728707Y-82699178D01*
X127645000Y-82690934D01*
X127218356Y-82690934D01*
X127099321Y-82571899D01*
X127077259Y-82518636D01*
X127004047Y-82409066D01*
X127475662Y-82409066D01*
X127493815Y-82431185D01*
X127590506Y-82510537D01*
X127700820Y-82569502D01*
X127820518Y-82605812D01*
X127945000Y-82618072D01*
X127984250Y-82615000D01*
X128143000Y-82456250D01*
X128143000Y-81577000D01*
X128123000Y-81577000D01*
X128123000Y-81323000D01*
X128143000Y-81323000D01*
X128143000Y-81303000D01*
X128397000Y-81303000D01*
X128397000Y-81323000D01*
X128417000Y-81323000D01*
X128417000Y-81577000D01*
X128397000Y-81577000D01*
X128397000Y-82456250D01*
X128555750Y-82615000D01*
X128595000Y-82618072D01*
X128719482Y-82605812D01*
X128839180Y-82569502D01*
X128949494Y-82510537D01*
X129046185Y-82431185D01*
X129064338Y-82409066D01*
X129545000Y-82409066D01*
X129628707Y-82400822D01*
X129709196Y-82376405D01*
X129783376Y-82336755D01*
X129848395Y-82283395D01*
X129901755Y-82218376D01*
X129941405Y-82144196D01*
X129946622Y-82127000D01*
X130376782Y-82127000D01*
X130430377Y-82227269D01*
X130514828Y-82330172D01*
X130582510Y-82385718D01*
X130500820Y-82410498D01*
X130390506Y-82469463D01*
X130293815Y-82548815D01*
X130214463Y-82645506D01*
X130155498Y-82755820D01*
X130119188Y-82875518D01*
X130106928Y-83000000D01*
X130110000Y-83289250D01*
X130268750Y-83448000D01*
X131318000Y-83448000D01*
X131318000Y-83428000D01*
X131572000Y-83428000D01*
X131572000Y-83448000D01*
X132621250Y-83448000D01*
X132780000Y-83289250D01*
X132783072Y-83000000D01*
X132770812Y-82875518D01*
X132734502Y-82755820D01*
X132675537Y-82645506D01*
X132596185Y-82548815D01*
X132499494Y-82469463D01*
X132389180Y-82410498D01*
X132307490Y-82385718D01*
X132375172Y-82330172D01*
X132459623Y-82227269D01*
X132522375Y-82109868D01*
X132561018Y-81982480D01*
X132574066Y-81850001D01*
X132574066Y-81199999D01*
X132561018Y-81067520D01*
X132522375Y-80940132D01*
X132459623Y-80822731D01*
X132375172Y-80719828D01*
X132272269Y-80635377D01*
X132154868Y-80572625D01*
X132027480Y-80533982D01*
X131895001Y-80520934D01*
X130994999Y-80520934D01*
X130862520Y-80533982D01*
X130735132Y-80572625D01*
X130617731Y-80635377D01*
X130514828Y-80719828D01*
X130471191Y-80773000D01*
X129946622Y-80773000D01*
X129941405Y-80755804D01*
X129901755Y-80681624D01*
X129901550Y-80681374D01*
X129932211Y-80656211D01*
X130001191Y-80572158D01*
X130052448Y-80476263D01*
X130084012Y-80372211D01*
X130092000Y-80291109D01*
X130092000Y-78200134D01*
X130104698Y-78187436D01*
X130184259Y-78068364D01*
X130239062Y-77936058D01*
X130267000Y-77795603D01*
X130267000Y-77658607D01*
X130315678Y-77681350D01*
X130575849Y-77745219D01*
X130843482Y-77757104D01*
X131108291Y-77716548D01*
X131360100Y-77625109D01*
X131467035Y-77567950D01*
X131529528Y-77331633D01*
X130770000Y-76572105D01*
X130755858Y-76586248D01*
X130576253Y-76406643D01*
X130590395Y-76392500D01*
X130949605Y-76392500D01*
X131709133Y-77152028D01*
X131945450Y-77089535D01*
X132058850Y-76846822D01*
X132122719Y-76586651D01*
X132134604Y-76319018D01*
X132094048Y-76054209D01*
X132002609Y-75802400D01*
X131945450Y-75695465D01*
X131709133Y-75632972D01*
X130949605Y-76392500D01*
X130590395Y-76392500D01*
X129830867Y-75632972D01*
X129594550Y-75695465D01*
X129481150Y-75938178D01*
X129417281Y-76198349D01*
X129405396Y-76465982D01*
X129445952Y-76730791D01*
X129537391Y-76982600D01*
X129545088Y-76997000D01*
X129468397Y-76997000D01*
X129327942Y-77024938D01*
X129195636Y-77079741D01*
X129076564Y-77159302D01*
X128975302Y-77260564D01*
X128895741Y-77379636D01*
X128840938Y-77511942D01*
X128813000Y-77652397D01*
X128813000Y-77795603D01*
X128840938Y-77936058D01*
X128895741Y-78068364D01*
X128975302Y-78187436D01*
X128988001Y-78200135D01*
X128988000Y-80070711D01*
X128965712Y-80092999D01*
X127673646Y-80092999D01*
X127419253Y-79838607D01*
X127401964Y-79817540D01*
X127317911Y-79748560D01*
X127222016Y-79697303D01*
X127117964Y-79665739D01*
X127036862Y-79657751D01*
X127036859Y-79657751D01*
X127009753Y-79655081D01*
X126982647Y-79657751D01*
X126147802Y-79657751D01*
X126057430Y-79567379D01*
X125921980Y-79476874D01*
X125771476Y-79414533D01*
X125611701Y-79382751D01*
X125448797Y-79382751D01*
X125289022Y-79414533D01*
X125138518Y-79476874D01*
X125003068Y-79567379D01*
X124887877Y-79682570D01*
X124797372Y-79818020D01*
X124735031Y-79968524D01*
X124703249Y-80128299D01*
X124703249Y-80291203D01*
X124735031Y-80450978D01*
X124764008Y-80520934D01*
X124644999Y-80520934D01*
X124512520Y-80533982D01*
X124385132Y-80572625D01*
X124267731Y-80635377D01*
X124164828Y-80719828D01*
X124080377Y-80822731D01*
X124017625Y-80940132D01*
X123978982Y-81067520D01*
X123965934Y-81199999D01*
X123965934Y-81850001D01*
X123978982Y-81982480D01*
X124017625Y-82109868D01*
X124080377Y-82227269D01*
X124164828Y-82330172D01*
X124232510Y-82385718D01*
X124150820Y-82410498D01*
X124040506Y-82469463D01*
X123943815Y-82548815D01*
X123864463Y-82645506D01*
X123805498Y-82755820D01*
X123769188Y-82875518D01*
X123756928Y-83000000D01*
X122905951Y-83000000D01*
X122734040Y-82828089D01*
X122524886Y-82688337D01*
X122292487Y-82592074D01*
X122080966Y-82550000D01*
X122292487Y-82507926D01*
X122524886Y-82411663D01*
X122734040Y-82271911D01*
X122911911Y-82094040D01*
X123051663Y-81884886D01*
X123147926Y-81652487D01*
X123197000Y-81405774D01*
X123197000Y-81154226D01*
X123147926Y-80907513D01*
X123051663Y-80675114D01*
X122911911Y-80465960D01*
X122734040Y-80288089D01*
X122524886Y-80148337D01*
X122292487Y-80052074D01*
X122080966Y-80010000D01*
X122292487Y-79967926D01*
X122524886Y-79871663D01*
X122734040Y-79731911D01*
X122911911Y-79554040D01*
X123051663Y-79344886D01*
X123147926Y-79112487D01*
X123197000Y-78865774D01*
X123197000Y-78614226D01*
X123147926Y-78367513D01*
X123051663Y-78135114D01*
X122911911Y-77925960D01*
X122734040Y-77748089D01*
X122524886Y-77608337D01*
X122292487Y-77512074D01*
X122126544Y-77479066D01*
X122770000Y-77479066D01*
X122853707Y-77470822D01*
X122934196Y-77446405D01*
X123008376Y-77406755D01*
X123073395Y-77353395D01*
X123091254Y-77331633D01*
X125010472Y-77331633D01*
X125072965Y-77567950D01*
X125315678Y-77681350D01*
X125575849Y-77745219D01*
X125843482Y-77757104D01*
X126108291Y-77716548D01*
X126360100Y-77625109D01*
X126467035Y-77567950D01*
X126529528Y-77331633D01*
X125770000Y-76572105D01*
X125010472Y-77331633D01*
X123091254Y-77331633D01*
X123126755Y-77288376D01*
X123166405Y-77214196D01*
X123190822Y-77133707D01*
X123199066Y-77050000D01*
X123199066Y-76465982D01*
X124405396Y-76465982D01*
X124445952Y-76730791D01*
X124537391Y-76982600D01*
X124594550Y-77089535D01*
X124830867Y-77152028D01*
X125590395Y-76392500D01*
X125949605Y-76392500D01*
X126709133Y-77152028D01*
X126945450Y-77089535D01*
X127058850Y-76846822D01*
X127122719Y-76586651D01*
X127134604Y-76319018D01*
X127094048Y-76054209D01*
X127002609Y-75802400D01*
X126945450Y-75695465D01*
X126709133Y-75632972D01*
X125949605Y-76392500D01*
X125590395Y-76392500D01*
X124830867Y-75632972D01*
X124594550Y-75695465D01*
X124481150Y-75938178D01*
X124417281Y-76198349D01*
X124405396Y-76465982D01*
X123199066Y-76465982D01*
X123199066Y-75350000D01*
X123190822Y-75266293D01*
X123166405Y-75185804D01*
X123126755Y-75111624D01*
X123073395Y-75046605D01*
X123008376Y-74993245D01*
X122934196Y-74953595D01*
X122853707Y-74929178D01*
X122770000Y-74920934D01*
X121102000Y-74920934D01*
X121102000Y-73819500D01*
X123535000Y-73819500D01*
X123535000Y-74169500D01*
X123583507Y-74407996D01*
X123677610Y-74632446D01*
X123813693Y-74834225D01*
X123986526Y-75005578D01*
X124189467Y-75139921D01*
X124414718Y-75232091D01*
X124452391Y-75235962D01*
X124643000Y-75111231D01*
X124643000Y-73819500D01*
X124897000Y-73819500D01*
X124897000Y-75111231D01*
X125070862Y-75225003D01*
X125010472Y-75453367D01*
X125770000Y-76212895D01*
X126529528Y-75453367D01*
X130010472Y-75453367D01*
X130770000Y-76212895D01*
X131529528Y-75453367D01*
X131502193Y-75350000D01*
X133131928Y-75350000D01*
X133135000Y-75914250D01*
X133293750Y-76073000D01*
X134493000Y-76073000D01*
X134493000Y-74873750D01*
X134334250Y-74715000D01*
X133770000Y-74711928D01*
X133645518Y-74724188D01*
X133525820Y-74760498D01*
X133415506Y-74819463D01*
X133318815Y-74898815D01*
X133239463Y-74995506D01*
X133180498Y-75105820D01*
X133144188Y-75225518D01*
X133131928Y-75350000D01*
X131502193Y-75350000D01*
X131469138Y-75225003D01*
X131643000Y-75111231D01*
X131643000Y-73819500D01*
X131897000Y-73819500D01*
X131897000Y-75111231D01*
X132087609Y-75235962D01*
X132125282Y-75232091D01*
X132350533Y-75139921D01*
X132553474Y-75005578D01*
X132726307Y-74834225D01*
X132862390Y-74632446D01*
X132956493Y-74407996D01*
X133005000Y-74169500D01*
X133005000Y-73819500D01*
X131897000Y-73819500D01*
X131643000Y-73819500D01*
X130535000Y-73819500D01*
X130535000Y-74169500D01*
X130583507Y-74407996D01*
X130677610Y-74632446D01*
X130813693Y-74834225D01*
X130986526Y-75005578D01*
X131081836Y-75068671D01*
X130964151Y-75039781D01*
X130696518Y-75027896D01*
X130431709Y-75068452D01*
X130179900Y-75159891D01*
X130072965Y-75217050D01*
X130010472Y-75453367D01*
X126529528Y-75453367D01*
X126467035Y-75217050D01*
X126224322Y-75103650D01*
X125964151Y-75039781D01*
X125696518Y-75027896D01*
X125466558Y-75063115D01*
X125553474Y-75005578D01*
X125726307Y-74834225D01*
X125862390Y-74632446D01*
X125956493Y-74407996D01*
X126005000Y-74169500D01*
X126005000Y-73819500D01*
X124897000Y-73819500D01*
X124643000Y-73819500D01*
X123535000Y-73819500D01*
X121102000Y-73819500D01*
X121102000Y-72842000D01*
X123640109Y-72842000D01*
X123583507Y-72977004D01*
G37*
X123583507Y-72977004D02*
X123535000Y-73215500D01*
X123535000Y-73565500D01*
X124643000Y-73565500D01*
X124643000Y-73545500D01*
X124897000Y-73545500D01*
X124897000Y-73565500D01*
X126005000Y-73565500D01*
X126005000Y-73215500D01*
X125956493Y-72977004D01*
X125899891Y-72842000D01*
X130640109Y-72842000D01*
X130583507Y-72977004D01*
X130535000Y-73215500D01*
X130535000Y-73565500D01*
X131643000Y-73565500D01*
X131643000Y-73545500D01*
X131897000Y-73545500D01*
X131897000Y-73565500D01*
X133005000Y-73565500D01*
X133005000Y-73215500D01*
X132956493Y-72977004D01*
X132899891Y-72842000D01*
X135438001Y-72842000D01*
X135438001Y-74712102D01*
X134905750Y-74715000D01*
X134747000Y-74873750D01*
X134747000Y-76073000D01*
X134767000Y-76073000D01*
X134767000Y-76327000D01*
X134747000Y-76327000D01*
X134747000Y-76347000D01*
X134493000Y-76347000D01*
X134493000Y-76327000D01*
X133293750Y-76327000D01*
X133135000Y-76485750D01*
X133131928Y-77050000D01*
X133144188Y-77174482D01*
X133180498Y-77294180D01*
X133239463Y-77404494D01*
X133318815Y-77501185D01*
X133415506Y-77580537D01*
X133525820Y-77639502D01*
X133645518Y-77675812D01*
X133770000Y-77688072D01*
X133896815Y-77687382D01*
X133805960Y-77748089D01*
X133628089Y-77925960D01*
X133488337Y-78135114D01*
X133392074Y-78367513D01*
X133343000Y-78614226D01*
X133343000Y-78865774D01*
X133392074Y-79112487D01*
X133488337Y-79344886D01*
X133628089Y-79554040D01*
X133805960Y-79731911D01*
X134015114Y-79871663D01*
X134247513Y-79967926D01*
X134459034Y-80010000D01*
X134247513Y-80052074D01*
X134015114Y-80148337D01*
X133805960Y-80288089D01*
X133628089Y-80465960D01*
X133488337Y-80675114D01*
X133392074Y-80907513D01*
X133343000Y-81154226D01*
X133343000Y-81405774D01*
X133392074Y-81652487D01*
X133488337Y-81884886D01*
X133628089Y-82094040D01*
X133805960Y-82271911D01*
X134015114Y-82411663D01*
X134247513Y-82507926D01*
X134459034Y-82550000D01*
X134247513Y-82592074D01*
X134015114Y-82688337D01*
X133805960Y-82828089D01*
X133628089Y-83005960D01*
X133488337Y-83215114D01*
X133392074Y-83447513D01*
X133343000Y-83694226D01*
X133343000Y-83945774D01*
X133392074Y-84192487D01*
X133488337Y-84424886D01*
X133628089Y-84634040D01*
X133805960Y-84811911D01*
X134015114Y-84951663D01*
X134247513Y-85047926D01*
X134459034Y-85090000D01*
X134247513Y-85132074D01*
X134015114Y-85228337D01*
X133805960Y-85368089D01*
X133628089Y-85545960D01*
X133488337Y-85755114D01*
X133392074Y-85987513D01*
X133343000Y-86234226D01*
X133343000Y-86485774D01*
X133392074Y-86732487D01*
X133424336Y-86810374D01*
X133344711Y-86890000D01*
X133172664Y-86890000D01*
X133178940Y-86883724D01*
X133258501Y-86764652D01*
X133313304Y-86632346D01*
X133341242Y-86491891D01*
X133341242Y-86348685D01*
X133313304Y-86208230D01*
X133258501Y-86075924D01*
X133200759Y-85989507D01*
X133232259Y-85942364D01*
X133287062Y-85810058D01*
X133315000Y-85669603D01*
X133315000Y-85526397D01*
X133287062Y-85385942D01*
X133232259Y-85253636D01*
X133152698Y-85134564D01*
X133051436Y-85033302D01*
X132932364Y-84953741D01*
X132807000Y-84901813D01*
X132807000Y-84764397D01*
X132779062Y-84623942D01*
X132724259Y-84491636D01*
X132701009Y-84456840D01*
X132734502Y-84394180D01*
X132770812Y-84274482D01*
X132783072Y-84150000D01*
X132780000Y-83860750D01*
X132621250Y-83702000D01*
X131572000Y-83702000D01*
X131572000Y-83722000D01*
X131318000Y-83722000D01*
X131318000Y-83702000D01*
X130268750Y-83702000D01*
X130110000Y-83860750D01*
X130106928Y-84150000D01*
X130119188Y-84274482D01*
X130155498Y-84394180D01*
X130214463Y-84504494D01*
X130293815Y-84601185D01*
X130390506Y-84680537D01*
X130500820Y-84739502D01*
X130620518Y-84775812D01*
X130745000Y-84788072D01*
X131159250Y-84785000D01*
X131317998Y-84626252D01*
X131317998Y-84785000D01*
X131353000Y-84785000D01*
X131353000Y-84812934D01*
X130495000Y-84812934D01*
X130411293Y-84821178D01*
X130330804Y-84845595D01*
X130256624Y-84885245D01*
X130191605Y-84938605D01*
X130147511Y-84992333D01*
X130083222Y-85026696D01*
X130002976Y-85092552D01*
X129986478Y-85112655D01*
X129978697Y-85120436D01*
X129925385Y-85120436D01*
X129784930Y-85148374D01*
X129652624Y-85203177D01*
X129533552Y-85282738D01*
X129432290Y-85384000D01*
X129352729Y-85503072D01*
X129297926Y-85635378D01*
X129269988Y-85775833D01*
X129269988Y-85919039D01*
X129297926Y-86059494D01*
X129352729Y-86191800D01*
X129432290Y-86310872D01*
X129533552Y-86412134D01*
X129652624Y-86491695D01*
X129784930Y-86546498D01*
X129925385Y-86574436D01*
X130065934Y-86574436D01*
X130065934Y-86889319D01*
X130059017Y-86890000D01*
X129981588Y-86897626D01*
X129882248Y-86927761D01*
X129790696Y-86976696D01*
X129710450Y-87042552D01*
X129693951Y-87062656D01*
X129052724Y-87703885D01*
X129032610Y-87720392D01*
X128966754Y-87800638D01*
X128925302Y-87878191D01*
X128917819Y-87892191D01*
X128887684Y-87991531D01*
X128877509Y-88094840D01*
X128880058Y-88120721D01*
X128880059Y-89096768D01*
X128877509Y-89122658D01*
X128887684Y-89225967D01*
X128917819Y-89325307D01*
X128965549Y-89414604D01*
X128966755Y-89416860D01*
X129023820Y-89486394D01*
X129023820Y-89538023D01*
X129051758Y-89678478D01*
X129106561Y-89810784D01*
X129186122Y-89929856D01*
X129287384Y-90031118D01*
X129406456Y-90110679D01*
X129538762Y-90165482D01*
X129679217Y-90193420D01*
X129822423Y-90193420D01*
X129962878Y-90165482D01*
X130065934Y-90122795D01*
X130065934Y-90242000D01*
X130074178Y-90325707D01*
X130079121Y-90342000D01*
X130074178Y-90358293D01*
X130065934Y-90442000D01*
X130065934Y-90892000D01*
X130074178Y-90975707D01*
X130079121Y-90992000D01*
X130074178Y-91008293D01*
X130065934Y-91092000D01*
X130065934Y-91542000D01*
X130074178Y-91625707D01*
X130098595Y-91706196D01*
X130138245Y-91780376D01*
X130191605Y-91845395D01*
X130215634Y-91865116D01*
X130166000Y-91914750D01*
X130166000Y-92964000D01*
X130186000Y-92964000D01*
X130186000Y-93218000D01*
X130166000Y-93218000D01*
X130166000Y-94267250D01*
X130324750Y-94426000D01*
X130614000Y-94429072D01*
X130648118Y-94425712D01*
X130755196Y-94497259D01*
X130887502Y-94552062D01*
X131027957Y-94580000D01*
X131171163Y-94580000D01*
X131311618Y-94552062D01*
X131443924Y-94497259D01*
X131562996Y-94417698D01*
X131664258Y-94316436D01*
X131730833Y-94216799D01*
X131763999Y-94220066D01*
X132414001Y-94220066D01*
X132546480Y-94207018D01*
X132673868Y-94168375D01*
X132791269Y-94105623D01*
X132894172Y-94021172D01*
X132978623Y-93918269D01*
X133041375Y-93800868D01*
X133080018Y-93673480D01*
X133093066Y-93541001D01*
X133093066Y-92640999D01*
X133080018Y-92508520D01*
X133041375Y-92381132D01*
X132978623Y-92263731D01*
X132894172Y-92160828D01*
X132791269Y-92076377D01*
X132673868Y-92013625D01*
X132623089Y-91998221D01*
X132641810Y-91953026D01*
X132663903Y-91841958D01*
X132682047Y-91838349D01*
X132814353Y-91783546D01*
X132933425Y-91703985D01*
X133034687Y-91602723D01*
X133114248Y-91483651D01*
X133169051Y-91351345D01*
X133196989Y-91210890D01*
X133196989Y-91067684D01*
X133171541Y-90939747D01*
X133204690Y-90917598D01*
X133278500Y-90843789D01*
X133424336Y-90989625D01*
X133392074Y-91067513D01*
X133343000Y-91314226D01*
X133343000Y-91565774D01*
X133392074Y-91812487D01*
X133488337Y-92044886D01*
X133628089Y-92254040D01*
X133805960Y-92431911D01*
X134015114Y-92571663D01*
X134247513Y-92667926D01*
X134459034Y-92710000D01*
X134247513Y-92752074D01*
X134015114Y-92848337D01*
X133805960Y-92988089D01*
X133628089Y-93165960D01*
X133488337Y-93375114D01*
X133392074Y-93607513D01*
X133343000Y-93854226D01*
X133343000Y-94105774D01*
X133392074Y-94352487D01*
X133488337Y-94584886D01*
X133628089Y-94794040D01*
X133805960Y-94971911D01*
X134015114Y-95111663D01*
X134247513Y-95207926D01*
X134459034Y-95250000D01*
X134247513Y-95292074D01*
X134015114Y-95388337D01*
X133805960Y-95528089D01*
X133628089Y-95705960D01*
X133488337Y-95915114D01*
X133392074Y-96147513D01*
X133343000Y-96394226D01*
X133343000Y-96645774D01*
X133392074Y-96892487D01*
X133488337Y-97124886D01*
X133628089Y-97334040D01*
X133805960Y-97511911D01*
X134015114Y-97651663D01*
X134247513Y-97747926D01*
X134459034Y-97790000D01*
X134247513Y-97832074D01*
X134015114Y-97928337D01*
X133805960Y-98068089D01*
X133628089Y-98245960D01*
X133488337Y-98455114D01*
X133392074Y-98687513D01*
X133343000Y-98934226D01*
X133343000Y-99185774D01*
X133392074Y-99432487D01*
X133488337Y-99664886D01*
X133628089Y-99874040D01*
X133805960Y-100051911D01*
X134015114Y-100191663D01*
X134247513Y-100287926D01*
X134459034Y-100330000D01*
X134247513Y-100372074D01*
X134015114Y-100468337D01*
X133805960Y-100608089D01*
X133628089Y-100785960D01*
X133488337Y-100995114D01*
X133392074Y-101227513D01*
X133343000Y-101474226D01*
X133343000Y-101725774D01*
X133392074Y-101972487D01*
X133488337Y-102204886D01*
X133628089Y-102414040D01*
X133805960Y-102591911D01*
X134015114Y-102731663D01*
X134086416Y-102761197D01*
X133988748Y-102795843D01*
X133738645Y-102944822D01*
X133522412Y-103139731D01*
X133348359Y-103373080D01*
X133223175Y-103635901D01*
X133178524Y-103783110D01*
X133299845Y-104013000D01*
X134493000Y-104013000D01*
X134493000Y-103993000D01*
X134747000Y-103993000D01*
X134747000Y-104013000D01*
X134767000Y-104013000D01*
X134767000Y-104267000D01*
X134747000Y-104267000D01*
X134747000Y-104287000D01*
X134493000Y-104287000D01*
X134493000Y-104267000D01*
X133299845Y-104267000D01*
X133178524Y-104496890D01*
X133223175Y-104644099D01*
X133348359Y-104906920D01*
X133386459Y-104958000D01*
X132782450Y-104958000D01*
X132794072Y-104840000D01*
X132791000Y-104425750D01*
X132632250Y-104267000D01*
X131708000Y-104267000D01*
X131708000Y-104287000D01*
X131454000Y-104287000D01*
X131454000Y-104267000D01*
X131434000Y-104267000D01*
X131434000Y-104013000D01*
X131454000Y-104013000D01*
X131454000Y-103993000D01*
X131708000Y-103993000D01*
X131708000Y-104013000D01*
X132632250Y-104013000D01*
X132791000Y-103854250D01*
X132794072Y-103440000D01*
X132781812Y-103315518D01*
X132745502Y-103195820D01*
X132686537Y-103085506D01*
X132607185Y-102988815D01*
X132510494Y-102909463D01*
X132490211Y-102898622D01*
X132533375Y-102817868D01*
X132572018Y-102690480D01*
X132585066Y-102558001D01*
X132585066Y-101657999D01*
X132572018Y-101525520D01*
X132533375Y-101398132D01*
X132470623Y-101280731D01*
X132386172Y-101177828D01*
X132283269Y-101093377D01*
X132165868Y-101030625D01*
X132038480Y-100991982D01*
X131906001Y-100978934D01*
X131255999Y-100978934D01*
X131189468Y-100985487D01*
X131120698Y-100882564D01*
X131026412Y-100788278D01*
X131042702Y-100779571D01*
X131140221Y-100819965D01*
X131391764Y-100870000D01*
X131648236Y-100870000D01*
X131899779Y-100819965D01*
X132136728Y-100721818D01*
X132349977Y-100579330D01*
X132531330Y-100397977D01*
X132673818Y-100184728D01*
X132771965Y-99947779D01*
X132822000Y-99696236D01*
X132822000Y-99439764D01*
X132771965Y-99188221D01*
X132673818Y-98951272D01*
X132531330Y-98738023D01*
X132349977Y-98556670D01*
X132136728Y-98414182D01*
X131899779Y-98316035D01*
X131648236Y-98266000D01*
X131391764Y-98266000D01*
X131140221Y-98316035D01*
X130903272Y-98414182D01*
X130690023Y-98556670D01*
X130669066Y-98577627D01*
X130669066Y-97963999D01*
X130656018Y-97831520D01*
X130617375Y-97704132D01*
X130554623Y-97586731D01*
X130470172Y-97483828D01*
X130367269Y-97399377D01*
X130249868Y-97336625D01*
X130122480Y-97297982D01*
X130067000Y-97292518D01*
X130067000Y-97291066D01*
X130390000Y-97291066D01*
X130473707Y-97282822D01*
X130554196Y-97258405D01*
X130628376Y-97218755D01*
X130693395Y-97165395D01*
X130746755Y-97100376D01*
X130786405Y-97026196D01*
X130810822Y-96945707D01*
X130819066Y-96862000D01*
X130819066Y-95162000D01*
X130810822Y-95078293D01*
X130786405Y-94997804D01*
X130746755Y-94923624D01*
X130693395Y-94858605D01*
X130628376Y-94805245D01*
X130554196Y-94765595D01*
X130473707Y-94741178D01*
X130390000Y-94732934D01*
X128690000Y-94732934D01*
X128606293Y-94741178D01*
X128525804Y-94765595D01*
X128451624Y-94805245D01*
X128386605Y-94858605D01*
X128333245Y-94923624D01*
X128293595Y-94997804D01*
X128269178Y-95078293D01*
X128260934Y-95162000D01*
X128260934Y-95805456D01*
X128227926Y-95639513D01*
X128131663Y-95407114D01*
X127991911Y-95197960D01*
X127814040Y-95020089D01*
X127604886Y-94880337D01*
X127372487Y-94784074D01*
X127125774Y-94735000D01*
X126874226Y-94735000D01*
X126627513Y-94784074D01*
X126395114Y-94880337D01*
X126185960Y-95020089D01*
X126008089Y-95197960D01*
X125868337Y-95407114D01*
X125772074Y-95639513D01*
X125723000Y-95886226D01*
X125723000Y-96137774D01*
X125772074Y-96384487D01*
X125868337Y-96616886D01*
X126008089Y-96826040D01*
X126185960Y-97003911D01*
X126395114Y-97143663D01*
X126473000Y-97175925D01*
X126473000Y-97292518D01*
X126417520Y-97297982D01*
X126290132Y-97336625D01*
X126216901Y-97375767D01*
X126193436Y-97352302D01*
X126074364Y-97272741D01*
X125942058Y-97217938D01*
X125801603Y-97190000D01*
X125658397Y-97190000D01*
X125517942Y-97217938D01*
X125385636Y-97272741D01*
X125266564Y-97352302D01*
X125165302Y-97453564D01*
X125085741Y-97572636D01*
X125030938Y-97704942D01*
X125003000Y-97845397D01*
X125003000Y-97988603D01*
X125016332Y-98055626D01*
X124952457Y-98052196D01*
X124658037Y-98094499D01*
X124377526Y-98193428D01*
X124234025Y-98270132D01*
X124153365Y-98521760D01*
X125020000Y-99388395D01*
X125034143Y-99374253D01*
X125213748Y-99553858D01*
X125199605Y-99568000D01*
X125213748Y-99582143D01*
X125034143Y-99761748D01*
X125020000Y-99747605D01*
X124153365Y-100614240D01*
X124234025Y-100865868D01*
X124499093Y-100992718D01*
X124374132Y-101030625D01*
X124256731Y-101093377D01*
X124153828Y-101177828D01*
X124069377Y-101280731D01*
X124006625Y-101398132D01*
X123967982Y-101525520D01*
X123954934Y-101657999D01*
X123954934Y-102558001D01*
X123967982Y-102690480D01*
X124006625Y-102817868D01*
X124049789Y-102898622D01*
X124029506Y-102909463D01*
X123932815Y-102988815D01*
X123853463Y-103085506D01*
X123794498Y-103195820D01*
X123758188Y-103315518D01*
X123745928Y-103440000D01*
X123749000Y-103854250D01*
X123907750Y-104013000D01*
X124832000Y-104013000D01*
X124832000Y-103993000D01*
X125086000Y-103993000D01*
X125086000Y-104013000D01*
X125106000Y-104013000D01*
X125106000Y-104267000D01*
X125086000Y-104267000D01*
X125086000Y-104287000D01*
X124832000Y-104287000D01*
X124832000Y-104267000D01*
X123907750Y-104267000D01*
X123749000Y-104425750D01*
X123745928Y-104840000D01*
X123757550Y-104958000D01*
X123153541Y-104958000D01*
X123191641Y-104906920D01*
X123316825Y-104644099D01*
X123361476Y-104496890D01*
X123240155Y-104267000D01*
X122047000Y-104267000D01*
X122047000Y-104287000D01*
X121793000Y-104287000D01*
X121793000Y-104267000D01*
X121773000Y-104267000D01*
X121773000Y-104013000D01*
X121793000Y-104013000D01*
X121793000Y-103993000D01*
X122047000Y-103993000D01*
X122047000Y-104013000D01*
X123240155Y-104013000D01*
X123361476Y-103783110D01*
X123316825Y-103635901D01*
X123191641Y-103373080D01*
X123017588Y-103139731D01*
X122801355Y-102944822D01*
X122551252Y-102795843D01*
X122453584Y-102761197D01*
X122524886Y-102731663D01*
X122734040Y-102591911D01*
X122911911Y-102414040D01*
X123051663Y-102204886D01*
X123147926Y-101972487D01*
X123197000Y-101725774D01*
X123197000Y-101474226D01*
X123147926Y-101227513D01*
X123051663Y-100995114D01*
X122911911Y-100785960D01*
X122734040Y-100608089D01*
X122524886Y-100468337D01*
X122292487Y-100372074D01*
X122080966Y-100330000D01*
X122292487Y-100287926D01*
X122524886Y-100191663D01*
X122734040Y-100051911D01*
X122911911Y-99874040D01*
X123051663Y-99664886D01*
X123063817Y-99635543D01*
X123504196Y-99635543D01*
X123546499Y-99929963D01*
X123645428Y-100210474D01*
X123722132Y-100353975D01*
X123973760Y-100434635D01*
X124840395Y-99568000D01*
X123973760Y-98701365D01*
X123722132Y-98782025D01*
X123593733Y-99050329D01*
X123520145Y-99338526D01*
X123504196Y-99635543D01*
X123063817Y-99635543D01*
X123147926Y-99432487D01*
X123197000Y-99185774D01*
X123197000Y-98934226D01*
X123147926Y-98687513D01*
X123051663Y-98455114D01*
X122911911Y-98245960D01*
X122734040Y-98068089D01*
X122524886Y-97928337D01*
X122292487Y-97832074D01*
X122080966Y-97790000D01*
X122292487Y-97747926D01*
X122524886Y-97651663D01*
X122734040Y-97511911D01*
X122911911Y-97334040D01*
X123051663Y-97124886D01*
X123147926Y-96892487D01*
X123197000Y-96645774D01*
X123197000Y-96394226D01*
X123147926Y-96147513D01*
X123051663Y-95915114D01*
X122911911Y-95705960D01*
X122734040Y-95528089D01*
X122524886Y-95388337D01*
X122292487Y-95292074D01*
X122080966Y-95250000D01*
X122292487Y-95207926D01*
X122524886Y-95111663D01*
X122734040Y-94971911D01*
X122911911Y-94794040D01*
X123051663Y-94584886D01*
X123147926Y-94352487D01*
X123197000Y-94105774D01*
X123197000Y-93854226D01*
X123147926Y-93607513D01*
X123051663Y-93375114D01*
X122911911Y-93165960D01*
X122734040Y-92988089D01*
X122524886Y-92848337D01*
X122453584Y-92818803D01*
X122551252Y-92784157D01*
X122801355Y-92635178D01*
X123017588Y-92440269D01*
X123191641Y-92206920D01*
X123316825Y-91944099D01*
X123361476Y-91796890D01*
X123240155Y-91567000D01*
X122047000Y-91567000D01*
X122047000Y-91587000D01*
X121793000Y-91587000D01*
X121793000Y-91567000D01*
X121773000Y-91567000D01*
X121773000Y-91313000D01*
X121793000Y-91313000D01*
X121793000Y-91293000D01*
X122047000Y-91293000D01*
X122047000Y-91313000D01*
X123240155Y-91313000D01*
X123361476Y-91083110D01*
X123316825Y-90935901D01*
X123191641Y-90673080D01*
X123017588Y-90439731D01*
X122801355Y-90244822D01*
X122551252Y-90095843D01*
X122453584Y-90061197D01*
X122524886Y-90031663D01*
X122734040Y-89891911D01*
X122911911Y-89714040D01*
X122979056Y-89613550D01*
X123025742Y-89726259D01*
X123105303Y-89845331D01*
X123206565Y-89946593D01*
X123325637Y-90026154D01*
X123443934Y-90075154D01*
X123443934Y-90077252D01*
X123471872Y-90217707D01*
X123526675Y-90350013D01*
X123606236Y-90469085D01*
X123652695Y-90515544D01*
X123631562Y-90529665D01*
X123530300Y-90630927D01*
X123450739Y-90749999D01*
X123395936Y-90882305D01*
X123367998Y-91022760D01*
X123367998Y-91165966D01*
X123395936Y-91306421D01*
X123450739Y-91438727D01*
X123530300Y-91557799D01*
X123631562Y-91659061D01*
X123750634Y-91738622D01*
X123860190Y-91784002D01*
X123860000Y-91784957D01*
X123860000Y-91928163D01*
X123876381Y-92010516D01*
X123866132Y-92013625D01*
X123748731Y-92076377D01*
X123645828Y-92160828D01*
X123561377Y-92263731D01*
X123498625Y-92381132D01*
X123459982Y-92508520D01*
X123446934Y-92640999D01*
X123446934Y-93541001D01*
X123459982Y-93673480D01*
X123498625Y-93800868D01*
X123561377Y-93918269D01*
X123645828Y-94021172D01*
X123748731Y-94105623D01*
X123866132Y-94168375D01*
X123993520Y-94207018D01*
X124125999Y-94220066D01*
X124776001Y-94220066D01*
X124908480Y-94207018D01*
X125035868Y-94168375D01*
X125153269Y-94105623D01*
X125256172Y-94021172D01*
X125311718Y-93953490D01*
X125336498Y-94035180D01*
X125395463Y-94145494D01*
X125474815Y-94242185D01*
X125571506Y-94321537D01*
X125681820Y-94380502D01*
X125801518Y-94416812D01*
X125926000Y-94429072D01*
X126215250Y-94426000D01*
X126374000Y-94267250D01*
X126374000Y-93218000D01*
X126628000Y-93218000D01*
X126628000Y-94267250D01*
X126786750Y-94426000D01*
X127076000Y-94429072D01*
X127200482Y-94416812D01*
X127320180Y-94380502D01*
X127430494Y-94321537D01*
X127527185Y-94242185D01*
X127606537Y-94145494D01*
X127665502Y-94035180D01*
X127701812Y-93915482D01*
X127714072Y-93791000D01*
X128825928Y-93791000D01*
X128838188Y-93915482D01*
X128874498Y-94035180D01*
X128933463Y-94145494D01*
X129012815Y-94242185D01*
X129109506Y-94321537D01*
X129219820Y-94380502D01*
X129339518Y-94416812D01*
X129464000Y-94429072D01*
X129753250Y-94426000D01*
X129912000Y-94267250D01*
X129912000Y-93218000D01*
X128987750Y-93218000D01*
X128829000Y-93376750D01*
X128825928Y-93791000D01*
X127714072Y-93791000D01*
X127711000Y-93376750D01*
X127552250Y-93218000D01*
X126628000Y-93218000D01*
X126374000Y-93218000D01*
X126354000Y-93218000D01*
X126354000Y-92964000D01*
X126374000Y-92964000D01*
X126374000Y-91914750D01*
X126628000Y-91914750D01*
X126628000Y-92964000D01*
X127552250Y-92964000D01*
X127711000Y-92805250D01*
X127714072Y-92391000D01*
X128825928Y-92391000D01*
X128829000Y-92805250D01*
X128987750Y-92964000D01*
X129912000Y-92964000D01*
X129912000Y-91914750D01*
X129753250Y-91756000D01*
X129464000Y-91752928D01*
X129339518Y-91765188D01*
X129219820Y-91801498D01*
X129109506Y-91860463D01*
X129012815Y-91939815D01*
X128933463Y-92036506D01*
X128874498Y-92146820D01*
X128838188Y-92266518D01*
X128825928Y-92391000D01*
X127714072Y-92391000D01*
X127701812Y-92266518D01*
X127665502Y-92146820D01*
X127606537Y-92036506D01*
X127527185Y-91939815D01*
X127430494Y-91860463D01*
X127320180Y-91801498D01*
X127200482Y-91765188D01*
X127076000Y-91752928D01*
X126786750Y-91756000D01*
X126628000Y-91914750D01*
X126374000Y-91914750D01*
X126324366Y-91865116D01*
X126348395Y-91845395D01*
X126401755Y-91780376D01*
X126441405Y-91706196D01*
X126465822Y-91625707D01*
X126474066Y-91542000D01*
X126474066Y-91092000D01*
X126465822Y-91008293D01*
X126460879Y-90992000D01*
X126465822Y-90975707D01*
X126474066Y-90892000D01*
X126474066Y-90442000D01*
X126465822Y-90358293D01*
X126460879Y-90342000D01*
X126465822Y-90325707D01*
X126474066Y-90242000D01*
X126474066Y-89792000D01*
X126465822Y-89708293D01*
X126460879Y-89692000D01*
X126465822Y-89675707D01*
X126474066Y-89592000D01*
X126474066Y-89412092D01*
X126489263Y-89400003D01*
X126570078Y-89304531D01*
X126630715Y-89195127D01*
X126635140Y-89181302D01*
X126710062Y-89231364D01*
X126860566Y-89293705D01*
X127020341Y-89325487D01*
X127183245Y-89325487D01*
X127343020Y-89293705D01*
X127493524Y-89231364D01*
X127628974Y-89140859D01*
X127744165Y-89025668D01*
X127834670Y-88890218D01*
X127897011Y-88739714D01*
X127928793Y-88579939D01*
X127928793Y-88417035D01*
X127897011Y-88257260D01*
X127834670Y-88106756D01*
X127744165Y-87971306D01*
X127628974Y-87856115D01*
X127618642Y-87849211D01*
X127668411Y-87729058D01*
X127696349Y-87588603D01*
X127696349Y-87445397D01*
X127668411Y-87304942D01*
X127613608Y-87172636D01*
X127559729Y-87092000D01*
X127613608Y-87011364D01*
X127668411Y-86879058D01*
X127696349Y-86738603D01*
X127696349Y-86595397D01*
X127668411Y-86454942D01*
X127613608Y-86322636D01*
X127534047Y-86203564D01*
X127432785Y-86102302D01*
X127313713Y-86022741D01*
X127181407Y-85967938D01*
X127040952Y-85940000D01*
X126897746Y-85940000D01*
X126757291Y-85967938D01*
X126624985Y-86022741D01*
X126505913Y-86102302D01*
X126474066Y-86134149D01*
X126474066Y-85892000D01*
X126465822Y-85808293D01*
X126460879Y-85792000D01*
X126465822Y-85775707D01*
X126474066Y-85692000D01*
X126474066Y-85242000D01*
X126465822Y-85158293D01*
X126441405Y-85077804D01*
X126401755Y-85003624D01*
X126348395Y-84938605D01*
X126283376Y-84885245D01*
X126209196Y-84845595D01*
X126128707Y-84821178D01*
X126045000Y-84812934D01*
X124624135Y-84812934D01*
X124613166Y-84786454D01*
X124809250Y-84785000D01*
X124968000Y-84626250D01*
X124968000Y-83702000D01*
X123918750Y-83702000D01*
X123760000Y-83860750D01*
X123756928Y-84150000D01*
X123769188Y-84274482D01*
X123800840Y-84378825D01*
X123739942Y-84390938D01*
X123607636Y-84445741D01*
X123488564Y-84525302D01*
X123430094Y-84583772D01*
X123424335Y-84579046D01*
X123160949Y-84315660D01*
X123160944Y-84315654D01*
X123115664Y-84270374D01*
X123147926Y-84192487D01*
X123197000Y-83945774D01*
X123197000Y-83694226D01*
X123147926Y-83447513D01*
X123051663Y-83215114D01*
X122911911Y-83005960D01*
X122905951Y-83000000D01*
X123756928Y-83000000D01*
X123760000Y-83289250D01*
X123918750Y-83448000D01*
X124968000Y-83448000D01*
X124968000Y-83428000D01*
X125222000Y-83428000D01*
X125222000Y-83448000D01*
X125242000Y-83448000D01*
X125242000Y-83702000D01*
X125222000Y-83702000D01*
X125222000Y-84626250D01*
X125380750Y-84785000D01*
X125795000Y-84788072D01*
X125919482Y-84775812D01*
X126039180Y-84739502D01*
X126149494Y-84680537D01*
X126246185Y-84601185D01*
X126325537Y-84504494D01*
X126384278Y-84394600D01*
X126512803Y-84394600D01*
X126614703Y-84374331D01*
X126638245Y-84418376D01*
X126691605Y-84483395D01*
X126756624Y-84536755D01*
X126830804Y-84576405D01*
X126911293Y-84600822D01*
X126995000Y-84609066D01*
X127645000Y-84609066D01*
X127728707Y-84600822D01*
X127809196Y-84576405D01*
X127883376Y-84536755D01*
X127948395Y-84483395D01*
X128001755Y-84418376D01*
X128041405Y-84344196D01*
X128065822Y-84263707D01*
X128074066Y-84180000D01*
X128074066Y-83120000D01*
X128465934Y-83120000D01*
X128465934Y-84180000D01*
X128474178Y-84263707D01*
X128498595Y-84344196D01*
X128538245Y-84418376D01*
X128591605Y-84483395D01*
X128656624Y-84536755D01*
X128730804Y-84576405D01*
X128811293Y-84600822D01*
X128895000Y-84609066D01*
X129545000Y-84609066D01*
X129628707Y-84600822D01*
X129709196Y-84576405D01*
X129783376Y-84536755D01*
X129848395Y-84483395D01*
X129901755Y-84418376D01*
X129941405Y-84344196D01*
X129965822Y-84263707D01*
X129974066Y-84180000D01*
X129974066Y-83120000D01*
X129965822Y-83036293D01*
X129941405Y-82955804D01*
X129901755Y-82881624D01*
X129848395Y-82816605D01*
X129783376Y-82763245D01*
X129709196Y-82723595D01*
X129628707Y-82699178D01*
X129545000Y-82690934D01*
X128895000Y-82690934D01*
X128811293Y-82699178D01*
X128730804Y-82723595D01*
X128656624Y-82763245D01*
X128591605Y-82816605D01*
X128538245Y-82881624D01*
X128498595Y-82955804D01*
X128474178Y-83036293D01*
X128465934Y-83120000D01*
X128074066Y-83120000D01*
X128065822Y-83036293D01*
X128041405Y-82955804D01*
X128001755Y-82881624D01*
X127948395Y-82816605D01*
X127883376Y-82763245D01*
X127809196Y-82723595D01*
X127728707Y-82699178D01*
X127645000Y-82690934D01*
X127218356Y-82690934D01*
X127099321Y-82571899D01*
X127077259Y-82518636D01*
X127004047Y-82409066D01*
X127475662Y-82409066D01*
X127493815Y-82431185D01*
X127590506Y-82510537D01*
X127700820Y-82569502D01*
X127820518Y-82605812D01*
X127945000Y-82618072D01*
X127984250Y-82615000D01*
X128143000Y-82456250D01*
X128143000Y-81577000D01*
X128123000Y-81577000D01*
X128123000Y-81323000D01*
X128143000Y-81323000D01*
X128143000Y-81303000D01*
X128397000Y-81303000D01*
X128397000Y-81323000D01*
X128417000Y-81323000D01*
X128417000Y-81577000D01*
X128397000Y-81577000D01*
X128397000Y-82456250D01*
X128555750Y-82615000D01*
X128595000Y-82618072D01*
X128719482Y-82605812D01*
X128839180Y-82569502D01*
X128949494Y-82510537D01*
X129046185Y-82431185D01*
X129064338Y-82409066D01*
X129545000Y-82409066D01*
X129628707Y-82400822D01*
X129709196Y-82376405D01*
X129783376Y-82336755D01*
X129848395Y-82283395D01*
X129901755Y-82218376D01*
X129941405Y-82144196D01*
X129946622Y-82127000D01*
X130376782Y-82127000D01*
X130430377Y-82227269D01*
X130514828Y-82330172D01*
X130582510Y-82385718D01*
X130500820Y-82410498D01*
X130390506Y-82469463D01*
X130293815Y-82548815D01*
X130214463Y-82645506D01*
X130155498Y-82755820D01*
X130119188Y-82875518D01*
X130106928Y-83000000D01*
X130110000Y-83289250D01*
X130268750Y-83448000D01*
X131318000Y-83448000D01*
X131318000Y-83428000D01*
X131572000Y-83428000D01*
X131572000Y-83448000D01*
X132621250Y-83448000D01*
X132780000Y-83289250D01*
X132783072Y-83000000D01*
X132770812Y-82875518D01*
X132734502Y-82755820D01*
X132675537Y-82645506D01*
X132596185Y-82548815D01*
X132499494Y-82469463D01*
X132389180Y-82410498D01*
X132307490Y-82385718D01*
X132375172Y-82330172D01*
X132459623Y-82227269D01*
X132522375Y-82109868D01*
X132561018Y-81982480D01*
X132574066Y-81850001D01*
X132574066Y-81199999D01*
X132561018Y-81067520D01*
X132522375Y-80940132D01*
X132459623Y-80822731D01*
X132375172Y-80719828D01*
X132272269Y-80635377D01*
X132154868Y-80572625D01*
X132027480Y-80533982D01*
X131895001Y-80520934D01*
X130994999Y-80520934D01*
X130862520Y-80533982D01*
X130735132Y-80572625D01*
X130617731Y-80635377D01*
X130514828Y-80719828D01*
X130471191Y-80773000D01*
X129946622Y-80773000D01*
X129941405Y-80755804D01*
X129901755Y-80681624D01*
X129901550Y-80681374D01*
X129932211Y-80656211D01*
X130001191Y-80572158D01*
X130052448Y-80476263D01*
X130084012Y-80372211D01*
X130092000Y-80291109D01*
X130092000Y-78200134D01*
X130104698Y-78187436D01*
X130184259Y-78068364D01*
X130239062Y-77936058D01*
X130267000Y-77795603D01*
X130267000Y-77658607D01*
X130315678Y-77681350D01*
X130575849Y-77745219D01*
X130843482Y-77757104D01*
X131108291Y-77716548D01*
X131360100Y-77625109D01*
X131467035Y-77567950D01*
X131529528Y-77331633D01*
X130770000Y-76572105D01*
X130755858Y-76586248D01*
X130576253Y-76406643D01*
X130590395Y-76392500D01*
X130949605Y-76392500D01*
X131709133Y-77152028D01*
X131945450Y-77089535D01*
X132058850Y-76846822D01*
X132122719Y-76586651D01*
X132134604Y-76319018D01*
X132094048Y-76054209D01*
X132002609Y-75802400D01*
X131945450Y-75695465D01*
X131709133Y-75632972D01*
X130949605Y-76392500D01*
X130590395Y-76392500D01*
X129830867Y-75632972D01*
X129594550Y-75695465D01*
X129481150Y-75938178D01*
X129417281Y-76198349D01*
X129405396Y-76465982D01*
X129445952Y-76730791D01*
X129537391Y-76982600D01*
X129545088Y-76997000D01*
X129468397Y-76997000D01*
X129327942Y-77024938D01*
X129195636Y-77079741D01*
X129076564Y-77159302D01*
X128975302Y-77260564D01*
X128895741Y-77379636D01*
X128840938Y-77511942D01*
X128813000Y-77652397D01*
X128813000Y-77795603D01*
X128840938Y-77936058D01*
X128895741Y-78068364D01*
X128975302Y-78187436D01*
X128988001Y-78200135D01*
X128988000Y-80070711D01*
X128965712Y-80092999D01*
X127673646Y-80092999D01*
X127419253Y-79838607D01*
X127401964Y-79817540D01*
X127317911Y-79748560D01*
X127222016Y-79697303D01*
X127117964Y-79665739D01*
X127036862Y-79657751D01*
X127036859Y-79657751D01*
X127009753Y-79655081D01*
X126982647Y-79657751D01*
X126147802Y-79657751D01*
X126057430Y-79567379D01*
X125921980Y-79476874D01*
X125771476Y-79414533D01*
X125611701Y-79382751D01*
X125448797Y-79382751D01*
X125289022Y-79414533D01*
X125138518Y-79476874D01*
X125003068Y-79567379D01*
X124887877Y-79682570D01*
X124797372Y-79818020D01*
X124735031Y-79968524D01*
X124703249Y-80128299D01*
X124703249Y-80291203D01*
X124735031Y-80450978D01*
X124764008Y-80520934D01*
X124644999Y-80520934D01*
X124512520Y-80533982D01*
X124385132Y-80572625D01*
X124267731Y-80635377D01*
X124164828Y-80719828D01*
X124080377Y-80822731D01*
X124017625Y-80940132D01*
X123978982Y-81067520D01*
X123965934Y-81199999D01*
X123965934Y-81850001D01*
X123978982Y-81982480D01*
X124017625Y-82109868D01*
X124080377Y-82227269D01*
X124164828Y-82330172D01*
X124232510Y-82385718D01*
X124150820Y-82410498D01*
X124040506Y-82469463D01*
X123943815Y-82548815D01*
X123864463Y-82645506D01*
X123805498Y-82755820D01*
X123769188Y-82875518D01*
X123756928Y-83000000D01*
X122905951Y-83000000D01*
X122734040Y-82828089D01*
X122524886Y-82688337D01*
X122292487Y-82592074D01*
X122080966Y-82550000D01*
X122292487Y-82507926D01*
X122524886Y-82411663D01*
X122734040Y-82271911D01*
X122911911Y-82094040D01*
X123051663Y-81884886D01*
X123147926Y-81652487D01*
X123197000Y-81405774D01*
X123197000Y-81154226D01*
X123147926Y-80907513D01*
X123051663Y-80675114D01*
X122911911Y-80465960D01*
X122734040Y-80288089D01*
X122524886Y-80148337D01*
X122292487Y-80052074D01*
X122080966Y-80010000D01*
X122292487Y-79967926D01*
X122524886Y-79871663D01*
X122734040Y-79731911D01*
X122911911Y-79554040D01*
X123051663Y-79344886D01*
X123147926Y-79112487D01*
X123197000Y-78865774D01*
X123197000Y-78614226D01*
X123147926Y-78367513D01*
X123051663Y-78135114D01*
X122911911Y-77925960D01*
X122734040Y-77748089D01*
X122524886Y-77608337D01*
X122292487Y-77512074D01*
X122126544Y-77479066D01*
X122770000Y-77479066D01*
X122853707Y-77470822D01*
X122934196Y-77446405D01*
X123008376Y-77406755D01*
X123073395Y-77353395D01*
X123091254Y-77331633D01*
X125010472Y-77331633D01*
X125072965Y-77567950D01*
X125315678Y-77681350D01*
X125575849Y-77745219D01*
X125843482Y-77757104D01*
X126108291Y-77716548D01*
X126360100Y-77625109D01*
X126467035Y-77567950D01*
X126529528Y-77331633D01*
X125770000Y-76572105D01*
X125010472Y-77331633D01*
X123091254Y-77331633D01*
X123126755Y-77288376D01*
X123166405Y-77214196D01*
X123190822Y-77133707D01*
X123199066Y-77050000D01*
X123199066Y-76465982D01*
X124405396Y-76465982D01*
X124445952Y-76730791D01*
X124537391Y-76982600D01*
X124594550Y-77089535D01*
X124830867Y-77152028D01*
X125590395Y-76392500D01*
X125949605Y-76392500D01*
X126709133Y-77152028D01*
X126945450Y-77089535D01*
X127058850Y-76846822D01*
X127122719Y-76586651D01*
X127134604Y-76319018D01*
X127094048Y-76054209D01*
X127002609Y-75802400D01*
X126945450Y-75695465D01*
X126709133Y-75632972D01*
X125949605Y-76392500D01*
X125590395Y-76392500D01*
X124830867Y-75632972D01*
X124594550Y-75695465D01*
X124481150Y-75938178D01*
X124417281Y-76198349D01*
X124405396Y-76465982D01*
X123199066Y-76465982D01*
X123199066Y-75350000D01*
X123190822Y-75266293D01*
X123166405Y-75185804D01*
X123126755Y-75111624D01*
X123073395Y-75046605D01*
X123008376Y-74993245D01*
X122934196Y-74953595D01*
X122853707Y-74929178D01*
X122770000Y-74920934D01*
X121102000Y-74920934D01*
X121102000Y-73819500D01*
X123535000Y-73819500D01*
X123535000Y-74169500D01*
X123583507Y-74407996D01*
X123677610Y-74632446D01*
X123813693Y-74834225D01*
X123986526Y-75005578D01*
X124189467Y-75139921D01*
X124414718Y-75232091D01*
X124452391Y-75235962D01*
X124643000Y-75111231D01*
X124643000Y-73819500D01*
X124897000Y-73819500D01*
X124897000Y-75111231D01*
X125070862Y-75225003D01*
X125010472Y-75453367D01*
X125770000Y-76212895D01*
X126529528Y-75453367D01*
X130010472Y-75453367D01*
X130770000Y-76212895D01*
X131529528Y-75453367D01*
X131502193Y-75350000D01*
X133131928Y-75350000D01*
X133135000Y-75914250D01*
X133293750Y-76073000D01*
X134493000Y-76073000D01*
X134493000Y-74873750D01*
X134334250Y-74715000D01*
X133770000Y-74711928D01*
X133645518Y-74724188D01*
X133525820Y-74760498D01*
X133415506Y-74819463D01*
X133318815Y-74898815D01*
X133239463Y-74995506D01*
X133180498Y-75105820D01*
X133144188Y-75225518D01*
X133131928Y-75350000D01*
X131502193Y-75350000D01*
X131469138Y-75225003D01*
X131643000Y-75111231D01*
X131643000Y-73819500D01*
X131897000Y-73819500D01*
X131897000Y-75111231D01*
X132087609Y-75235962D01*
X132125282Y-75232091D01*
X132350533Y-75139921D01*
X132553474Y-75005578D01*
X132726307Y-74834225D01*
X132862390Y-74632446D01*
X132956493Y-74407996D01*
X133005000Y-74169500D01*
X133005000Y-73819500D01*
X131897000Y-73819500D01*
X131643000Y-73819500D01*
X130535000Y-73819500D01*
X130535000Y-74169500D01*
X130583507Y-74407996D01*
X130677610Y-74632446D01*
X130813693Y-74834225D01*
X130986526Y-75005578D01*
X131081836Y-75068671D01*
X130964151Y-75039781D01*
X130696518Y-75027896D01*
X130431709Y-75068452D01*
X130179900Y-75159891D01*
X130072965Y-75217050D01*
X130010472Y-75453367D01*
X126529528Y-75453367D01*
X126467035Y-75217050D01*
X126224322Y-75103650D01*
X125964151Y-75039781D01*
X125696518Y-75027896D01*
X125466558Y-75063115D01*
X125553474Y-75005578D01*
X125726307Y-74834225D01*
X125862390Y-74632446D01*
X125956493Y-74407996D01*
X126005000Y-74169500D01*
X126005000Y-73819500D01*
X124897000Y-73819500D01*
X124643000Y-73819500D01*
X123535000Y-73819500D01*
X121102000Y-73819500D01*
X121102000Y-72842000D01*
X123640109Y-72842000D01*
X123583507Y-72977004D01*
G36*
X122764737Y-87929448D02*
G01*
X122868789Y-87961012D01*
X122977000Y-87971670D01*
X123004108Y-87969000D01*
X124165934Y-87969000D01*
X124165934Y-88021908D01*
X124150737Y-88033997D01*
X124069922Y-88129469D01*
X124009285Y-88238873D01*
X123971156Y-88358004D01*
X123960000Y-88460250D01*
X124089748Y-88589998D01*
X123960000Y-88589998D01*
X123960000Y-88715117D01*
X123882059Y-88682833D01*
X123741604Y-88654895D01*
X123598398Y-88654895D01*
X123457943Y-88682833D01*
X123325637Y-88737636D01*
X123206565Y-88817197D01*
X123197000Y-88826762D01*
X123197000Y-88774226D01*
X123147926Y-88527513D01*
X123051663Y-88295114D01*
X122911911Y-88085960D01*
X122744676Y-87918725D01*
X122764737Y-87929448D01*
G37*
X122764737Y-87929448D02*
X122868789Y-87961012D01*
X122977000Y-87971670D01*
X123004108Y-87969000D01*
X124165934Y-87969000D01*
X124165934Y-88021908D01*
X124150737Y-88033997D01*
X124069922Y-88129469D01*
X124009285Y-88238873D01*
X123971156Y-88358004D01*
X123960000Y-88460250D01*
X124089748Y-88589998D01*
X123960000Y-88589998D01*
X123960000Y-88715117D01*
X123882059Y-88682833D01*
X123741604Y-88654895D01*
X123598398Y-88654895D01*
X123457943Y-88682833D01*
X123325637Y-88737636D01*
X123206565Y-88817197D01*
X123197000Y-88826762D01*
X123197000Y-88774226D01*
X123147926Y-88527513D01*
X123051663Y-88295114D01*
X122911911Y-88085960D01*
X122744676Y-87918725D01*
X122764737Y-87929448D01*
M02*
