G04 #@! TF.GenerationSoftware,KiCad,Pcbnew,(5.1.5)-3*
G04 #@! TF.CreationDate,2021-03-17T15:34:18-05:00*
G04 #@! TF.ProjectId,STM32_Breakout,53544d33-325f-4427-9265-616b6f75742e,rev?*
G04 #@! TF.SameCoordinates,Original*
G04 #@! TF.FileFunction,Legend,Top*
G04 #@! TF.FilePolarity,Positive*
%FSLAX46Y46*%
G04 Gerber Fmt 4.6, Leading zero omitted, Abs format (unit mm)*
G04 Created by KiCad (PCBNEW (5.1.5)-3) date 2021-03-17 15:34:18*
%MOMM*%
%LPD*%
G04 APERTURE LIST*
%ADD10C,0.150000*%
%ADD11C,0.010000*%
%ADD12C,0.120000*%
G04 APERTURE END LIST*
D10*
X127184285Y-94176857D02*
X127298571Y-94214952D01*
X127336666Y-94253047D01*
X127374761Y-94329238D01*
X127374761Y-94443523D01*
X127336666Y-94519714D01*
X127298571Y-94557809D01*
X127222380Y-94595904D01*
X126917619Y-94595904D01*
X126917619Y-93795904D01*
X127184285Y-93795904D01*
X127260476Y-93834000D01*
X127298571Y-93872095D01*
X127336666Y-93948285D01*
X127336666Y-94024476D01*
X127298571Y-94100666D01*
X127260476Y-94138761D01*
X127184285Y-94176857D01*
X126917619Y-94176857D01*
X127870000Y-93795904D02*
X128022380Y-93795904D01*
X128098571Y-93834000D01*
X128174761Y-93910190D01*
X128212857Y-94062571D01*
X128212857Y-94329238D01*
X128174761Y-94481619D01*
X128098571Y-94557809D01*
X128022380Y-94595904D01*
X127870000Y-94595904D01*
X127793809Y-94557809D01*
X127717619Y-94481619D01*
X127679523Y-94329238D01*
X127679523Y-94062571D01*
X127717619Y-93910190D01*
X127793809Y-93834000D01*
X127870000Y-93795904D01*
X128708095Y-93795904D02*
X128860476Y-93795904D01*
X128936666Y-93834000D01*
X129012857Y-93910190D01*
X129050952Y-94062571D01*
X129050952Y-94329238D01*
X129012857Y-94481619D01*
X128936666Y-94557809D01*
X128860476Y-94595904D01*
X128708095Y-94595904D01*
X128631904Y-94557809D01*
X128555714Y-94481619D01*
X128517619Y-94329238D01*
X128517619Y-94062571D01*
X128555714Y-93910190D01*
X128631904Y-93834000D01*
X128708095Y-93795904D01*
X129279523Y-93795904D02*
X129736666Y-93795904D01*
X129508095Y-94595904D02*
X129508095Y-93795904D01*
X121195265Y-74743409D02*
X121784020Y-74585653D01*
X121568521Y-74958908D02*
X121410765Y-74370154D01*
X122391787Y-73910094D02*
X122023815Y-74008692D01*
X122085615Y-74386523D01*
X122112553Y-74339866D01*
X122176287Y-74283350D01*
X122360273Y-74234051D01*
X122443727Y-74251128D01*
X122490384Y-74278066D01*
X122546901Y-74341800D01*
X122596200Y-74525786D01*
X122579122Y-74609240D01*
X122552185Y-74655897D01*
X122488450Y-74712414D01*
X122304465Y-74761713D01*
X122221010Y-74744635D01*
X122174353Y-74717698D01*
X122649367Y-73841076D02*
X123114002Y-74544798D01*
X123164527Y-73703039D01*
X123301943Y-97096948D02*
X123108405Y-96320711D01*
X123404114Y-96246983D01*
X123487258Y-96265514D01*
X123533438Y-96293262D01*
X123588833Y-96357973D01*
X123616482Y-96468864D01*
X123597950Y-96552007D01*
X123570203Y-96598187D01*
X123505491Y-96653583D01*
X123209782Y-96727311D01*
X123985919Y-96690845D02*
X124355556Y-96598684D01*
X123967288Y-96931059D02*
X124032496Y-96090310D01*
X124484780Y-96802034D01*
X124476060Y-95979717D02*
X124993551Y-95850692D01*
X124854416Y-96709873D01*
X123088525Y-79324629D02*
X122949606Y-78536783D01*
X123249738Y-78483862D01*
X123331386Y-78508148D01*
X123375518Y-78539049D01*
X123426265Y-78607467D01*
X123446110Y-78720017D01*
X123421824Y-78801665D01*
X123390923Y-78845796D01*
X123322505Y-78896543D01*
X123022373Y-78949465D01*
X123799164Y-78967227D02*
X124174328Y-78901075D01*
X123763822Y-79205556D02*
X123887518Y-78371404D01*
X124289052Y-79112944D01*
X124964349Y-78993871D02*
X124514151Y-79073253D01*
X124739250Y-79033562D02*
X124600332Y-78245716D01*
X124545144Y-78371496D01*
X124483342Y-78459759D01*
X124414924Y-78510506D01*
X125547034Y-78349567D02*
X125639646Y-78874798D01*
X125306530Y-78082511D02*
X125218175Y-78678334D01*
X125705889Y-78592337D01*
X123181874Y-82030328D02*
X122934661Y-81269483D01*
X123224506Y-81175306D01*
X123308740Y-81187993D01*
X123356743Y-81212451D01*
X123416518Y-81273141D01*
X123451834Y-81381833D01*
X123439147Y-81466066D01*
X123414689Y-81514069D01*
X123353999Y-81573844D01*
X123064153Y-81668021D01*
X123835856Y-81577502D02*
X124198164Y-81459781D01*
X123834027Y-81818431D02*
X123840429Y-80975181D01*
X124341257Y-81653622D01*
X124993410Y-81441724D02*
X124558642Y-81582989D01*
X124776026Y-81512357D02*
X124528813Y-80751511D01*
X124491667Y-80883748D01*
X124442750Y-80979753D01*
X124382061Y-81039528D01*
X124999812Y-80598474D02*
X125470811Y-80445437D01*
X125311373Y-80817688D01*
X125420065Y-80782372D01*
X125504299Y-80795058D01*
X125552301Y-80819517D01*
X125612076Y-80880206D01*
X125670937Y-81061360D01*
X125658250Y-81145593D01*
X125633791Y-81193596D01*
X125573102Y-81253371D01*
X125355718Y-81324003D01*
X125271484Y-81311317D01*
X125223481Y-81286858D01*
X123528008Y-100055198D02*
X122755268Y-99848143D01*
X122834146Y-99553765D01*
X122890662Y-99490031D01*
X122937319Y-99463094D01*
X123020774Y-99446016D01*
X123131165Y-99475595D01*
X123194900Y-99532112D01*
X123221837Y-99578769D01*
X123238915Y-99662223D01*
X123160036Y-99956600D01*
X123504421Y-99260096D02*
X123603018Y-98892124D01*
X123705484Y-99392849D02*
X123001762Y-98928214D01*
X123843521Y-98877689D01*
X123228537Y-98081879D02*
X123189098Y-98229067D01*
X123206175Y-98312521D01*
X123233113Y-98359178D01*
X123323785Y-98462352D01*
X123461114Y-98538588D01*
X123755491Y-98617466D01*
X123838945Y-98600389D01*
X123885602Y-98573451D01*
X123942119Y-98509717D01*
X123981558Y-98362528D01*
X123964480Y-98279074D01*
X123937543Y-98232417D01*
X123873808Y-98175900D01*
X123689822Y-98126601D01*
X123606368Y-98143679D01*
X123559711Y-98170616D01*
X123503195Y-98234351D01*
X123463755Y-98381540D01*
X123480833Y-98464994D01*
X123507770Y-98511651D01*
X123571505Y-98568168D01*
X123296741Y-87181302D02*
X123130411Y-86398784D01*
X123316725Y-86359182D01*
X123436434Y-86372683D01*
X123526800Y-86431368D01*
X123579904Y-86497973D01*
X123648848Y-86639104D01*
X123672610Y-86750892D01*
X123667029Y-86907863D01*
X123645607Y-86990309D01*
X123586922Y-87080676D01*
X123483054Y-87141700D01*
X123296741Y-87181302D01*
X124015895Y-86716871D02*
X124612099Y-86590143D01*
X125432782Y-85870454D02*
X124975904Y-87019116D01*
X125867871Y-86634791D02*
X125701542Y-85852273D01*
X125999644Y-85788910D01*
X126082090Y-85810332D01*
X126127273Y-85839674D01*
X126180377Y-85906279D01*
X126204138Y-86018067D01*
X126182716Y-86100513D01*
X126153374Y-86145696D01*
X126086769Y-86198800D01*
X125788667Y-86262164D01*
X126565604Y-86252806D02*
X126938232Y-86173601D01*
X126538601Y-86492223D02*
X126633111Y-85654262D01*
X127060280Y-86381337D01*
X127358382Y-86317974D02*
X127507433Y-86286292D01*
X127574038Y-86233188D01*
X127603380Y-86188005D01*
X127654145Y-86060376D01*
X127659726Y-85903404D01*
X127596362Y-85605302D01*
X127543258Y-85538697D01*
X127498075Y-85509355D01*
X127415629Y-85487933D01*
X127266578Y-85519615D01*
X127199973Y-85572718D01*
X127170631Y-85617901D01*
X127149209Y-85700347D01*
X127188811Y-85886661D01*
X127241915Y-85953266D01*
X127287098Y-85982609D01*
X127369544Y-86004030D01*
X127518595Y-85972349D01*
X127585200Y-85919245D01*
X127614542Y-85874062D01*
X127635964Y-85791616D01*
X123516701Y-103947930D02*
X123432468Y-103935244D01*
X123323775Y-103970560D01*
X123226855Y-104042107D01*
X123177938Y-104138112D01*
X123165251Y-104222346D01*
X123176109Y-104379041D01*
X123211425Y-104487733D01*
X123294744Y-104620884D01*
X123354519Y-104681573D01*
X123450525Y-104730490D01*
X123570989Y-104731405D01*
X123643450Y-104707861D01*
X123740371Y-104636314D01*
X123764829Y-104588311D01*
X123682425Y-104334696D01*
X123537502Y-104381784D01*
X124114450Y-104554824D02*
X123867236Y-103793979D01*
X124549219Y-104413559D01*
X124302005Y-103652714D01*
X124911526Y-104295838D02*
X124664312Y-103534993D01*
X124845466Y-103476133D01*
X124965930Y-103477047D01*
X125061936Y-103525964D01*
X125121711Y-103586654D01*
X125205030Y-103719805D01*
X125240346Y-103828497D01*
X125251203Y-103985192D01*
X125238517Y-104069425D01*
X125189600Y-104165431D01*
X125092679Y-104236978D01*
X124911526Y-104295838D01*
X123352461Y-85017966D02*
X123092007Y-84261551D01*
X123272105Y-84199538D01*
X123392567Y-84198350D01*
X123489412Y-84245585D01*
X123550237Y-84305222D01*
X123635867Y-84436898D01*
X123673075Y-84544957D01*
X123686665Y-84701439D01*
X123675451Y-84785881D01*
X123628216Y-84882726D01*
X123532560Y-84955953D01*
X123352461Y-85017966D01*
X124009655Y-84469354D02*
X124585971Y-84270912D01*
X124397034Y-84658291D02*
X124198592Y-84081975D01*
X125312829Y-83456571D02*
X124999343Y-84652351D01*
X125837824Y-84162187D02*
X125577370Y-83405772D01*
X125865528Y-83306552D01*
X125949970Y-83317766D01*
X125998392Y-83341383D01*
X126059217Y-83401020D01*
X126096425Y-83509079D01*
X126085210Y-83593522D01*
X126061593Y-83641944D01*
X126001956Y-83702769D01*
X125713798Y-83801990D01*
X126483804Y-83698017D02*
X126844001Y-83573991D01*
X126486180Y-83938940D02*
X126477864Y-83095707D01*
X126990456Y-83765304D01*
X127638812Y-83542057D02*
X127206575Y-83690889D01*
X127422693Y-83616473D02*
X127162239Y-82860058D01*
X127127407Y-82992923D01*
X127080173Y-83089767D01*
X127020536Y-83150592D01*
X127846614Y-82624409D02*
X127918654Y-82599604D01*
X128003096Y-82610818D01*
X128051518Y-82634435D01*
X128112343Y-82694072D01*
X128197973Y-82825749D01*
X128259986Y-83005847D01*
X128273577Y-83162329D01*
X128262362Y-83246771D01*
X128238745Y-83295193D01*
X128179108Y-83356018D01*
X128107069Y-83380824D01*
X128022627Y-83369609D01*
X127974204Y-83345992D01*
X127913379Y-83286355D01*
X127827749Y-83154679D01*
X127765736Y-82974580D01*
X127752146Y-82818098D01*
X127763360Y-82733656D01*
X127786977Y-82685234D01*
X127846614Y-82624409D01*
X123312137Y-102191137D02*
X123105081Y-101418396D01*
X123399459Y-101339518D01*
X123482913Y-101356596D01*
X123529570Y-101383533D01*
X123586087Y-101447268D01*
X123615666Y-101557659D01*
X123598588Y-101641114D01*
X123571651Y-101687770D01*
X123507916Y-101744287D01*
X123213539Y-101823165D01*
X123988921Y-101773159D02*
X124356893Y-101674561D01*
X123974486Y-102013661D02*
X124025011Y-101171902D01*
X124489646Y-101875624D01*
X124908143Y-100935268D02*
X124540171Y-101033865D01*
X124601972Y-101411697D01*
X124628909Y-101365040D01*
X124692644Y-101308523D01*
X124876630Y-101259224D01*
X124960084Y-101276302D01*
X125006741Y-101303239D01*
X125063257Y-101366974D01*
X125112556Y-101550960D01*
X125095479Y-101634414D01*
X125068541Y-101681071D01*
X125004807Y-101737588D01*
X124820821Y-101786886D01*
X124737367Y-101769809D01*
X124690710Y-101742871D01*
X123301311Y-94644655D02*
X123040856Y-93888240D01*
X123329014Y-93789019D01*
X123413456Y-93800234D01*
X123461879Y-93823851D01*
X123522703Y-93883488D01*
X123559911Y-93991547D01*
X123548697Y-94075989D01*
X123525080Y-94124411D01*
X123465443Y-94185236D01*
X123177285Y-94284457D01*
X124173435Y-93901165D02*
X124293897Y-93899977D01*
X124342319Y-93923594D01*
X124403144Y-93983231D01*
X124440352Y-94091290D01*
X124429138Y-94175732D01*
X124405520Y-94224154D01*
X124345883Y-94284979D01*
X124057725Y-94384200D01*
X123797271Y-93627785D01*
X124049409Y-93540967D01*
X124133851Y-93552182D01*
X124182274Y-93575799D01*
X124243099Y-93635436D01*
X124267904Y-93707475D01*
X124256689Y-93791917D01*
X124233072Y-93840340D01*
X124173435Y-93901165D01*
X123921297Y-93987983D01*
X125210358Y-93987317D02*
X124778120Y-94136148D01*
X124994239Y-94061733D02*
X124733785Y-93305318D01*
X124698953Y-93438182D01*
X124651718Y-93535027D01*
X124592082Y-93595852D01*
X123183757Y-88741387D02*
X123659810Y-88604881D01*
X123487477Y-88971340D01*
X123597336Y-88939839D01*
X123681075Y-88955457D01*
X123728195Y-88981576D01*
X123785816Y-89044315D01*
X123838318Y-89227412D01*
X123822700Y-89311152D01*
X123796581Y-89358272D01*
X123733842Y-89415892D01*
X123514125Y-89478895D01*
X123430386Y-89463276D01*
X123383266Y-89437157D01*
X123989650Y-88787714D02*
X124319754Y-89247885D01*
X124355845Y-88682709D01*
X124502059Y-88363370D02*
X124978112Y-88226864D01*
X124805779Y-88593323D01*
X124915638Y-88561822D01*
X124999377Y-88577440D01*
X125046497Y-88603559D01*
X125104118Y-88666298D01*
X125156620Y-88849395D01*
X125141001Y-88933135D01*
X125114882Y-88980255D01*
X125052144Y-89037875D01*
X124832427Y-89100878D01*
X124748687Y-89085260D01*
X124701567Y-89059141D01*
X123513456Y-91260234D02*
X123429014Y-91249019D01*
X123320955Y-91286227D01*
X123225298Y-91359454D01*
X123178064Y-91456299D01*
X123166849Y-91540741D01*
X123180440Y-91697223D01*
X123217648Y-91805282D01*
X123303278Y-91936959D01*
X123364103Y-91996595D01*
X123460947Y-92043830D01*
X123581409Y-92042642D01*
X123653449Y-92017837D01*
X123749105Y-91944609D01*
X123772723Y-91896187D01*
X123685904Y-91644048D01*
X123541825Y-91693659D01*
X124121706Y-91856603D02*
X123861251Y-91100188D01*
X124553943Y-91707772D01*
X124293488Y-90951357D01*
X124914140Y-91583746D02*
X124653686Y-90827331D01*
X124833785Y-90765318D01*
X124954246Y-90764130D01*
X125051091Y-90811364D01*
X125111916Y-90871001D01*
X125197546Y-91002677D01*
X125234754Y-91110737D01*
X125248345Y-91267218D01*
X125237130Y-91351660D01*
X125189896Y-91448505D01*
X125094239Y-91521733D01*
X124914140Y-91583746D01*
X131029766Y-79021158D02*
X131150230Y-79022072D01*
X131198233Y-79046531D01*
X131258008Y-79107220D01*
X131293324Y-79215912D01*
X131280637Y-79300146D01*
X131256179Y-79348149D01*
X131195489Y-79407923D01*
X130905644Y-79502100D01*
X130658430Y-78741255D01*
X130912045Y-78658850D01*
X130996279Y-78671537D01*
X131044281Y-78695996D01*
X131104056Y-78756685D01*
X131127600Y-78829146D01*
X131114914Y-78913380D01*
X131090455Y-78961383D01*
X131029766Y-79021158D01*
X130776151Y-79103562D01*
X131564198Y-78446953D02*
X131709121Y-78399865D01*
X131793354Y-78412551D01*
X131889360Y-78461469D01*
X131972679Y-78594619D01*
X132055084Y-78848234D01*
X132065941Y-79004929D01*
X132017024Y-79100935D01*
X131956335Y-79160710D01*
X131811412Y-79207798D01*
X131727178Y-79195112D01*
X131631172Y-79146194D01*
X131547853Y-79013043D01*
X131465449Y-78759428D01*
X131454591Y-78602733D01*
X131503509Y-78506728D01*
X131564198Y-78446953D01*
X132361274Y-78187967D02*
X132506197Y-78140879D01*
X132590430Y-78153566D01*
X132686436Y-78202483D01*
X132769755Y-78335634D01*
X132852160Y-78589249D01*
X132863017Y-78745944D01*
X132814100Y-78841949D01*
X132753410Y-78901724D01*
X132608488Y-78948813D01*
X132524254Y-78936126D01*
X132428248Y-78887209D01*
X132344929Y-78754058D01*
X132262525Y-78500443D01*
X132251667Y-78343748D01*
X132300585Y-78247742D01*
X132361274Y-78187967D01*
X132904735Y-78011386D02*
X133339504Y-77870121D01*
X133369333Y-78701599D02*
X133122119Y-77940754D01*
X133927717Y-74193386D02*
X133844263Y-74176308D01*
X133733871Y-74205887D01*
X133633340Y-74272264D01*
X133579465Y-74365578D01*
X133562387Y-74449032D01*
X133565029Y-74606080D01*
X133594609Y-74716472D01*
X133670845Y-74853801D01*
X133727361Y-74917535D01*
X133820675Y-74971410D01*
X133940927Y-74978628D01*
X134014521Y-74958908D01*
X134115053Y-74892532D01*
X134141990Y-74845875D01*
X134072972Y-74588295D01*
X133925783Y-74627734D01*
X134492884Y-74830731D02*
X134285829Y-74057991D01*
X134934450Y-74712414D01*
X134727395Y-73939673D01*
X135302422Y-74613816D02*
X135095367Y-73841076D01*
X135279353Y-73791777D01*
X135399604Y-73798995D01*
X135492918Y-73852869D01*
X135549435Y-73916604D01*
X135625671Y-74053933D01*
X135655250Y-74164324D01*
X135657892Y-74321373D01*
X135640815Y-74404827D01*
X135586940Y-74498141D01*
X135486408Y-74564517D01*
X135302422Y-74613816D01*
X128473164Y-82148825D02*
X128306835Y-81366307D01*
X128604937Y-81302943D01*
X128687383Y-81324365D01*
X128732566Y-81353707D01*
X128785670Y-81420312D01*
X128809431Y-81532101D01*
X128788009Y-81614547D01*
X128758667Y-81659730D01*
X128692062Y-81712834D01*
X128393960Y-81776197D01*
X129429396Y-81517162D02*
X129168557Y-81572605D01*
X129255682Y-81982495D02*
X129089353Y-81199977D01*
X129461980Y-81120773D01*
X129909134Y-81025727D02*
X129983659Y-81009887D01*
X130066105Y-81031308D01*
X130111288Y-81060651D01*
X130164392Y-81127256D01*
X130233336Y-81268387D01*
X130272939Y-81454700D01*
X130267358Y-81611672D01*
X130245936Y-81694118D01*
X130216594Y-81739301D01*
X130149988Y-81792405D01*
X130075463Y-81808246D01*
X129993017Y-81786824D01*
X129947834Y-81757481D01*
X129894730Y-81690876D01*
X129825785Y-81549746D01*
X129786183Y-81363432D01*
X129791764Y-81206460D01*
X129813186Y-81124014D01*
X129842528Y-81078831D01*
X129909134Y-81025727D01*
X131056359Y-80742931D02*
X130599481Y-81891594D01*
X131446265Y-81477926D02*
X131565974Y-81491428D01*
X131752287Y-81451826D01*
X131818892Y-81398722D01*
X131848235Y-81353539D01*
X131869657Y-81271093D01*
X131853816Y-81196567D01*
X131800712Y-81129962D01*
X131755529Y-81100620D01*
X131673083Y-81079198D01*
X131516111Y-81073617D01*
X131433665Y-81052195D01*
X131388482Y-81022853D01*
X131335379Y-80956248D01*
X131319538Y-80881722D01*
X131340960Y-80799276D01*
X131370302Y-80754093D01*
X131436907Y-80700989D01*
X131623221Y-80661387D01*
X131742929Y-80674888D01*
X132236703Y-81348860D02*
X132070374Y-80566342D01*
X132256688Y-80526739D01*
X132376397Y-80540241D01*
X132466763Y-80598926D01*
X132519867Y-80665531D01*
X132588811Y-80806661D01*
X132612572Y-80918450D01*
X132606991Y-81075421D01*
X132585570Y-81157867D01*
X132526885Y-81248233D01*
X132423017Y-81309258D01*
X132236703Y-81348860D01*
X132934436Y-80966874D02*
X133307064Y-80887670D01*
X132907433Y-81206292D02*
X133001943Y-80368331D01*
X133429112Y-81095405D01*
X128834819Y-85000471D02*
X128561203Y-84248717D01*
X128847586Y-84144482D01*
X128932211Y-84154221D01*
X128981038Y-84176990D01*
X129042894Y-84235556D01*
X129081982Y-84342950D01*
X129072243Y-84427575D01*
X129049475Y-84476402D01*
X128990908Y-84538258D01*
X128704526Y-84642493D01*
X129693835Y-84241874D02*
X129443251Y-84333079D01*
X129586573Y-84726855D02*
X129312957Y-83975101D01*
X129670935Y-83844807D01*
X130624710Y-84349004D02*
X130195136Y-84505356D01*
X130409923Y-84427180D02*
X130136307Y-83675426D01*
X130103799Y-83808878D01*
X130058262Y-83906533D01*
X129999696Y-83968389D01*
X131197212Y-83248748D02*
X130904643Y-84449817D01*
X131685615Y-83922326D02*
X131806038Y-83919036D01*
X131985027Y-83853889D01*
X132043593Y-83792033D01*
X132066362Y-83743206D01*
X132076101Y-83658581D01*
X132050042Y-83586985D01*
X131988186Y-83528419D01*
X131939358Y-83505650D01*
X131854733Y-83495911D01*
X131698513Y-83512231D01*
X131613888Y-83502492D01*
X131565061Y-83479723D01*
X131503204Y-83421157D01*
X131477146Y-83349561D01*
X131486885Y-83264936D01*
X131509653Y-83216109D01*
X131568219Y-83154253D01*
X131747209Y-83089106D01*
X131867631Y-83085816D01*
X132853914Y-83456560D02*
X132831145Y-83505387D01*
X132736781Y-83580273D01*
X132665185Y-83606332D01*
X132544763Y-83609622D01*
X132447108Y-83564085D01*
X132385252Y-83505519D01*
X132297337Y-83375357D01*
X132258249Y-83267963D01*
X132241929Y-83111743D01*
X132251668Y-83027118D01*
X132297205Y-82929464D01*
X132391569Y-82854578D01*
X132463165Y-82828519D01*
X132583588Y-82825229D01*
X132632415Y-82847997D01*
X133560131Y-83280598D02*
X133202153Y-83410892D01*
X132928536Y-82659138D01*
X131142423Y-86054479D02*
X131898838Y-85794024D01*
X132123597Y-86914817D02*
X131747433Y-86641438D01*
X131691360Y-87063648D02*
X131430905Y-86307233D01*
X131719063Y-86208013D01*
X131803506Y-86219227D01*
X131851928Y-86242844D01*
X131912753Y-86302481D01*
X131949961Y-86410540D01*
X131938746Y-86494983D01*
X131915129Y-86543405D01*
X131855492Y-86604230D01*
X131567334Y-86703451D01*
X131898838Y-85794024D02*
X132619233Y-85545972D01*
X132399352Y-86779577D02*
X132519814Y-86778388D01*
X132699913Y-86716375D01*
X132759550Y-86655551D01*
X132783167Y-86607128D01*
X132794382Y-86522686D01*
X132769577Y-86450647D01*
X132708752Y-86391010D01*
X132660329Y-86367393D01*
X132575887Y-86356178D01*
X132419405Y-86369769D01*
X132334963Y-86358554D01*
X132286541Y-86334937D01*
X132225716Y-86275300D01*
X132200911Y-86203260D01*
X132212125Y-86118818D01*
X132235743Y-86070396D01*
X132295380Y-86009571D01*
X132475478Y-85947558D01*
X132595940Y-85946370D01*
X132619233Y-85545972D02*
X133195549Y-85347531D01*
X132799656Y-85835935D02*
X133231893Y-85687104D01*
X133276229Y-86517934D02*
X133015775Y-85761519D01*
X131489924Y-88705319D02*
X131970451Y-88585510D01*
X131785434Y-88945732D01*
X131896325Y-88918084D01*
X131979468Y-88936615D01*
X132025648Y-88964363D01*
X132081044Y-89029074D01*
X132127124Y-89213892D01*
X132108593Y-89297036D01*
X132080845Y-89343216D01*
X132016134Y-89398611D01*
X131794352Y-89453908D01*
X131711209Y-89435376D01*
X131665029Y-89407629D01*
X132293709Y-88779743D02*
X132607552Y-89251154D01*
X132663345Y-88687583D01*
X132820615Y-88373541D02*
X133301142Y-88253732D01*
X133116125Y-88613954D01*
X133227016Y-88586305D01*
X133310160Y-88604837D01*
X133356339Y-88632584D01*
X133411735Y-88697296D01*
X133457815Y-88882114D01*
X133439284Y-88965257D01*
X133411536Y-89011437D01*
X133346825Y-89066833D01*
X133125043Y-89122129D01*
X133041900Y-89103598D01*
X132995720Y-89075850D01*
X131612137Y-92031137D02*
X131405081Y-91258396D01*
X131699459Y-91179518D01*
X131782913Y-91196596D01*
X131829570Y-91223533D01*
X131886087Y-91287268D01*
X131915666Y-91397659D01*
X131898588Y-91481114D01*
X131871651Y-91527770D01*
X131807916Y-91584287D01*
X131513539Y-91663165D01*
X132288921Y-91613159D02*
X132656893Y-91514561D01*
X132274486Y-91853661D02*
X132325011Y-91011902D01*
X132789646Y-91715624D01*
X132987360Y-90834426D02*
X133060954Y-90814707D01*
X133144408Y-90831784D01*
X133191065Y-90858722D01*
X133247582Y-90922456D01*
X133323818Y-91059785D01*
X133373117Y-91243771D01*
X133375759Y-91400820D01*
X133358681Y-91484274D01*
X133331744Y-91530931D01*
X133268009Y-91587447D01*
X133194415Y-91607167D01*
X133110961Y-91590089D01*
X133064304Y-91563152D01*
X133007787Y-91499417D01*
X132931551Y-91362088D01*
X132882252Y-91178102D01*
X132879610Y-91021054D01*
X132896688Y-90937600D01*
X132923625Y-90890943D01*
X132987360Y-90834426D01*
X131722576Y-94585146D02*
X131502067Y-93816137D01*
X131795022Y-93732133D01*
X131878762Y-93747752D01*
X131925882Y-93773871D01*
X131983502Y-93836609D01*
X132015004Y-93946468D01*
X131999385Y-94030207D01*
X131973266Y-94077327D01*
X131910528Y-94134948D01*
X131617572Y-94218951D01*
X132391963Y-94155420D02*
X132758158Y-94050415D01*
X132381727Y-94396138D02*
X132417554Y-93553625D01*
X132894400Y-94249131D01*
X133553551Y-94060123D02*
X133114117Y-94186128D01*
X133333834Y-94123126D02*
X133113324Y-93354116D01*
X133071587Y-93484976D01*
X133019349Y-93579215D01*
X132956610Y-93636836D01*
X131744181Y-97152607D02*
X131496968Y-96391762D01*
X131786814Y-96297585D01*
X131871047Y-96310272D01*
X131919050Y-96334731D01*
X131978825Y-96395420D01*
X132014141Y-96504112D01*
X132001455Y-96588346D01*
X131976996Y-96636349D01*
X131916307Y-96696123D01*
X131626461Y-96790300D01*
X132398164Y-96699781D02*
X132760471Y-96582061D01*
X132396335Y-96940710D02*
X132402736Y-96097460D01*
X132903565Y-96775901D01*
X132897280Y-96016885D02*
X132921738Y-95968882D01*
X132982428Y-95909107D01*
X133163581Y-95850247D01*
X133247815Y-95862933D01*
X133295818Y-95887392D01*
X133355592Y-95948081D01*
X133379137Y-96020543D01*
X133378222Y-96141007D01*
X133084718Y-96717040D01*
X133555718Y-96564003D01*
X131635340Y-102296851D02*
X131374886Y-101540436D01*
X131663044Y-101441215D01*
X131747486Y-101452430D01*
X131795908Y-101476047D01*
X131856733Y-101535684D01*
X131893941Y-101643743D01*
X131882726Y-101728185D01*
X131859109Y-101776608D01*
X131799472Y-101837432D01*
X131511314Y-101936653D01*
X132281320Y-101832680D02*
X132641517Y-101708654D01*
X132283696Y-102073604D02*
X132275380Y-101230371D01*
X132787972Y-101899968D01*
X133190652Y-101197250D02*
X133364288Y-101701526D01*
X132911333Y-100971105D02*
X132917273Y-101573414D01*
X133385530Y-101412180D01*
X131645812Y-103899338D02*
X131562669Y-103880807D01*
X131451778Y-103908455D01*
X131350103Y-103973067D01*
X131294608Y-104065426D01*
X131276077Y-104148570D01*
X131275977Y-104305640D01*
X131303625Y-104416531D01*
X131377453Y-104555170D01*
X131432849Y-104619881D01*
X131525209Y-104675376D01*
X131645316Y-104684692D01*
X131719243Y-104666260D01*
X131820918Y-104601648D01*
X131848665Y-104555468D01*
X131784153Y-104296722D01*
X131636298Y-104333587D01*
X132199770Y-104546451D02*
X132006233Y-103770214D01*
X132643334Y-104435858D01*
X132449797Y-103659621D01*
X133012971Y-104343697D02*
X132819433Y-103567460D01*
X133004251Y-103521380D01*
X133124358Y-103530695D01*
X133216718Y-103586191D01*
X133272113Y-103650902D01*
X133345941Y-103789540D01*
X133373590Y-103900431D01*
X133373490Y-104057502D01*
X133354959Y-104140645D01*
X133299464Y-104233005D01*
X133197789Y-104297617D01*
X133012971Y-104343697D01*
X133711137Y-99867862D02*
X132938396Y-100074918D01*
X132859518Y-99780540D01*
X132876596Y-99697086D01*
X132903533Y-99650429D01*
X132967268Y-99593912D01*
X133077659Y-99564333D01*
X133161114Y-99581411D01*
X133207770Y-99608348D01*
X133264287Y-99672083D01*
X133343165Y-99966460D01*
X133293159Y-99191078D02*
X133194561Y-98823106D01*
X133533661Y-99205513D02*
X132691902Y-99154988D01*
X133395624Y-98690353D01*
X132573585Y-98713422D02*
X132445408Y-98235059D01*
X132808804Y-98413761D01*
X132779224Y-98303369D01*
X132796302Y-98219915D01*
X132823239Y-98173258D01*
X132886974Y-98116742D01*
X133070960Y-98067443D01*
X133154414Y-98084520D01*
X133201071Y-98111458D01*
X133257588Y-98175192D01*
X133316746Y-98395975D01*
X133299669Y-98479430D01*
X133272731Y-98526087D01*
D11*
G36*
X128742162Y-87486739D02*
G01*
X128753868Y-87492535D01*
X128803506Y-87537202D01*
X128813414Y-87597436D01*
X128805567Y-87638488D01*
X128780108Y-87670938D01*
X128726560Y-87703776D01*
X128646294Y-87740828D01*
X128550299Y-87783173D01*
X128494222Y-87810970D01*
X128471387Y-87830423D01*
X128475118Y-87847736D01*
X128498741Y-87869112D01*
X128503821Y-87873244D01*
X128580022Y-87907776D01*
X128672241Y-87913875D01*
X128753833Y-87890275D01*
X128761518Y-87885473D01*
X128818574Y-87854580D01*
X128845686Y-87861507D01*
X128849270Y-87887812D01*
X128824055Y-87938305D01*
X128763613Y-87972788D01*
X128681636Y-87989686D01*
X128591820Y-87987419D01*
X128507855Y-87964408D01*
X128457394Y-87932969D01*
X128396792Y-87850980D01*
X128381459Y-87749021D01*
X128388753Y-87713566D01*
X128457060Y-87717145D01*
X128463968Y-87728614D01*
X128492158Y-87719468D01*
X128551946Y-87695209D01*
X128606071Y-87671788D01*
X128677560Y-87636186D01*
X128725271Y-87604851D01*
X128737205Y-87589768D01*
X128716882Y-87562267D01*
X128666169Y-87544975D01*
X128605354Y-87542300D01*
X128565466Y-87552463D01*
X128532670Y-87580679D01*
X128497661Y-87627958D01*
X128469454Y-87678660D01*
X128457060Y-87717145D01*
X128388753Y-87713566D01*
X128402000Y-87649168D01*
X128457310Y-87545317D01*
X128537864Y-87481215D01*
X128635527Y-87460481D01*
X128742162Y-87486739D01*
G37*
X128742162Y-87486739D02*
X128753868Y-87492535D01*
X128803506Y-87537202D01*
X128813414Y-87597436D01*
X128805567Y-87638488D01*
X128780108Y-87670938D01*
X128726560Y-87703776D01*
X128646294Y-87740828D01*
X128550299Y-87783173D01*
X128494222Y-87810970D01*
X128471387Y-87830423D01*
X128475118Y-87847736D01*
X128498741Y-87869112D01*
X128503821Y-87873244D01*
X128580022Y-87907776D01*
X128672241Y-87913875D01*
X128753833Y-87890275D01*
X128761518Y-87885473D01*
X128818574Y-87854580D01*
X128845686Y-87861507D01*
X128849270Y-87887812D01*
X128824055Y-87938305D01*
X128763613Y-87972788D01*
X128681636Y-87989686D01*
X128591820Y-87987419D01*
X128507855Y-87964408D01*
X128457394Y-87932969D01*
X128396792Y-87850980D01*
X128381459Y-87749021D01*
X128388753Y-87713566D01*
X128457060Y-87717145D01*
X128463968Y-87728614D01*
X128492158Y-87719468D01*
X128551946Y-87695209D01*
X128606071Y-87671788D01*
X128677560Y-87636186D01*
X128725271Y-87604851D01*
X128737205Y-87589768D01*
X128716882Y-87562267D01*
X128666169Y-87544975D01*
X128605354Y-87542300D01*
X128565466Y-87552463D01*
X128532670Y-87580679D01*
X128497661Y-87627958D01*
X128469454Y-87678660D01*
X128457060Y-87717145D01*
X128388753Y-87713566D01*
X128402000Y-87649168D01*
X128457310Y-87545317D01*
X128537864Y-87481215D01*
X128635527Y-87460481D01*
X128742162Y-87486739D01*
G36*
X129507659Y-87278230D02*
G01*
X129514772Y-87300111D01*
X129504488Y-87343723D01*
X129474837Y-87415758D01*
X129423854Y-87522904D01*
X129392586Y-87586044D01*
X129307995Y-87753496D01*
X129241726Y-87878663D01*
X129190876Y-87965641D01*
X129152541Y-88018524D01*
X129123819Y-88041404D01*
X129101804Y-88038378D01*
X129086066Y-88018252D01*
X129089589Y-87983370D01*
X129113651Y-87922154D01*
X129132968Y-87884375D01*
X129193335Y-87775074D01*
X129136169Y-87672197D01*
X129057973Y-87529919D01*
X129002971Y-87425307D01*
X128968470Y-87352074D01*
X128951784Y-87303937D01*
X128950221Y-87274611D01*
X128959425Y-87259192D01*
X128993839Y-87258960D01*
X129040810Y-87303884D01*
X129097626Y-87390455D01*
X129161577Y-87515164D01*
X129168096Y-87529238D01*
X129212347Y-87616090D01*
X129245786Y-87662135D01*
X129265943Y-87664622D01*
X129270670Y-87643430D01*
X129283917Y-87598286D01*
X129315642Y-87529305D01*
X129358370Y-87449460D01*
X129404620Y-87371725D01*
X129446917Y-87309072D01*
X129477782Y-87274475D01*
X129485115Y-87271390D01*
X129507659Y-87278230D01*
G37*
X129507659Y-87278230D02*
X129514772Y-87300111D01*
X129504488Y-87343723D01*
X129474837Y-87415758D01*
X129423854Y-87522904D01*
X129392586Y-87586044D01*
X129307995Y-87753496D01*
X129241726Y-87878663D01*
X129190876Y-87965641D01*
X129152541Y-88018524D01*
X129123819Y-88041404D01*
X129101804Y-88038378D01*
X129086066Y-88018252D01*
X129089589Y-87983370D01*
X129113651Y-87922154D01*
X129132968Y-87884375D01*
X129193335Y-87775074D01*
X129136169Y-87672197D01*
X129057973Y-87529919D01*
X129002971Y-87425307D01*
X128968470Y-87352074D01*
X128951784Y-87303937D01*
X128950221Y-87274611D01*
X128959425Y-87259192D01*
X128993839Y-87258960D01*
X129040810Y-87303884D01*
X129097626Y-87390455D01*
X129161577Y-87515164D01*
X129168096Y-87529238D01*
X129212347Y-87616090D01*
X129245786Y-87662135D01*
X129265943Y-87664622D01*
X129270670Y-87643430D01*
X129283917Y-87598286D01*
X129315642Y-87529305D01*
X129358370Y-87449460D01*
X129404620Y-87371725D01*
X129446917Y-87309072D01*
X129477782Y-87274475D01*
X129485115Y-87271390D01*
X129507659Y-87278230D01*
G36*
X127924848Y-87178554D02*
G01*
X127934010Y-87257378D01*
X127933005Y-87342023D01*
X127923885Y-87516044D01*
X128015882Y-87475058D01*
X128110524Y-87448925D01*
X128182409Y-87462345D01*
X128225572Y-87514005D01*
X128228272Y-87521840D01*
X128239096Y-87579904D01*
X128246488Y-87664018D01*
X128250279Y-87759959D01*
X128250294Y-87853505D01*
X128246363Y-87930435D01*
X128238315Y-87976524D01*
X128233848Y-87983170D01*
X128201295Y-87977002D01*
X128185834Y-87961954D01*
X128172187Y-87918734D01*
X128164294Y-87844246D01*
X128163443Y-87788687D01*
X128162886Y-87667208D01*
X128154301Y-87588814D01*
X128135939Y-87545971D01*
X128106049Y-87531145D01*
X128103545Y-87530966D01*
X128036279Y-87551283D01*
X127976345Y-87613076D01*
X127930695Y-87706819D01*
X127909300Y-87797206D01*
X127891907Y-87886813D01*
X127870564Y-87931444D01*
X127852090Y-87939148D01*
X127838305Y-87930913D01*
X127829903Y-87903338D01*
X127826682Y-87849514D01*
X127828444Y-87762535D01*
X127834985Y-87635493D01*
X127840609Y-87545064D01*
X127850049Y-87409233D01*
X127859473Y-87292396D01*
X127868051Y-87203555D01*
X127874954Y-87151711D01*
X127877721Y-87142243D01*
X127905526Y-87138156D01*
X127924848Y-87178554D01*
G37*
X127924848Y-87178554D02*
X127934010Y-87257378D01*
X127933005Y-87342023D01*
X127923885Y-87516044D01*
X128015882Y-87475058D01*
X128110524Y-87448925D01*
X128182409Y-87462345D01*
X128225572Y-87514005D01*
X128228272Y-87521840D01*
X128239096Y-87579904D01*
X128246488Y-87664018D01*
X128250279Y-87759959D01*
X128250294Y-87853505D01*
X128246363Y-87930435D01*
X128238315Y-87976524D01*
X128233848Y-87983170D01*
X128201295Y-87977002D01*
X128185834Y-87961954D01*
X128172187Y-87918734D01*
X128164294Y-87844246D01*
X128163443Y-87788687D01*
X128162886Y-87667208D01*
X128154301Y-87588814D01*
X128135939Y-87545971D01*
X128106049Y-87531145D01*
X128103545Y-87530966D01*
X128036279Y-87551283D01*
X127976345Y-87613076D01*
X127930695Y-87706819D01*
X127909300Y-87797206D01*
X127891907Y-87886813D01*
X127870564Y-87931444D01*
X127852090Y-87939148D01*
X127838305Y-87930913D01*
X127829903Y-87903338D01*
X127826682Y-87849514D01*
X127828444Y-87762535D01*
X127834985Y-87635493D01*
X127840609Y-87545064D01*
X127850049Y-87409233D01*
X127859473Y-87292396D01*
X127868051Y-87203555D01*
X127874954Y-87151711D01*
X127877721Y-87142243D01*
X127905526Y-87138156D01*
X127924848Y-87178554D01*
G36*
X127536322Y-87245232D02*
G01*
X127550536Y-87297929D01*
X127550855Y-87324749D01*
X127554737Y-87378543D01*
X127584610Y-87399558D01*
X127621828Y-87403572D01*
X127680844Y-87415455D01*
X127712742Y-87436728D01*
X127709336Y-87470924D01*
X127667440Y-87495760D01*
X127599518Y-87504100D01*
X127595400Y-87503943D01*
X127564240Y-87504647D01*
X127546605Y-87517482D01*
X127539358Y-87553161D01*
X127539363Y-87622397D01*
X127541650Y-87687407D01*
X127542195Y-87802105D01*
X127532528Y-87876208D01*
X127513276Y-87917180D01*
X127478937Y-87943881D01*
X127460382Y-87941328D01*
X127453587Y-87908456D01*
X127450840Y-87838045D01*
X127452514Y-87743426D01*
X127453979Y-87711427D01*
X127465013Y-87500893D01*
X127395618Y-87489176D01*
X127338697Y-87464392D01*
X127320108Y-87432449D01*
X127327027Y-87401093D01*
X127367383Y-87391106D01*
X127395229Y-87391696D01*
X127450706Y-87389975D01*
X127469587Y-87369209D01*
X127467861Y-87333311D01*
X127468817Y-87273332D01*
X127479620Y-87241276D01*
X127509792Y-87222959D01*
X127536322Y-87245232D01*
G37*
X127536322Y-87245232D02*
X127550536Y-87297929D01*
X127550855Y-87324749D01*
X127554737Y-87378543D01*
X127584610Y-87399558D01*
X127621828Y-87403572D01*
X127680844Y-87415455D01*
X127712742Y-87436728D01*
X127709336Y-87470924D01*
X127667440Y-87495760D01*
X127599518Y-87504100D01*
X127595400Y-87503943D01*
X127564240Y-87504647D01*
X127546605Y-87517482D01*
X127539358Y-87553161D01*
X127539363Y-87622397D01*
X127541650Y-87687407D01*
X127542195Y-87802105D01*
X127532528Y-87876208D01*
X127513276Y-87917180D01*
X127478937Y-87943881D01*
X127460382Y-87941328D01*
X127453587Y-87908456D01*
X127450840Y-87838045D01*
X127452514Y-87743426D01*
X127453979Y-87711427D01*
X127465013Y-87500893D01*
X127395618Y-87489176D01*
X127338697Y-87464392D01*
X127320108Y-87432449D01*
X127327027Y-87401093D01*
X127367383Y-87391106D01*
X127395229Y-87391696D01*
X127450706Y-87389975D01*
X127469587Y-87369209D01*
X127467861Y-87333311D01*
X127468817Y-87273332D01*
X127479620Y-87241276D01*
X127509792Y-87222959D01*
X127536322Y-87245232D01*
G36*
X129081494Y-88548179D02*
G01*
X129089479Y-88578124D01*
X129092107Y-88635823D01*
X129089557Y-88728120D01*
X129082010Y-88861859D01*
X129078043Y-88922366D01*
X129068415Y-89056133D01*
X129058939Y-89170731D01*
X129050462Y-89257051D01*
X129043835Y-89305982D01*
X129041543Y-89313532D01*
X129016711Y-89307200D01*
X128995683Y-89291099D01*
X128958184Y-89273266D01*
X128942821Y-89284689D01*
X128905351Y-89301269D01*
X128839275Y-89304448D01*
X128764845Y-89295463D01*
X128702315Y-89275545D01*
X128691478Y-89269372D01*
X128652497Y-89225975D01*
X128617366Y-89159196D01*
X128613994Y-89150238D01*
X128599393Y-89044093D01*
X128609620Y-88995768D01*
X128685822Y-88999762D01*
X128690357Y-89108027D01*
X128726478Y-89184452D01*
X128788604Y-89223874D01*
X128871159Y-89221136D01*
X128909516Y-89206674D01*
X128943241Y-89177807D01*
X128960830Y-89122653D01*
X128966517Y-89061547D01*
X128962716Y-88962692D01*
X128935270Y-88903494D01*
X128879180Y-88876134D01*
X128845469Y-88872235D01*
X128763205Y-88889207D01*
X128705246Y-88942352D01*
X128685822Y-88999762D01*
X128609620Y-88995768D01*
X128622331Y-88935710D01*
X128677518Y-88845407D01*
X128698449Y-88825787D01*
X128770288Y-88794187D01*
X128862022Y-88787232D01*
X128948152Y-88806313D01*
X128959124Y-88811566D01*
X128983483Y-88817799D01*
X128999002Y-88798314D01*
X129010051Y-88743563D01*
X129016804Y-88685520D01*
X129030494Y-88594712D01*
X129048973Y-88548444D01*
X129067969Y-88539146D01*
X129081494Y-88548179D01*
G37*
X129081494Y-88548179D02*
X129089479Y-88578124D01*
X129092107Y-88635823D01*
X129089557Y-88728120D01*
X129082010Y-88861859D01*
X129078043Y-88922366D01*
X129068415Y-89056133D01*
X129058939Y-89170731D01*
X129050462Y-89257051D01*
X129043835Y-89305982D01*
X129041543Y-89313532D01*
X129016711Y-89307200D01*
X128995683Y-89291099D01*
X128958184Y-89273266D01*
X128942821Y-89284689D01*
X128905351Y-89301269D01*
X128839275Y-89304448D01*
X128764845Y-89295463D01*
X128702315Y-89275545D01*
X128691478Y-89269372D01*
X128652497Y-89225975D01*
X128617366Y-89159196D01*
X128613994Y-89150238D01*
X128599393Y-89044093D01*
X128609620Y-88995768D01*
X128685822Y-88999762D01*
X128690357Y-89108027D01*
X128726478Y-89184452D01*
X128788604Y-89223874D01*
X128871159Y-89221136D01*
X128909516Y-89206674D01*
X128943241Y-89177807D01*
X128960830Y-89122653D01*
X128966517Y-89061547D01*
X128962716Y-88962692D01*
X128935270Y-88903494D01*
X128879180Y-88876134D01*
X128845469Y-88872235D01*
X128763205Y-88889207D01*
X128705246Y-88942352D01*
X128685822Y-88999762D01*
X128609620Y-88995768D01*
X128622331Y-88935710D01*
X128677518Y-88845407D01*
X128698449Y-88825787D01*
X128770288Y-88794187D01*
X128862022Y-88787232D01*
X128948152Y-88806313D01*
X128959124Y-88811566D01*
X128983483Y-88817799D01*
X128999002Y-88798314D01*
X129010051Y-88743563D01*
X129016804Y-88685520D01*
X129030494Y-88594712D01*
X129048973Y-88548444D01*
X129067969Y-88539146D01*
X129081494Y-88548179D01*
G36*
X128318460Y-88558338D02*
G01*
X128337210Y-88621526D01*
X128338986Y-88635011D01*
X128348466Y-88701148D01*
X128364851Y-88801522D01*
X128385489Y-88920270D01*
X128399612Y-88998076D01*
X128418546Y-89108465D01*
X128431337Y-89199122D01*
X128436615Y-89259127D01*
X128434674Y-89277591D01*
X128399558Y-89283560D01*
X128364678Y-89246130D01*
X128335388Y-89172653D01*
X128324929Y-89126973D01*
X128306348Y-89047729D01*
X128285464Y-89010265D01*
X128258066Y-89005232D01*
X128204449Y-89015100D01*
X128130668Y-89025712D01*
X128123321Y-89026631D01*
X128060660Y-89041821D01*
X128015530Y-89077521D01*
X127970582Y-89147468D01*
X127970472Y-89147668D01*
X127924551Y-89218475D01*
X127887757Y-89252340D01*
X127865246Y-89246326D01*
X127861026Y-89210082D01*
X127880681Y-89129213D01*
X127927189Y-89024931D01*
X127991458Y-88915712D01*
X128105588Y-88921694D01*
X128126645Y-88926135D01*
X128176271Y-88923855D01*
X128232806Y-88916996D01*
X128274590Y-88907703D01*
X128281742Y-88904257D01*
X128283665Y-88877193D01*
X128276547Y-88818766D01*
X128273073Y-88798938D01*
X128254775Y-88700825D01*
X128180512Y-88804958D01*
X128137729Y-88867081D01*
X128110567Y-88910616D01*
X128105588Y-88921694D01*
X127991458Y-88915712D01*
X127993621Y-88912036D01*
X128015611Y-88879818D01*
X128079245Y-88789666D01*
X128149198Y-88690526D01*
X128176356Y-88652025D01*
X128239728Y-88573411D01*
X128286531Y-88542240D01*
X128318460Y-88558338D01*
G37*
X128318460Y-88558338D02*
X128337210Y-88621526D01*
X128338986Y-88635011D01*
X128348466Y-88701148D01*
X128364851Y-88801522D01*
X128385489Y-88920270D01*
X128399612Y-88998076D01*
X128418546Y-89108465D01*
X128431337Y-89199122D01*
X128436615Y-89259127D01*
X128434674Y-89277591D01*
X128399558Y-89283560D01*
X128364678Y-89246130D01*
X128335388Y-89172653D01*
X128324929Y-89126973D01*
X128306348Y-89047729D01*
X128285464Y-89010265D01*
X128258066Y-89005232D01*
X128204449Y-89015100D01*
X128130668Y-89025712D01*
X128123321Y-89026631D01*
X128060660Y-89041821D01*
X128015530Y-89077521D01*
X127970582Y-89147468D01*
X127970472Y-89147668D01*
X127924551Y-89218475D01*
X127887757Y-89252340D01*
X127865246Y-89246326D01*
X127861026Y-89210082D01*
X127880681Y-89129213D01*
X127927189Y-89024931D01*
X127991458Y-88915712D01*
X128105588Y-88921694D01*
X128126645Y-88926135D01*
X128176271Y-88923855D01*
X128232806Y-88916996D01*
X128274590Y-88907703D01*
X128281742Y-88904257D01*
X128283665Y-88877193D01*
X128276547Y-88818766D01*
X128273073Y-88798938D01*
X128254775Y-88700825D01*
X128180512Y-88804958D01*
X128137729Y-88867081D01*
X128110567Y-88910616D01*
X128105588Y-88921694D01*
X127991458Y-88915712D01*
X127993621Y-88912036D01*
X128015611Y-88879818D01*
X128079245Y-88789666D01*
X128149198Y-88690526D01*
X128176356Y-88652025D01*
X128239728Y-88573411D01*
X128286531Y-88542240D01*
X128318460Y-88558338D01*
G36*
X129639570Y-88541618D02*
G01*
X129716104Y-88564920D01*
X129753663Y-88599624D01*
X129756051Y-88614589D01*
X129748503Y-88643778D01*
X129721184Y-88653074D01*
X129660760Y-88645687D01*
X129641628Y-88642128D01*
X129547398Y-88631266D01*
X129455194Y-88631300D01*
X129437806Y-88633091D01*
X129383202Y-88642884D01*
X129355216Y-88662802D01*
X129343628Y-88707309D01*
X129339175Y-88772646D01*
X129332507Y-88899890D01*
X129524418Y-88892591D01*
X129623448Y-88890280D01*
X129681517Y-88893787D01*
X129708495Y-88904758D01*
X129714284Y-88924282D01*
X129694877Y-88962429D01*
X129638075Y-88982224D01*
X129538473Y-88985382D01*
X129523883Y-88984749D01*
X129415517Y-88983520D01*
X129347979Y-88995744D01*
X129311893Y-89025854D01*
X129297887Y-89078284D01*
X129296897Y-89092078D01*
X129298677Y-89185075D01*
X129321596Y-89243105D01*
X129374259Y-89273916D01*
X129465262Y-89285255D01*
X129512266Y-89286070D01*
X129605479Y-89288342D01*
X129657661Y-89296223D01*
X129678676Y-89311972D01*
X129680536Y-89324591D01*
X129656404Y-89346682D01*
X129596144Y-89359746D01*
X129513755Y-89364165D01*
X129423236Y-89360324D01*
X129338587Y-89348606D01*
X129273808Y-89329394D01*
X129248704Y-89312758D01*
X129233022Y-89288216D01*
X129223627Y-89250899D01*
X129220232Y-89192215D01*
X129222544Y-89103576D01*
X129230275Y-88976391D01*
X129235089Y-88909132D01*
X129261468Y-88549923D01*
X129402624Y-88536525D01*
X129532322Y-88531545D01*
X129639570Y-88541618D01*
G37*
X129639570Y-88541618D02*
X129716104Y-88564920D01*
X129753663Y-88599624D01*
X129756051Y-88614589D01*
X129748503Y-88643778D01*
X129721184Y-88653074D01*
X129660760Y-88645687D01*
X129641628Y-88642128D01*
X129547398Y-88631266D01*
X129455194Y-88631300D01*
X129437806Y-88633091D01*
X129383202Y-88642884D01*
X129355216Y-88662802D01*
X129343628Y-88707309D01*
X129339175Y-88772646D01*
X129332507Y-88899890D01*
X129524418Y-88892591D01*
X129623448Y-88890280D01*
X129681517Y-88893787D01*
X129708495Y-88904758D01*
X129714284Y-88924282D01*
X129694877Y-88962429D01*
X129638075Y-88982224D01*
X129538473Y-88985382D01*
X129523883Y-88984749D01*
X129415517Y-88983520D01*
X129347979Y-88995744D01*
X129311893Y-89025854D01*
X129297887Y-89078284D01*
X129296897Y-89092078D01*
X129298677Y-89185075D01*
X129321596Y-89243105D01*
X129374259Y-89273916D01*
X129465262Y-89285255D01*
X129512266Y-89286070D01*
X129605479Y-89288342D01*
X129657661Y-89296223D01*
X129678676Y-89311972D01*
X129680536Y-89324591D01*
X129656404Y-89346682D01*
X129596144Y-89359746D01*
X129513755Y-89364165D01*
X129423236Y-89360324D01*
X129338587Y-89348606D01*
X129273808Y-89329394D01*
X129248704Y-89312758D01*
X129233022Y-89288216D01*
X129223627Y-89250899D01*
X129220232Y-89192215D01*
X129222544Y-89103576D01*
X129230275Y-88976391D01*
X129235089Y-88909132D01*
X129261468Y-88549923D01*
X129402624Y-88536525D01*
X129532322Y-88531545D01*
X129639570Y-88541618D01*
G36*
X127599972Y-88478986D02*
G01*
X127614180Y-88497489D01*
X127625934Y-88538229D01*
X127637518Y-88609938D01*
X127651214Y-88721350D01*
X127655505Y-88758798D01*
X127671343Y-88878294D01*
X127691636Y-89006032D01*
X127704823Y-89077712D01*
X127720199Y-89177268D01*
X127717577Y-89236039D01*
X127706656Y-89255290D01*
X127676510Y-89268327D01*
X127651214Y-89245032D01*
X127629070Y-89181302D01*
X127608381Y-89073038D01*
X127596508Y-88989214D01*
X127581768Y-88887003D01*
X127567581Y-88807074D01*
X127556070Y-88760605D01*
X127551722Y-88753359D01*
X127536843Y-88775096D01*
X127509127Y-88833798D01*
X127473532Y-88918631D01*
X127457558Y-88959105D01*
X127418311Y-89057093D01*
X127383255Y-89138895D01*
X127358221Y-89191095D01*
X127352871Y-89199941D01*
X127317297Y-89226799D01*
X127283411Y-89204913D01*
X127250800Y-89133605D01*
X127219053Y-89012192D01*
X127208984Y-88962525D01*
X127187012Y-88853933D01*
X127169056Y-88789299D01*
X127151975Y-88769715D01*
X127132633Y-88796272D01*
X127107892Y-88870063D01*
X127074613Y-88992181D01*
X127069667Y-89011012D01*
X127034949Y-89129440D01*
X127004917Y-89200060D01*
X126978045Y-89225690D01*
X126958428Y-89216407D01*
X126945369Y-89172481D01*
X126952382Y-89089814D01*
X126979880Y-88965578D01*
X127011874Y-88851229D01*
X127056443Y-88701916D01*
X127089713Y-88594905D01*
X127114521Y-88523489D01*
X127133709Y-88480968D01*
X127150116Y-88460635D01*
X127166581Y-88455787D01*
X127178536Y-88457734D01*
X127196334Y-88464490D01*
X127210509Y-88479971D01*
X127223268Y-88512096D01*
X127236817Y-88568787D01*
X127253363Y-88657965D01*
X127275110Y-88787549D01*
X127281849Y-88828595D01*
X127315624Y-89034661D01*
X127358373Y-88947522D01*
X127388770Y-88877093D01*
X127425443Y-88780269D01*
X127456429Y-88690107D01*
X127491402Y-88585740D01*
X127517136Y-88521148D01*
X127538892Y-88487208D01*
X127561930Y-88474791D01*
X127581026Y-88473988D01*
X127599972Y-88478986D01*
G37*
X127599972Y-88478986D02*
X127614180Y-88497489D01*
X127625934Y-88538229D01*
X127637518Y-88609938D01*
X127651214Y-88721350D01*
X127655505Y-88758798D01*
X127671343Y-88878294D01*
X127691636Y-89006032D01*
X127704823Y-89077712D01*
X127720199Y-89177268D01*
X127717577Y-89236039D01*
X127706656Y-89255290D01*
X127676510Y-89268327D01*
X127651214Y-89245032D01*
X127629070Y-89181302D01*
X127608381Y-89073038D01*
X127596508Y-88989214D01*
X127581768Y-88887003D01*
X127567581Y-88807074D01*
X127556070Y-88760605D01*
X127551722Y-88753359D01*
X127536843Y-88775096D01*
X127509127Y-88833798D01*
X127473532Y-88918631D01*
X127457558Y-88959105D01*
X127418311Y-89057093D01*
X127383255Y-89138895D01*
X127358221Y-89191095D01*
X127352871Y-89199941D01*
X127317297Y-89226799D01*
X127283411Y-89204913D01*
X127250800Y-89133605D01*
X127219053Y-89012192D01*
X127208984Y-88962525D01*
X127187012Y-88853933D01*
X127169056Y-88789299D01*
X127151975Y-88769715D01*
X127132633Y-88796272D01*
X127107892Y-88870063D01*
X127074613Y-88992181D01*
X127069667Y-89011012D01*
X127034949Y-89129440D01*
X127004917Y-89200060D01*
X126978045Y-89225690D01*
X126958428Y-89216407D01*
X126945369Y-89172481D01*
X126952382Y-89089814D01*
X126979880Y-88965578D01*
X127011874Y-88851229D01*
X127056443Y-88701916D01*
X127089713Y-88594905D01*
X127114521Y-88523489D01*
X127133709Y-88480968D01*
X127150116Y-88460635D01*
X127166581Y-88455787D01*
X127178536Y-88457734D01*
X127196334Y-88464490D01*
X127210509Y-88479971D01*
X127223268Y-88512096D01*
X127236817Y-88568787D01*
X127253363Y-88657965D01*
X127275110Y-88787549D01*
X127281849Y-88828595D01*
X127315624Y-89034661D01*
X127358373Y-88947522D01*
X127388770Y-88877093D01*
X127425443Y-88780269D01*
X127456429Y-88690107D01*
X127491402Y-88585740D01*
X127517136Y-88521148D01*
X127538892Y-88487208D01*
X127561930Y-88474791D01*
X127581026Y-88473988D01*
X127599972Y-88478986D01*
G36*
X128875286Y-89812835D02*
G01*
X128940345Y-89839508D01*
X128962132Y-89876130D01*
X128948018Y-89897470D01*
X128902217Y-89903004D01*
X128837163Y-89897302D01*
X128742135Y-89890425D01*
X128651622Y-89891424D01*
X128626665Y-89893812D01*
X128574867Y-89903445D01*
X128548158Y-89923815D01*
X128536897Y-89969261D01*
X128532504Y-90033872D01*
X128525777Y-90162226D01*
X128720219Y-90154235D01*
X128818298Y-90151096D01*
X128875312Y-90153108D01*
X128901113Y-90162392D01*
X128905551Y-90181066D01*
X128903090Y-90193561D01*
X128880029Y-90226547D01*
X128824375Y-90240596D01*
X128789518Y-90242083D01*
X128697337Y-90245473D01*
X128609524Y-90252111D01*
X128602737Y-90252846D01*
X128553290Y-90260661D01*
X128528256Y-90278818D01*
X128519454Y-90321161D01*
X128518670Y-90395112D01*
X128519386Y-90527820D01*
X128697501Y-90540103D01*
X128794779Y-90549154D01*
X128851208Y-90561607D01*
X128876945Y-90580457D01*
X128881670Y-90594444D01*
X128878128Y-90615168D01*
X128853766Y-90626495D01*
X128799168Y-90629907D01*
X128704914Y-90626887D01*
X128682705Y-90625759D01*
X128579519Y-90619132D01*
X128514843Y-90609915D01*
X128476198Y-90594203D01*
X128451106Y-90568087D01*
X128439580Y-90549627D01*
X128424472Y-90515999D01*
X128416303Y-90472572D01*
X128415030Y-90409821D01*
X128420605Y-90318220D01*
X128432985Y-90188241D01*
X128437634Y-90143945D01*
X128473797Y-89803650D01*
X128643624Y-89796540D01*
X128774023Y-89797924D01*
X128875286Y-89812835D01*
G37*
X128875286Y-89812835D02*
X128940345Y-89839508D01*
X128962132Y-89876130D01*
X128948018Y-89897470D01*
X128902217Y-89903004D01*
X128837163Y-89897302D01*
X128742135Y-89890425D01*
X128651622Y-89891424D01*
X128626665Y-89893812D01*
X128574867Y-89903445D01*
X128548158Y-89923815D01*
X128536897Y-89969261D01*
X128532504Y-90033872D01*
X128525777Y-90162226D01*
X128720219Y-90154235D01*
X128818298Y-90151096D01*
X128875312Y-90153108D01*
X128901113Y-90162392D01*
X128905551Y-90181066D01*
X128903090Y-90193561D01*
X128880029Y-90226547D01*
X128824375Y-90240596D01*
X128789518Y-90242083D01*
X128697337Y-90245473D01*
X128609524Y-90252111D01*
X128602737Y-90252846D01*
X128553290Y-90260661D01*
X128528256Y-90278818D01*
X128519454Y-90321161D01*
X128518670Y-90395112D01*
X128519386Y-90527820D01*
X128697501Y-90540103D01*
X128794779Y-90549154D01*
X128851208Y-90561607D01*
X128876945Y-90580457D01*
X128881670Y-90594444D01*
X128878128Y-90615168D01*
X128853766Y-90626495D01*
X128799168Y-90629907D01*
X128704914Y-90626887D01*
X128682705Y-90625759D01*
X128579519Y-90619132D01*
X128514843Y-90609915D01*
X128476198Y-90594203D01*
X128451106Y-90568087D01*
X128439580Y-90549627D01*
X128424472Y-90515999D01*
X128416303Y-90472572D01*
X128415030Y-90409821D01*
X128420605Y-90318220D01*
X128432985Y-90188241D01*
X128437634Y-90143945D01*
X128473797Y-89803650D01*
X128643624Y-89796540D01*
X128774023Y-89797924D01*
X128875286Y-89812835D01*
G36*
X127697692Y-90023609D02*
G01*
X127708743Y-90075215D01*
X127713362Y-90146600D01*
X127789021Y-90081355D01*
X127855480Y-90037149D01*
X127910117Y-90033505D01*
X127917117Y-90035830D01*
X127958319Y-90061170D01*
X127968275Y-90079954D01*
X127987378Y-90086832D01*
X128036188Y-90072755D01*
X128049094Y-90067213D01*
X128122420Y-90044752D01*
X128181102Y-90056172D01*
X128186758Y-90058989D01*
X128215946Y-90080469D01*
X128236836Y-90115374D01*
X128251435Y-90172495D01*
X128261749Y-90260619D01*
X128269784Y-90388540D01*
X128271861Y-90431852D01*
X128274461Y-90524671D01*
X128270269Y-90577064D01*
X128257374Y-90599379D01*
X128240332Y-90602575D01*
X128222515Y-90598428D01*
X128209496Y-90582586D01*
X128199527Y-90546675D01*
X128190857Y-90482323D01*
X128181737Y-90381156D01*
X128174373Y-90286884D01*
X128161427Y-90196474D01*
X128136312Y-90150957D01*
X128093354Y-90144639D01*
X128048772Y-90160890D01*
X128016181Y-90179155D01*
X127996610Y-90204209D01*
X127986565Y-90248170D01*
X127982553Y-90323157D01*
X127981526Y-90394101D01*
X127977555Y-90506789D01*
X127967723Y-90574811D01*
X127951037Y-90604273D01*
X127947105Y-90605988D01*
X127912892Y-90594811D01*
X127905825Y-90580784D01*
X127901282Y-90539982D01*
X127897320Y-90463307D01*
X127894674Y-90365891D01*
X127894374Y-90345752D01*
X127891284Y-90248987D01*
X127885403Y-90172876D01*
X127877877Y-90131050D01*
X127876063Y-90127746D01*
X127850583Y-90133323D01*
X127804618Y-90167762D01*
X127781663Y-90189518D01*
X127733056Y-90246812D01*
X127707680Y-90306361D01*
X127696723Y-90390602D01*
X127695690Y-90408444D01*
X127687098Y-90494886D01*
X127671390Y-90537967D01*
X127653139Y-90546265D01*
X127629911Y-90538007D01*
X127615901Y-90511053D01*
X127610440Y-90457716D01*
X127612858Y-90370309D01*
X127622485Y-90241148D01*
X127624513Y-90217656D01*
X127637392Y-90097051D01*
X127651205Y-90023511D01*
X127666828Y-89993097D01*
X127674654Y-89992421D01*
X127697692Y-90023609D01*
G37*
X127697692Y-90023609D02*
X127708743Y-90075215D01*
X127713362Y-90146600D01*
X127789021Y-90081355D01*
X127855480Y-90037149D01*
X127910117Y-90033505D01*
X127917117Y-90035830D01*
X127958319Y-90061170D01*
X127968275Y-90079954D01*
X127987378Y-90086832D01*
X128036188Y-90072755D01*
X128049094Y-90067213D01*
X128122420Y-90044752D01*
X128181102Y-90056172D01*
X128186758Y-90058989D01*
X128215946Y-90080469D01*
X128236836Y-90115374D01*
X128251435Y-90172495D01*
X128261749Y-90260619D01*
X128269784Y-90388540D01*
X128271861Y-90431852D01*
X128274461Y-90524671D01*
X128270269Y-90577064D01*
X128257374Y-90599379D01*
X128240332Y-90602575D01*
X128222515Y-90598428D01*
X128209496Y-90582586D01*
X128199527Y-90546675D01*
X128190857Y-90482323D01*
X128181737Y-90381156D01*
X128174373Y-90286884D01*
X128161427Y-90196474D01*
X128136312Y-90150957D01*
X128093354Y-90144639D01*
X128048772Y-90160890D01*
X128016181Y-90179155D01*
X127996610Y-90204209D01*
X127986565Y-90248170D01*
X127982553Y-90323157D01*
X127981526Y-90394101D01*
X127977555Y-90506789D01*
X127967723Y-90574811D01*
X127951037Y-90604273D01*
X127947105Y-90605988D01*
X127912892Y-90594811D01*
X127905825Y-90580784D01*
X127901282Y-90539982D01*
X127897320Y-90463307D01*
X127894674Y-90365891D01*
X127894374Y-90345752D01*
X127891284Y-90248987D01*
X127885403Y-90172876D01*
X127877877Y-90131050D01*
X127876063Y-90127746D01*
X127850583Y-90133323D01*
X127804618Y-90167762D01*
X127781663Y-90189518D01*
X127733056Y-90246812D01*
X127707680Y-90306361D01*
X127696723Y-90390602D01*
X127695690Y-90408444D01*
X127687098Y-90494886D01*
X127671390Y-90537967D01*
X127653139Y-90546265D01*
X127629911Y-90538007D01*
X127615901Y-90511053D01*
X127610440Y-90457716D01*
X127612858Y-90370309D01*
X127622485Y-90241148D01*
X127624513Y-90217656D01*
X127637392Y-90097051D01*
X127651205Y-90023511D01*
X127666828Y-89993097D01*
X127674654Y-89992421D01*
X127697692Y-90023609D01*
G36*
X128758509Y-91161307D02*
G01*
X128851573Y-91224141D01*
X128911743Y-91315540D01*
X128936697Y-91428555D01*
X128924111Y-91556235D01*
X128871664Y-91691628D01*
X128839376Y-91745822D01*
X128746572Y-91847977D01*
X128636184Y-91904323D01*
X128514287Y-91913106D01*
X128391826Y-91875041D01*
X128307378Y-91806970D01*
X128247598Y-91707768D01*
X128222245Y-91595082D01*
X128222336Y-91568570D01*
X128222914Y-91565919D01*
X128324250Y-91571230D01*
X128339796Y-91677105D01*
X128391690Y-91757272D01*
X128469453Y-91805916D01*
X128562606Y-91817221D01*
X128660668Y-91785375D01*
X128683733Y-91770690D01*
X128769389Y-91680585D01*
X128824109Y-91558193D01*
X128841234Y-91452071D01*
X128828529Y-91347465D01*
X128777991Y-91276995D01*
X128690095Y-91241202D01*
X128651653Y-91237019D01*
X128538491Y-91254598D01*
X128441608Y-91314265D01*
X128369089Y-91407766D01*
X128329020Y-91526846D01*
X128324250Y-91571230D01*
X128222914Y-91565919D01*
X128248856Y-91447013D01*
X128309558Y-91332845D01*
X128394943Y-91236073D01*
X128495519Y-91166697D01*
X128601788Y-91134722D01*
X128634878Y-91133992D01*
X128758509Y-91161307D01*
G37*
X128758509Y-91161307D02*
X128851573Y-91224141D01*
X128911743Y-91315540D01*
X128936697Y-91428555D01*
X128924111Y-91556235D01*
X128871664Y-91691628D01*
X128839376Y-91745822D01*
X128746572Y-91847977D01*
X128636184Y-91904323D01*
X128514287Y-91913106D01*
X128391826Y-91875041D01*
X128307378Y-91806970D01*
X128247598Y-91707768D01*
X128222245Y-91595082D01*
X128222336Y-91568570D01*
X128222914Y-91565919D01*
X128324250Y-91571230D01*
X128339796Y-91677105D01*
X128391690Y-91757272D01*
X128469453Y-91805916D01*
X128562606Y-91817221D01*
X128660668Y-91785375D01*
X128683733Y-91770690D01*
X128769389Y-91680585D01*
X128824109Y-91558193D01*
X128841234Y-91452071D01*
X128828529Y-91347465D01*
X128777991Y-91276995D01*
X128690095Y-91241202D01*
X128651653Y-91237019D01*
X128538491Y-91254598D01*
X128441608Y-91314265D01*
X128369089Y-91407766D01*
X128329020Y-91526846D01*
X128324250Y-91571230D01*
X128222914Y-91565919D01*
X128248856Y-91447013D01*
X128309558Y-91332845D01*
X128394943Y-91236073D01*
X128495519Y-91166697D01*
X128601788Y-91134722D01*
X128634878Y-91133992D01*
X128758509Y-91161307D01*
G36*
X127671982Y-91099566D02*
G01*
X127752119Y-91137875D01*
X127837169Y-91185239D01*
X127914697Y-91235142D01*
X127972260Y-91281067D01*
X127977698Y-91286476D01*
X128051822Y-91391702D01*
X128088701Y-91507944D01*
X128089303Y-91624329D01*
X128054599Y-91729978D01*
X127985559Y-91814016D01*
X127927430Y-91849825D01*
X127843268Y-91870728D01*
X127735217Y-91875740D01*
X127627709Y-91865285D01*
X127552288Y-91843319D01*
X127531146Y-91831314D01*
X127517193Y-91812931D01*
X127509847Y-91779814D01*
X127508529Y-91723611D01*
X127512655Y-91635965D01*
X127521648Y-91508521D01*
X127524547Y-91470045D01*
X127614270Y-91474747D01*
X127608903Y-91614374D01*
X127610179Y-91708481D01*
X127618362Y-91762151D01*
X127630221Y-91779463D01*
X127717111Y-91798435D01*
X127818490Y-91790578D01*
X127879938Y-91771009D01*
X127954944Y-91711496D01*
X127998615Y-91624056D01*
X128005362Y-91524787D01*
X127987318Y-91461581D01*
X127926903Y-91377628D01*
X127824891Y-91292888D01*
X127697920Y-91218601D01*
X127629479Y-91184544D01*
X127614270Y-91474747D01*
X127524547Y-91470045D01*
X127525478Y-91457699D01*
X127536875Y-91326638D01*
X127549455Y-91213796D01*
X127561921Y-91128947D01*
X127572970Y-91081869D01*
X127576207Y-91076173D01*
X127609199Y-91076826D01*
X127671982Y-91099566D01*
G37*
X127671982Y-91099566D02*
X127752119Y-91137875D01*
X127837169Y-91185239D01*
X127914697Y-91235142D01*
X127972260Y-91281067D01*
X127977698Y-91286476D01*
X128051822Y-91391702D01*
X128088701Y-91507944D01*
X128089303Y-91624329D01*
X128054599Y-91729978D01*
X127985559Y-91814016D01*
X127927430Y-91849825D01*
X127843268Y-91870728D01*
X127735217Y-91875740D01*
X127627709Y-91865285D01*
X127552288Y-91843319D01*
X127531146Y-91831314D01*
X127517193Y-91812931D01*
X127509847Y-91779814D01*
X127508529Y-91723611D01*
X127512655Y-91635965D01*
X127521648Y-91508521D01*
X127524547Y-91470045D01*
X127614270Y-91474747D01*
X127608903Y-91614374D01*
X127610179Y-91708481D01*
X127618362Y-91762151D01*
X127630221Y-91779463D01*
X127717111Y-91798435D01*
X127818490Y-91790578D01*
X127879938Y-91771009D01*
X127954944Y-91711496D01*
X127998615Y-91624056D01*
X128005362Y-91524787D01*
X127987318Y-91461581D01*
X127926903Y-91377628D01*
X127824891Y-91292888D01*
X127697920Y-91218601D01*
X127629479Y-91184544D01*
X127614270Y-91474747D01*
X127524547Y-91470045D01*
X127525478Y-91457699D01*
X127536875Y-91326638D01*
X127549455Y-91213796D01*
X127561921Y-91128947D01*
X127572970Y-91081869D01*
X127576207Y-91076173D01*
X127609199Y-91076826D01*
X127671982Y-91099566D01*
G36*
X127862143Y-92435614D02*
G01*
X127864352Y-92464108D01*
X127837959Y-92506037D01*
X127799708Y-92514372D01*
X127782241Y-92502887D01*
X127766489Y-92458248D01*
X127791081Y-92425095D01*
X127822010Y-92419316D01*
X127862143Y-92435614D01*
G37*
X127862143Y-92435614D02*
X127864352Y-92464108D01*
X127837959Y-92506037D01*
X127799708Y-92514372D01*
X127782241Y-92502887D01*
X127766489Y-92458248D01*
X127791081Y-92425095D01*
X127822010Y-92419316D01*
X127862143Y-92435614D01*
G36*
X128269473Y-92434765D02*
G01*
X128323447Y-92439282D01*
X128466793Y-92451973D01*
X128566349Y-92462760D01*
X128629189Y-92473467D01*
X128662391Y-92485916D01*
X128673031Y-92501929D01*
X128668184Y-92523329D01*
X128666347Y-92527594D01*
X128643749Y-92550153D01*
X128595318Y-92557801D01*
X128509214Y-92552362D01*
X128507011Y-92552131D01*
X128365258Y-92537166D01*
X128356543Y-92846643D01*
X128349822Y-92999811D01*
X128339702Y-93105553D01*
X128326345Y-93162449D01*
X128319225Y-93171790D01*
X128290761Y-93181279D01*
X128287433Y-93179404D01*
X128285357Y-93152337D01*
X128281991Y-93084254D01*
X128277782Y-92985115D01*
X128273179Y-92864879D01*
X128272694Y-92851527D01*
X128261145Y-92531709D01*
X128140583Y-92517607D01*
X128064972Y-92504630D01*
X128029359Y-92485269D01*
X128022370Y-92458695D01*
X128027560Y-92439909D01*
X128046395Y-92428670D01*
X128087345Y-92424430D01*
X128158881Y-92426644D01*
X128269473Y-92434765D01*
G37*
X128269473Y-92434765D02*
X128323447Y-92439282D01*
X128466793Y-92451973D01*
X128566349Y-92462760D01*
X128629189Y-92473467D01*
X128662391Y-92485916D01*
X128673031Y-92501929D01*
X128668184Y-92523329D01*
X128666347Y-92527594D01*
X128643749Y-92550153D01*
X128595318Y-92557801D01*
X128509214Y-92552362D01*
X128507011Y-92552131D01*
X128365258Y-92537166D01*
X128356543Y-92846643D01*
X128349822Y-92999811D01*
X128339702Y-93105553D01*
X128326345Y-93162449D01*
X128319225Y-93171790D01*
X128290761Y-93181279D01*
X128287433Y-93179404D01*
X128285357Y-93152337D01*
X128281991Y-93084254D01*
X128277782Y-92985115D01*
X128273179Y-92864879D01*
X128272694Y-92851527D01*
X128261145Y-92531709D01*
X128140583Y-92517607D01*
X128064972Y-92504630D01*
X128029359Y-92485269D01*
X128022370Y-92458695D01*
X128027560Y-92439909D01*
X128046395Y-92428670D01*
X128087345Y-92424430D01*
X128158881Y-92426644D01*
X128269473Y-92434765D01*
G36*
X127815987Y-92658537D02*
G01*
X127823965Y-92693511D01*
X127824251Y-92761100D01*
X127817355Y-92869500D01*
X127815248Y-92895711D01*
X127801987Y-93021124D01*
X127786463Y-93106590D01*
X127769642Y-93147158D01*
X127765639Y-93149632D01*
X127744465Y-93132555D01*
X127730967Y-93076315D01*
X127729540Y-93060431D01*
X127728244Y-92960779D01*
X127735844Y-92857679D01*
X127750229Y-92763507D01*
X127769291Y-92690640D01*
X127790921Y-92651456D01*
X127799806Y-92647985D01*
X127815987Y-92658537D01*
G37*
X127815987Y-92658537D02*
X127823965Y-92693511D01*
X127824251Y-92761100D01*
X127817355Y-92869500D01*
X127815248Y-92895711D01*
X127801987Y-93021124D01*
X127786463Y-93106590D01*
X127769642Y-93147158D01*
X127765639Y-93149632D01*
X127744465Y-93132555D01*
X127730967Y-93076315D01*
X127729540Y-93060431D01*
X127728244Y-92960779D01*
X127735844Y-92857679D01*
X127750229Y-92763507D01*
X127769291Y-92690640D01*
X127790921Y-92651456D01*
X127799806Y-92647985D01*
X127815987Y-92658537D01*
D10*
X125270000Y-97818000D02*
X131270000Y-97818000D01*
X131270000Y-101318000D02*
X125270000Y-101318000D01*
X131270000Y-101318000D02*
X131270000Y-97818000D01*
X125270000Y-97818000D02*
X125270000Y-101318000D01*
X125270000Y-100568000D02*
X124020000Y-100568000D01*
X124020000Y-100568000D02*
X124020000Y-98568000D01*
X124020000Y-98568000D02*
X125270000Y-98568000D01*
X132520000Y-100568000D02*
X131270000Y-100568000D01*
X131270000Y-98568000D02*
X132520000Y-98568000D01*
X132520000Y-98568000D02*
X132520000Y-100568000D01*
D12*
X130870000Y-94682000D02*
X130870000Y-96012000D01*
X129540000Y-94682000D02*
X130870000Y-94682000D01*
X128270000Y-94682000D02*
X128270000Y-97342000D01*
X128270000Y-97342000D02*
X125670000Y-97342000D01*
X128270000Y-94682000D02*
X125670000Y-94682000D01*
X125670000Y-94682000D02*
X125670000Y-97342000D01*
X129970000Y-77242500D02*
X129970000Y-76792500D01*
X129970000Y-77242500D02*
X129520000Y-77242500D01*
X124370000Y-76692500D02*
X124820000Y-76692500D01*
X124370000Y-74842500D02*
X124370000Y-76692500D01*
X132170000Y-72292500D02*
X132170000Y-72542500D01*
X124370000Y-72292500D02*
X124370000Y-72542500D01*
X132170000Y-74842500D02*
X132170000Y-76692500D01*
X132170000Y-76692500D02*
X131720000Y-76692500D01*
D10*
X127595380Y-102814380D02*
X127262047Y-102338190D01*
X127023952Y-102814380D02*
X127023952Y-101814380D01*
X127404904Y-101814380D01*
X127500142Y-101862000D01*
X127547761Y-101909619D01*
X127595380Y-102004857D01*
X127595380Y-102147714D01*
X127547761Y-102242952D01*
X127500142Y-102290571D01*
X127404904Y-102338190D01*
X127023952Y-102338190D01*
X127976333Y-102766761D02*
X128119190Y-102814380D01*
X128357285Y-102814380D01*
X128452523Y-102766761D01*
X128500142Y-102719142D01*
X128547761Y-102623904D01*
X128547761Y-102528666D01*
X128500142Y-102433428D01*
X128452523Y-102385809D01*
X128357285Y-102338190D01*
X128166809Y-102290571D01*
X128071571Y-102242952D01*
X128023952Y-102195333D01*
X127976333Y-102100095D01*
X127976333Y-102004857D01*
X128023952Y-101909619D01*
X128071571Y-101862000D01*
X128166809Y-101814380D01*
X128404904Y-101814380D01*
X128547761Y-101862000D01*
X128833476Y-101814380D02*
X129404904Y-101814380D01*
X129119190Y-102814380D02*
X129119190Y-101814380D01*
M02*
