G04 #@! TF.GenerationSoftware,KiCad,Pcbnew,(5.1.5)-3*
G04 #@! TF.CreationDate,2020-12-19T00:41:02-05:00*
G04 #@! TF.ProjectId,STM32_Breakout,53544d33-325f-4427-9265-616b6f75742e,rev?*
G04 #@! TF.SameCoordinates,Original*
G04 #@! TF.FileFunction,Soldermask,Bot*
G04 #@! TF.FilePolarity,Negative*
%FSLAX46Y46*%
G04 Gerber Fmt 4.6, Leading zero omitted, Abs format (unit mm)*
G04 Created by KiCad (PCBNEW (5.1.5)-3) date 2020-12-19 00:41:02*
%MOMM*%
%LPD*%
G04 APERTURE LIST*
%ADD10C,0.100000*%
G04 APERTURE END LIST*
D10*
G36*
X134733512Y-103243927D02*
G01*
X134882812Y-103273624D01*
X135046784Y-103341544D01*
X135194354Y-103440147D01*
X135319853Y-103565646D01*
X135418456Y-103713216D01*
X135486376Y-103877188D01*
X135521000Y-104051259D01*
X135521000Y-104228741D01*
X135486376Y-104402812D01*
X135418456Y-104566784D01*
X135319853Y-104714354D01*
X135194354Y-104839853D01*
X135046784Y-104938456D01*
X134882812Y-105006376D01*
X134733512Y-105036073D01*
X134708742Y-105041000D01*
X134531258Y-105041000D01*
X134506488Y-105036073D01*
X134357188Y-105006376D01*
X134193216Y-104938456D01*
X134045646Y-104839853D01*
X133920147Y-104714354D01*
X133821544Y-104566784D01*
X133753624Y-104402812D01*
X133719000Y-104228741D01*
X133719000Y-104051259D01*
X133753624Y-103877188D01*
X133821544Y-103713216D01*
X133920147Y-103565646D01*
X134045646Y-103440147D01*
X134193216Y-103341544D01*
X134357188Y-103273624D01*
X134506488Y-103243927D01*
X134531258Y-103239000D01*
X134708742Y-103239000D01*
X134733512Y-103243927D01*
G37*
G36*
X122033512Y-103243927D02*
G01*
X122182812Y-103273624D01*
X122346784Y-103341544D01*
X122494354Y-103440147D01*
X122619853Y-103565646D01*
X122718456Y-103713216D01*
X122786376Y-103877188D01*
X122821000Y-104051259D01*
X122821000Y-104228741D01*
X122786376Y-104402812D01*
X122718456Y-104566784D01*
X122619853Y-104714354D01*
X122494354Y-104839853D01*
X122346784Y-104938456D01*
X122182812Y-105006376D01*
X122033512Y-105036073D01*
X122008742Y-105041000D01*
X121831258Y-105041000D01*
X121806488Y-105036073D01*
X121657188Y-105006376D01*
X121493216Y-104938456D01*
X121345646Y-104839853D01*
X121220147Y-104714354D01*
X121121544Y-104566784D01*
X121053624Y-104402812D01*
X121019000Y-104228741D01*
X121019000Y-104051259D01*
X121053624Y-103877188D01*
X121121544Y-103713216D01*
X121220147Y-103565646D01*
X121345646Y-103440147D01*
X121493216Y-103341544D01*
X121657188Y-103273624D01*
X121806488Y-103243927D01*
X121831258Y-103239000D01*
X122008742Y-103239000D01*
X122033512Y-103243927D01*
G37*
G36*
X125422674Y-103393465D02*
G01*
X125460367Y-103404899D01*
X125495103Y-103423466D01*
X125525548Y-103448452D01*
X125550534Y-103478897D01*
X125569101Y-103513633D01*
X125580535Y-103551326D01*
X125585000Y-103596661D01*
X125585000Y-104683339D01*
X125580535Y-104728674D01*
X125569101Y-104766367D01*
X125550534Y-104801103D01*
X125525548Y-104831548D01*
X125495103Y-104856534D01*
X125460367Y-104875101D01*
X125422674Y-104886535D01*
X125377339Y-104891000D01*
X124540661Y-104891000D01*
X124495326Y-104886535D01*
X124457633Y-104875101D01*
X124422897Y-104856534D01*
X124392452Y-104831548D01*
X124367466Y-104801103D01*
X124348899Y-104766367D01*
X124337465Y-104728674D01*
X124333000Y-104683339D01*
X124333000Y-103596661D01*
X124337465Y-103551326D01*
X124348899Y-103513633D01*
X124367466Y-103478897D01*
X124392452Y-103448452D01*
X124422897Y-103423466D01*
X124457633Y-103404899D01*
X124495326Y-103393465D01*
X124540661Y-103389000D01*
X125377339Y-103389000D01*
X125422674Y-103393465D01*
G37*
G36*
X127472674Y-103393465D02*
G01*
X127510367Y-103404899D01*
X127545103Y-103423466D01*
X127575548Y-103448452D01*
X127600534Y-103478897D01*
X127619101Y-103513633D01*
X127630535Y-103551326D01*
X127635000Y-103596661D01*
X127635000Y-104683339D01*
X127630535Y-104728674D01*
X127619101Y-104766367D01*
X127600534Y-104801103D01*
X127575548Y-104831548D01*
X127545103Y-104856534D01*
X127510367Y-104875101D01*
X127472674Y-104886535D01*
X127427339Y-104891000D01*
X126590661Y-104891000D01*
X126545326Y-104886535D01*
X126507633Y-104875101D01*
X126472897Y-104856534D01*
X126442452Y-104831548D01*
X126417466Y-104801103D01*
X126398899Y-104766367D01*
X126387465Y-104728674D01*
X126383000Y-104683339D01*
X126383000Y-103596661D01*
X126387465Y-103551326D01*
X126398899Y-103513633D01*
X126417466Y-103478897D01*
X126442452Y-103448452D01*
X126472897Y-103423466D01*
X126507633Y-103404899D01*
X126545326Y-103393465D01*
X126590661Y-103389000D01*
X127427339Y-103389000D01*
X127472674Y-103393465D01*
G37*
G36*
X129994674Y-103393465D02*
G01*
X130032367Y-103404899D01*
X130067103Y-103423466D01*
X130097548Y-103448452D01*
X130122534Y-103478897D01*
X130141101Y-103513633D01*
X130152535Y-103551326D01*
X130157000Y-103596661D01*
X130157000Y-104683339D01*
X130152535Y-104728674D01*
X130141101Y-104766367D01*
X130122534Y-104801103D01*
X130097548Y-104831548D01*
X130067103Y-104856534D01*
X130032367Y-104875101D01*
X129994674Y-104886535D01*
X129949339Y-104891000D01*
X129112661Y-104891000D01*
X129067326Y-104886535D01*
X129029633Y-104875101D01*
X128994897Y-104856534D01*
X128964452Y-104831548D01*
X128939466Y-104801103D01*
X128920899Y-104766367D01*
X128909465Y-104728674D01*
X128905000Y-104683339D01*
X128905000Y-103596661D01*
X128909465Y-103551326D01*
X128920899Y-103513633D01*
X128939466Y-103478897D01*
X128964452Y-103448452D01*
X128994897Y-103423466D01*
X129029633Y-103404899D01*
X129067326Y-103393465D01*
X129112661Y-103389000D01*
X129949339Y-103389000D01*
X129994674Y-103393465D01*
G37*
G36*
X132044674Y-103393465D02*
G01*
X132082367Y-103404899D01*
X132117103Y-103423466D01*
X132147548Y-103448452D01*
X132172534Y-103478897D01*
X132191101Y-103513633D01*
X132202535Y-103551326D01*
X132207000Y-103596661D01*
X132207000Y-104683339D01*
X132202535Y-104728674D01*
X132191101Y-104766367D01*
X132172534Y-104801103D01*
X132147548Y-104831548D01*
X132117103Y-104856534D01*
X132082367Y-104875101D01*
X132044674Y-104886535D01*
X131999339Y-104891000D01*
X131162661Y-104891000D01*
X131117326Y-104886535D01*
X131079633Y-104875101D01*
X131044897Y-104856534D01*
X131014452Y-104831548D01*
X130989466Y-104801103D01*
X130970899Y-104766367D01*
X130959465Y-104728674D01*
X130955000Y-104683339D01*
X130955000Y-103596661D01*
X130959465Y-103551326D01*
X130970899Y-103513633D01*
X130989466Y-103478897D01*
X131014452Y-103448452D01*
X131044897Y-103423466D01*
X131079633Y-103404899D01*
X131117326Y-103393465D01*
X131162661Y-103389000D01*
X131999339Y-103389000D01*
X132044674Y-103393465D01*
G37*
G36*
X129994674Y-101361465D02*
G01*
X130032367Y-101372899D01*
X130067103Y-101391466D01*
X130097548Y-101416452D01*
X130122534Y-101446897D01*
X130141101Y-101481633D01*
X130152535Y-101519326D01*
X130157000Y-101564661D01*
X130157000Y-102651339D01*
X130152535Y-102696674D01*
X130141101Y-102734367D01*
X130122534Y-102769103D01*
X130097548Y-102799548D01*
X130067103Y-102824534D01*
X130032367Y-102843101D01*
X129994674Y-102854535D01*
X129949339Y-102859000D01*
X129112661Y-102859000D01*
X129067326Y-102854535D01*
X129029633Y-102843101D01*
X128994897Y-102824534D01*
X128964452Y-102799548D01*
X128939466Y-102769103D01*
X128920899Y-102734367D01*
X128909465Y-102696674D01*
X128905000Y-102651339D01*
X128905000Y-101564661D01*
X128909465Y-101519326D01*
X128920899Y-101481633D01*
X128939466Y-101446897D01*
X128964452Y-101416452D01*
X128994897Y-101391466D01*
X129029633Y-101372899D01*
X129067326Y-101361465D01*
X129112661Y-101357000D01*
X129949339Y-101357000D01*
X129994674Y-101361465D01*
G37*
G36*
X132044674Y-101361465D02*
G01*
X132082367Y-101372899D01*
X132117103Y-101391466D01*
X132147548Y-101416452D01*
X132172534Y-101446897D01*
X132191101Y-101481633D01*
X132202535Y-101519326D01*
X132207000Y-101564661D01*
X132207000Y-102651339D01*
X132202535Y-102696674D01*
X132191101Y-102734367D01*
X132172534Y-102769103D01*
X132147548Y-102799548D01*
X132117103Y-102824534D01*
X132082367Y-102843101D01*
X132044674Y-102854535D01*
X131999339Y-102859000D01*
X131162661Y-102859000D01*
X131117326Y-102854535D01*
X131079633Y-102843101D01*
X131044897Y-102824534D01*
X131014452Y-102799548D01*
X130989466Y-102769103D01*
X130970899Y-102734367D01*
X130959465Y-102696674D01*
X130955000Y-102651339D01*
X130955000Y-101564661D01*
X130959465Y-101519326D01*
X130970899Y-101481633D01*
X130989466Y-101446897D01*
X131014452Y-101416452D01*
X131044897Y-101391466D01*
X131079633Y-101372899D01*
X131117326Y-101361465D01*
X131162661Y-101357000D01*
X131999339Y-101357000D01*
X132044674Y-101361465D01*
G37*
G36*
X127472674Y-101361465D02*
G01*
X127510367Y-101372899D01*
X127545103Y-101391466D01*
X127575548Y-101416452D01*
X127600534Y-101446897D01*
X127619101Y-101481633D01*
X127630535Y-101519326D01*
X127635000Y-101564661D01*
X127635000Y-102651339D01*
X127630535Y-102696674D01*
X127619101Y-102734367D01*
X127600534Y-102769103D01*
X127575548Y-102799548D01*
X127545103Y-102824534D01*
X127510367Y-102843101D01*
X127472674Y-102854535D01*
X127427339Y-102859000D01*
X126590661Y-102859000D01*
X126545326Y-102854535D01*
X126507633Y-102843101D01*
X126472897Y-102824534D01*
X126442452Y-102799548D01*
X126417466Y-102769103D01*
X126398899Y-102734367D01*
X126387465Y-102696674D01*
X126383000Y-102651339D01*
X126383000Y-101564661D01*
X126387465Y-101519326D01*
X126398899Y-101481633D01*
X126417466Y-101446897D01*
X126442452Y-101416452D01*
X126472897Y-101391466D01*
X126507633Y-101372899D01*
X126545326Y-101361465D01*
X126590661Y-101357000D01*
X127427339Y-101357000D01*
X127472674Y-101361465D01*
G37*
G36*
X125422674Y-101361465D02*
G01*
X125460367Y-101372899D01*
X125495103Y-101391466D01*
X125525548Y-101416452D01*
X125550534Y-101446897D01*
X125569101Y-101481633D01*
X125580535Y-101519326D01*
X125585000Y-101564661D01*
X125585000Y-102651339D01*
X125580535Y-102696674D01*
X125569101Y-102734367D01*
X125550534Y-102769103D01*
X125525548Y-102799548D01*
X125495103Y-102824534D01*
X125460367Y-102843101D01*
X125422674Y-102854535D01*
X125377339Y-102859000D01*
X124540661Y-102859000D01*
X124495326Y-102854535D01*
X124457633Y-102843101D01*
X124422897Y-102824534D01*
X124392452Y-102799548D01*
X124367466Y-102769103D01*
X124348899Y-102734367D01*
X124337465Y-102696674D01*
X124333000Y-102651339D01*
X124333000Y-101564661D01*
X124337465Y-101519326D01*
X124348899Y-101481633D01*
X124367466Y-101446897D01*
X124392452Y-101416452D01*
X124422897Y-101391466D01*
X124457633Y-101372899D01*
X124495326Y-101361465D01*
X124540661Y-101357000D01*
X125377339Y-101357000D01*
X125422674Y-101361465D01*
G37*
G36*
X122033512Y-100703927D02*
G01*
X122182812Y-100733624D01*
X122346784Y-100801544D01*
X122494354Y-100900147D01*
X122619853Y-101025646D01*
X122718456Y-101173216D01*
X122786376Y-101337188D01*
X122821000Y-101511259D01*
X122821000Y-101688741D01*
X122786376Y-101862812D01*
X122718456Y-102026784D01*
X122619853Y-102174354D01*
X122494354Y-102299853D01*
X122346784Y-102398456D01*
X122182812Y-102466376D01*
X122033512Y-102496073D01*
X122008742Y-102501000D01*
X121831258Y-102501000D01*
X121806488Y-102496073D01*
X121657188Y-102466376D01*
X121493216Y-102398456D01*
X121345646Y-102299853D01*
X121220147Y-102174354D01*
X121121544Y-102026784D01*
X121053624Y-101862812D01*
X121019000Y-101688741D01*
X121019000Y-101511259D01*
X121053624Y-101337188D01*
X121121544Y-101173216D01*
X121220147Y-101025646D01*
X121345646Y-100900147D01*
X121493216Y-100801544D01*
X121657188Y-100733624D01*
X121806488Y-100703927D01*
X121831258Y-100699000D01*
X122008742Y-100699000D01*
X122033512Y-100703927D01*
G37*
G36*
X134733512Y-100703927D02*
G01*
X134882812Y-100733624D01*
X135046784Y-100801544D01*
X135194354Y-100900147D01*
X135319853Y-101025646D01*
X135418456Y-101173216D01*
X135486376Y-101337188D01*
X135521000Y-101511259D01*
X135521000Y-101688741D01*
X135486376Y-101862812D01*
X135418456Y-102026784D01*
X135319853Y-102174354D01*
X135194354Y-102299853D01*
X135046784Y-102398456D01*
X134882812Y-102466376D01*
X134733512Y-102496073D01*
X134708742Y-102501000D01*
X134531258Y-102501000D01*
X134506488Y-102496073D01*
X134357188Y-102466376D01*
X134193216Y-102398456D01*
X134045646Y-102299853D01*
X133920147Y-102174354D01*
X133821544Y-102026784D01*
X133753624Y-101862812D01*
X133719000Y-101688741D01*
X133719000Y-101511259D01*
X133753624Y-101337188D01*
X133821544Y-101173216D01*
X133920147Y-101025646D01*
X134045646Y-100900147D01*
X134193216Y-100801544D01*
X134357188Y-100733624D01*
X134506488Y-100703927D01*
X134531258Y-100699000D01*
X134708742Y-100699000D01*
X134733512Y-100703927D01*
G37*
G36*
X130128674Y-99717465D02*
G01*
X130166367Y-99728899D01*
X130201103Y-99747466D01*
X130231548Y-99772452D01*
X130256534Y-99802897D01*
X130275101Y-99837633D01*
X130286535Y-99875326D01*
X130291000Y-99920661D01*
X130291000Y-100757339D01*
X130286535Y-100802674D01*
X130275101Y-100840367D01*
X130256534Y-100875103D01*
X130231548Y-100905548D01*
X130201103Y-100930534D01*
X130166367Y-100949101D01*
X130128674Y-100960535D01*
X130083339Y-100965000D01*
X128996661Y-100965000D01*
X128951326Y-100960535D01*
X128913633Y-100949101D01*
X128878897Y-100930534D01*
X128848452Y-100905548D01*
X128823466Y-100875103D01*
X128804899Y-100840367D01*
X128793465Y-100802674D01*
X128789000Y-100757339D01*
X128789000Y-99920661D01*
X128793465Y-99875326D01*
X128804899Y-99837633D01*
X128823466Y-99802897D01*
X128848452Y-99772452D01*
X128878897Y-99747466D01*
X128913633Y-99728899D01*
X128951326Y-99717465D01*
X128996661Y-99713000D01*
X130083339Y-99713000D01*
X130128674Y-99717465D01*
G37*
G36*
X127588674Y-99717465D02*
G01*
X127626367Y-99728899D01*
X127661103Y-99747466D01*
X127691548Y-99772452D01*
X127716534Y-99802897D01*
X127735101Y-99837633D01*
X127746535Y-99875326D01*
X127751000Y-99920661D01*
X127751000Y-100757339D01*
X127746535Y-100802674D01*
X127735101Y-100840367D01*
X127716534Y-100875103D01*
X127691548Y-100905548D01*
X127661103Y-100930534D01*
X127626367Y-100949101D01*
X127588674Y-100960535D01*
X127543339Y-100965000D01*
X126456661Y-100965000D01*
X126411326Y-100960535D01*
X126373633Y-100949101D01*
X126338897Y-100930534D01*
X126308452Y-100905548D01*
X126283466Y-100875103D01*
X126264899Y-100840367D01*
X126253465Y-100802674D01*
X126249000Y-100757339D01*
X126249000Y-99920661D01*
X126253465Y-99875326D01*
X126264899Y-99837633D01*
X126283466Y-99802897D01*
X126308452Y-99772452D01*
X126338897Y-99747466D01*
X126373633Y-99728899D01*
X126411326Y-99717465D01*
X126456661Y-99713000D01*
X127543339Y-99713000D01*
X127588674Y-99717465D01*
G37*
G36*
X131790104Y-98677585D02*
G01*
X131958626Y-98747389D01*
X132110291Y-98848728D01*
X132239272Y-98977709D01*
X132340611Y-99129374D01*
X132410415Y-99297896D01*
X132446000Y-99476797D01*
X132446000Y-99659203D01*
X132410415Y-99838104D01*
X132340611Y-100006626D01*
X132239272Y-100158291D01*
X132110291Y-100287272D01*
X131958626Y-100388611D01*
X131790104Y-100458415D01*
X131611203Y-100494000D01*
X131428797Y-100494000D01*
X131249896Y-100458415D01*
X131081374Y-100388611D01*
X130929709Y-100287272D01*
X130800728Y-100158291D01*
X130699389Y-100006626D01*
X130629585Y-99838104D01*
X130594000Y-99659203D01*
X130594000Y-99476797D01*
X130629585Y-99297896D01*
X130699389Y-99129374D01*
X130800728Y-98977709D01*
X130929709Y-98848728D01*
X131081374Y-98747389D01*
X131249896Y-98677585D01*
X131428797Y-98642000D01*
X131611203Y-98642000D01*
X131790104Y-98677585D01*
G37*
G36*
X125290104Y-98677585D02*
G01*
X125458626Y-98747389D01*
X125610291Y-98848728D01*
X125739272Y-98977709D01*
X125840611Y-99129374D01*
X125910415Y-99297896D01*
X125946000Y-99476797D01*
X125946000Y-99659203D01*
X125910415Y-99838104D01*
X125840611Y-100006626D01*
X125739272Y-100158291D01*
X125610291Y-100287272D01*
X125458626Y-100388611D01*
X125290104Y-100458415D01*
X125111203Y-100494000D01*
X124928797Y-100494000D01*
X124749896Y-100458415D01*
X124581374Y-100388611D01*
X124429709Y-100287272D01*
X124300728Y-100158291D01*
X124199389Y-100006626D01*
X124129585Y-99838104D01*
X124094000Y-99659203D01*
X124094000Y-99476797D01*
X124129585Y-99297896D01*
X124199389Y-99129374D01*
X124300728Y-98977709D01*
X124429709Y-98848728D01*
X124581374Y-98747389D01*
X124749896Y-98677585D01*
X124928797Y-98642000D01*
X125111203Y-98642000D01*
X125290104Y-98677585D01*
G37*
G36*
X134733512Y-98163927D02*
G01*
X134882812Y-98193624D01*
X135046784Y-98261544D01*
X135194354Y-98360147D01*
X135319853Y-98485646D01*
X135418456Y-98633216D01*
X135486376Y-98797188D01*
X135521000Y-98971259D01*
X135521000Y-99148741D01*
X135486376Y-99322812D01*
X135418456Y-99486784D01*
X135319853Y-99634354D01*
X135194354Y-99759853D01*
X135046784Y-99858456D01*
X134882812Y-99926376D01*
X134733512Y-99956073D01*
X134708742Y-99961000D01*
X134531258Y-99961000D01*
X134506488Y-99956073D01*
X134357188Y-99926376D01*
X134193216Y-99858456D01*
X134045646Y-99759853D01*
X133920147Y-99634354D01*
X133821544Y-99486784D01*
X133753624Y-99322812D01*
X133719000Y-99148741D01*
X133719000Y-98971259D01*
X133753624Y-98797188D01*
X133821544Y-98633216D01*
X133920147Y-98485646D01*
X134045646Y-98360147D01*
X134193216Y-98261544D01*
X134357188Y-98193624D01*
X134506488Y-98163927D01*
X134531258Y-98159000D01*
X134708742Y-98159000D01*
X134733512Y-98163927D01*
G37*
G36*
X122033512Y-98163927D02*
G01*
X122182812Y-98193624D01*
X122346784Y-98261544D01*
X122494354Y-98360147D01*
X122619853Y-98485646D01*
X122718456Y-98633216D01*
X122786376Y-98797188D01*
X122821000Y-98971259D01*
X122821000Y-99148741D01*
X122786376Y-99322812D01*
X122718456Y-99486784D01*
X122619853Y-99634354D01*
X122494354Y-99759853D01*
X122346784Y-99858456D01*
X122182812Y-99926376D01*
X122033512Y-99956073D01*
X122008742Y-99961000D01*
X121831258Y-99961000D01*
X121806488Y-99956073D01*
X121657188Y-99926376D01*
X121493216Y-99858456D01*
X121345646Y-99759853D01*
X121220147Y-99634354D01*
X121121544Y-99486784D01*
X121053624Y-99322812D01*
X121019000Y-99148741D01*
X121019000Y-98971259D01*
X121053624Y-98797188D01*
X121121544Y-98633216D01*
X121220147Y-98485646D01*
X121345646Y-98360147D01*
X121493216Y-98261544D01*
X121657188Y-98193624D01*
X121806488Y-98163927D01*
X121831258Y-98159000D01*
X122008742Y-98159000D01*
X122033512Y-98163927D01*
G37*
G36*
X130128674Y-97667465D02*
G01*
X130166367Y-97678899D01*
X130201103Y-97697466D01*
X130231548Y-97722452D01*
X130256534Y-97752897D01*
X130275101Y-97787633D01*
X130286535Y-97825326D01*
X130291000Y-97870661D01*
X130291000Y-98707339D01*
X130286535Y-98752674D01*
X130275101Y-98790367D01*
X130256534Y-98825103D01*
X130231548Y-98855548D01*
X130201103Y-98880534D01*
X130166367Y-98899101D01*
X130128674Y-98910535D01*
X130083339Y-98915000D01*
X128996661Y-98915000D01*
X128951326Y-98910535D01*
X128913633Y-98899101D01*
X128878897Y-98880534D01*
X128848452Y-98855548D01*
X128823466Y-98825103D01*
X128804899Y-98790367D01*
X128793465Y-98752674D01*
X128789000Y-98707339D01*
X128789000Y-97870661D01*
X128793465Y-97825326D01*
X128804899Y-97787633D01*
X128823466Y-97752897D01*
X128848452Y-97722452D01*
X128878897Y-97697466D01*
X128913633Y-97678899D01*
X128951326Y-97667465D01*
X128996661Y-97663000D01*
X130083339Y-97663000D01*
X130128674Y-97667465D01*
G37*
G36*
X127588674Y-97667465D02*
G01*
X127626367Y-97678899D01*
X127661103Y-97697466D01*
X127691548Y-97722452D01*
X127716534Y-97752897D01*
X127735101Y-97787633D01*
X127746535Y-97825326D01*
X127751000Y-97870661D01*
X127751000Y-98707339D01*
X127746535Y-98752674D01*
X127735101Y-98790367D01*
X127716534Y-98825103D01*
X127691548Y-98855548D01*
X127661103Y-98880534D01*
X127626367Y-98899101D01*
X127588674Y-98910535D01*
X127543339Y-98915000D01*
X126456661Y-98915000D01*
X126411326Y-98910535D01*
X126373633Y-98899101D01*
X126338897Y-98880534D01*
X126308452Y-98855548D01*
X126283466Y-98825103D01*
X126264899Y-98790367D01*
X126253465Y-98752674D01*
X126249000Y-98707339D01*
X126249000Y-97870661D01*
X126253465Y-97825326D01*
X126264899Y-97787633D01*
X126283466Y-97752897D01*
X126308452Y-97722452D01*
X126338897Y-97697466D01*
X126373633Y-97678899D01*
X126411326Y-97667465D01*
X126456661Y-97663000D01*
X127543339Y-97663000D01*
X127588674Y-97667465D01*
G37*
G36*
X122033512Y-95623927D02*
G01*
X122182812Y-95653624D01*
X122346784Y-95721544D01*
X122494354Y-95820147D01*
X122619853Y-95945646D01*
X122718456Y-96093216D01*
X122786376Y-96257188D01*
X122821000Y-96431259D01*
X122821000Y-96608741D01*
X122786376Y-96782812D01*
X122718456Y-96946784D01*
X122619853Y-97094354D01*
X122494354Y-97219853D01*
X122346784Y-97318456D01*
X122182812Y-97386376D01*
X122033512Y-97416073D01*
X122008742Y-97421000D01*
X121831258Y-97421000D01*
X121806488Y-97416073D01*
X121657188Y-97386376D01*
X121493216Y-97318456D01*
X121345646Y-97219853D01*
X121220147Y-97094354D01*
X121121544Y-96946784D01*
X121053624Y-96782812D01*
X121019000Y-96608741D01*
X121019000Y-96431259D01*
X121053624Y-96257188D01*
X121121544Y-96093216D01*
X121220147Y-95945646D01*
X121345646Y-95820147D01*
X121493216Y-95721544D01*
X121657188Y-95653624D01*
X121806488Y-95623927D01*
X121831258Y-95619000D01*
X122008742Y-95619000D01*
X122033512Y-95623927D01*
G37*
G36*
X134733512Y-95623927D02*
G01*
X134882812Y-95653624D01*
X135046784Y-95721544D01*
X135194354Y-95820147D01*
X135319853Y-95945646D01*
X135418456Y-96093216D01*
X135486376Y-96257188D01*
X135521000Y-96431259D01*
X135521000Y-96608741D01*
X135486376Y-96782812D01*
X135418456Y-96946784D01*
X135319853Y-97094354D01*
X135194354Y-97219853D01*
X135046784Y-97318456D01*
X134882812Y-97386376D01*
X134733512Y-97416073D01*
X134708742Y-97421000D01*
X134531258Y-97421000D01*
X134506488Y-97416073D01*
X134357188Y-97386376D01*
X134193216Y-97318456D01*
X134045646Y-97219853D01*
X133920147Y-97094354D01*
X133821544Y-96946784D01*
X133753624Y-96782812D01*
X133719000Y-96608741D01*
X133719000Y-96431259D01*
X133753624Y-96257188D01*
X133821544Y-96093216D01*
X133920147Y-95945646D01*
X134045646Y-95820147D01*
X134193216Y-95721544D01*
X134357188Y-95653624D01*
X134506488Y-95623927D01*
X134531258Y-95619000D01*
X134708742Y-95619000D01*
X134733512Y-95623927D01*
G37*
G36*
X130441000Y-96913000D02*
G01*
X128639000Y-96913000D01*
X128639000Y-95111000D01*
X130441000Y-95111000D01*
X130441000Y-96913000D01*
G37*
G36*
X127113512Y-95115927D02*
G01*
X127262812Y-95145624D01*
X127426784Y-95213544D01*
X127574354Y-95312147D01*
X127699853Y-95437646D01*
X127798456Y-95585216D01*
X127866376Y-95749188D01*
X127901000Y-95923259D01*
X127901000Y-96100741D01*
X127866376Y-96274812D01*
X127798456Y-96438784D01*
X127699853Y-96586354D01*
X127574354Y-96711853D01*
X127426784Y-96810456D01*
X127262812Y-96878376D01*
X127113512Y-96908073D01*
X127088742Y-96913000D01*
X126911258Y-96913000D01*
X126886488Y-96908073D01*
X126737188Y-96878376D01*
X126573216Y-96810456D01*
X126425646Y-96711853D01*
X126300147Y-96586354D01*
X126201544Y-96438784D01*
X126133624Y-96274812D01*
X126099000Y-96100741D01*
X126099000Y-95923259D01*
X126133624Y-95749188D01*
X126201544Y-95585216D01*
X126300147Y-95437646D01*
X126425646Y-95312147D01*
X126573216Y-95213544D01*
X126737188Y-95145624D01*
X126886488Y-95115927D01*
X126911258Y-95111000D01*
X127088742Y-95111000D01*
X127113512Y-95115927D01*
G37*
G36*
X134733512Y-93083927D02*
G01*
X134882812Y-93113624D01*
X135046784Y-93181544D01*
X135194354Y-93280147D01*
X135319853Y-93405646D01*
X135418456Y-93553216D01*
X135486376Y-93717188D01*
X135521000Y-93891259D01*
X135521000Y-94068741D01*
X135486376Y-94242812D01*
X135418456Y-94406784D01*
X135319853Y-94554354D01*
X135194354Y-94679853D01*
X135046784Y-94778456D01*
X134882812Y-94846376D01*
X134733512Y-94876073D01*
X134708742Y-94881000D01*
X134531258Y-94881000D01*
X134506488Y-94876073D01*
X134357188Y-94846376D01*
X134193216Y-94778456D01*
X134045646Y-94679853D01*
X133920147Y-94554354D01*
X133821544Y-94406784D01*
X133753624Y-94242812D01*
X133719000Y-94068741D01*
X133719000Y-93891259D01*
X133753624Y-93717188D01*
X133821544Y-93553216D01*
X133920147Y-93405646D01*
X134045646Y-93280147D01*
X134193216Y-93181544D01*
X134357188Y-93113624D01*
X134506488Y-93083927D01*
X134531258Y-93079000D01*
X134708742Y-93079000D01*
X134733512Y-93083927D01*
G37*
G36*
X122033512Y-93083927D02*
G01*
X122182812Y-93113624D01*
X122346784Y-93181544D01*
X122494354Y-93280147D01*
X122619853Y-93405646D01*
X122718456Y-93553216D01*
X122786376Y-93717188D01*
X122821000Y-93891259D01*
X122821000Y-94068741D01*
X122786376Y-94242812D01*
X122718456Y-94406784D01*
X122619853Y-94554354D01*
X122494354Y-94679853D01*
X122346784Y-94778456D01*
X122182812Y-94846376D01*
X122033512Y-94876073D01*
X122008742Y-94881000D01*
X121831258Y-94881000D01*
X121806488Y-94876073D01*
X121657188Y-94846376D01*
X121493216Y-94778456D01*
X121345646Y-94679853D01*
X121220147Y-94554354D01*
X121121544Y-94406784D01*
X121053624Y-94242812D01*
X121019000Y-94068741D01*
X121019000Y-93891259D01*
X121053624Y-93717188D01*
X121121544Y-93553216D01*
X121220147Y-93405646D01*
X121345646Y-93280147D01*
X121493216Y-93181544D01*
X121657188Y-93113624D01*
X121806488Y-93083927D01*
X121831258Y-93079000D01*
X122008742Y-93079000D01*
X122033512Y-93083927D01*
G37*
G36*
X132552674Y-92344465D02*
G01*
X132590367Y-92355899D01*
X132625103Y-92374466D01*
X132655548Y-92399452D01*
X132680534Y-92429897D01*
X132699101Y-92464633D01*
X132710535Y-92502326D01*
X132715000Y-92547661D01*
X132715000Y-93634339D01*
X132710535Y-93679674D01*
X132699101Y-93717367D01*
X132680534Y-93752103D01*
X132655548Y-93782548D01*
X132625103Y-93807534D01*
X132590367Y-93826101D01*
X132552674Y-93837535D01*
X132507339Y-93842000D01*
X131670661Y-93842000D01*
X131625326Y-93837535D01*
X131587633Y-93826101D01*
X131552897Y-93807534D01*
X131522452Y-93782548D01*
X131497466Y-93752103D01*
X131478899Y-93717367D01*
X131467465Y-93679674D01*
X131463000Y-93634339D01*
X131463000Y-92547661D01*
X131467465Y-92502326D01*
X131478899Y-92464633D01*
X131497466Y-92429897D01*
X131522452Y-92399452D01*
X131552897Y-92374466D01*
X131587633Y-92355899D01*
X131625326Y-92344465D01*
X131670661Y-92340000D01*
X132507339Y-92340000D01*
X132552674Y-92344465D01*
G37*
G36*
X126964674Y-92344465D02*
G01*
X127002367Y-92355899D01*
X127037103Y-92374466D01*
X127067548Y-92399452D01*
X127092534Y-92429897D01*
X127111101Y-92464633D01*
X127122535Y-92502326D01*
X127127000Y-92547661D01*
X127127000Y-93634339D01*
X127122535Y-93679674D01*
X127111101Y-93717367D01*
X127092534Y-93752103D01*
X127067548Y-93782548D01*
X127037103Y-93807534D01*
X127002367Y-93826101D01*
X126964674Y-93837535D01*
X126919339Y-93842000D01*
X126082661Y-93842000D01*
X126037326Y-93837535D01*
X125999633Y-93826101D01*
X125964897Y-93807534D01*
X125934452Y-93782548D01*
X125909466Y-93752103D01*
X125890899Y-93717367D01*
X125879465Y-93679674D01*
X125875000Y-93634339D01*
X125875000Y-92547661D01*
X125879465Y-92502326D01*
X125890899Y-92464633D01*
X125909466Y-92429897D01*
X125934452Y-92399452D01*
X125964897Y-92374466D01*
X125999633Y-92355899D01*
X126037326Y-92344465D01*
X126082661Y-92340000D01*
X126919339Y-92340000D01*
X126964674Y-92344465D01*
G37*
G36*
X124914674Y-92344465D02*
G01*
X124952367Y-92355899D01*
X124987103Y-92374466D01*
X125017548Y-92399452D01*
X125042534Y-92429897D01*
X125061101Y-92464633D01*
X125072535Y-92502326D01*
X125077000Y-92547661D01*
X125077000Y-93634339D01*
X125072535Y-93679674D01*
X125061101Y-93717367D01*
X125042534Y-93752103D01*
X125017548Y-93782548D01*
X124987103Y-93807534D01*
X124952367Y-93826101D01*
X124914674Y-93837535D01*
X124869339Y-93842000D01*
X124032661Y-93842000D01*
X123987326Y-93837535D01*
X123949633Y-93826101D01*
X123914897Y-93807534D01*
X123884452Y-93782548D01*
X123859466Y-93752103D01*
X123840899Y-93717367D01*
X123829465Y-93679674D01*
X123825000Y-93634339D01*
X123825000Y-92547661D01*
X123829465Y-92502326D01*
X123840899Y-92464633D01*
X123859466Y-92429897D01*
X123884452Y-92399452D01*
X123914897Y-92374466D01*
X123949633Y-92355899D01*
X123987326Y-92344465D01*
X124032661Y-92340000D01*
X124869339Y-92340000D01*
X124914674Y-92344465D01*
G37*
G36*
X130502674Y-92344465D02*
G01*
X130540367Y-92355899D01*
X130575103Y-92374466D01*
X130605548Y-92399452D01*
X130630534Y-92429897D01*
X130649101Y-92464633D01*
X130660535Y-92502326D01*
X130665000Y-92547661D01*
X130665000Y-93634339D01*
X130660535Y-93679674D01*
X130649101Y-93717367D01*
X130630534Y-93752103D01*
X130605548Y-93782548D01*
X130575103Y-93807534D01*
X130540367Y-93826101D01*
X130502674Y-93837535D01*
X130457339Y-93842000D01*
X129620661Y-93842000D01*
X129575326Y-93837535D01*
X129537633Y-93826101D01*
X129502897Y-93807534D01*
X129472452Y-93782548D01*
X129447466Y-93752103D01*
X129428899Y-93717367D01*
X129417465Y-93679674D01*
X129413000Y-93634339D01*
X129413000Y-92547661D01*
X129417465Y-92502326D01*
X129428899Y-92464633D01*
X129447466Y-92429897D01*
X129472452Y-92399452D01*
X129502897Y-92374466D01*
X129537633Y-92355899D01*
X129575326Y-92344465D01*
X129620661Y-92340000D01*
X130457339Y-92340000D01*
X130502674Y-92344465D01*
G37*
G36*
X134733512Y-90543927D02*
G01*
X134882812Y-90573624D01*
X135046784Y-90641544D01*
X135194354Y-90740147D01*
X135319853Y-90865646D01*
X135418456Y-91013216D01*
X135486376Y-91177188D01*
X135521000Y-91351259D01*
X135521000Y-91528741D01*
X135486376Y-91702812D01*
X135418456Y-91866784D01*
X135319853Y-92014354D01*
X135194354Y-92139853D01*
X135046784Y-92238456D01*
X134882812Y-92306376D01*
X134733512Y-92336073D01*
X134708742Y-92341000D01*
X134531258Y-92341000D01*
X134506488Y-92336073D01*
X134357188Y-92306376D01*
X134193216Y-92238456D01*
X134045646Y-92139853D01*
X133920147Y-92014354D01*
X133821544Y-91866784D01*
X133753624Y-91702812D01*
X133719000Y-91528741D01*
X133719000Y-91351259D01*
X133753624Y-91177188D01*
X133821544Y-91013216D01*
X133920147Y-90865646D01*
X134045646Y-90740147D01*
X134193216Y-90641544D01*
X134357188Y-90573624D01*
X134506488Y-90543927D01*
X134531258Y-90539000D01*
X134708742Y-90539000D01*
X134733512Y-90543927D01*
G37*
G36*
X122033512Y-90543927D02*
G01*
X122182812Y-90573624D01*
X122346784Y-90641544D01*
X122494354Y-90740147D01*
X122619853Y-90865646D01*
X122718456Y-91013216D01*
X122786376Y-91177188D01*
X122821000Y-91351259D01*
X122821000Y-91528741D01*
X122786376Y-91702812D01*
X122718456Y-91866784D01*
X122619853Y-92014354D01*
X122494354Y-92139853D01*
X122346784Y-92238456D01*
X122182812Y-92306376D01*
X122033512Y-92336073D01*
X122008742Y-92341000D01*
X121831258Y-92341000D01*
X121806488Y-92336073D01*
X121657188Y-92306376D01*
X121493216Y-92238456D01*
X121345646Y-92139853D01*
X121220147Y-92014354D01*
X121121544Y-91866784D01*
X121053624Y-91702812D01*
X121019000Y-91528741D01*
X121019000Y-91351259D01*
X121053624Y-91177188D01*
X121121544Y-91013216D01*
X121220147Y-90865646D01*
X121345646Y-90740147D01*
X121493216Y-90641544D01*
X121657188Y-90573624D01*
X121806488Y-90543927D01*
X121831258Y-90539000D01*
X122008742Y-90539000D01*
X122033512Y-90543927D01*
G37*
G36*
X131996000Y-91593000D02*
G01*
X130444000Y-91593000D01*
X130444000Y-85191000D01*
X131996000Y-85191000D01*
X131996000Y-91593000D01*
G37*
G36*
X126096000Y-91593000D02*
G01*
X124544000Y-91593000D01*
X124544000Y-85191000D01*
X126096000Y-85191000D01*
X126096000Y-91593000D01*
G37*
G36*
X134733512Y-88003927D02*
G01*
X134882812Y-88033624D01*
X135046784Y-88101544D01*
X135194354Y-88200147D01*
X135319853Y-88325646D01*
X135418456Y-88473216D01*
X135486376Y-88637188D01*
X135521000Y-88811259D01*
X135521000Y-88988741D01*
X135486376Y-89162812D01*
X135418456Y-89326784D01*
X135319853Y-89474354D01*
X135194354Y-89599853D01*
X135046784Y-89698456D01*
X134882812Y-89766376D01*
X134733512Y-89796073D01*
X134708742Y-89801000D01*
X134531258Y-89801000D01*
X134506488Y-89796073D01*
X134357188Y-89766376D01*
X134193216Y-89698456D01*
X134045646Y-89599853D01*
X133920147Y-89474354D01*
X133821544Y-89326784D01*
X133753624Y-89162812D01*
X133719000Y-88988741D01*
X133719000Y-88811259D01*
X133753624Y-88637188D01*
X133821544Y-88473216D01*
X133920147Y-88325646D01*
X134045646Y-88200147D01*
X134193216Y-88101544D01*
X134357188Y-88033624D01*
X134506488Y-88003927D01*
X134531258Y-87999000D01*
X134708742Y-87999000D01*
X134733512Y-88003927D01*
G37*
G36*
X122033512Y-88003927D02*
G01*
X122182812Y-88033624D01*
X122346784Y-88101544D01*
X122494354Y-88200147D01*
X122619853Y-88325646D01*
X122718456Y-88473216D01*
X122786376Y-88637188D01*
X122821000Y-88811259D01*
X122821000Y-88988741D01*
X122786376Y-89162812D01*
X122718456Y-89326784D01*
X122619853Y-89474354D01*
X122494354Y-89599853D01*
X122346784Y-89698456D01*
X122182812Y-89766376D01*
X122033512Y-89796073D01*
X122008742Y-89801000D01*
X121831258Y-89801000D01*
X121806488Y-89796073D01*
X121657188Y-89766376D01*
X121493216Y-89698456D01*
X121345646Y-89599853D01*
X121220147Y-89474354D01*
X121121544Y-89326784D01*
X121053624Y-89162812D01*
X121019000Y-88988741D01*
X121019000Y-88811259D01*
X121053624Y-88637188D01*
X121121544Y-88473216D01*
X121220147Y-88325646D01*
X121345646Y-88200147D01*
X121493216Y-88101544D01*
X121657188Y-88033624D01*
X121806488Y-88003927D01*
X121831258Y-87999000D01*
X122008742Y-87999000D01*
X122033512Y-88003927D01*
G37*
G36*
X134733512Y-85463927D02*
G01*
X134882812Y-85493624D01*
X135046784Y-85561544D01*
X135194354Y-85660147D01*
X135319853Y-85785646D01*
X135418456Y-85933216D01*
X135486376Y-86097188D01*
X135521000Y-86271259D01*
X135521000Y-86448741D01*
X135486376Y-86622812D01*
X135418456Y-86786784D01*
X135319853Y-86934354D01*
X135194354Y-87059853D01*
X135046784Y-87158456D01*
X134882812Y-87226376D01*
X134733512Y-87256073D01*
X134708742Y-87261000D01*
X134531258Y-87261000D01*
X134506488Y-87256073D01*
X134357188Y-87226376D01*
X134193216Y-87158456D01*
X134045646Y-87059853D01*
X133920147Y-86934354D01*
X133821544Y-86786784D01*
X133753624Y-86622812D01*
X133719000Y-86448741D01*
X133719000Y-86271259D01*
X133753624Y-86097188D01*
X133821544Y-85933216D01*
X133920147Y-85785646D01*
X134045646Y-85660147D01*
X134193216Y-85561544D01*
X134357188Y-85493624D01*
X134506488Y-85463927D01*
X134531258Y-85459000D01*
X134708742Y-85459000D01*
X134733512Y-85463927D01*
G37*
G36*
X122033512Y-85463927D02*
G01*
X122182812Y-85493624D01*
X122346784Y-85561544D01*
X122494354Y-85660147D01*
X122619853Y-85785646D01*
X122718456Y-85933216D01*
X122786376Y-86097188D01*
X122821000Y-86271259D01*
X122821000Y-86448741D01*
X122786376Y-86622812D01*
X122718456Y-86786784D01*
X122619853Y-86934354D01*
X122494354Y-87059853D01*
X122346784Y-87158456D01*
X122182812Y-87226376D01*
X122033512Y-87256073D01*
X122008742Y-87261000D01*
X121831258Y-87261000D01*
X121806488Y-87256073D01*
X121657188Y-87226376D01*
X121493216Y-87158456D01*
X121345646Y-87059853D01*
X121220147Y-86934354D01*
X121121544Y-86786784D01*
X121053624Y-86622812D01*
X121019000Y-86448741D01*
X121019000Y-86271259D01*
X121053624Y-86097188D01*
X121121544Y-85933216D01*
X121220147Y-85785646D01*
X121345646Y-85660147D01*
X121493216Y-85561544D01*
X121657188Y-85493624D01*
X121806488Y-85463927D01*
X121831258Y-85459000D01*
X122008742Y-85459000D01*
X122033512Y-85463927D01*
G37*
G36*
X122033512Y-82923927D02*
G01*
X122182812Y-82953624D01*
X122346784Y-83021544D01*
X122494354Y-83120147D01*
X122619853Y-83245646D01*
X122718456Y-83393216D01*
X122786376Y-83557188D01*
X122821000Y-83731259D01*
X122821000Y-83908741D01*
X122786376Y-84082812D01*
X122718456Y-84246784D01*
X122619853Y-84394354D01*
X122494354Y-84519853D01*
X122346784Y-84618456D01*
X122182812Y-84686376D01*
X122033512Y-84716073D01*
X122008742Y-84721000D01*
X121831258Y-84721000D01*
X121806488Y-84716073D01*
X121657188Y-84686376D01*
X121493216Y-84618456D01*
X121345646Y-84519853D01*
X121220147Y-84394354D01*
X121121544Y-84246784D01*
X121053624Y-84082812D01*
X121019000Y-83908741D01*
X121019000Y-83731259D01*
X121053624Y-83557188D01*
X121121544Y-83393216D01*
X121220147Y-83245646D01*
X121345646Y-83120147D01*
X121493216Y-83021544D01*
X121657188Y-82953624D01*
X121806488Y-82923927D01*
X121831258Y-82919000D01*
X122008742Y-82919000D01*
X122033512Y-82923927D01*
G37*
G36*
X134733512Y-82923927D02*
G01*
X134882812Y-82953624D01*
X135046784Y-83021544D01*
X135194354Y-83120147D01*
X135319853Y-83245646D01*
X135418456Y-83393216D01*
X135486376Y-83557188D01*
X135521000Y-83731259D01*
X135521000Y-83908741D01*
X135486376Y-84082812D01*
X135418456Y-84246784D01*
X135319853Y-84394354D01*
X135194354Y-84519853D01*
X135046784Y-84618456D01*
X134882812Y-84686376D01*
X134733512Y-84716073D01*
X134708742Y-84721000D01*
X134531258Y-84721000D01*
X134506488Y-84716073D01*
X134357188Y-84686376D01*
X134193216Y-84618456D01*
X134045646Y-84519853D01*
X133920147Y-84394354D01*
X133821544Y-84246784D01*
X133753624Y-84082812D01*
X133719000Y-83908741D01*
X133719000Y-83731259D01*
X133753624Y-83557188D01*
X133821544Y-83393216D01*
X133920147Y-83245646D01*
X134045646Y-83120147D01*
X134193216Y-83021544D01*
X134357188Y-82953624D01*
X134506488Y-82923927D01*
X134531258Y-82919000D01*
X134708742Y-82919000D01*
X134733512Y-82923927D01*
G37*
G36*
X127696000Y-84231000D02*
G01*
X126944000Y-84231000D01*
X126944000Y-83069000D01*
X127696000Y-83069000D01*
X127696000Y-84231000D01*
G37*
G36*
X129596000Y-84231000D02*
G01*
X128844000Y-84231000D01*
X128844000Y-83069000D01*
X129596000Y-83069000D01*
X129596000Y-84231000D01*
G37*
G36*
X125683674Y-82953465D02*
G01*
X125721367Y-82964899D01*
X125756103Y-82983466D01*
X125786548Y-83008452D01*
X125811534Y-83038897D01*
X125830101Y-83073633D01*
X125841535Y-83111326D01*
X125846000Y-83156661D01*
X125846000Y-83993339D01*
X125841535Y-84038674D01*
X125830101Y-84076367D01*
X125811534Y-84111103D01*
X125786548Y-84141548D01*
X125756103Y-84166534D01*
X125721367Y-84185101D01*
X125683674Y-84196535D01*
X125638339Y-84201000D01*
X124551661Y-84201000D01*
X124506326Y-84196535D01*
X124468633Y-84185101D01*
X124433897Y-84166534D01*
X124403452Y-84141548D01*
X124378466Y-84111103D01*
X124359899Y-84076367D01*
X124348465Y-84038674D01*
X124344000Y-83993339D01*
X124344000Y-83156661D01*
X124348465Y-83111326D01*
X124359899Y-83073633D01*
X124378466Y-83038897D01*
X124403452Y-83008452D01*
X124433897Y-82983466D01*
X124468633Y-82964899D01*
X124506326Y-82953465D01*
X124551661Y-82949000D01*
X125638339Y-82949000D01*
X125683674Y-82953465D01*
G37*
G36*
X132033674Y-82953465D02*
G01*
X132071367Y-82964899D01*
X132106103Y-82983466D01*
X132136548Y-83008452D01*
X132161534Y-83038897D01*
X132180101Y-83073633D01*
X132191535Y-83111326D01*
X132196000Y-83156661D01*
X132196000Y-83993339D01*
X132191535Y-84038674D01*
X132180101Y-84076367D01*
X132161534Y-84111103D01*
X132136548Y-84141548D01*
X132106103Y-84166534D01*
X132071367Y-84185101D01*
X132033674Y-84196535D01*
X131988339Y-84201000D01*
X130901661Y-84201000D01*
X130856326Y-84196535D01*
X130818633Y-84185101D01*
X130783897Y-84166534D01*
X130753452Y-84141548D01*
X130728466Y-84111103D01*
X130709899Y-84076367D01*
X130698465Y-84038674D01*
X130694000Y-83993339D01*
X130694000Y-83156661D01*
X130698465Y-83111326D01*
X130709899Y-83073633D01*
X130728466Y-83038897D01*
X130753452Y-83008452D01*
X130783897Y-82983466D01*
X130818633Y-82964899D01*
X130856326Y-82953465D01*
X130901661Y-82949000D01*
X131988339Y-82949000D01*
X132033674Y-82953465D01*
G37*
G36*
X134733512Y-80383927D02*
G01*
X134882812Y-80413624D01*
X135046784Y-80481544D01*
X135194354Y-80580147D01*
X135319853Y-80705646D01*
X135418456Y-80853216D01*
X135486376Y-81017188D01*
X135521000Y-81191259D01*
X135521000Y-81368741D01*
X135486376Y-81542812D01*
X135418456Y-81706784D01*
X135319853Y-81854354D01*
X135194354Y-81979853D01*
X135046784Y-82078456D01*
X134882812Y-82146376D01*
X134733512Y-82176073D01*
X134708742Y-82181000D01*
X134531258Y-82181000D01*
X134506488Y-82176073D01*
X134357188Y-82146376D01*
X134193216Y-82078456D01*
X134045646Y-81979853D01*
X133920147Y-81854354D01*
X133821544Y-81706784D01*
X133753624Y-81542812D01*
X133719000Y-81368741D01*
X133719000Y-81191259D01*
X133753624Y-81017188D01*
X133821544Y-80853216D01*
X133920147Y-80705646D01*
X134045646Y-80580147D01*
X134193216Y-80481544D01*
X134357188Y-80413624D01*
X134506488Y-80383927D01*
X134531258Y-80379000D01*
X134708742Y-80379000D01*
X134733512Y-80383927D01*
G37*
G36*
X122033512Y-80383927D02*
G01*
X122182812Y-80413624D01*
X122346784Y-80481544D01*
X122494354Y-80580147D01*
X122619853Y-80705646D01*
X122718456Y-80853216D01*
X122786376Y-81017188D01*
X122821000Y-81191259D01*
X122821000Y-81368741D01*
X122786376Y-81542812D01*
X122718456Y-81706784D01*
X122619853Y-81854354D01*
X122494354Y-81979853D01*
X122346784Y-82078456D01*
X122182812Y-82146376D01*
X122033512Y-82176073D01*
X122008742Y-82181000D01*
X121831258Y-82181000D01*
X121806488Y-82176073D01*
X121657188Y-82146376D01*
X121493216Y-82078456D01*
X121345646Y-81979853D01*
X121220147Y-81854354D01*
X121121544Y-81706784D01*
X121053624Y-81542812D01*
X121019000Y-81368741D01*
X121019000Y-81191259D01*
X121053624Y-81017188D01*
X121121544Y-80853216D01*
X121220147Y-80705646D01*
X121345646Y-80580147D01*
X121493216Y-80481544D01*
X121657188Y-80413624D01*
X121806488Y-80383927D01*
X121831258Y-80379000D01*
X122008742Y-80379000D01*
X122033512Y-80383927D01*
G37*
G36*
X125683674Y-80903465D02*
G01*
X125721367Y-80914899D01*
X125756103Y-80933466D01*
X125786548Y-80958452D01*
X125811534Y-80988897D01*
X125830101Y-81023633D01*
X125841535Y-81061326D01*
X125846000Y-81106661D01*
X125846000Y-81943339D01*
X125841535Y-81988674D01*
X125830101Y-82026367D01*
X125811534Y-82061103D01*
X125786548Y-82091548D01*
X125756103Y-82116534D01*
X125721367Y-82135101D01*
X125683674Y-82146535D01*
X125638339Y-82151000D01*
X124551661Y-82151000D01*
X124506326Y-82146535D01*
X124468633Y-82135101D01*
X124433897Y-82116534D01*
X124403452Y-82091548D01*
X124378466Y-82061103D01*
X124359899Y-82026367D01*
X124348465Y-81988674D01*
X124344000Y-81943339D01*
X124344000Y-81106661D01*
X124348465Y-81061326D01*
X124359899Y-81023633D01*
X124378466Y-80988897D01*
X124403452Y-80958452D01*
X124433897Y-80933466D01*
X124468633Y-80914899D01*
X124506326Y-80903465D01*
X124551661Y-80899000D01*
X125638339Y-80899000D01*
X125683674Y-80903465D01*
G37*
G36*
X132033674Y-80903465D02*
G01*
X132071367Y-80914899D01*
X132106103Y-80933466D01*
X132136548Y-80958452D01*
X132161534Y-80988897D01*
X132180101Y-81023633D01*
X132191535Y-81061326D01*
X132196000Y-81106661D01*
X132196000Y-81943339D01*
X132191535Y-81988674D01*
X132180101Y-82026367D01*
X132161534Y-82061103D01*
X132136548Y-82091548D01*
X132106103Y-82116534D01*
X132071367Y-82135101D01*
X132033674Y-82146535D01*
X131988339Y-82151000D01*
X130901661Y-82151000D01*
X130856326Y-82146535D01*
X130818633Y-82135101D01*
X130783897Y-82116534D01*
X130753452Y-82091548D01*
X130728466Y-82061103D01*
X130709899Y-82026367D01*
X130698465Y-81988674D01*
X130694000Y-81943339D01*
X130694000Y-81106661D01*
X130698465Y-81061326D01*
X130709899Y-81023633D01*
X130728466Y-80988897D01*
X130753452Y-80958452D01*
X130783897Y-80933466D01*
X130818633Y-80914899D01*
X130856326Y-80903465D01*
X130901661Y-80899000D01*
X131988339Y-80899000D01*
X132033674Y-80903465D01*
G37*
G36*
X129596000Y-82031000D02*
G01*
X126944000Y-82031000D01*
X126944000Y-80869000D01*
X129596000Y-80869000D01*
X129596000Y-82031000D01*
G37*
G36*
X134733512Y-77843927D02*
G01*
X134882812Y-77873624D01*
X135046784Y-77941544D01*
X135194354Y-78040147D01*
X135319853Y-78165646D01*
X135418456Y-78313216D01*
X135486376Y-78477188D01*
X135521000Y-78651259D01*
X135521000Y-78828741D01*
X135486376Y-79002812D01*
X135418456Y-79166784D01*
X135319853Y-79314354D01*
X135194354Y-79439853D01*
X135046784Y-79538456D01*
X134882812Y-79606376D01*
X134733512Y-79636073D01*
X134708742Y-79641000D01*
X134531258Y-79641000D01*
X134506488Y-79636073D01*
X134357188Y-79606376D01*
X134193216Y-79538456D01*
X134045646Y-79439853D01*
X133920147Y-79314354D01*
X133821544Y-79166784D01*
X133753624Y-79002812D01*
X133719000Y-78828741D01*
X133719000Y-78651259D01*
X133753624Y-78477188D01*
X133821544Y-78313216D01*
X133920147Y-78165646D01*
X134045646Y-78040147D01*
X134193216Y-77941544D01*
X134357188Y-77873624D01*
X134506488Y-77843927D01*
X134531258Y-77839000D01*
X134708742Y-77839000D01*
X134733512Y-77843927D01*
G37*
G36*
X122033512Y-77843927D02*
G01*
X122182812Y-77873624D01*
X122346784Y-77941544D01*
X122494354Y-78040147D01*
X122619853Y-78165646D01*
X122718456Y-78313216D01*
X122786376Y-78477188D01*
X122821000Y-78651259D01*
X122821000Y-78828741D01*
X122786376Y-79002812D01*
X122718456Y-79166784D01*
X122619853Y-79314354D01*
X122494354Y-79439853D01*
X122346784Y-79538456D01*
X122182812Y-79606376D01*
X122033512Y-79636073D01*
X122008742Y-79641000D01*
X121831258Y-79641000D01*
X121806488Y-79636073D01*
X121657188Y-79606376D01*
X121493216Y-79538456D01*
X121345646Y-79439853D01*
X121220147Y-79314354D01*
X121121544Y-79166784D01*
X121053624Y-79002812D01*
X121019000Y-78828741D01*
X121019000Y-78651259D01*
X121053624Y-78477188D01*
X121121544Y-78313216D01*
X121220147Y-78165646D01*
X121345646Y-78040147D01*
X121493216Y-77941544D01*
X121657188Y-77873624D01*
X121806488Y-77843927D01*
X121831258Y-77839000D01*
X122008742Y-77839000D01*
X122033512Y-77843927D01*
G37*
G36*
X130996348Y-75646320D02*
G01*
X130996350Y-75646321D01*
X130996351Y-75646321D01*
X131137574Y-75704817D01*
X131137577Y-75704819D01*
X131264669Y-75789739D01*
X131372761Y-75897831D01*
X131457681Y-76024923D01*
X131457683Y-76024926D01*
X131516179Y-76166149D01*
X131546000Y-76316071D01*
X131546000Y-76468929D01*
X131516179Y-76618851D01*
X131457683Y-76760074D01*
X131457681Y-76760077D01*
X131372761Y-76887169D01*
X131264669Y-76995261D01*
X131137577Y-77080181D01*
X131137574Y-77080183D01*
X130996351Y-77138679D01*
X130996350Y-77138679D01*
X130996348Y-77138680D01*
X130846431Y-77168500D01*
X130693569Y-77168500D01*
X130543652Y-77138680D01*
X130543650Y-77138679D01*
X130543649Y-77138679D01*
X130402426Y-77080183D01*
X130402423Y-77080181D01*
X130275331Y-76995261D01*
X130167239Y-76887169D01*
X130082319Y-76760077D01*
X130082317Y-76760074D01*
X130023821Y-76618851D01*
X129994000Y-76468929D01*
X129994000Y-76316071D01*
X130023821Y-76166149D01*
X130082317Y-76024926D01*
X130082319Y-76024923D01*
X130167239Y-75897831D01*
X130275331Y-75789739D01*
X130402423Y-75704819D01*
X130402426Y-75704817D01*
X130543649Y-75646321D01*
X130543650Y-75646321D01*
X130543652Y-75646320D01*
X130693569Y-75616500D01*
X130846431Y-75616500D01*
X130996348Y-75646320D01*
G37*
G36*
X125996348Y-75646320D02*
G01*
X125996350Y-75646321D01*
X125996351Y-75646321D01*
X126137574Y-75704817D01*
X126137577Y-75704819D01*
X126264669Y-75789739D01*
X126372761Y-75897831D01*
X126457681Y-76024923D01*
X126457683Y-76024926D01*
X126516179Y-76166149D01*
X126546000Y-76316071D01*
X126546000Y-76468929D01*
X126516179Y-76618851D01*
X126457683Y-76760074D01*
X126457681Y-76760077D01*
X126372761Y-76887169D01*
X126264669Y-76995261D01*
X126137577Y-77080181D01*
X126137574Y-77080183D01*
X125996351Y-77138679D01*
X125996350Y-77138679D01*
X125996348Y-77138680D01*
X125846431Y-77168500D01*
X125693569Y-77168500D01*
X125543652Y-77138680D01*
X125543650Y-77138679D01*
X125543649Y-77138679D01*
X125402426Y-77080183D01*
X125402423Y-77080181D01*
X125275331Y-76995261D01*
X125167239Y-76887169D01*
X125082319Y-76760077D01*
X125082317Y-76760074D01*
X125023821Y-76618851D01*
X124994000Y-76468929D01*
X124994000Y-76316071D01*
X125023821Y-76166149D01*
X125082317Y-76024926D01*
X125082319Y-76024923D01*
X125167239Y-75897831D01*
X125275331Y-75789739D01*
X125402423Y-75704819D01*
X125402426Y-75704817D01*
X125543649Y-75646321D01*
X125543650Y-75646321D01*
X125543652Y-75646320D01*
X125693569Y-75616500D01*
X125846431Y-75616500D01*
X125996348Y-75646320D01*
G37*
G36*
X135521000Y-77101000D02*
G01*
X133719000Y-77101000D01*
X133719000Y-75299000D01*
X135521000Y-75299000D01*
X135521000Y-77101000D01*
G37*
G36*
X122821000Y-77101000D02*
G01*
X121019000Y-77101000D01*
X121019000Y-75299000D01*
X122821000Y-75299000D01*
X122821000Y-77101000D01*
G37*
G36*
X124897618Y-72700920D02*
G01*
X124988404Y-72728460D01*
X125020336Y-72738146D01*
X125133425Y-72798594D01*
X125232554Y-72879946D01*
X125313906Y-72979075D01*
X125374354Y-73092164D01*
X125384040Y-73124096D01*
X125411580Y-73214882D01*
X125421000Y-73310527D01*
X125421000Y-74074473D01*
X125411580Y-74170118D01*
X125384040Y-74260904D01*
X125374354Y-74292836D01*
X125313906Y-74405925D01*
X125232554Y-74505053D01*
X125133424Y-74586406D01*
X125020335Y-74646854D01*
X124988403Y-74656540D01*
X124897617Y-74684080D01*
X124770000Y-74696649D01*
X124642382Y-74684080D01*
X124551596Y-74656540D01*
X124519664Y-74646854D01*
X124406575Y-74586406D01*
X124307447Y-74505054D01*
X124226094Y-74405924D01*
X124165646Y-74292835D01*
X124155960Y-74260903D01*
X124128420Y-74170117D01*
X124119000Y-74074472D01*
X124119000Y-73310527D01*
X124128420Y-73214882D01*
X124165645Y-73092168D01*
X124190608Y-73045466D01*
X124226095Y-72979075D01*
X124307447Y-72879946D01*
X124406576Y-72798594D01*
X124519665Y-72738146D01*
X124551597Y-72728460D01*
X124642383Y-72700920D01*
X124770000Y-72688351D01*
X124897618Y-72700920D01*
G37*
G36*
X131897617Y-72700920D02*
G01*
X131988403Y-72728460D01*
X132020335Y-72738146D01*
X132133424Y-72798594D01*
X132232554Y-72879947D01*
X132313906Y-72979075D01*
X132374354Y-73092164D01*
X132384040Y-73124096D01*
X132411580Y-73214882D01*
X132421000Y-73310527D01*
X132421000Y-74074473D01*
X132411580Y-74170118D01*
X132384040Y-74260904D01*
X132374354Y-74292836D01*
X132313906Y-74405925D01*
X132232554Y-74505054D01*
X132133425Y-74586406D01*
X132020336Y-74646854D01*
X131988404Y-74656540D01*
X131897618Y-74684080D01*
X131770000Y-74696649D01*
X131642383Y-74684080D01*
X131551597Y-74656540D01*
X131519665Y-74646854D01*
X131406576Y-74586406D01*
X131307447Y-74505054D01*
X131226095Y-74405925D01*
X131165648Y-74292837D01*
X131165645Y-74292832D01*
X131128420Y-74170118D01*
X131119000Y-74074473D01*
X131119000Y-73310528D01*
X131128420Y-73214883D01*
X131165645Y-73092169D01*
X131165646Y-73092165D01*
X131226094Y-72979076D01*
X131307447Y-72879946D01*
X131406575Y-72798594D01*
X131519664Y-72738146D01*
X131551596Y-72728460D01*
X131642382Y-72700920D01*
X131770000Y-72688351D01*
X131897617Y-72700920D01*
G37*
M02*
